%TF.GenerationSoftware,KiCad,Pcbnew,10.0.1*%
%TF.CreationDate,2026-05-23T20:10:17+02:00*%
%TF.ProjectId,DigitalAmplifier,44696769-7461-46c4-916d-706c69666965,rev?*%
%TF.SameCoordinates,Original*%
%TF.FileFunction,Soldermask,Top*%
%TF.FilePolarity,Negative*%
%FSLAX46Y46*%
G04 Gerber Fmt 4.6, Leading zero omitted, Abs format (unit mm)*
G04 Created by KiCad (PCBNEW 10.0.1) date 2026-05-23 20:10:17*
%MOMM*%
%LPD*%
G01*
G04 APERTURE LIST*
G04 Aperture macros list*
%AMRoundRect*
0 Rectangle with rounded corners*
0 $1 Rounding radius*
0 $2 $3 $4 $5 $6 $7 $8 $9 X,Y pos of 4 corners*
0 Add a 4 corners polygon primitive as box body*
4,1,4,$2,$3,$4,$5,$6,$7,$8,$9,$2,$3,0*
0 Add four circle primitives for the rounded corners*
1,1,$1+$1,$2,$3*
1,1,$1+$1,$4,$5*
1,1,$1+$1,$6,$7*
1,1,$1+$1,$8,$9*
0 Add four rect primitives between the rounded corners*
20,1,$1+$1,$2,$3,$4,$5,0*
20,1,$1+$1,$4,$5,$6,$7,0*
20,1,$1+$1,$6,$7,$8,$9,0*
20,1,$1+$1,$8,$9,$2,$3,0*%
%AMFreePoly0*
4,1,23,0.550000,-0.750000,0.000000,-0.750000,0.000000,-0.745722,-0.065263,-0.745722,-0.191342,-0.711940,-0.304381,-0.646677,-0.396677,-0.554381,-0.461940,-0.441342,-0.495722,-0.315263,-0.495722,-0.250000,-0.500000,-0.250000,-0.500000,0.250000,-0.495722,0.250000,-0.495722,0.315263,-0.461940,0.441342,-0.396677,0.554381,-0.304381,0.646677,-0.191342,0.711940,-0.065263,0.745722,0.000000,0.745722,
0.000000,0.750000,0.550000,0.750000,0.550000,-0.750000,0.550000,-0.750000,$1*%
%AMFreePoly1*
4,1,23,0.000000,0.745722,0.065263,0.745722,0.191342,0.711940,0.304381,0.646677,0.396677,0.554381,0.461940,0.441342,0.495722,0.315263,0.495722,0.250000,0.500000,0.250000,0.500000,-0.250000,0.495722,-0.250000,0.495722,-0.315263,0.461940,-0.441342,0.396677,-0.554381,0.304381,-0.646677,0.191342,-0.711940,0.065263,-0.745722,0.000000,-0.745722,0.000000,-0.750000,-0.550000,-0.750000,
-0.550000,0.750000,0.000000,0.750000,0.000000,0.745722,0.000000,0.745722,$1*%
G04 Aperture macros list end*
%ADD10RoundRect,0.200000X-0.200000X-0.275000X0.200000X-0.275000X0.200000X0.275000X-0.200000X0.275000X0*%
%ADD11RoundRect,0.250000X0.475000X-0.250000X0.475000X0.250000X-0.475000X0.250000X-0.475000X-0.250000X0*%
%ADD12RoundRect,0.225000X0.225000X0.250000X-0.225000X0.250000X-0.225000X-0.250000X0.225000X-0.250000X0*%
%ADD13RoundRect,0.250000X-0.262500X-0.450000X0.262500X-0.450000X0.262500X0.450000X-0.262500X0.450000X0*%
%ADD14R,0.300000X1.300000*%
%ADD15R,1.800000X2.200000*%
%ADD16RoundRect,0.200000X0.200000X0.275000X-0.200000X0.275000X-0.200000X-0.275000X0.200000X-0.275000X0*%
%ADD17RoundRect,0.225000X-0.250000X0.225000X-0.250000X-0.225000X0.250000X-0.225000X0.250000X0.225000X0*%
%ADD18R,1.250000X1.800000*%
%ADD19R,1.150000X0.600000*%
%ADD20R,0.250000X0.270000*%
%ADD21RoundRect,0.250000X0.650000X-0.325000X0.650000X0.325000X-0.650000X0.325000X-0.650000X-0.325000X0*%
%ADD22RoundRect,0.250000X-0.650000X1.000000X-0.650000X-1.000000X0.650000X-1.000000X0.650000X1.000000X0*%
%ADD23RoundRect,0.102000X-0.700000X0.700000X-0.700000X-0.700000X0.700000X-0.700000X0.700000X0.700000X0*%
%ADD24C,1.604000*%
%ADD25RoundRect,0.150000X-0.825000X-0.150000X0.825000X-0.150000X0.825000X0.150000X-0.825000X0.150000X0*%
%ADD26RoundRect,0.225000X0.250000X-0.225000X0.250000X0.225000X-0.250000X0.225000X-0.250000X-0.225000X0*%
%ADD27C,1.905000*%
%ADD28R,2.790000X0.740000*%
%ADD29RoundRect,0.225000X-0.225000X-0.250000X0.225000X-0.250000X0.225000X0.250000X-0.225000X0.250000X0*%
%ADD30RoundRect,0.200000X-0.275000X0.200000X-0.275000X-0.200000X0.275000X-0.200000X0.275000X0.200000X0*%
%ADD31R,0.900000X1.500000*%
%ADD32R,1.500000X0.900000*%
%ADD33R,3.800000X3.800000*%
%ADD34RoundRect,0.250000X-0.450000X0.262500X-0.450000X-0.262500X0.450000X-0.262500X0.450000X0.262500X0*%
%ADD35R,1.800000X1.250000*%
%ADD36RoundRect,0.250000X-0.650000X0.325000X-0.650000X-0.325000X0.650000X-0.325000X0.650000X0.325000X0*%
%ADD37R,0.650000X0.850000*%
%ADD38C,8.000000*%
%ADD39RoundRect,0.250000X0.250000X0.475000X-0.250000X0.475000X-0.250000X-0.475000X0.250000X-0.475000X0*%
%ADD40RoundRect,0.160000X0.197500X0.160000X-0.197500X0.160000X-0.197500X-0.160000X0.197500X-0.160000X0*%
%ADD41RoundRect,0.200000X0.275000X-0.200000X0.275000X0.200000X-0.275000X0.200000X-0.275000X-0.200000X0*%
%ADD42R,3.810000X4.241800*%
%ADD43RoundRect,0.250000X-1.400000X-1.000000X1.400000X-1.000000X1.400000X1.000000X-1.400000X1.000000X0*%
%ADD44C,1.020000*%
%ADD45R,1.520000X1.520000*%
%ADD46C,1.520000*%
%ADD47FreePoly0,0.000000*%
%ADD48R,1.000000X1.500000*%
%ADD49FreePoly1,0.000000*%
%ADD50RoundRect,0.250000X0.785000X0.945000X-0.785000X0.945000X-0.785000X-0.945000X0.785000X-0.945000X0*%
%ADD51RoundRect,0.250000X1.000000X-1.400000X1.000000X1.400000X-1.000000X1.400000X-1.000000X-1.400000X0*%
%ADD52R,0.435000X1.475000*%
%ADD53R,1.475000X0.450000*%
%ADD54R,3.200000X3.200000*%
%ADD55R,0.600000X1.150000*%
%ADD56R,5.100000X3.650000*%
%ADD57RoundRect,0.250000X-0.475000X0.250000X-0.475000X-0.250000X0.475000X-0.250000X0.475000X0.250000X0*%
%ADD58C,2.250000*%
%ADD59C,2.550000*%
%ADD60RoundRect,0.250000X-0.325000X-0.650000X0.325000X-0.650000X0.325000X0.650000X-0.325000X0.650000X0*%
%ADD61R,1.000000X1.000000*%
%ADD62C,1.000000*%
%ADD63RoundRect,0.100000X0.100000X-0.637500X0.100000X0.637500X-0.100000X0.637500X-0.100000X-0.637500X0*%
%ADD64R,1.300000X1.100000*%
%ADD65RoundRect,0.112500X0.112500X-0.187500X0.112500X0.187500X-0.112500X0.187500X-0.112500X-0.187500X0*%
%ADD66R,9.500000X3.750000*%
%ADD67C,1.270000*%
%ADD68R,3.600000X2.000000*%
%ADD69R,1.574800X1.574800*%
%ADD70C,1.574800*%
%ADD71RoundRect,0.150000X0.150000X-0.587500X0.150000X0.587500X-0.150000X0.587500X-0.150000X-0.587500X0*%
%ADD72RoundRect,0.250000X0.262500X0.450000X-0.262500X0.450000X-0.262500X-0.450000X0.262500X-0.450000X0*%
%ADD73RoundRect,0.075000X0.075000X-0.700000X0.075000X0.700000X-0.075000X0.700000X-0.075000X-0.700000X0*%
%ADD74RoundRect,0.075000X0.700000X-0.075000X0.700000X0.075000X-0.700000X0.075000X-0.700000X-0.075000X0*%
%ADD75RoundRect,0.218750X0.218750X0.256250X-0.218750X0.256250X-0.218750X-0.256250X0.218750X-0.256250X0*%
%ADD76RoundRect,0.250000X-0.350000X0.350000X-0.350000X-0.350000X0.350000X-0.350000X0.350000X0.350000X0*%
%ADD77C,1.200000*%
%ADD78C,2.600000*%
%ADD79R,1.300000X1.300000*%
%ADD80C,1.300000*%
%ADD81R,2.900000X3.100000*%
%ADD82RoundRect,0.250000X0.325000X0.650000X-0.325000X0.650000X-0.325000X-0.650000X0.325000X-0.650000X0*%
%ADD83RoundRect,0.100000X-0.637500X-0.100000X0.637500X-0.100000X0.637500X0.100000X-0.637500X0.100000X0*%
%ADD84RoundRect,0.150000X-0.650000X-0.150000X0.650000X-0.150000X0.650000X0.150000X-0.650000X0.150000X0*%
%ADD85R,2.410000X3.100000*%
%ADD86R,0.750000X0.400000*%
%ADD87R,2.400000X2.450000*%
%ADD88R,0.400000X0.530000*%
%ADD89R,0.240000X0.600000*%
%ADD90R,0.600000X0.240000*%
%ADD91R,2.100000X2.100000*%
%ADD92R,0.250000X0.250000*%
%ADD93R,2.450000X2.350000*%
%ADD94R,0.850000X0.650000*%
%ADD95R,0.650000X0.950000*%
%ADD96R,2.000000X1.950000*%
%ADD97R,0.300000X1.150000*%
%ADD98O,1.000000X1.800000*%
%ADD99O,1.000000X2.200000*%
%ADD100C,0.600000*%
%ADD101C,0.500000*%
G04 APERTURE END LIST*
%TO.C,JP3*%
G36*
X103330000Y-106520000D02*
G01*
X104830000Y-106520000D01*
X104830000Y-108020000D01*
X103330000Y-108020000D01*
X103330000Y-106520000D01*
G37*
%TD*%
D10*
%TO.C,R24*%
X110490265Y-77819755D03*
X112140265Y-77819755D03*
%TD*%
%TO.C,R81*%
X132655000Y-69060000D03*
X134305000Y-69060000D03*
%TD*%
D11*
%TO.C,C116*%
X209719754Y-124460000D03*
X209719754Y-122560000D03*
%TD*%
D12*
%TO.C,C152*%
X160095000Y-152234750D03*
X158545000Y-152234750D03*
%TD*%
D11*
%TO.C,C71*%
X222969754Y-124190000D03*
X222969754Y-122290000D03*
%TD*%
D13*
%TO.C,R78*%
X236092052Y-71223015D03*
X237917052Y-71223015D03*
%TD*%
D14*
%TO.C,J10*%
X247450000Y-150680000D03*
X247950000Y-150680000D03*
X248450000Y-150680000D03*
X248950000Y-150680000D03*
X249450000Y-150680000D03*
X249950000Y-150680000D03*
X250450000Y-150680000D03*
X250950000Y-150680000D03*
X251450000Y-150680000D03*
X251950000Y-150680000D03*
D15*
X245550000Y-153930000D03*
X253850000Y-153930000D03*
%TD*%
D16*
%TO.C,R11*%
X95645441Y-75060000D03*
X93995441Y-75060000D03*
%TD*%
D17*
%TO.C,C37*%
X174765000Y-102210000D03*
X174765000Y-103760000D03*
%TD*%
D18*
%TO.C,C19*%
X177520000Y-115155000D03*
X177520000Y-117755000D03*
%TD*%
D19*
%TO.C,U16*%
X126060202Y-107701790D03*
X126060202Y-106751790D03*
X126060202Y-105801790D03*
X123560202Y-105801790D03*
X123560202Y-107701790D03*
%TD*%
D20*
%TO.C,D15*%
X126853000Y-70130000D03*
X126428000Y-70130000D03*
%TD*%
D21*
%TO.C,C121*%
X235054552Y-75968015D03*
X235054552Y-73018015D03*
%TD*%
D12*
%TO.C,C4*%
X98355000Y-117659000D03*
X96805000Y-117659000D03*
%TD*%
D22*
%TO.C,D9*%
X165280779Y-64806787D03*
X165280779Y-68806787D03*
%TD*%
D23*
%TO.C,C87*%
X237492668Y-141090168D03*
D24*
X237492668Y-148590168D03*
%TD*%
D25*
%TO.C,U12*%
X95985000Y-78375000D03*
X95985000Y-79645000D03*
X95985000Y-80915000D03*
X95985000Y-82185000D03*
X100935000Y-82185000D03*
X100935000Y-80915000D03*
X100935000Y-79645000D03*
X100935000Y-78375000D03*
%TD*%
D10*
%TO.C,R97*%
X166177500Y-154640000D03*
X167827500Y-154640000D03*
%TD*%
D17*
%TO.C,C108*%
X138850000Y-111773000D03*
X138850000Y-113323000D03*
%TD*%
D26*
%TO.C,C90*%
X217736000Y-107013000D03*
X217736000Y-105463000D03*
%TD*%
%TO.C,C16*%
X156890000Y-106000000D03*
X156890000Y-104450000D03*
%TD*%
D13*
%TO.C,R19*%
X167280779Y-71256787D03*
X169105779Y-71256787D03*
%TD*%
D21*
%TO.C,C66*%
X166223279Y-76011787D03*
X166223279Y-73061787D03*
%TD*%
D27*
%TO.C,L1*%
X150960779Y-79641787D03*
X160960779Y-79641787D03*
%TD*%
D28*
%TO.C,J1*%
X131020000Y-101820000D03*
X135090000Y-101820000D03*
X131020000Y-103090000D03*
X135090000Y-103090000D03*
X131020000Y-104360000D03*
X135090000Y-104360000D03*
X131020000Y-105630000D03*
X135090000Y-105630000D03*
X131020000Y-106900000D03*
X135090000Y-106900000D03*
%TD*%
D12*
%TO.C,C112*%
X139259821Y-73729358D03*
X137709821Y-73729358D03*
%TD*%
D29*
%TO.C,C13*%
X151615000Y-117165000D03*
X153165000Y-117165000D03*
%TD*%
D16*
%TO.C,R86*%
X93999559Y-84012500D03*
X92349559Y-84012500D03*
%TD*%
D10*
%TO.C,R103*%
X156242500Y-135757500D03*
X157892500Y-135757500D03*
%TD*%
D16*
%TO.C,R53*%
X135945000Y-115988000D03*
X134295000Y-115988000D03*
%TD*%
D10*
%TO.C,R72*%
X161520000Y-144196000D03*
X163170000Y-144196000D03*
%TD*%
D16*
%TO.C,R46*%
X104570000Y-79795000D03*
X102920000Y-79795000D03*
%TD*%
D30*
%TO.C,R112*%
X118090000Y-107155000D03*
X118090000Y-108805000D03*
%TD*%
D16*
%TO.C,R84*%
X226258755Y-125179977D03*
X224608755Y-125179977D03*
%TD*%
D17*
%TO.C,C6*%
X95370000Y-116144000D03*
X95370000Y-117694000D03*
%TD*%
D31*
%TO.C,U2*%
X147020000Y-79570000D03*
X145750000Y-79570000D03*
X144480000Y-79570000D03*
X143210000Y-79570000D03*
X141940000Y-79570000D03*
X140670000Y-79570000D03*
X139400000Y-79570000D03*
X138130000Y-79570000D03*
X136860000Y-79570000D03*
X135590000Y-79570000D03*
X134320000Y-79570000D03*
X133050000Y-79570000D03*
X131780000Y-79570000D03*
X130510000Y-79570000D03*
D32*
X129260000Y-82605000D03*
X129260000Y-83875000D03*
X129260000Y-85145000D03*
X129260000Y-86415000D03*
X129260000Y-87685000D03*
X129260000Y-88955000D03*
X129260000Y-90225000D03*
X129260000Y-91495000D03*
X129260000Y-92765000D03*
X129260000Y-94035000D03*
D31*
X130510000Y-97070000D03*
X131780000Y-97070000D03*
X133050000Y-97070000D03*
X134320000Y-97070000D03*
X135590000Y-97070000D03*
X136860000Y-97070000D03*
X138130000Y-97070000D03*
X139400000Y-97070000D03*
X140670000Y-97070000D03*
X141940000Y-97070000D03*
X143210000Y-97070000D03*
X144480000Y-97070000D03*
X145750000Y-97070000D03*
X147020000Y-97070000D03*
D33*
X139680000Y-86820000D03*
%TD*%
D34*
%TO.C,R61*%
X168323279Y-74251787D03*
X168323279Y-76076787D03*
%TD*%
D17*
%TO.C,C68*%
X151902500Y-134242500D03*
X151902500Y-135792500D03*
%TD*%
%TO.C,C104*%
X93820000Y-113095000D03*
X93820000Y-114645000D03*
%TD*%
D35*
%TO.C,C1*%
X172430000Y-119430000D03*
X175030000Y-119430000D03*
%TD*%
D36*
%TO.C,C28*%
X175083279Y-73061787D03*
X175083279Y-76011787D03*
%TD*%
D10*
%TO.C,R79*%
X102015000Y-94390000D03*
X103665000Y-94390000D03*
%TD*%
D37*
%TO.C,Y1*%
X105846000Y-110854000D03*
X104196000Y-110854000D03*
X104196000Y-112404000D03*
X105846000Y-112404000D03*
%TD*%
D38*
%TO.C,HS1*%
X197640613Y-115152613D03*
X234450613Y-115152613D03*
%TD*%
D12*
%TO.C,C111*%
X144324858Y-75172328D03*
X142774858Y-75172328D03*
%TD*%
D10*
%TO.C,R4*%
X170175000Y-153834750D03*
X171825000Y-153834750D03*
%TD*%
D39*
%TO.C,C141*%
X99945000Y-83963485D03*
X98045000Y-83963485D03*
%TD*%
D40*
%TO.C,R122*%
X115107501Y-121023226D03*
X113912501Y-121023226D03*
%TD*%
D41*
%TO.C,R98*%
X112173107Y-76435000D03*
X112173107Y-74785000D03*
%TD*%
D42*
%TO.C,F1*%
X161040000Y-131997700D03*
X161040000Y-125622300D03*
%TD*%
D10*
%TO.C,R63*%
X200941000Y-126813000D03*
X202591000Y-126813000D03*
%TD*%
%TO.C,R88*%
X92350000Y-78125000D03*
X94000000Y-78125000D03*
%TD*%
D17*
%TO.C,C103*%
X95280000Y-113085000D03*
X95280000Y-114635000D03*
%TD*%
D26*
%TO.C,C89*%
X213266000Y-107013000D03*
X213266000Y-105463000D03*
%TD*%
%TO.C,C109*%
X143350000Y-116145000D03*
X143350000Y-114595000D03*
%TD*%
D43*
%TO.C,D8*%
X174448680Y-122888244D03*
X174448680Y-129688244D03*
%TD*%
D40*
%TO.C,R125*%
X115107500Y-121960000D03*
X113912500Y-121960000D03*
%TD*%
D20*
%TO.C,D11*%
X109727000Y-71100000D03*
X110152000Y-71100000D03*
%TD*%
D44*
%TO.C,J7*%
X144348250Y-149671750D03*
X153348250Y-149671750D03*
D45*
X150348250Y-153611750D03*
D46*
X147348250Y-153611750D03*
X150348250Y-150611750D03*
X147348250Y-150611750D03*
%TD*%
D47*
%TO.C,JP3*%
X102780000Y-107270000D03*
D48*
X104080000Y-107270000D03*
D49*
X105380000Y-107270000D03*
%TD*%
D30*
%TO.C,R67*%
X119637266Y-89363074D03*
X119637266Y-91013074D03*
%TD*%
D50*
%TO.C,C84*%
X206516000Y-123773000D03*
X201576000Y-123773000D03*
%TD*%
D12*
%TO.C,C58*%
X92565000Y-98790000D03*
X91015000Y-98790000D03*
%TD*%
D29*
%TO.C,C102*%
X101450000Y-117567500D03*
X103000000Y-117567500D03*
%TD*%
D27*
%TO.C,L4*%
X253070000Y-79457500D03*
X243070000Y-79457500D03*
%TD*%
D51*
%TO.C,D6*%
X171100000Y-149760000D03*
X177900000Y-149760000D03*
%TD*%
D17*
%TO.C,C52*%
X122547266Y-90863074D03*
X122547266Y-92413074D03*
%TD*%
D23*
%TO.C,C93*%
X221002668Y-141090168D03*
D24*
X221002668Y-148590168D03*
%TD*%
D41*
%TO.C,R29*%
X122536515Y-76437418D03*
X122536515Y-74787418D03*
%TD*%
D16*
%TO.C,R110*%
X171340000Y-114180000D03*
X169690000Y-114180000D03*
%TD*%
D29*
%TO.C,C35*%
X145725000Y-77715000D03*
X147275000Y-77715000D03*
%TD*%
D12*
%TO.C,C53*%
X112090265Y-79340000D03*
X110540265Y-79340000D03*
%TD*%
D23*
%TO.C,C92*%
X187692668Y-141090168D03*
D24*
X187692668Y-148590168D03*
%TD*%
D10*
%TO.C,R71*%
X90965000Y-95870000D03*
X92615000Y-95870000D03*
%TD*%
D29*
%TO.C,C24*%
X159740000Y-122688225D03*
X161290000Y-122688225D03*
%TD*%
D34*
%TO.C,R62*%
X179493279Y-74251787D03*
X179493279Y-76076787D03*
%TD*%
D52*
%TO.C,H5*%
X209610000Y-117645000D03*
X210246000Y-117645000D03*
X210880000Y-117645000D03*
X211516000Y-117645000D03*
X212150000Y-117645000D03*
X212786000Y-117645000D03*
X213420000Y-117645000D03*
X214056000Y-117645000D03*
X214690000Y-117645000D03*
X215326000Y-117645000D03*
X215960000Y-117645000D03*
X216596000Y-117645000D03*
X217230000Y-117645000D03*
X217866000Y-117645000D03*
X218500000Y-117645000D03*
X219136000Y-117645000D03*
X219770000Y-117645000D03*
X220406000Y-117645000D03*
X221040000Y-117645000D03*
X221676000Y-117645000D03*
X222310000Y-117645000D03*
X222946000Y-117645000D03*
X222946000Y-110069000D03*
X222310000Y-110069000D03*
X221676000Y-110069000D03*
X221040000Y-110069000D03*
X220406000Y-110069000D03*
X219770000Y-110069000D03*
X219136000Y-110069000D03*
X218500000Y-110069000D03*
X217866000Y-110069000D03*
X217230000Y-110069000D03*
X216596000Y-110069000D03*
X215960000Y-110069000D03*
X215326000Y-110069000D03*
X214690000Y-110069000D03*
X214056000Y-110069000D03*
X213420000Y-110069000D03*
X212786000Y-110069000D03*
X212150000Y-110069000D03*
X211516000Y-110069000D03*
X210880000Y-110069000D03*
X210246000Y-110069000D03*
X209610000Y-110069000D03*
%TD*%
D16*
%TO.C,R114*%
X124278107Y-83905115D03*
X122628107Y-83905115D03*
%TD*%
D39*
%TO.C,C145*%
X92580000Y-75181508D03*
X90680000Y-75181508D03*
%TD*%
D10*
%TO.C,R9*%
X109848111Y-96753029D03*
X111498111Y-96753029D03*
%TD*%
D53*
%TO.C,U19*%
X161794000Y-148420000D03*
X161794000Y-149070000D03*
X161794000Y-149720000D03*
X161794000Y-150370000D03*
X161794000Y-151020000D03*
X161794000Y-151670000D03*
X161794000Y-152320000D03*
X161794000Y-152970000D03*
X167670000Y-152970000D03*
X167670000Y-152320000D03*
X167670000Y-151670000D03*
X167670000Y-151020000D03*
X167670000Y-150370000D03*
X167670000Y-149720000D03*
X167670000Y-149070000D03*
X167670000Y-148420000D03*
D54*
X164732000Y-150695000D03*
%TD*%
D55*
%TO.C,U7*%
X179420000Y-118080000D03*
X180370000Y-118080000D03*
X181320000Y-118080000D03*
X181320000Y-115580000D03*
X179420000Y-115580000D03*
%TD*%
D56*
%TO.C,L6*%
X170608680Y-143348244D03*
X170608680Y-133648244D03*
%TD*%
D21*
%TO.C,C115*%
X170423279Y-76011787D03*
X170423279Y-73061787D03*
%TD*%
D30*
%TO.C,R16*%
X116729677Y-89362630D03*
X116729677Y-91012630D03*
%TD*%
D10*
%TO.C,R107*%
X179775000Y-114030000D03*
X181425000Y-114030000D03*
%TD*%
D41*
%TO.C,R10*%
X119634650Y-102821312D03*
X119634650Y-101171312D03*
%TD*%
D18*
%TO.C,C7*%
X118630000Y-111710000D03*
X118630000Y-114310000D03*
%TD*%
D35*
%TO.C,C3*%
X149657500Y-135757500D03*
X147057500Y-135757500D03*
%TD*%
D12*
%TO.C,C159*%
X167775000Y-156134750D03*
X166225000Y-156134750D03*
%TD*%
D17*
%TO.C,C38*%
X176220000Y-102205000D03*
X176220000Y-103755000D03*
%TD*%
D10*
%TO.C,R22*%
X109848111Y-95299550D03*
X111498111Y-95299550D03*
%TD*%
D17*
%TO.C,C14*%
X140410000Y-113430000D03*
X140410000Y-114980000D03*
%TD*%
%TO.C,C79*%
X219306000Y-121078000D03*
X219306000Y-122628000D03*
%TD*%
D30*
%TO.C,R57*%
X129040000Y-70130000D03*
X129040000Y-71780000D03*
%TD*%
D25*
%TO.C,U4*%
X167860000Y-102060000D03*
X167860000Y-103330000D03*
X167860000Y-104600000D03*
X167860000Y-105870000D03*
X172810000Y-105870000D03*
X172810000Y-104600000D03*
X172810000Y-103330000D03*
X172810000Y-102060000D03*
%TD*%
D57*
%TO.C,C51*%
X120265538Y-84459753D03*
X120265538Y-86359753D03*
%TD*%
D10*
%TO.C,R18*%
X109848111Y-90919550D03*
X111498111Y-90919550D03*
%TD*%
D12*
%TO.C,C44*%
X101280000Y-76845000D03*
X99730000Y-76845000D03*
%TD*%
D11*
%TO.C,C70*%
X221009754Y-124190000D03*
X221009754Y-122290000D03*
%TD*%
D36*
%TO.C,C114*%
X172743279Y-73061787D03*
X172743279Y-76011787D03*
%TD*%
D26*
%TO.C,C26*%
X121089259Y-99797252D03*
X121089259Y-98247252D03*
%TD*%
D16*
%TO.C,R56*%
X130525000Y-74470000D03*
X128875000Y-74470000D03*
%TD*%
D12*
%TO.C,C94*%
X99510000Y-91810000D03*
X97960000Y-91810000D03*
%TD*%
D35*
%TO.C,C63*%
X92130000Y-93990000D03*
X89530000Y-93990000D03*
%TD*%
D12*
%TO.C,C149*%
X160105000Y-149270000D03*
X158555000Y-149270000D03*
%TD*%
D58*
%TO.C,J4*%
X119910000Y-66110000D03*
D59*
X117370000Y-63570000D03*
X117370000Y-68650000D03*
X122450000Y-63570000D03*
X122450000Y-68650000D03*
%TD*%
D30*
%TO.C,R99*%
X113633107Y-74778882D03*
X113633107Y-76428882D03*
%TD*%
D60*
%TO.C,C75*%
X224055000Y-107030000D03*
X227005000Y-107030000D03*
%TD*%
D21*
%TO.C,C118*%
X228084552Y-75968015D03*
X228084552Y-73018015D03*
%TD*%
D10*
%TO.C,R25*%
X110490265Y-83905115D03*
X112140265Y-83905115D03*
%TD*%
D17*
%TO.C,C43*%
X114838111Y-101215193D03*
X114838111Y-102765193D03*
%TD*%
D26*
%TO.C,C47*%
X119570000Y-76378882D03*
X119570000Y-74828882D03*
%TD*%
D10*
%TO.C,R93*%
X102911935Y-76889932D03*
X104561935Y-76889932D03*
%TD*%
D61*
%TO.C,JP2*%
X162460000Y-107910000D03*
D62*
X161190000Y-107910000D03*
%TD*%
D36*
%TO.C,C72*%
X230404552Y-73018015D03*
X230404552Y-75968015D03*
%TD*%
D16*
%TO.C,R102*%
X206625000Y-116110000D03*
X204975000Y-116110000D03*
%TD*%
D63*
%TO.C,U5*%
X113053379Y-98886354D03*
X113703379Y-98886354D03*
X114353379Y-98886354D03*
X115003379Y-98886354D03*
X115653379Y-98886354D03*
X116303379Y-98886354D03*
X116953379Y-98886354D03*
X116953379Y-93161354D03*
X116303379Y-93161354D03*
X115653379Y-93161354D03*
X115003379Y-93161354D03*
X114353379Y-93161354D03*
X113703379Y-93161354D03*
X113053379Y-93161354D03*
%TD*%
D64*
%TO.C,Y2*%
X136470000Y-111760000D03*
X134170000Y-111760000D03*
X134170000Y-113560000D03*
X136470000Y-113560000D03*
%TD*%
D17*
%TO.C,C80*%
X217832000Y-121078000D03*
X217832000Y-122628000D03*
%TD*%
D16*
%TO.C,R47*%
X104570000Y-84195000D03*
X102920000Y-84195000D03*
%TD*%
D30*
%TO.C,R105*%
X127490000Y-112155000D03*
X127490000Y-113805000D03*
%TD*%
D65*
%TO.C,D7*%
X163200000Y-137177500D03*
X163200000Y-135077500D03*
%TD*%
D35*
%TO.C,C126*%
X102510000Y-99210000D03*
X105110000Y-99210000D03*
%TD*%
D10*
%TO.C,R69*%
X118065000Y-92390000D03*
X119715000Y-92390000D03*
%TD*%
D16*
%TO.C,R41*%
X123208406Y-95360000D03*
X121558406Y-95360000D03*
%TD*%
D66*
%TO.C,L5*%
X145817500Y-126152500D03*
X145817500Y-132402500D03*
%TD*%
D26*
%TO.C,C158*%
X161625000Y-142751000D03*
X161625000Y-141201000D03*
%TD*%
D41*
%TO.C,R100*%
X164528680Y-130853244D03*
X164528680Y-129203244D03*
%TD*%
%TO.C,R42*%
X206476000Y-119328000D03*
X206476000Y-117678000D03*
%TD*%
D40*
%TO.C,R126*%
X115107500Y-124780000D03*
X113912500Y-124780000D03*
%TD*%
D41*
%TO.C,R106*%
X128950000Y-113805000D03*
X128950000Y-112155000D03*
%TD*%
D34*
%TO.C,R74*%
X225984552Y-74218015D03*
X225984552Y-76043015D03*
%TD*%
D41*
%TO.C,R55*%
X130435000Y-77540000D03*
X130435000Y-75890000D03*
%TD*%
D21*
%TO.C,C124*%
X223884552Y-75968015D03*
X223884552Y-73018015D03*
%TD*%
D67*
%TO.C,J9*%
X235556702Y-63945115D03*
X226556702Y-63945115D03*
D45*
X229556702Y-65905115D03*
D46*
X232556702Y-65905115D03*
%TD*%
D11*
%TO.C,C32*%
X114380416Y-86358016D03*
X114380416Y-84458016D03*
%TD*%
D68*
%TO.C,L9*%
X115210000Y-114930000D03*
X115210000Y-111530000D03*
%TD*%
D69*
%TO.C,C123*%
X235739552Y-93578015D03*
D70*
X235739552Y-78566615D03*
%TD*%
D16*
%TO.C,R83*%
X226258755Y-126669977D03*
X224608755Y-126669977D03*
%TD*%
D20*
%TO.C,D4*%
X91103000Y-71100000D03*
X90678000Y-71100000D03*
%TD*%
D10*
%TO.C,R40*%
X109848111Y-93839550D03*
X111498111Y-93839550D03*
%TD*%
D16*
%TO.C,R113*%
X124278107Y-82450000D03*
X122628107Y-82450000D03*
%TD*%
D35*
%TO.C,C57*%
X92130000Y-100700000D03*
X89530000Y-100700000D03*
%TD*%
D61*
%TO.C,JP1*%
X119030000Y-116620000D03*
D62*
X120300000Y-116620000D03*
%TD*%
D71*
%TO.C,Q1*%
X131982500Y-77072500D03*
X133882500Y-77072500D03*
X132932500Y-75197500D03*
%TD*%
D10*
%TO.C,R91*%
X94005441Y-76520000D03*
X95655441Y-76520000D03*
%TD*%
D17*
%TO.C,C160*%
X164782500Y-154615000D03*
X164782500Y-156165000D03*
%TD*%
D26*
%TO.C,C30*%
X115143107Y-76378882D03*
X115143107Y-74828882D03*
%TD*%
D72*
%TO.C,R59*%
X176895779Y-71256787D03*
X175070779Y-71256787D03*
%TD*%
D35*
%TO.C,C128*%
X102500000Y-92500000D03*
X105100000Y-92500000D03*
%TD*%
D22*
%TO.C,D2*%
X222904552Y-64767536D03*
X222904552Y-68767536D03*
%TD*%
D10*
%TO.C,R50*%
X104221000Y-113849000D03*
X105871000Y-113849000D03*
%TD*%
D16*
%TO.C,R94*%
X104362634Y-73479530D03*
X102712634Y-73479530D03*
%TD*%
D20*
%TO.C,D13*%
X130461000Y-72702138D03*
X130036000Y-72702138D03*
%TD*%
D69*
%TO.C,C29*%
X168290779Y-78686087D03*
D70*
X168290779Y-93697487D03*
%TD*%
D26*
%TO.C,C110*%
X158350000Y-106005000D03*
X158350000Y-104455000D03*
%TD*%
D36*
%TO.C,C67*%
X181590779Y-73061787D03*
X181590779Y-76011787D03*
%TD*%
D10*
%TO.C,R115*%
X153287500Y-135737500D03*
X154937500Y-135737500D03*
%TD*%
D73*
%TO.C,U15*%
X145620000Y-115390000D03*
X146120000Y-115390000D03*
X146620000Y-115390000D03*
X147120000Y-115390000D03*
X147620000Y-115390000D03*
X148120000Y-115390000D03*
X148620000Y-115390000D03*
X149120000Y-115390000D03*
X149620000Y-115390000D03*
X150120000Y-115390000D03*
X150620000Y-115390000D03*
X151120000Y-115390000D03*
X151620000Y-115390000D03*
X152120000Y-115390000D03*
X152620000Y-115390000D03*
X153120000Y-115390000D03*
D74*
X155045000Y-113465000D03*
X155045000Y-112965000D03*
X155045000Y-112465000D03*
X155045000Y-111965000D03*
X155045000Y-111465000D03*
X155045000Y-110965000D03*
X155045000Y-110465000D03*
X155045000Y-109965000D03*
X155045000Y-109465000D03*
X155045000Y-108965000D03*
X155045000Y-108465000D03*
X155045000Y-107965000D03*
X155045000Y-107465000D03*
X155045000Y-106965000D03*
X155045000Y-106465000D03*
X155045000Y-105965000D03*
D73*
X153120000Y-104040000D03*
X152620000Y-104040000D03*
X152120000Y-104040000D03*
X151620000Y-104040000D03*
X151120000Y-104040000D03*
X150620000Y-104040000D03*
X150120000Y-104040000D03*
X149620000Y-104040000D03*
X149120000Y-104040000D03*
X148620000Y-104040000D03*
X148120000Y-104040000D03*
X147620000Y-104040000D03*
X147120000Y-104040000D03*
X146620000Y-104040000D03*
X146120000Y-104040000D03*
X145620000Y-104040000D03*
D74*
X143695000Y-105965000D03*
X143695000Y-106465000D03*
X143695000Y-106965000D03*
X143695000Y-107465000D03*
X143695000Y-107965000D03*
X143695000Y-108465000D03*
X143695000Y-108965000D03*
X143695000Y-109465000D03*
X143695000Y-109965000D03*
X143695000Y-110465000D03*
X143695000Y-110965000D03*
X143695000Y-111465000D03*
X143695000Y-111965000D03*
X143695000Y-112465000D03*
X143695000Y-112965000D03*
X143695000Y-113465000D03*
%TD*%
D12*
%TO.C,C100*%
X109055000Y-110190000D03*
X107505000Y-110190000D03*
%TD*%
D75*
%TO.C,FB3*%
X147302321Y-73724821D03*
X145727321Y-73724821D03*
%TD*%
D76*
%TO.C,C106*%
X158200000Y-144070000D03*
D77*
X158200000Y-146070000D03*
%TD*%
D16*
%TO.C,R48*%
X104570000Y-82725000D03*
X102920000Y-82725000D03*
%TD*%
D41*
%TO.C,R51*%
X122740000Y-116625000D03*
X122740000Y-114975000D03*
%TD*%
%TO.C,R85*%
X101425000Y-85040000D03*
X101425000Y-83390000D03*
%TD*%
D78*
%TO.C,U1*%
X145624821Y-65374821D03*
X138004821Y-65374821D03*
D79*
X139274821Y-69124821D03*
D80*
X141814821Y-69124821D03*
X144354821Y-69124821D03*
%TD*%
D17*
%TO.C,C18*%
X141880000Y-113430000D03*
X141880000Y-114980000D03*
%TD*%
D81*
%TO.C,L7*%
X147610000Y-141330000D03*
X154110000Y-141330000D03*
%TD*%
D13*
%TO.C,R60*%
X170640779Y-71256787D03*
X172465779Y-71256787D03*
%TD*%
D82*
%TO.C,C77*%
X209425000Y-106990000D03*
X206475000Y-106990000D03*
%TD*%
D30*
%TO.C,R96*%
X163105000Y-141151000D03*
X163105000Y-142801000D03*
%TD*%
D22*
%TO.C,D1*%
X239174552Y-64775515D03*
X239174552Y-68775515D03*
%TD*%
D10*
%TO.C,R2*%
X142675000Y-77740000D03*
X144325000Y-77740000D03*
%TD*%
D17*
%TO.C,C31*%
X116603107Y-74828882D03*
X116603107Y-76378882D03*
%TD*%
D83*
%TO.C,U10*%
X114380607Y-79012500D03*
X114380607Y-79662500D03*
X114380607Y-80312500D03*
X114380607Y-80962500D03*
X114380607Y-81612500D03*
X114380607Y-82262500D03*
X114380607Y-82912500D03*
X120105607Y-82912500D03*
X120105607Y-82262500D03*
X120105607Y-81612500D03*
X120105607Y-80962500D03*
X120105607Y-80312500D03*
X120105607Y-79662500D03*
X120105607Y-79012500D03*
%TD*%
D10*
%TO.C,R26*%
X110490265Y-82450000D03*
X112140265Y-82450000D03*
%TD*%
D18*
%TO.C,C2*%
X111710000Y-114750000D03*
X111710000Y-112150000D03*
%TD*%
D10*
%TO.C,R17*%
X109848111Y-92379550D03*
X111498111Y-92379550D03*
%TD*%
%TO.C,R90*%
X92350000Y-81055000D03*
X94000000Y-81055000D03*
%TD*%
D20*
%TO.C,D5*%
X99985000Y-71100000D03*
X100410000Y-71100000D03*
%TD*%
D30*
%TO.C,R65*%
X118181610Y-89355017D03*
X118181610Y-91005017D03*
%TD*%
D10*
%TO.C,R87*%
X92350000Y-79585000D03*
X94000000Y-79585000D03*
%TD*%
D36*
%TO.C,C125*%
X239252052Y-73018015D03*
X239252052Y-75968015D03*
%TD*%
D40*
%TO.C,R123*%
X115107500Y-123840000D03*
X113912500Y-123840000D03*
%TD*%
D17*
%TO.C,C107*%
X131768000Y-111993000D03*
X131768000Y-113543000D03*
%TD*%
D69*
%TO.C,C122*%
X225664552Y-78566615D03*
D70*
X225664552Y-93578015D03*
%TD*%
D10*
%TO.C,R64*%
X118056018Y-99768801D03*
X119706018Y-99768801D03*
%TD*%
D72*
%TO.C,R75*%
X234557052Y-71223015D03*
X232732052Y-71223015D03*
%TD*%
D35*
%TO.C,C8*%
X126575000Y-109680000D03*
X129175000Y-109680000D03*
%TD*%
D17*
%TO.C,C25*%
X122543234Y-99700231D03*
X122543234Y-101250231D03*
%TD*%
D12*
%TO.C,C113*%
X144334821Y-73717784D03*
X142784821Y-73717784D03*
%TD*%
D57*
%TO.C,C46*%
X110466893Y-74431754D03*
X110466893Y-76331754D03*
%TD*%
D12*
%TO.C,C151*%
X160105000Y-150724750D03*
X158555000Y-150724750D03*
%TD*%
D36*
%TO.C,C73*%
X232744552Y-73018015D03*
X232744552Y-75968015D03*
%TD*%
D76*
%TO.C,C97*%
X158200000Y-139355662D03*
D77*
X158200000Y-141355662D03*
%TD*%
D19*
%TO.C,U6*%
X175316756Y-117535640D03*
X175316756Y-116585640D03*
X175316756Y-115635640D03*
X172816756Y-115635640D03*
X172816756Y-117535640D03*
%TD*%
D23*
%TO.C,C88*%
X204392668Y-141090168D03*
D24*
X204392668Y-148590168D03*
%TD*%
D26*
%TO.C,C17*%
X144410000Y-103595000D03*
X144410000Y-102045000D03*
%TD*%
%TO.C,C86*%
X214776000Y-107013000D03*
X214776000Y-105463000D03*
%TD*%
D29*
%TO.C,C36*%
X145725000Y-76260000D03*
X147275000Y-76260000D03*
%TD*%
D16*
%TO.C,R82*%
X127095000Y-69150000D03*
X125445000Y-69150000D03*
%TD*%
D26*
%TO.C,C40*%
X121094015Y-90965566D03*
X121094015Y-89415566D03*
%TD*%
D40*
%TO.C,R124*%
X115107500Y-122900000D03*
X113912500Y-122900000D03*
%TD*%
D16*
%TO.C,R23*%
X104570000Y-81255000D03*
X102920000Y-81255000D03*
%TD*%
D84*
%TO.C,U3*%
X151912500Y-128937500D03*
X151912500Y-130207500D03*
X151912500Y-131477500D03*
X151912500Y-132747500D03*
X157212500Y-132747500D03*
X157212500Y-131477500D03*
X157212500Y-130207500D03*
X157212500Y-128937500D03*
D85*
X154562500Y-130842500D03*
%TD*%
D29*
%TO.C,C101*%
X101450000Y-116097500D03*
X103000000Y-116097500D03*
%TD*%
D16*
%TO.C,R37*%
X176440000Y-105295000D03*
X174790000Y-105295000D03*
%TD*%
D18*
%TO.C,C23*%
X121445000Y-107705000D03*
X121445000Y-110305000D03*
%TD*%
D27*
%TO.C,L3*%
X208289552Y-79438015D03*
X218289552Y-79438015D03*
%TD*%
D30*
%TO.C,R66*%
X118801610Y-93775017D03*
X118801610Y-95425017D03*
%TD*%
D17*
%TO.C,C15*%
X156850000Y-112745000D03*
X156850000Y-114295000D03*
%TD*%
D12*
%TO.C,C45*%
X101280000Y-75385000D03*
X99730000Y-75385000D03*
%TD*%
D10*
%TO.C,R89*%
X92350000Y-82545000D03*
X94000000Y-82545000D03*
%TD*%
D30*
%TO.C,R58*%
X130496683Y-70127138D03*
X130496683Y-71777138D03*
%TD*%
D16*
%TO.C,R49*%
X104570000Y-78340000D03*
X102920000Y-78340000D03*
%TD*%
D57*
%TO.C,C33*%
X124242431Y-74475321D03*
X124242431Y-76375321D03*
%TD*%
D30*
%TO.C,R30*%
X121080000Y-74778882D03*
X121080000Y-76428882D03*
%TD*%
%TO.C,R101*%
X161340000Y-112700000D03*
X161340000Y-114350000D03*
%TD*%
D17*
%TO.C,C99*%
X109041000Y-111674000D03*
X109041000Y-113224000D03*
%TD*%
D69*
%TO.C,C64*%
X178535779Y-93722487D03*
D70*
X178535779Y-78711087D03*
%TD*%
D29*
%TO.C,C153*%
X167335000Y-147110000D03*
X168885000Y-147110000D03*
%TD*%
D16*
%TO.C,R80*%
X103665000Y-95850000D03*
X102015000Y-95850000D03*
%TD*%
D41*
%TO.C,R15*%
X118181610Y-102815660D03*
X118181610Y-101165660D03*
%TD*%
D13*
%TO.C,R73*%
X228302052Y-71223015D03*
X230127052Y-71223015D03*
%TD*%
D16*
%TO.C,R21*%
X153230000Y-120340000D03*
X151580000Y-120340000D03*
%TD*%
D30*
%TO.C,R43*%
X225776000Y-116324000D03*
X225776000Y-117974000D03*
%TD*%
D41*
%TO.C,R32*%
X159840000Y-106055000D03*
X159840000Y-104405000D03*
%TD*%
%TO.C,R111*%
X119570000Y-108805000D03*
X119570000Y-107155000D03*
%TD*%
D10*
%TO.C,R109*%
X169670000Y-115670000D03*
X171320000Y-115670000D03*
%TD*%
D16*
%TO.C,R70*%
X92615000Y-97325000D03*
X90965000Y-97325000D03*
%TD*%
D41*
%TO.C,R44*%
X214866000Y-122678000D03*
X214866000Y-121028000D03*
%TD*%
D29*
%TO.C,C85*%
X224291000Y-119399000D03*
X225841000Y-119399000D03*
%TD*%
D17*
%TO.C,C78*%
X216326000Y-121078000D03*
X216326000Y-122628000D03*
%TD*%
D67*
%TO.C,J2*%
X177910779Y-63978887D03*
X168910779Y-63978887D03*
D45*
X171910779Y-65938887D03*
D46*
X174910779Y-65938887D03*
%TD*%
D86*
%TO.C,Q2*%
X166643680Y-127403244D03*
X166643680Y-128053244D03*
X166643680Y-128703244D03*
X166643680Y-129353244D03*
D87*
X168868680Y-128378244D03*
D88*
X168168680Y-129868244D03*
X168168680Y-126888244D03*
%TD*%
D26*
%TO.C,C41*%
X121094876Y-93920017D03*
X121094876Y-92370017D03*
%TD*%
D16*
%TO.C,R27*%
X124278107Y-80800000D03*
X122628107Y-80800000D03*
%TD*%
D20*
%TO.C,D10*%
X120333000Y-71100000D03*
X119908000Y-71100000D03*
%TD*%
D26*
%TO.C,C164*%
X164508680Y-127833244D03*
X164508680Y-126283244D03*
%TD*%
D34*
%TO.C,R76*%
X237154552Y-74218015D03*
X237154552Y-76043015D03*
%TD*%
D41*
%TO.C,R3*%
X118801610Y-98385017D03*
X118801610Y-96735017D03*
%TD*%
D57*
%TO.C,C49*%
X116358926Y-84458016D03*
X116358926Y-86358016D03*
%TD*%
D10*
%TO.C,R13*%
X109848111Y-99673029D03*
X111498111Y-99673029D03*
%TD*%
D29*
%TO.C,C156*%
X161569625Y-145652939D03*
X163119625Y-145652939D03*
%TD*%
D10*
%TO.C,R8*%
X109848111Y-98213029D03*
X111498111Y-98213029D03*
%TD*%
%TO.C,R14*%
X109848111Y-101133029D03*
X111498111Y-101133029D03*
%TD*%
D29*
%TO.C,C127*%
X102065000Y-97320000D03*
X103615000Y-97320000D03*
%TD*%
D10*
%TO.C,R68*%
X200971000Y-128283000D03*
X202621000Y-128283000D03*
%TD*%
D41*
%TO.C,R45*%
X213406000Y-122678000D03*
X213406000Y-121028000D03*
%TD*%
D17*
%TO.C,C105*%
X92340000Y-113085000D03*
X92340000Y-114635000D03*
%TD*%
%TO.C,C42*%
X113378111Y-101215193D03*
X113378111Y-102765193D03*
%TD*%
D58*
%TO.C,J3*%
X90670000Y-66110000D03*
D59*
X88130000Y-63570000D03*
X88130000Y-68650000D03*
X93210000Y-63570000D03*
X93210000Y-68650000D03*
%TD*%
D29*
%TO.C,C96*%
X153337500Y-134277500D03*
X154887500Y-134277500D03*
%TD*%
D16*
%TO.C,R7*%
X123206104Y-96820000D03*
X121556104Y-96820000D03*
%TD*%
D57*
%TO.C,C50*%
X118313107Y-84459753D03*
X118313107Y-86359753D03*
%TD*%
D30*
%TO.C,R34*%
X159870000Y-112700000D03*
X159870000Y-114350000D03*
%TD*%
D16*
%TO.C,R104*%
X157892500Y-134287500D03*
X156242500Y-134287500D03*
%TD*%
D26*
%TO.C,C81*%
X208010000Y-117630000D03*
X208010000Y-116080000D03*
%TD*%
D30*
%TO.C,R108*%
X182820000Y-114795000D03*
X182820000Y-116445000D03*
%TD*%
D89*
%TO.C,U18*%
X98626000Y-114054000D03*
X99126000Y-114054000D03*
X99626000Y-114054000D03*
X100126000Y-114054000D03*
X100626000Y-114054000D03*
X101126000Y-114054000D03*
D90*
X101776000Y-113404000D03*
X101776000Y-112904000D03*
X101776000Y-112404000D03*
X101776000Y-111904000D03*
X101776000Y-111404000D03*
X101776000Y-110904000D03*
D89*
X101126000Y-110254000D03*
X100626000Y-110254000D03*
X100126000Y-110254000D03*
X99626000Y-110254000D03*
X99126000Y-110254000D03*
X98626000Y-110254000D03*
D90*
X97976000Y-110904000D03*
X97976000Y-111404000D03*
X97976000Y-111904000D03*
X97976000Y-112404000D03*
X97976000Y-112904000D03*
X97976000Y-113404000D03*
D91*
X99876000Y-112154000D03*
D92*
X98151000Y-113879000D03*
X101601000Y-113879000D03*
X101601000Y-110429000D03*
X98151000Y-110429000D03*
%TD*%
D82*
%TO.C,C74*%
X227009000Y-104736000D03*
X224059000Y-104736000D03*
%TD*%
D21*
%TO.C,C65*%
X177393279Y-76011787D03*
X177393279Y-73061787D03*
%TD*%
D12*
%TO.C,C83*%
X209455000Y-119383000D03*
X207905000Y-119383000D03*
%TD*%
D26*
%TO.C,C9*%
X101050000Y-108115000D03*
X101050000Y-106565000D03*
%TD*%
D41*
%TO.C,R52*%
X161330000Y-106045000D03*
X161330000Y-104395000D03*
%TD*%
D42*
%TO.C,F2*%
X143740000Y-144167700D03*
X143740000Y-137792300D03*
%TD*%
D41*
%TO.C,R12*%
X116701610Y-102815660D03*
X116701610Y-101165660D03*
%TD*%
D93*
%TO.C,C155*%
X168538680Y-124112994D03*
X168538680Y-117912994D03*
%TD*%
D12*
%TO.C,C54*%
X112090265Y-80810000D03*
X110540265Y-80810000D03*
%TD*%
D10*
%TO.C,R38*%
X170165000Y-155330000D03*
X171815000Y-155330000D03*
%TD*%
D12*
%TO.C,C69*%
X99510000Y-93270000D03*
X97960000Y-93270000D03*
%TD*%
D27*
%TO.C,L2*%
X196060779Y-79466787D03*
X186060779Y-79466787D03*
%TD*%
D13*
%TO.C,R20*%
X178430779Y-71256787D03*
X180255779Y-71256787D03*
%TD*%
D94*
%TO.C,D12*%
X155590000Y-126060000D03*
D95*
X152210000Y-126060000D03*
D96*
X153535000Y-126060000D03*
%TD*%
D25*
%TO.C,U17*%
X94605000Y-94790000D03*
X94605000Y-96060000D03*
X94605000Y-97330000D03*
X94605000Y-98600000D03*
X99555000Y-98600000D03*
X99555000Y-97330000D03*
X99555000Y-96060000D03*
X99555000Y-94790000D03*
%TD*%
D16*
%TO.C,R28*%
X124278107Y-77850000D03*
X122628107Y-77850000D03*
%TD*%
D17*
%TO.C,C60*%
X157680000Y-125815000D03*
X157680000Y-127365000D03*
%TD*%
D26*
%TO.C,C91*%
X219196000Y-107013000D03*
X219196000Y-105463000D03*
%TD*%
D11*
%TO.C,C119*%
X211689754Y-124460000D03*
X211689754Y-122560000D03*
%TD*%
D82*
%TO.C,C76*%
X209425000Y-104690000D03*
X206475000Y-104690000D03*
%TD*%
D41*
%TO.C,R39*%
X158410000Y-114350000D03*
X158410000Y-112700000D03*
%TD*%
D16*
%TO.C,R5*%
X176440000Y-106815000D03*
X174790000Y-106815000D03*
%TD*%
D39*
%TO.C,C95*%
X94117139Y-85717202D03*
X92217139Y-85717202D03*
%TD*%
D12*
%TO.C,C5*%
X98355000Y-116159000D03*
X96805000Y-116159000D03*
%TD*%
D30*
%TO.C,R54*%
X128955000Y-75880000D03*
X128955000Y-77530000D03*
%TD*%
D13*
%TO.C,R77*%
X224942052Y-71223015D03*
X226767052Y-71223015D03*
%TD*%
D22*
%TO.C,D3*%
X181600779Y-64806787D03*
X181600779Y-68806787D03*
%TD*%
D17*
%TO.C,C98*%
X107500000Y-111645000D03*
X107500000Y-113195000D03*
%TD*%
D26*
%TO.C,C82*%
X224316000Y-117929000D03*
X224316000Y-116379000D03*
%TD*%
D58*
%TO.C,J12*%
X100420000Y-66110000D03*
D59*
X97880000Y-63570000D03*
X97880000Y-68650000D03*
X102960000Y-63570000D03*
X102960000Y-68650000D03*
%TD*%
D26*
%TO.C,C27*%
X121088817Y-102749098D03*
X121088817Y-101199098D03*
%TD*%
D39*
%TO.C,C146*%
X104704630Y-75181508D03*
X102804630Y-75181508D03*
%TD*%
D20*
%TO.C,D14*%
X129145000Y-72712138D03*
X129570000Y-72712138D03*
%TD*%
D19*
%TO.C,U9*%
X123411857Y-111611655D03*
X123411857Y-112561655D03*
X123411857Y-113511655D03*
X125911857Y-113511655D03*
X125911857Y-111611655D03*
%TD*%
D58*
%TO.C,J6*%
X110160000Y-66100000D03*
D59*
X107620000Y-63560000D03*
X107620000Y-68640000D03*
X112700000Y-63560000D03*
X112700000Y-68640000D03*
%TD*%
D10*
%TO.C,R95*%
X163215000Y-147120000D03*
X164865000Y-147120000D03*
%TD*%
D16*
%TO.C,R92*%
X92280441Y-73479530D03*
X90630441Y-73479530D03*
%TD*%
D29*
%TO.C,C34*%
X122678107Y-79340000D03*
X124228107Y-79340000D03*
%TD*%
D55*
%TO.C,J5*%
X133095000Y-67475000D03*
X132295000Y-67475000D03*
D97*
X131145000Y-67475000D03*
X130145000Y-67475000D03*
X129645000Y-67475000D03*
X128645000Y-67475000D03*
D55*
X126695000Y-67475000D03*
X127495000Y-67475000D03*
D97*
X128145000Y-67475000D03*
X129145000Y-67475000D03*
X130645000Y-67475000D03*
X131645000Y-67475000D03*
D98*
X134215000Y-66900000D03*
X125575000Y-66900000D03*
D99*
X134215000Y-62900000D03*
X125575000Y-62900000D03*
%TD*%
D17*
%TO.C,C48*%
X118060000Y-74828882D03*
X118060000Y-76378882D03*
%TD*%
D100*
X123380000Y-80800000D03*
X115570000Y-81610000D03*
X118830000Y-81580000D03*
X111290000Y-78300000D03*
X123503107Y-77880000D03*
X123303107Y-79356914D03*
X217690000Y-75900000D03*
X242107735Y-77484529D03*
X100490000Y-111540000D03*
X108443810Y-97638029D03*
X223552622Y-101920204D03*
X160290000Y-81470000D03*
X191410000Y-135680205D03*
X185320000Y-113770000D03*
X196660000Y-128560000D03*
X217007191Y-155583865D03*
X249205000Y-121340000D03*
X236595000Y-121350000D03*
X252594215Y-150200000D03*
X210656000Y-104530000D03*
X128775072Y-73269237D03*
X141080000Y-88220000D03*
X105670000Y-98050000D03*
X166300000Y-103300000D03*
X203530997Y-97620000D03*
X91526863Y-81618200D03*
X107440000Y-114090000D03*
X106690000Y-107270000D03*
X205080000Y-89530000D03*
X111250000Y-110650000D03*
X231494552Y-71173015D03*
X182510000Y-129340000D03*
X140064724Y-77532422D03*
X185930000Y-141940000D03*
X249215000Y-107710000D03*
X78980000Y-98630000D03*
X168410000Y-81470000D03*
X154830000Y-133200000D03*
X201214571Y-105400000D03*
X141704327Y-73714821D03*
X255220000Y-71360000D03*
X98920000Y-76860000D03*
X250970000Y-151880000D03*
X248915000Y-61950000D03*
X122730000Y-110480000D03*
X105850000Y-102430000D03*
X93280470Y-73479530D03*
X179860000Y-89530000D03*
X211110000Y-66800000D03*
X155300000Y-131940000D03*
X121088817Y-103540000D03*
X204378652Y-155583865D03*
X210886000Y-111339000D03*
X171620000Y-77490000D03*
X141080000Y-146255000D03*
X146169593Y-95625190D03*
X221813333Y-62804521D03*
X205080000Y-71360000D03*
X146390000Y-105430000D03*
X97870000Y-66795000D03*
X255220000Y-98620000D03*
X111340000Y-80070000D03*
X151985003Y-107445000D03*
X175910000Y-132940000D03*
X182740000Y-81240000D03*
X208979552Y-84073015D03*
X128710000Y-110960000D03*
X219310000Y-123610000D03*
X204372696Y-157561252D03*
X162900000Y-77910000D03*
X90150000Y-95870000D03*
X148400000Y-77700000D03*
X211050000Y-90070000D03*
X150690000Y-119620000D03*
X161300000Y-103570000D03*
X148330000Y-100850000D03*
X127230000Y-106720000D03*
X168950000Y-114200000D03*
X208560000Y-126238000D03*
X216686000Y-111349000D03*
X140290000Y-125930000D03*
X192470000Y-80440000D03*
X109113911Y-98982693D03*
X164360000Y-73650000D03*
X152290000Y-79030000D03*
X164732000Y-150695000D03*
X105625014Y-87325000D03*
X207021250Y-139170094D03*
X97815000Y-94565000D03*
X201150117Y-118541017D03*
X227407735Y-77304529D03*
X164560000Y-99201000D03*
X181316227Y-62773772D03*
X186165000Y-84990000D03*
X172680000Y-153860000D03*
X116360000Y-118550000D03*
X182200000Y-123410000D03*
X186860000Y-115300000D03*
X133585003Y-100795000D03*
X174560000Y-136390000D03*
X129781000Y-112160000D03*
X198775000Y-89530000D03*
X139539073Y-106094672D03*
X221280000Y-127250000D03*
X192470000Y-71360000D03*
X141435072Y-105580763D03*
X217860000Y-123580000D03*
X151405003Y-105675000D03*
X207347237Y-80510304D03*
X223737735Y-81234529D03*
X166260000Y-105860000D03*
X90340000Y-116030000D03*
X254020000Y-80570000D03*
X223315505Y-157561252D03*
X78980000Y-112265000D03*
X149080000Y-157290000D03*
X242910000Y-84990000D03*
X97870000Y-80420000D03*
X130420000Y-117355000D03*
X91740000Y-71100000D03*
X139680000Y-85420000D03*
X141080000Y-135240000D03*
X163690000Y-149550000D03*
X91290000Y-61950000D03*
X109880000Y-117480000D03*
X123115000Y-71360000D03*
X117650000Y-109770000D03*
X191750113Y-155583865D03*
X132750000Y-65290000D03*
X117830000Y-95325000D03*
X148335000Y-71360000D03*
X210692922Y-155583865D03*
X85285000Y-75900000D03*
X124340000Y-120955000D03*
X197210779Y-80396787D03*
X97545000Y-82235000D03*
X141080000Y-85420000D03*
X175460000Y-145290000D03*
X177517603Y-102973539D03*
X172584838Y-95913015D03*
X105440000Y-91340000D03*
X255220000Y-125880000D03*
X112463845Y-120077418D03*
X99370000Y-99980000D03*
X91150000Y-85790000D03*
X177530000Y-119170000D03*
X224750000Y-130960000D03*
X166810000Y-117130000D03*
X223884552Y-74493015D03*
X230000000Y-61950000D03*
X167250000Y-89530000D03*
X216686000Y-111979000D03*
X211385000Y-80440000D03*
X206200000Y-111060172D03*
X155300000Y-129700000D03*
X154640000Y-80440000D03*
X99051000Y-108730084D03*
X179810000Y-150820000D03*
X160290000Y-77910000D03*
X141084087Y-91824721D03*
X120160000Y-110800000D03*
X104200000Y-71360000D03*
X201817500Y-139210094D03*
X182820000Y-117430000D03*
X96840000Y-115350000D03*
X136390000Y-99230000D03*
X167380000Y-66720000D03*
X191744157Y-157561252D03*
X154910000Y-136670000D03*
X105235589Y-120639238D03*
X113238255Y-88421460D03*
X216506000Y-116339000D03*
X148200719Y-102423447D03*
X146975913Y-116660913D03*
X249205000Y-125880000D03*
X180390000Y-116850000D03*
X92260000Y-120230000D03*
X78980000Y-66815000D03*
X198775000Y-84990000D03*
X225767735Y-81234529D03*
X179810000Y-149286667D03*
X170050000Y-77540000D03*
X166840000Y-118790000D03*
X255220000Y-61950000D03*
X169230000Y-109770000D03*
X119760000Y-114590000D03*
X217690000Y-89530000D03*
X231564552Y-74313015D03*
X109070000Y-114090000D03*
X138280000Y-86820000D03*
X199824546Y-126542280D03*
X209620085Y-78920865D03*
X78980000Y-103175000D03*
X242900000Y-121340000D03*
X145040000Y-151080000D03*
X153730000Y-155650000D03*
X165688680Y-128712994D03*
X238950000Y-62790000D03*
X186510000Y-97625000D03*
X180707143Y-108325000D03*
X106446000Y-117430000D03*
X131170000Y-120955000D03*
X233974552Y-77843015D03*
X189875000Y-113860000D03*
X173520000Y-101030000D03*
X228980266Y-95723015D03*
X93820000Y-115810000D03*
X139680000Y-88220000D03*
X90381429Y-125900000D03*
X103000000Y-115230000D03*
X85269835Y-89279835D03*
X191410000Y-131006000D03*
X255220000Y-144050000D03*
X182769560Y-62773772D03*
X177520000Y-103850000D03*
X153870000Y-99220000D03*
X135425000Y-61950000D03*
X210656000Y-98610000D03*
X236605000Y-103160000D03*
X214096000Y-101630000D03*
X196613750Y-131006000D03*
X165680000Y-149640000D03*
X211596000Y-111339000D03*
X172610000Y-155320000D03*
X103000000Y-118480000D03*
X196690000Y-108805000D03*
X90150000Y-98790000D03*
X192339997Y-96270000D03*
X149390000Y-112564997D03*
X173270000Y-116600000D03*
X125150000Y-90330000D03*
X129815429Y-63576857D03*
X210886000Y-111969000D03*
X183514552Y-95913015D03*
X223321461Y-155583865D03*
X149595599Y-79188779D03*
X207744828Y-112605001D03*
X211080000Y-135860000D03*
X193890003Y-97620000D03*
X211526000Y-116339000D03*
X178420779Y-70136787D03*
X166540000Y-130140000D03*
X159553172Y-108540000D03*
X211385000Y-84990000D03*
X148025000Y-66810000D03*
X221707735Y-81234529D03*
X143600000Y-102060000D03*
X78980000Y-125900000D03*
X166380000Y-81470000D03*
X228120000Y-131006000D03*
X156190000Y-126740000D03*
X138420000Y-115280000D03*
X242910000Y-89530000D03*
X167550000Y-134950000D03*
X242610000Y-61950000D03*
X246390000Y-156010000D03*
X228580000Y-124040000D03*
X131275737Y-65080000D03*
X237102571Y-125879143D03*
X206935305Y-78986599D03*
X194891476Y-78609892D03*
X180589560Y-62773772D03*
X153760000Y-131940000D03*
X249215000Y-94070000D03*
X180420000Y-115330000D03*
X162320000Y-81470000D03*
X107950000Y-87325000D03*
X184750000Y-77720000D03*
X124970000Y-93710000D03*
X219677735Y-81234529D03*
X180707143Y-105400000D03*
X104940000Y-110520000D03*
X216506000Y-115709000D03*
X95465009Y-111144333D03*
X156840000Y-109790000D03*
X186510000Y-102500000D03*
X181550779Y-74476787D03*
X218360000Y-101630000D03*
X148070000Y-97070000D03*
X165678680Y-127962994D03*
X217390000Y-61950000D03*
X249215000Y-75900000D03*
X98035637Y-109875000D03*
X223266666Y-62804521D03*
X198775000Y-71360000D03*
X162510000Y-122650000D03*
X222290000Y-126010000D03*
X159180000Y-97675000D03*
X162580000Y-140296250D03*
X205410000Y-94370000D03*
X153744998Y-115291345D03*
X141080000Y-157270000D03*
X145190000Y-113120000D03*
X176890779Y-70151787D03*
X161870000Y-134600000D03*
X192170000Y-61950000D03*
X236064552Y-70123015D03*
X148432013Y-118312978D03*
X160190000Y-120210000D03*
X94845000Y-77465000D03*
X126690000Y-66420000D03*
X104370000Y-72400000D03*
X221310000Y-119160000D03*
X175590000Y-104640000D03*
X211526000Y-115709000D03*
X148440000Y-76240000D03*
X166800000Y-108600000D03*
X103875000Y-66795000D03*
X160645000Y-61950000D03*
X105278782Y-123674811D03*
X83530000Y-125910000D03*
X207021250Y-135700000D03*
X107210000Y-120640003D03*
X250090000Y-155970000D03*
X164030000Y-145060000D03*
X102976940Y-121550466D03*
X164327856Y-115522423D03*
X201214571Y-102500000D03*
X244240000Y-77760000D03*
X138280000Y-85420000D03*
X186510000Y-100915000D03*
X196060779Y-78039284D03*
X110888857Y-125900000D03*
X220571000Y-106860000D03*
X170050000Y-79900000D03*
X214056000Y-104503000D03*
X135260000Y-69080000D03*
X198775000Y-80440000D03*
X197368848Y-78895194D03*
X186165000Y-75900000D03*
X147840000Y-146460000D03*
X186510000Y-110320000D03*
X113550000Y-119865000D03*
X107725000Y-123675003D03*
X149524944Y-107445000D03*
X85030000Y-69740000D03*
X96140000Y-98630000D03*
X154530000Y-130820000D03*
X211385000Y-71360000D03*
X231556495Y-76822730D03*
X141456834Y-116046678D03*
X189875000Y-118750000D03*
X213276000Y-104503000D03*
X99210000Y-112840000D03*
X225994552Y-72823015D03*
X229629774Y-99771693D03*
X133597374Y-95855086D03*
X158350000Y-103590000D03*
X141080000Y-140747500D03*
X196613750Y-139170094D03*
X138280000Y-88220000D03*
X243380000Y-149710000D03*
X249170000Y-126820000D03*
X163760000Y-151750000D03*
X78980000Y-80450000D03*
X116510000Y-61950000D03*
X235950000Y-155583865D03*
X240097735Y-81184529D03*
X205081003Y-97655000D03*
X116515000Y-66815000D03*
X159090000Y-79620000D03*
X220571000Y-104510000D03*
X146110787Y-118486000D03*
X85285000Y-84990000D03*
X179115618Y-157561252D03*
X199966000Y-123433000D03*
X153817149Y-118031869D03*
X78980000Y-75905000D03*
X108269253Y-92954549D03*
X150270779Y-85377115D03*
X98652169Y-102567826D03*
X242900000Y-116790000D03*
X180707143Y-100915000D03*
X122815000Y-66815000D03*
X163660000Y-155590000D03*
X127350000Y-70130000D03*
X156190000Y-125240000D03*
X144333802Y-118489130D03*
X131490000Y-75900000D03*
X170210000Y-118630000D03*
X84985000Y-61950000D03*
X214776000Y-104503000D03*
X193890003Y-96270000D03*
X158130000Y-99201000D03*
X254392905Y-78830000D03*
X227407735Y-79664529D03*
X205080000Y-75900000D03*
X215976000Y-111349000D03*
X136478000Y-114673000D03*
X147659985Y-118486000D03*
X205220000Y-127690000D03*
X100495998Y-74499356D03*
X217706000Y-104493000D03*
X155830000Y-146380000D03*
X175580286Y-113540000D03*
X201131344Y-120119714D03*
X78680000Y-61950000D03*
X131324986Y-95845025D03*
X139700000Y-111800000D03*
X194875000Y-102500000D03*
X132311430Y-91859663D03*
X102781718Y-98074348D03*
X186930000Y-135700000D03*
X127110000Y-65210000D03*
X164510000Y-72010000D03*
X141630495Y-109667899D03*
X92340000Y-115710000D03*
X136523143Y-125900000D03*
X153760000Y-130820000D03*
X193170000Y-127530000D03*
X226940000Y-102610000D03*
X164280000Y-97675000D03*
X84985000Y-66815000D03*
X243680000Y-71360000D03*
X150152264Y-112054331D03*
X194880779Y-80366787D03*
X94830000Y-104489997D03*
X104600000Y-98050000D03*
X195280000Y-126770000D03*
X85590000Y-125770000D03*
X133040000Y-103680000D03*
X205081003Y-96270000D03*
X234107123Y-80028015D03*
X177711695Y-95913015D03*
X160050000Y-115225000D03*
X138514912Y-77532807D03*
X140410000Y-116030000D03*
X204780000Y-61950000D03*
X244157735Y-81184529D03*
X157560000Y-149260000D03*
X167520000Y-143980000D03*
X211385000Y-75900000D03*
X106520000Y-109800000D03*
X160945000Y-75900000D03*
X128820000Y-108440000D03*
X175080000Y-120869000D03*
X132620000Y-112010000D03*
X147120000Y-137020000D03*
X105762000Y-125900000D03*
X172801348Y-157561252D03*
X236605000Y-89530000D03*
X78980000Y-116670000D03*
X179121574Y-155583865D03*
X153130000Y-146270000D03*
X134074158Y-109255751D03*
X224492087Y-102607087D03*
X110205000Y-61950000D03*
X160945000Y-89530000D03*
X153690000Y-106465000D03*
X161980000Y-120690000D03*
X217216000Y-116339000D03*
X226271587Y-110501587D03*
X242210000Y-135700000D03*
X249215000Y-71360000D03*
X167250000Y-84990000D03*
X236605000Y-107710000D03*
X133870000Y-75760000D03*
X186165000Y-71360000D03*
X201214571Y-108325000D03*
X190750000Y-99980000D03*
X100560000Y-112810000D03*
X145970000Y-100795000D03*
X103900000Y-61950000D03*
X92629911Y-109875000D03*
X113020000Y-107365000D03*
X166487078Y-157561252D03*
X153760000Y-107430000D03*
X199976000Y-122743000D03*
X217690000Y-84990000D03*
X175740000Y-120870000D03*
X141080000Y-151762500D03*
X154640000Y-71360000D03*
X157560000Y-152240000D03*
X137497120Y-80870000D03*
X255220000Y-134970000D03*
X243800000Y-141259714D03*
X154640000Y-93776989D03*
X255140000Y-152300000D03*
X122720000Y-109700000D03*
X158525000Y-120015000D03*
X100635143Y-125900000D03*
X186800000Y-77720000D03*
X119760000Y-113830000D03*
X162050992Y-117259928D03*
X255220000Y-112250000D03*
X155340000Y-121260000D03*
X236605000Y-84990000D03*
X154530000Y-129700000D03*
X195010000Y-111180000D03*
X210686966Y-157561252D03*
X180710000Y-81240000D03*
X179810000Y-150053333D03*
X239252052Y-74493015D03*
X141080000Y-86820000D03*
X198050779Y-91996787D03*
X124150000Y-108610000D03*
X133080000Y-66440000D03*
X242910000Y-94070000D03*
X146545000Y-99210000D03*
X106530000Y-123475000D03*
X102640000Y-110400000D03*
X249230000Y-112240000D03*
X211596000Y-111969000D03*
X162600000Y-106660000D03*
X150982326Y-117985640D03*
X114838111Y-103560000D03*
X247356286Y-131006000D03*
X174340000Y-120860000D03*
X223995000Y-84990000D03*
X165610000Y-126290000D03*
X131098162Y-73267434D03*
X175560000Y-97675000D03*
X95508286Y-125900000D03*
X229635731Y-155583865D03*
X91447085Y-79295105D03*
X121100000Y-88440000D03*
X94180000Y-117720000D03*
X109100000Y-71100000D03*
X224577755Y-128186977D03*
X223695000Y-61950000D03*
X120157185Y-109747567D03*
X166650000Y-140280000D03*
X242127735Y-81184529D03*
X97711000Y-114319000D03*
X169690000Y-102170000D03*
X102810000Y-96540000D03*
X85285000Y-80440000D03*
X186165000Y-89530000D03*
X153920000Y-157430000D03*
X153795000Y-113491000D03*
X142781079Y-76031537D03*
X160945000Y-84990000D03*
X207021250Y-131006000D03*
X186800000Y-81240000D03*
X154640000Y-75900000D03*
X236980000Y-131006000D03*
X198475000Y-61950000D03*
X97035000Y-93270000D03*
X185435843Y-155583865D03*
X249215000Y-98620000D03*
X236325000Y-66800000D03*
X215976000Y-111979000D03*
X122220000Y-93940000D03*
X106520000Y-121175000D03*
X223995000Y-98620000D03*
X204805000Y-66800000D03*
X192200000Y-66806787D03*
X185429887Y-157561252D03*
X180707143Y-110320000D03*
X87030000Y-125800000D03*
X221921000Y-102640000D03*
X111320000Y-81580000D03*
X150270779Y-89799451D03*
X166290000Y-102070000D03*
X166280000Y-104610000D03*
X177040000Y-77310000D03*
X232225273Y-102000659D03*
X154330000Y-66810000D03*
X145290000Y-157320000D03*
X115725423Y-74286337D03*
X210960000Y-94480000D03*
X129540000Y-111000000D03*
X102061000Y-114279000D03*
X217984552Y-94399015D03*
X88480000Y-110750000D03*
X139680000Y-86820000D03*
X220420000Y-102520000D03*
X164299560Y-62793772D03*
X135725000Y-71360000D03*
X177040000Y-79670000D03*
X147588113Y-119662642D03*
X125410000Y-79380000D03*
X180800000Y-97675000D03*
X131396286Y-125900000D03*
X189590000Y-133380000D03*
X222540000Y-62804521D03*
X236037735Y-81184529D03*
X213410000Y-123620000D03*
X181726250Y-139110000D03*
X87330000Y-89640000D03*
X168370779Y-72836787D03*
X236605000Y-98620000D03*
X251708125Y-78991492D03*
X173255000Y-61950000D03*
X231190000Y-99750000D03*
X198505000Y-66806787D03*
X133140000Y-114410000D03*
X96985000Y-91820000D03*
X166950000Y-61950000D03*
X150230779Y-94336787D03*
X207270000Y-118540000D03*
X236305000Y-61950000D03*
X86661640Y-104288360D03*
X147880000Y-137020000D03*
X135725000Y-84990000D03*
X150978505Y-78212980D03*
X198775000Y-75900000D03*
X121710000Y-115040000D03*
X224306000Y-115303000D03*
X218486000Y-104493000D03*
X182390000Y-145440000D03*
X240460000Y-152780000D03*
X165026227Y-62793772D03*
X196613750Y-135700000D03*
X98578521Y-104888829D03*
X221046000Y-111959000D03*
X164580000Y-142740000D03*
X143630265Y-95153576D03*
X207599552Y-86733015D03*
X249220000Y-116780000D03*
X152850000Y-109601000D03*
X239676666Y-62790000D03*
X219206000Y-104493000D03*
X249300000Y-131540000D03*
X122815000Y-61950000D03*
X185865000Y-61950000D03*
X255220000Y-121340000D03*
X114860000Y-91780000D03*
X99350000Y-71100000D03*
X153760000Y-129700000D03*
X226764552Y-70063015D03*
X188000000Y-79390000D03*
X85285000Y-71360000D03*
X179595000Y-66800000D03*
X128520000Y-65080000D03*
X152529997Y-111870000D03*
X198058427Y-157561252D03*
X141730000Y-61950000D03*
X244897735Y-79264529D03*
X154640000Y-84990000D03*
X170630779Y-70091787D03*
X223995000Y-94070000D03*
X143770000Y-81230000D03*
X255220000Y-66770000D03*
X175910000Y-134870000D03*
X165970000Y-147100000D03*
X163250000Y-121235000D03*
X116810000Y-71360000D03*
X131325003Y-100930000D03*
X131590000Y-124210000D03*
X151040000Y-99250000D03*
X220257735Y-77674529D03*
X160950000Y-94070000D03*
X164475000Y-108710000D03*
X154340000Y-61950000D03*
X151405003Y-102185000D03*
X205080000Y-84990000D03*
X177280000Y-128490000D03*
X140670000Y-80880000D03*
X198064383Y-155583865D03*
X208318211Y-78010800D03*
X172660000Y-114070000D03*
X141725000Y-66815000D03*
X99270000Y-111540000D03*
X217216000Y-115709000D03*
X252594215Y-150990000D03*
X112036000Y-110650000D03*
X104660000Y-91360000D03*
X174130000Y-140730000D03*
X209250674Y-80493480D03*
X157560000Y-150710000D03*
X249215000Y-84990000D03*
X126440000Y-115910000D03*
X176080000Y-127130000D03*
X249215000Y-103160000D03*
X210816000Y-115709000D03*
X182042893Y-62773772D03*
X179560000Y-61950000D03*
X151120000Y-113885000D03*
X217415000Y-66800000D03*
X173913278Y-76848973D03*
X140570000Y-120955000D03*
X187150000Y-118810000D03*
X221756000Y-111329000D03*
X107515565Y-91835021D03*
X186510000Y-105400000D03*
X137714821Y-72774821D03*
X170688709Y-110490519D03*
X156860000Y-115225000D03*
X143415003Y-91820000D03*
X217647735Y-81234529D03*
X104314511Y-121162540D03*
X184770000Y-81240000D03*
X148035000Y-61950000D03*
X225570000Y-104450000D03*
X155300000Y-130820000D03*
X78980000Y-84995000D03*
X201817500Y-131006000D03*
X96190000Y-114150000D03*
X255220000Y-139510000D03*
X231935000Y-131006000D03*
X173900779Y-74556787D03*
X208330000Y-124270000D03*
X238223333Y-62790000D03*
X113378111Y-103590000D03*
X78980000Y-107720000D03*
X235944044Y-157561252D03*
X183590000Y-133230000D03*
X140484125Y-110324302D03*
X242910000Y-98620000D03*
X209060000Y-116160000D03*
X252040000Y-80520000D03*
X203530997Y-96270000D03*
X249215000Y-80440000D03*
X201817500Y-135700000D03*
X208979552Y-86793015D03*
X169410000Y-136410000D03*
X186930000Y-139140094D03*
X179490779Y-72836787D03*
X221046000Y-111329000D03*
X253091031Y-78015693D03*
X191410000Y-139140094D03*
X217001235Y-157561252D03*
X212040000Y-98590000D03*
X170200000Y-117070000D03*
X192470000Y-89530000D03*
X217647735Y-77674529D03*
X118980000Y-74260000D03*
X232220000Y-99720000D03*
X237124552Y-72853015D03*
X146410000Y-143355002D03*
X164750000Y-70580000D03*
X207599552Y-84063015D03*
X225850000Y-120520000D03*
X255220000Y-116790000D03*
X218417000Y-98210000D03*
X185895000Y-66806787D03*
X248930000Y-151940000D03*
X116015714Y-125900000D03*
X145090000Y-109700000D03*
X97270000Y-61980000D03*
X172890000Y-97675000D03*
X255220000Y-148600000D03*
X108446524Y-120975114D03*
X161416850Y-95960717D03*
X177290000Y-130960000D03*
X179860000Y-84990000D03*
X100020000Y-106570000D03*
X238067735Y-81184529D03*
X148469681Y-111117146D03*
X105655000Y-100150000D03*
X158404968Y-115225000D03*
X189875000Y-129225000D03*
X177246250Y-139110000D03*
X255220000Y-107710000D03*
X178680000Y-81240000D03*
X146360000Y-137000000D03*
X144660000Y-114350000D03*
X124300000Y-69120000D03*
X166223279Y-74536787D03*
X229629775Y-157561252D03*
X186510000Y-108325000D03*
X172860000Y-127110000D03*
X165780000Y-151730000D03*
X139480000Y-91890000D03*
X151930000Y-80770000D03*
X214910000Y-123600000D03*
X88370000Y-103760000D03*
X102111000Y-109929000D03*
X255220000Y-84990000D03*
X126269429Y-125900000D03*
X223993333Y-62804521D03*
X234554552Y-70133015D03*
X94874983Y-110102084D03*
X96120000Y-102730000D03*
X198080000Y-108604997D03*
X255220000Y-130420000D03*
X165752893Y-62793772D03*
X192470000Y-75900000D03*
X121050000Y-71100000D03*
X147010000Y-80970000D03*
X255220000Y-89530000D03*
X96805000Y-118530000D03*
X154640000Y-89530000D03*
X224941587Y-111831587D03*
X212036000Y-104530000D03*
X187150000Y-129223333D03*
X180707143Y-102500000D03*
X192339997Y-97620000D03*
X169690000Y-140740000D03*
X194875000Y-105400000D03*
X87985000Y-93550000D03*
X242910000Y-103160000D03*
X133860419Y-91820000D03*
X89550000Y-99760000D03*
X78980000Y-89540000D03*
X155990000Y-133270000D03*
X97870000Y-75880000D03*
X78980000Y-121355000D03*
X227949460Y-134269460D03*
X205080000Y-80440000D03*
X128868197Y-106402534D03*
X242229429Y-131006000D03*
X133080000Y-110890000D03*
X242910000Y-107710000D03*
X78980000Y-94085000D03*
X212225000Y-131006000D03*
X130560000Y-82580000D03*
X164350000Y-81470000D03*
X129830000Y-108480000D03*
X216447735Y-79384529D03*
X97870000Y-71340000D03*
X242900000Y-125880000D03*
X169100779Y-70081787D03*
X201214571Y-97620000D03*
X103021587Y-111801587D03*
X84940000Y-68270000D03*
X175390000Y-142010000D03*
X117852576Y-96985000D03*
X121142571Y-125900000D03*
X173790779Y-71256787D03*
X157690000Y-124850000D03*
X131804658Y-107906876D03*
X233768869Y-99761963D03*
X255220000Y-103160000D03*
X247290000Y-67660000D03*
X179810000Y-148520000D03*
X142030000Y-71360000D03*
X156890000Y-103640000D03*
X217690000Y-71360000D03*
X255220000Y-94070000D03*
X97220000Y-109875000D03*
X223995000Y-89530000D03*
X104585000Y-100150000D03*
X121530000Y-81020000D03*
X255220000Y-75900000D03*
X242258314Y-157561252D03*
X240403333Y-62790000D03*
X92699997Y-106820000D03*
X198219123Y-96043015D03*
X242635000Y-66800000D03*
X160635000Y-66810000D03*
X203690000Y-128910000D03*
X239040000Y-135780000D03*
X180707143Y-99201000D03*
X147863587Y-109352910D03*
X96970000Y-83740000D03*
X160140000Y-157360000D03*
X140600733Y-108390000D03*
X120040000Y-98230000D03*
X167520000Y-131940000D03*
X162040000Y-115710000D03*
X167691790Y-108610085D03*
X154530000Y-131940000D03*
X113349158Y-90100520D03*
X216370000Y-123600000D03*
X96883655Y-113478999D03*
X99876000Y-112154000D03*
X170560000Y-125520000D03*
X212021000Y-106280000D03*
X150007531Y-80712484D03*
X166479560Y-62793772D03*
X187150000Y-133430000D03*
X98465000Y-79085000D03*
X249215000Y-89530000D03*
X210816000Y-116339000D03*
X131721922Y-109245089D03*
X248710000Y-67670000D03*
X228294552Y-70073015D03*
X199883413Y-128586587D03*
X192470000Y-84990000D03*
X253720000Y-157561252D03*
X211085000Y-61950000D03*
X255220000Y-80440000D03*
X203500000Y-127708000D03*
X88005000Y-94310000D03*
X141864997Y-91820000D03*
X199966000Y-124123000D03*
X146414712Y-106611225D03*
X132125079Y-78311233D03*
X221756000Y-111959000D03*
X173290000Y-66800000D03*
X242910000Y-112250000D03*
X98790000Y-75410000D03*
X233800000Y-102010000D03*
X193115000Y-96270000D03*
X193115000Y-97620000D03*
X233000000Y-101980000D03*
X232995003Y-99720000D03*
X167215888Y-109965000D03*
X148190000Y-108650000D03*
X150055000Y-108020000D03*
X167840000Y-109400000D03*
X148925000Y-110490000D03*
X169190000Y-110620000D03*
X150120000Y-111280000D03*
X170660000Y-111280000D03*
X249290000Y-130510000D03*
X178660000Y-114410000D03*
X175600000Y-114420000D03*
X249960000Y-151870000D03*
X249960000Y-152600000D03*
X176410000Y-115840000D03*
X176380000Y-115110000D03*
X176360000Y-114440000D03*
X158920000Y-128290000D03*
X159980000Y-128300000D03*
X250740000Y-148765828D03*
X225770000Y-115250000D03*
X204881000Y-124260000D03*
X250800000Y-149547177D03*
X161820000Y-128340000D03*
X204881000Y-122750000D03*
X249330000Y-128460000D03*
X161000000Y-128330000D03*
X251640000Y-148765828D03*
X204881000Y-123480000D03*
X251640000Y-149505828D03*
X172350000Y-120600000D03*
X173100000Y-120600000D03*
X171660000Y-117540000D03*
X106610000Y-111164997D03*
X128040000Y-75300000D03*
X106640000Y-111950000D03*
X177470000Y-102200000D03*
X148324821Y-73724821D03*
X171600000Y-120600000D03*
X152325000Y-117945000D03*
X101450000Y-118430000D03*
X142370000Y-116140000D03*
X156040000Y-105260000D03*
X142600000Y-76920000D03*
X152450000Y-119600000D03*
X145730000Y-75140000D03*
X143610000Y-103650000D03*
X128930000Y-105630000D03*
X173280000Y-108390000D03*
X176390000Y-107890000D03*
X140420000Y-112360000D03*
X155900000Y-114068704D03*
X168870000Y-115670000D03*
X214686000Y-108049000D03*
X218476000Y-108029000D03*
X213356000Y-108729000D03*
X218476000Y-108719000D03*
X214686000Y-108729000D03*
X217796000Y-108019000D03*
X214036000Y-108049000D03*
X219126000Y-108709000D03*
X219126000Y-108029000D03*
X217796000Y-108709000D03*
X213356000Y-108039000D03*
X214036000Y-108739000D03*
X126760000Y-110760000D03*
X127210000Y-111390000D03*
X100440000Y-91550000D03*
X101270000Y-74460000D03*
X126320000Y-108520000D03*
X112668108Y-78687158D03*
X125360000Y-108520000D03*
X114096939Y-100559550D03*
X99360000Y-101060000D03*
X125900000Y-110800000D03*
X90150000Y-97330000D03*
X130550000Y-95840000D03*
X130550000Y-100930000D03*
X132810000Y-95844998D03*
X132810000Y-100795000D03*
X151210000Y-107445000D03*
X144100000Y-95770000D03*
X140560000Y-109540000D03*
X145395000Y-95600000D03*
X145640000Y-106590000D03*
X131030000Y-107930000D03*
X148399099Y-119102294D03*
X142402137Y-109740000D03*
X139289821Y-77544821D03*
X95090000Y-84010000D03*
X124000000Y-95360000D03*
X87470000Y-110820000D03*
X101420000Y-86050000D03*
X101160000Y-92470000D03*
X115600000Y-89350000D03*
X116701610Y-103560000D03*
X123990000Y-96820000D03*
X97370000Y-102730000D03*
X125290000Y-80780000D03*
D101*
X172410000Y-100600000D03*
D100*
X142640000Y-91820000D03*
X142210000Y-105570000D03*
X140312749Y-91900000D03*
X140312749Y-106140000D03*
X153819159Y-109225000D03*
X133085417Y-91819999D03*
X122600000Y-106850000D03*
X104770000Y-102580000D03*
X93742541Y-112107459D03*
X102200000Y-108610000D03*
X92340000Y-112100000D03*
X123610000Y-106840000D03*
X102820000Y-95000000D03*
X204306000Y-96270000D03*
X204306000Y-127713000D03*
X107210000Y-119865000D03*
X105270000Y-119865000D03*
D101*
X173800000Y-97770000D03*
D100*
X104820000Y-121750000D03*
X108460000Y-121750000D03*
D101*
X173840000Y-99090000D03*
D100*
X150270000Y-113960000D03*
X195530000Y-110605000D03*
X149390000Y-113340000D03*
X196690000Y-110030000D03*
X153320000Y-111870000D03*
X198080000Y-109380000D03*
X94355000Y-93900000D03*
X108870000Y-101110000D03*
X110700000Y-91700000D03*
X108890000Y-95330000D03*
X95115000Y-93890000D03*
X108850000Y-96770000D03*
X93605000Y-93910000D03*
X129550000Y-73280000D03*
X146745003Y-100795000D03*
X150630000Y-102185000D03*
X150630000Y-105675000D03*
X86380000Y-102820000D03*
X223100000Y-125970000D03*
X230404552Y-99753015D03*
D101*
X172400000Y-99470000D03*
D100*
X132900000Y-78300000D03*
X148905000Y-102100000D03*
X117154346Y-96638395D03*
X117780000Y-98135000D03*
X117277220Y-95873197D03*
X117750000Y-94175000D03*
X85010000Y-101580000D03*
X91510151Y-80843378D03*
X98642382Y-104116462D03*
X96455757Y-110395637D03*
X109044212Y-92962766D03*
X134040000Y-110030000D03*
X131710000Y-110020000D03*
X147517023Y-100862920D03*
X130324442Y-73311998D03*
X104274151Y-117600000D03*
X112400000Y-119290000D03*
X150210000Y-118050000D03*
X147250000Y-120360000D03*
X150719999Y-116564388D03*
X113460000Y-118700000D03*
X146885386Y-118461000D03*
X105281000Y-117570000D03*
X143560000Y-118446000D03*
X153180000Y-110314000D03*
X108370000Y-99200000D03*
X93271068Y-110310366D03*
X106400000Y-87320000D03*
X93475000Y-106820000D03*
X91460000Y-80070000D03*
X108285895Y-91920000D03*
X98679469Y-103342347D03*
X96240000Y-111140000D03*
X106500000Y-122325000D03*
X102950000Y-122325000D03*
X162040000Y-116485003D03*
X163553532Y-115490000D03*
X107725000Y-122900000D03*
X105296000Y-122900000D03*
X107175003Y-87320000D03*
X107670000Y-97710000D03*
X94830000Y-105265000D03*
X94136181Y-110336181D03*
X86130000Y-101620000D03*
X87440000Y-102810000D03*
X112680002Y-89709550D03*
X114003638Y-88543188D03*
X148920000Y-136980000D03*
X150370000Y-136940000D03*
X116400000Y-116740000D03*
X179380000Y-119170000D03*
X115020000Y-116740000D03*
X112550000Y-116730000D03*
X149640000Y-136960000D03*
X180380000Y-119240000D03*
X111620000Y-116380000D03*
X113800000Y-116740000D03*
X181310000Y-119190000D03*
X156220000Y-136730000D03*
M02*
