M48
; DRILL file KiCad 10.0.1 date 2026-05-23T20:10:11
; FORMAT={-:-/ absolute / metric / decimal}
; #@! TF.CreationDate,2026-05-23T20:10:11+02:00
; #@! TF.GenerationSoftware,Kicad,Pcbnew,10.0.1
; #@! TF.FileFunction,Plated,1,6,PTH
FMAT,2
METRIC
; #@! TA.AperFunction,Plated,PTH,ViaDrill
T1C0.300
; #@! TA.AperFunction,Plated,PTH,ComponentDrill
T2C0.600
; #@! TA.AperFunction,Plated,PTH,ComponentDrill
T3C0.650
; #@! TA.AperFunction,Plated,PTH,ComponentDrill
T4C0.800
; #@! TA.AperFunction,Plated,PTH,ComponentDrill
T5C1.020
; #@! TA.AperFunction,Plated,PTH,ComponentDrill
T6C1.050
; #@! TA.AperFunction,Plated,PTH,ComponentDrill
T7C1.067
; #@! TA.AperFunction,Plated,PTH,ComponentDrill
T8C1.270
; #@! TA.AperFunction,Plated,PTH,ComponentDrill
T9C1.500
; #@! TA.AperFunction,Plated,PTH,ComponentDrill
T10C1.700
; #@! TA.AperFunction,Plated,PTH,ComponentDrill
T11C6.000
%
G90
G05
T1
X78.68Y-61.95
X78.98Y-66.815
X78.98Y-75.905
X78.98Y-80.45
X78.98Y-84.995
X78.98Y-89.54
X78.98Y-94.085
X78.98Y-98.63
X78.98Y-103.175
X78.98Y-107.72
X78.98Y-112.265
X78.98Y-116.67
X78.98Y-121.355
X78.98Y-125.9
X83.53Y-125.91
X84.94Y-68.27
X84.985Y-61.95
X84.985Y-66.815
X85.01Y-101.58
X85.03Y-69.74
X85.27Y-89.28
X85.285Y-71.36
X85.285Y-75.9
X85.285Y-80.44
X85.285Y-84.99
X85.59Y-125.77
X86.13Y-101.62
X86.38Y-102.82
X86.662Y-104.288
X87.03Y-125.8
X87.33Y-89.64
X87.44Y-102.81
X87.47Y-110.82
X87.985Y-93.55
X88.005Y-94.31
X88.37Y-103.76
X88.48Y-110.75
X89.55Y-99.76
X90.15Y-95.87
X90.15Y-97.33
X90.15Y-98.79
X90.34Y-116.03
X90.381Y-125.9
X91.15Y-85.79
X91.29Y-61.95
X91.447Y-79.295
X91.46Y-80.07
X91.51Y-80.843
X91.527Y-81.618
X91.74Y-71.1
X92.26Y-120.23
X92.34Y-112.1
X92.34Y-115.71
X92.63Y-109.875
X92.7Y-106.82
X93.271Y-110.31
X93.28Y-73.48
X93.475Y-106.82
X93.605Y-93.91
X93.743Y-112.107
X93.82Y-115.81
X94.136Y-110.336
X94.18Y-117.72
X94.355Y-93.9
X94.83Y-104.49
X94.83Y-105.265
X94.845Y-77.465
X94.875Y-110.102
X95.09Y-84.01
X95.115Y-93.89
X95.465Y-111.144
X95.508Y-125.9
X96.12Y-102.73
X96.14Y-98.63
X96.19Y-114.15
X96.24Y-111.14
X96.456Y-110.396
X96.805Y-118.53
X96.84Y-115.35
X96.884Y-113.479
X96.97Y-83.74
X96.985Y-91.82
X97.035Y-93.27
X97.22Y-109.875
X97.27Y-61.98
X97.37Y-102.73
X97.545Y-82.235
X97.711Y-114.319
X97.815Y-94.565
X97.87Y-66.795
X97.87Y-71.34
X97.87Y-75.88
X97.87Y-80.42
X98.036Y-109.875
X98.465Y-79.085
X98.579Y-104.889
X98.642Y-104.116
X98.652Y-102.568
X98.679Y-103.342
X98.79Y-75.41
X98.92Y-76.86
X99.051Y-108.73
X99.21Y-112.84
X99.27Y-111.54
X99.35Y-71.1
X99.36Y-101.06
X99.37Y-99.98
X99.876Y-112.154
X100.02Y-106.57
X100.44Y-91.55
X100.49Y-111.54
X100.496Y-74.499
X100.56Y-112.81
X100.635Y-125.9
X101.16Y-92.47
X101.27Y-74.46
X101.42Y-86.05
X101.45Y-118.43
X102.061Y-114.279
X102.111Y-109.929
X102.2Y-108.61
X102.64Y-110.4
X102.782Y-98.074
X102.81Y-96.54
X102.82Y-95.0
X102.95Y-122.325
X102.977Y-121.55
X103.0Y-115.23
X103.0Y-118.48
X103.022Y-111.802
X103.875Y-66.795
X103.9Y-61.95
X104.2Y-71.36
X104.274Y-117.6
X104.315Y-121.163
X104.37Y-72.4
X104.585Y-100.15
X104.6Y-98.05
X104.66Y-91.36
X104.77Y-102.58
X104.82Y-121.75
X104.94Y-110.52
X105.236Y-120.639
X105.27Y-119.865
X105.279Y-123.675
X105.281Y-117.57
X105.296Y-122.9
X105.44Y-91.34
X105.625Y-87.325
X105.655Y-100.15
X105.67Y-98.05
X105.762Y-125.9
X105.85Y-102.43
X106.4Y-87.32
X106.446Y-117.43
X106.5Y-122.325
X106.52Y-109.8
X106.52Y-121.175
X106.53Y-123.475
X106.61Y-111.165
X106.64Y-111.95
X106.69Y-107.27
X107.175Y-87.32
X107.21Y-119.865
X107.21Y-120.64
X107.44Y-114.09
X107.516Y-91.835
X107.67Y-97.71
X107.725Y-122.9
X107.725Y-123.675
X107.95Y-87.325
X108.269Y-92.955
X108.286Y-91.92
X108.37Y-99.2
X108.444Y-97.638
X108.447Y-120.975
X108.46Y-121.75
X108.85Y-96.77
X108.87Y-101.11
X108.89Y-95.33
X109.044Y-92.963
X109.07Y-114.09
X109.1Y-71.1
X109.114Y-98.983
X109.88Y-117.48
X110.205Y-61.95
X110.7Y-91.7
X110.889Y-125.9
X111.25Y-110.65
X111.29Y-78.3
X111.32Y-81.58
X111.34Y-80.07
X111.62Y-116.38
X112.036Y-110.65
X112.4Y-119.29
X112.464Y-120.077
X112.55Y-116.73
X112.668Y-78.687
X112.68Y-89.71
X113.02Y-107.365
X113.238Y-88.421
X113.349Y-90.101
X113.378Y-103.59
X113.46Y-118.7
X113.55Y-119.865
X113.8Y-116.74
X114.004Y-88.543
X114.097Y-100.56
X114.838Y-103.56
X114.86Y-91.78
X115.02Y-116.74
X115.57Y-81.61
X115.6Y-89.35
X115.725Y-74.286
X116.016Y-125.9
X116.36Y-118.55
X116.4Y-116.74
X116.51Y-61.95
X116.515Y-66.815
X116.702Y-103.56
X116.81Y-71.36
X117.154Y-96.638
X117.277Y-95.873
X117.65Y-109.77
X117.75Y-94.175
X117.78Y-98.135
X117.83Y-95.325
X117.853Y-96.985
X118.83Y-81.58
X118.98Y-74.26
X119.76Y-113.83
X119.76Y-114.59
X120.04Y-98.23
X120.157Y-109.748
X120.16Y-110.8
X121.05Y-71.1
X121.089Y-103.54
X121.1Y-88.44
X121.143Y-125.9
X121.53Y-81.02
X121.71Y-115.04
X122.22Y-93.94
X122.6Y-106.85
X122.72Y-109.7
X122.73Y-110.48
X122.815Y-61.95
X122.815Y-66.815
X123.115Y-71.36
X123.303Y-79.357
X123.38Y-80.8
X123.503Y-77.88
X123.61Y-106.84
X123.99Y-96.82
X124.0Y-95.36
X124.15Y-108.61
X124.3Y-69.12
X124.34Y-120.955
X124.97Y-93.71
X125.15Y-90.33
X125.29Y-80.78
X125.36Y-108.52
X125.41Y-79.38
X125.9Y-110.8
X126.269Y-125.9
X126.32Y-108.52
X126.44Y-115.91
X126.69Y-66.42
X126.76Y-110.76
X127.11Y-65.21
X127.21Y-111.39
X127.23Y-106.72
X127.35Y-70.13
X128.04Y-75.3
X128.52Y-65.08
X128.71Y-110.96
X128.775Y-73.269
X128.82Y-108.44
X128.868Y-106.403
X128.93Y-105.63
X129.54Y-111.0
X129.55Y-73.28
X129.781Y-112.16
X129.815Y-63.577
X129.83Y-108.48
X130.324Y-73.312
X130.42Y-117.355
X130.55Y-95.84
X130.55Y-100.93
X130.56Y-82.58
X131.03Y-107.93
X131.098Y-73.267
X131.17Y-120.955
X131.276Y-65.08
X131.325Y-95.845
X131.325Y-100.93
X131.396Y-125.9
X131.49Y-75.9
X131.59Y-124.21
X131.71Y-110.02
X131.722Y-109.245
X131.805Y-107.907
X132.125Y-78.311
X132.311Y-91.86
X132.62Y-112.01
X132.75Y-65.29
X132.81Y-95.845
X132.81Y-100.795
X132.9Y-78.3
X133.04Y-103.68
X133.08Y-66.44
X133.08Y-110.89
X133.085Y-91.82
X133.14Y-114.41
X133.585Y-100.795
X133.597Y-95.855
X133.86Y-91.82
X133.87Y-75.76
X134.04Y-110.03
X134.074Y-109.256
X135.26Y-69.08
X135.425Y-61.95
X135.725Y-71.36
X135.725Y-84.99
X136.39Y-99.23
X136.478Y-114.673
X136.523Y-125.9
X137.497Y-80.87
X137.715Y-72.775
X138.28Y-85.42
X138.28Y-86.82
X138.28Y-88.22
X138.42Y-115.28
X138.515Y-77.533
X139.29Y-77.545
X139.48Y-91.89
X139.539Y-106.095
X139.68Y-85.42
X139.68Y-86.82
X139.68Y-88.22
X139.7Y-111.8
X140.065Y-77.532
X140.29Y-125.93
X140.313Y-91.9
X140.313Y-106.14
X140.41Y-116.03
X140.42Y-112.36
X140.484Y-110.324
X140.56Y-109.54
X140.57Y-120.955
X140.601Y-108.39
X140.67Y-80.88
X141.08Y-85.42
X141.08Y-86.82
X141.08Y-88.22
X141.08Y-135.24
X141.08Y-140.748
X141.08Y-146.255
X141.08Y-151.762
X141.08Y-157.27
X141.084Y-91.825
X141.435Y-105.581
X141.457Y-116.047
X141.63Y-109.668
X141.704Y-73.715
X141.725Y-66.815
X141.73Y-61.95
X141.865Y-91.82
X142.03Y-71.36
X142.21Y-105.57
X142.37Y-116.14
X142.402Y-109.74
X142.6Y-76.92
X142.64Y-91.82
X142.781Y-76.032
X143.415Y-91.82
X143.56Y-118.446
X143.6Y-102.06
X143.61Y-103.65
X143.63Y-95.154
X143.77Y-81.23
X144.1Y-95.77
X144.334Y-118.489
X144.66Y-114.35
X145.04Y-151.08
X145.09Y-109.7
X145.19Y-113.12
X145.29Y-157.32
X145.395Y-95.6
X145.64Y-106.59
X145.73Y-75.14
X145.97Y-100.795
X146.111Y-118.486
X146.17Y-95.625
X146.36Y-137.0
X146.39Y-105.43
X146.41Y-143.355
X146.415Y-106.611
X146.545Y-99.21
X146.745Y-100.795
X146.885Y-118.461
X146.976Y-116.661
X147.01Y-80.97
X147.12Y-137.02
X147.25Y-120.36
X147.517Y-100.863
X147.588Y-119.663
X147.66Y-118.486
X147.84Y-146.46
X147.864Y-109.353
X147.88Y-137.02
X148.025Y-66.81
X148.035Y-61.95
X148.07Y-97.07
X148.19Y-108.65
X148.201Y-102.423
X148.325Y-73.725
X148.33Y-100.85
X148.335Y-71.36
X148.399Y-119.102
X148.4Y-77.7
X148.432Y-118.313
X148.44Y-76.24
X148.47Y-111.117
X148.905Y-102.1
X148.92Y-136.98
X148.925Y-110.49
X149.08Y-157.29
X149.39Y-112.565
X149.39Y-113.34
X149.525Y-107.445
X149.596Y-79.189
X149.64Y-136.96
X150.008Y-80.712
X150.055Y-108.02
X150.12Y-111.28
X150.152Y-112.054
X150.21Y-118.05
X150.231Y-94.337
X150.27Y-113.96
X150.271Y-85.377
X150.271Y-89.799
X150.37Y-136.94
X150.63Y-102.185
X150.63Y-105.675
X150.69Y-119.62
X150.72Y-116.564
X150.979Y-78.213
X150.982Y-117.986
X151.04Y-99.25
X151.12Y-113.885
X151.21Y-107.445
X151.405Y-102.185
X151.405Y-105.675
X151.93Y-80.77
X151.985Y-107.445
X152.29Y-79.03
X152.325Y-117.945
X152.45Y-119.6
X152.53Y-111.87
X152.85Y-109.601
X153.13Y-146.27
X153.18Y-110.314
X153.32Y-111.87
X153.69Y-106.465
X153.73Y-155.65
X153.745Y-115.291
X153.76Y-107.43
X153.76Y-129.7
X153.76Y-130.82
X153.76Y-131.94
X153.795Y-113.491
X153.817Y-118.032
X153.819Y-109.225
X153.87Y-99.22
X153.92Y-157.43
X154.33Y-66.81
X154.34Y-61.95
X154.53Y-129.7
X154.53Y-130.82
X154.53Y-131.94
X154.64Y-71.36
X154.64Y-75.9
X154.64Y-80.44
X154.64Y-84.99
X154.64Y-89.53
X154.64Y-93.777
X154.83Y-133.2
X154.91Y-136.67
X155.3Y-129.7
X155.3Y-130.82
X155.3Y-131.94
X155.34Y-121.26
X155.83Y-146.38
X155.9Y-114.069
X155.99Y-133.27
X156.04Y-105.26
X156.19Y-125.24
X156.19Y-126.74
X156.22Y-136.73
X156.84Y-109.79
X156.86Y-115.225
X156.89Y-103.64
X157.56Y-149.26
X157.56Y-150.71
X157.56Y-152.24
X157.69Y-124.85
X158.13Y-99.201
X158.35Y-103.59
X158.405Y-115.225
X158.525Y-120.015
X158.92Y-128.29
X159.09Y-79.62
X159.18Y-97.675
X159.553Y-108.54
X159.98Y-128.3
X160.05Y-115.225
X160.14Y-157.36
X160.19Y-120.21
X160.29Y-77.91
X160.29Y-81.47
X160.635Y-66.81
X160.645Y-61.95
X160.945Y-75.9
X160.945Y-84.99
X160.945Y-89.53
X160.95Y-94.07
X161.0Y-128.33
X161.3Y-103.57
X161.417Y-95.961
X161.82Y-128.34
X161.87Y-134.6
X161.98Y-120.69
X162.04Y-115.71
X162.04Y-116.485
X162.051Y-117.26
X162.32Y-81.47
X162.51Y-122.65
X162.58Y-140.296
X162.6Y-106.66
X162.9Y-77.91
X163.25Y-121.235
X163.554Y-115.49
X163.66Y-155.59
X163.69Y-149.55
X163.76Y-151.75
X164.03Y-145.06
X164.28Y-97.675
X164.3Y-62.794
X164.328Y-115.522
X164.35Y-81.47
X164.36Y-73.65
X164.475Y-108.71
X164.51Y-72.01
X164.56Y-99.201
X164.58Y-142.74
X164.732Y-150.695
X164.75Y-70.58
X165.026Y-62.794
X165.61Y-126.29
X165.679Y-127.963
X165.68Y-149.64
X165.689Y-128.713
X165.753Y-62.794
X165.78Y-151.73
X165.97Y-147.1
X166.223Y-74.537
X166.26Y-105.86
X166.28Y-104.61
X166.29Y-102.07
X166.3Y-103.3
X166.38Y-81.47
X166.48Y-62.794
X166.487Y-157.561
X166.54Y-130.14
X166.65Y-140.28
X166.8Y-108.6
X166.81Y-117.13
X166.84Y-118.79
X166.95Y-61.95
X167.216Y-109.965
X167.25Y-84.99
X167.25Y-89.53
X167.38Y-66.72
X167.52Y-131.94
X167.52Y-143.98
X167.55Y-134.95
X167.692Y-108.61
X167.84Y-109.4
X168.371Y-72.837
X168.41Y-81.47
X168.87Y-115.67
X168.95Y-114.2
X169.101Y-70.082
X169.19Y-110.62
X169.23Y-109.77
X169.41Y-136.41
X169.69Y-102.17
X169.69Y-140.74
X170.05Y-77.54
X170.05Y-79.9
X170.2Y-117.07
X170.21Y-118.63
X170.56Y-125.52
X170.631Y-70.092
X170.66Y-111.28
X170.689Y-110.491
X171.6Y-120.6
X171.62Y-77.49
X171.66Y-117.54
X172.35Y-120.6
X172.4Y-99.47
X172.41Y-100.6
X172.585Y-95.913
X172.61Y-155.32
X172.66Y-114.07
X172.68Y-153.86
X172.801Y-157.561
X172.86Y-127.11
X172.89Y-97.675
X173.1Y-120.6
X173.255Y-61.95
X173.27Y-116.6
X173.28Y-108.39
X173.29Y-66.8
X173.52Y-101.03
X173.791Y-71.257
X173.8Y-97.77
X173.84Y-99.09
X173.901Y-74.557
X173.913Y-76.849
X174.13Y-140.73
X174.34Y-120.86
X174.56Y-136.39
X175.08Y-120.869
X175.39Y-142.01
X175.46Y-145.29
X175.56Y-97.675
X175.58Y-113.54
X175.59Y-104.64
X175.6Y-114.42
X175.74Y-120.87
X175.91Y-132.94
X175.91Y-134.87
X176.08Y-127.13
X176.36Y-114.44
X176.38Y-115.11
X176.39Y-107.89
X176.41Y-115.84
X176.891Y-70.152
X177.04Y-77.31
X177.04Y-79.67
X177.246Y-139.11
X177.28Y-128.49
X177.29Y-130.96
X177.47Y-102.2
X177.518Y-102.974
X177.52Y-103.85
X177.53Y-119.17
X177.712Y-95.913
X178.421Y-70.137
X178.66Y-114.41
X178.68Y-81.24
X179.116Y-157.561
X179.122Y-155.584
X179.38Y-119.17
X179.491Y-72.837
X179.56Y-61.95
X179.595Y-66.8
X179.81Y-148.52
X179.81Y-149.287
X179.81Y-150.053
X179.81Y-150.82
X179.86Y-84.99
X179.86Y-89.53
X180.38Y-119.24
X180.39Y-116.85
X180.42Y-115.33
X180.59Y-62.774
X180.707Y-99.201
X180.707Y-100.915
X180.707Y-102.5
X180.707Y-105.4
X180.707Y-108.325
X180.707Y-110.32
X180.71Y-81.24
X180.8Y-97.675
X181.31Y-119.19
X181.316Y-62.774
X181.551Y-74.477
X181.726Y-139.11
X182.043Y-62.774
X182.2Y-123.41
X182.39Y-145.44
X182.51Y-129.34
X182.74Y-81.24
X182.77Y-62.774
X182.82Y-117.43
X183.515Y-95.913
X183.59Y-133.23
X184.75Y-77.72
X184.77Y-81.24
X185.32Y-113.77
X185.43Y-157.561
X185.436Y-155.584
X185.865Y-61.95
X185.895Y-66.807
X185.93Y-141.94
X186.165Y-71.36
X186.165Y-75.9
X186.165Y-84.99
X186.165Y-89.53
X186.51Y-97.625
X186.51Y-100.915
X186.51Y-102.5
X186.51Y-105.4
X186.51Y-108.325
X186.51Y-110.32
X186.8Y-77.72
X186.8Y-81.24
X186.86Y-115.3
X186.93Y-135.7
X186.93Y-139.14
X187.15Y-118.81
X187.15Y-129.223
X187.15Y-133.43
X188.0Y-79.39
X189.59Y-133.38
X189.875Y-113.86
X189.875Y-118.75
X189.875Y-129.225
X190.75Y-99.98
X191.41Y-131.006
X191.41Y-135.68
X191.41Y-139.14
X191.744Y-157.561
X191.75Y-155.584
X192.17Y-61.95
X192.2Y-66.807
X192.34Y-96.27
X192.34Y-97.62
X192.47Y-71.36
X192.47Y-75.9
X192.47Y-80.44
X192.47Y-84.99
X192.47Y-89.53
X193.115Y-96.27
X193.115Y-97.62
X193.17Y-127.53
X193.89Y-96.27
X193.89Y-97.62
X194.875Y-102.5
X194.875Y-105.4
X194.881Y-80.367
X194.891Y-78.61
X195.01Y-111.18
X195.28Y-126.77
X195.53Y-110.605
X196.061Y-78.039
X196.614Y-131.006
X196.614Y-135.7
X196.614Y-139.17
X196.66Y-128.56
X196.69Y-108.805
X196.69Y-110.03
X197.211Y-80.397
X197.369Y-78.895
X198.051Y-91.997
X198.058Y-157.561
X198.064Y-155.584
X198.08Y-108.605
X198.08Y-109.38
X198.219Y-96.043
X198.475Y-61.95
X198.505Y-66.807
X198.775Y-71.36
X198.775Y-75.9
X198.775Y-80.44
X198.775Y-84.99
X198.775Y-89.53
X199.825Y-126.542
X199.883Y-128.587
X199.966Y-123.433
X199.966Y-124.123
X199.976Y-122.743
X201.131Y-120.12
X201.15Y-118.541
X201.215Y-97.62
X201.215Y-102.5
X201.215Y-105.4
X201.215Y-108.325
X201.817Y-131.006
X201.817Y-135.7
X201.817Y-139.21
X203.5Y-127.708
X203.531Y-96.27
X203.531Y-97.62
X203.69Y-128.91
X204.306Y-96.27
X204.306Y-127.713
X204.373Y-157.561
X204.379Y-155.584
X204.78Y-61.95
X204.805Y-66.8
X204.881Y-122.75
X204.881Y-123.48
X204.881Y-124.26
X205.08Y-71.36
X205.08Y-75.9
X205.08Y-80.44
X205.08Y-84.99
X205.08Y-89.53
X205.081Y-96.27
X205.081Y-97.655
X205.22Y-127.69
X205.41Y-94.37
X206.2Y-111.06
X206.935Y-78.987
X207.021Y-131.006
X207.021Y-135.7
X207.021Y-139.17
X207.27Y-118.54
X207.347Y-80.51
X207.6Y-84.063
X207.6Y-86.733
X207.745Y-112.605
X208.318Y-78.011
X208.33Y-124.27
X208.56Y-126.238
X208.98Y-84.073
X208.98Y-86.793
X209.06Y-116.16
X209.251Y-80.493
X209.62Y-78.921
X210.656Y-98.61
X210.656Y-104.53
X210.687Y-157.561
X210.693Y-155.584
X210.816Y-115.709
X210.816Y-116.339
X210.886Y-111.339
X210.886Y-111.969
X210.96Y-94.48
X211.05Y-90.07
X211.08Y-135.86
X211.085Y-61.95
X211.11Y-66.8
X211.385Y-71.36
X211.385Y-75.9
X211.385Y-80.44
X211.385Y-84.99
X211.526Y-115.709
X211.526Y-116.339
X211.596Y-111.339
X211.596Y-111.969
X212.021Y-106.28
X212.036Y-104.53
X212.04Y-98.59
X212.225Y-131.006
X213.276Y-104.503
X213.356Y-108.039
X213.356Y-108.729
X213.41Y-123.62
X214.036Y-108.049
X214.036Y-108.739
X214.056Y-104.503
X214.096Y-101.63
X214.686Y-108.049
X214.686Y-108.729
X214.776Y-104.503
X214.91Y-123.6
X215.976Y-111.349
X215.976Y-111.979
X216.37Y-123.6
X216.448Y-79.385
X216.506Y-115.709
X216.506Y-116.339
X216.686Y-111.349
X216.686Y-111.979
X217.001Y-157.561
X217.007Y-155.584
X217.216Y-115.709
X217.216Y-116.339
X217.39Y-61.95
X217.415Y-66.8
X217.648Y-77.675
X217.648Y-81.235
X217.69Y-71.36
X217.69Y-75.9
X217.69Y-84.99
X217.69Y-89.53
X217.706Y-104.493
X217.796Y-108.019
X217.796Y-108.709
X217.86Y-123.58
X217.985Y-94.399
X218.36Y-101.63
X218.417Y-98.21
X218.476Y-108.029
X218.476Y-108.719
X218.486Y-104.493
X219.126Y-108.029
X219.126Y-108.709
X219.206Y-104.493
X219.31Y-123.61
X219.678Y-81.235
X220.258Y-77.675
X220.42Y-102.52
X220.571Y-104.51
X220.571Y-106.86
X221.046Y-111.329
X221.046Y-111.959
X221.28Y-127.25
X221.31Y-119.16
X221.708Y-81.235
X221.756Y-111.329
X221.756Y-111.959
X221.813Y-62.805
X221.921Y-102.64
X222.29Y-126.01
X222.54Y-62.805
X223.1Y-125.97
X223.267Y-62.805
X223.316Y-157.561
X223.321Y-155.584
X223.553Y-101.92
X223.695Y-61.95
X223.738Y-81.235
X223.885Y-74.493
X223.993Y-62.805
X223.995Y-84.99
X223.995Y-89.53
X223.995Y-94.07
X223.995Y-98.62
X224.306Y-115.303
X224.492Y-102.607
X224.578Y-128.187
X224.75Y-130.96
X224.942Y-111.832
X225.57Y-104.45
X225.768Y-81.235
X225.77Y-115.25
X225.85Y-120.52
X225.995Y-72.823
X226.272Y-110.502
X226.765Y-70.063
X226.94Y-102.61
X227.408Y-77.305
X227.408Y-79.665
X227.949Y-134.269
X228.12Y-131.006
X228.295Y-70.073
X228.58Y-124.04
X228.98Y-95.723
X229.63Y-99.772
X229.63Y-157.561
X229.636Y-155.584
X230.0Y-61.95
X230.405Y-99.753
X231.19Y-99.75
X231.495Y-71.173
X231.556Y-76.823
X231.565Y-74.313
X231.935Y-131.006
X232.22Y-99.72
X232.225Y-102.001
X232.995Y-99.72
X233.0Y-101.98
X233.769Y-99.762
X233.8Y-102.01
X233.975Y-77.843
X234.107Y-80.028
X234.555Y-70.133
X235.944Y-157.561
X235.95Y-155.584
X236.038Y-81.185
X236.065Y-70.123
X236.305Y-61.95
X236.325Y-66.8
X236.595Y-121.35
X236.605Y-84.99
X236.605Y-89.53
X236.605Y-98.62
X236.605Y-103.16
X236.605Y-107.71
X236.98Y-131.006
X237.103Y-125.879
X237.125Y-72.853
X238.068Y-81.185
X238.223Y-62.79
X238.95Y-62.79
X239.04Y-135.78
X239.252Y-74.493
X239.677Y-62.79
X240.098Y-81.185
X240.403Y-62.79
X240.46Y-152.78
X242.108Y-77.485
X242.128Y-81.185
X242.21Y-135.7
X242.229Y-131.006
X242.258Y-157.561
X242.61Y-61.95
X242.635Y-66.8
X242.9Y-116.79
X242.9Y-121.34
X242.9Y-125.88
X242.91Y-84.99
X242.91Y-89.53
X242.91Y-94.07
X242.91Y-98.62
X242.91Y-103.16
X242.91Y-107.71
X242.91Y-112.25
X243.38Y-149.71
X243.68Y-71.36
X243.8Y-141.26
X244.158Y-81.185
X244.24Y-77.76
X244.898Y-79.265
X246.39Y-156.01
X247.29Y-67.66
X247.356Y-131.006
X248.71Y-67.67
X248.915Y-61.95
X248.93Y-151.94
X249.17Y-126.82
X249.205Y-121.34
X249.205Y-125.88
X249.215Y-71.36
X249.215Y-75.9
X249.215Y-80.44
X249.215Y-84.99
X249.215Y-89.53
X249.215Y-94.07
X249.215Y-98.62
X249.215Y-103.16
X249.215Y-107.71
X249.22Y-116.78
X249.23Y-112.24
X249.29Y-130.51
X249.3Y-131.54
X249.33Y-128.46
X249.96Y-151.87
X249.96Y-152.6
X250.09Y-155.97
X250.74Y-148.766
X250.8Y-149.547
X250.97Y-151.88
X251.64Y-148.766
X251.64Y-149.506
X251.708Y-78.991
X252.04Y-80.52
X252.594Y-150.2
X252.594Y-150.99
X253.091Y-78.016
X253.72Y-157.561
X254.02Y-80.57
X254.393Y-78.83
X255.14Y-152.3
X255.22Y-61.95
X255.22Y-66.77
X255.22Y-71.36
X255.22Y-75.9
X255.22Y-80.44
X255.22Y-84.99
X255.22Y-89.53
X255.22Y-94.07
X255.22Y-98.62
X255.22Y-103.16
X255.22Y-107.71
X255.22Y-112.25
X255.22Y-116.79
X255.22Y-121.34
X255.22Y-125.88
X255.22Y-130.42
X255.22Y-134.97
X255.22Y-139.51
X255.22Y-144.05
X255.22Y-148.6
T2
X158.2Y-139.356
X158.2Y-141.356
X158.2Y-144.07
X158.2Y-146.07
T3
X119.03Y-116.62
X120.3Y-116.62
X161.19Y-107.91
X162.46Y-107.91
T4
X139.275Y-69.125
X141.815Y-69.125
X144.355Y-69.125
T5
X147.348Y-150.612
X147.348Y-153.612
X150.348Y-150.612
X150.348Y-153.612
X171.911Y-65.939
X174.911Y-65.939
X229.557Y-65.905
X232.557Y-65.905
T6
X187.693Y-141.09
X187.693Y-148.59
X204.393Y-141.09
X204.393Y-148.59
X221.003Y-141.09
X221.003Y-148.59
X237.493Y-141.09
X237.493Y-148.59
T7
X168.291Y-78.686
X168.291Y-93.697
X178.536Y-78.711
X178.536Y-93.722
X225.665Y-78.567
X225.665Y-93.578
X235.74Y-78.567
X235.74Y-93.578
T8
X150.961Y-79.642
X160.961Y-79.642
X186.061Y-79.467
X196.061Y-79.467
X208.29Y-79.438
X218.29Y-79.438
X243.07Y-79.457
X253.07Y-79.457
T9
X90.67Y-66.11
X100.42Y-66.11
X110.16Y-66.1
X119.91Y-66.11
T10
X88.13Y-63.57
X88.13Y-68.65
X93.21Y-63.57
X93.21Y-68.65
X97.88Y-63.57
X97.88Y-68.65
X102.96Y-63.57
X102.96Y-68.65
X107.62Y-63.56
X107.62Y-68.64
X112.7Y-63.56
X112.7Y-68.64
X117.37Y-63.57
X117.37Y-68.65
X122.45Y-63.57
X122.45Y-68.65
T11
X197.641Y-115.153
X234.451Y-115.153
T2
G00X125.575Y-63.5
M15
G01X125.575Y-62.3
M16
G05
G00X125.575Y-67.3
M15
G01X125.575Y-66.5
M16
G05
G00X134.215Y-63.5
M15
G01X134.215Y-62.3
M16
G05
G00X134.215Y-67.3
M15
G01X134.215Y-66.5
M16
G05
M30
