ISO-10303-21;
HEADER;
/* Generated by software containing ST-Developer
 * from STEP Tools, Inc. (www.steptools.com) 
 */

FILE_DESCRIPTION(
/* description */ (''),
/* implementation_level */ '2;1');

FILE_NAME(
/* name */ 'side.step',
/* time_stamp */ '2026-06-03T13:26:25+02:00',
/* author */ (''),
/* organization */ (''),
/* preprocessor_version */ 'ST-DEVELOPER v20.1',
/* originating_system */ 'Autodesk Translation Framework v15.8.0.0',
/* authorisation */ '');

FILE_SCHEMA (('AUTOMOTIVE_DESIGN { 1 0 10303 214 3 1 1 }'));
ENDSEC;

DATA;
#10=MECHANICAL_DESIGN_GEOMETRIC_PRESENTATION_REPRESENTATION('',(#13),#1849);
#11=SHAPE_REPRESENTATION_RELATIONSHIP('SRR','None',#1856,#12);
#12=ADVANCED_BREP_SHAPE_REPRESENTATION('',(#14),#1848);
#13=STYLED_ITEM('',(#1865),#14);
#14=MANIFOLD_SOLID_BREP('Bry\X2\0142\X0\a1',#957);
#15=FACE_BOUND('',#123,.T.);
#16=FACE_BOUND('',#124,.T.);
#17=FACE_BOUND('',#131,.T.);
#18=FACE_BOUND('',#132,.T.);
#19=PLANE('',#1027);
#20=PLANE('',#1028);
#21=PLANE('',#1037);
#22=PLANE('',#1041);
#23=PLANE('',#1042);
#24=PLANE('',#1043);
#25=PLANE('',#1044);
#26=PLANE('',#1045);
#27=PLANE('',#1046);
#28=PLANE('',#1047);
#29=PLANE('',#1048);
#30=PLANE('',#1049);
#31=PLANE('',#1050);
#32=PLANE('',#1051);
#33=PLANE('',#1054);
#34=PLANE('',#1063);
#35=PLANE('',#1064);
#36=PLANE('',#1065);
#37=PLANE('',#1069);
#38=PLANE('',#1070);
#39=B_SPLINE_CURVE_WITH_KNOTS('',3,(#1369,#1370,#1371,#1372,#1373,#1374,
#1375,#1376,#1377,#1378,#1379,#1380,#1381,#1382,#1383,#1384,#1385,#1386,
#1387,#1388,#1389,#1390,#1391,#1392,#1393,#1394,#1395),.UNSPECIFIED.,.F.,
 .F.,(4,3,2,2,2,2,2,2,2,2,2,2,4),(-0.0191684333571588,0.,0.0410744089120866,
0.0821488178241733,0.122423508733297,0.163356069757358,0.204288630781419,
0.245221191805479,0.28615375282954,0.326428443738664,0.367502852650751,
0.408577261562837,0.427745692380404),.UNSPECIFIED.);
#40=B_SPLINE_CURVE_WITH_KNOTS('',3,(#1399,#1400,#1401,#1402,#1403,#1404,
#1405,#1406,#1407,#1408,#1409,#1410,#1411,#1412,#1413,#1414,#1415,#1416,
#1417,#1418,#1419,#1420,#1421,#1422,#1423,#1424,#1425),.UNSPECIFIED.,.F.,
 .F.,(4,3,2,2,2,2,2,2,2,2,2,2,4),(-0.0191684334180482,0.,0.0410744173369454,
0.0821488346738909,0.122423533356656,0.163356104908821,0.204288676460987,
0.245221248013152,0.286153819565317,0.326428518248083,0.367502935585028,
0.408577352921973,0.427745783800429),.UNSPECIFIED.);
#41=B_SPLINE_CURVE_WITH_KNOTS('',3,(#1464,#1465,#1466,#1467,#1468,#1469,
#1470,#1471,#1472,#1473,#1474,#1475,#1476,#1477,#1478,#1479,#1480,#1481,
#1482,#1483,#1484,#1485,#1486,#1487,#1488,#1489,#1490),.UNSPECIFIED.,.F.,
 .F.,(4,3,2,2,2,2,2,2,2,2,2,2,4),(-0.0191684333571596,0.,0.0410744089120865,
0.0821488178241729,0.122423508733298,0.163356069757359,0.204288630781419,
0.24522119180548,0.28615375282954,0.326428443738665,0.367502852650752,0.408577261562838,
0.427745692380406),.UNSPECIFIED.);
#42=B_SPLINE_CURVE_WITH_KNOTS('',3,(#1522,#1523,#1524,#1525,#1526,#1527,
#1528,#1529,#1530,#1531,#1532,#1533,#1534,#1535,#1536,#1537,#1538,#1539,
#1540,#1541,#1542,#1543,#1544,#1545,#1546,#1547,#1548),.UNSPECIFIED.,.F.,
 .F.,(4,2,2,2,2,2,2,2,2,2,2,3,4),(-0.427745786340011,-0.408577352921964,
-0.367502935585019,-0.326428518248075,-0.28615381956531,-0.245221248013146,
-0.204288676460982,-0.163356104908818,-0.122423533356653,-0.0821488346738891,
-0.0410744173369446,0.,0.0191684308784553),.UNSPECIFIED.);
#43=B_SPLINE_CURVE_WITH_KNOTS('',3,(#1552,#1553,#1554,#1555,#1556,#1557,
#1558,#1559,#1560,#1561,#1562,#1563,#1564,#1565,#1566,#1567,#1568,#1569,
#1570,#1571,#1572,#1573,#1574,#1575,#1576,#1577,#1578),.UNSPECIFIED.,.F.,
 .F.,(4,2,2,2,2,2,2,2,2,2,2,3,4),(-0.427745694919998,-0.408577261562838,
-0.367502852650752,-0.326428443738665,-0.28615375282954,-0.24522119180548,
-0.204288630781419,-0.163356069757358,-0.122423508733298,-0.0821488178241729,
-0.0410744089120865,0.,0.0191684308175677),.UNSPECIFIED.);
#44=B_SPLINE_CURVE_WITH_KNOTS('',3,(#1581,#1582,#1583,#1584,#1585,#1586,
#1587,#1588,#1589,#1590,#1591,#1592,#1593,#1594,#1595,#1596,#1597,#1598,
#1599,#1600,#1601,#1602,#1603,#1604,#1605,#1606,#1607),.UNSPECIFIED.,.F.,
 .F.,(4,3,2,2,2,2,2,2,2,2,2,2,4),(-0.0191684334180474,0.,0.0410744173369455,
0.0821488346738909,0.122423533356658,0.163356104908822,0.204288676460986,
0.245221248013151,0.286153819565315,0.326428518248082,0.367502935585027,
0.408577352921973,0.427745783800428),.UNSPECIFIED.);
#45=B_SPLINE_CURVE_WITH_KNOTS('',3,(#1631,#1632,#1633,#1634,#1635,#1636,
#1637,#1638,#1639,#1640,#1641,#1642,#1643,#1644,#1645,#1646,#1647,#1648,
#1649,#1650,#1651,#1652,#1653,#1654,#1655,#1656,#1657),.UNSPECIFIED.,.F.,
 .F.,(4,2,2,2,2,2,2,2,2,2,2,3,4),(-0.427745786340014,-0.408577352921966,
-0.367502935585022,-0.326428518248077,-0.286153819565313,-0.245221248013148,
-0.204288676460983,-0.163356104908818,-0.122423533356654,-0.082148834673889,
-0.0410744173369445,0.,0.0191684308784557),.UNSPECIFIED.);
#46=B_SPLINE_CURVE_WITH_KNOTS('',3,(#1659,#1660,#1661,#1662,#1663,#1664,
#1665,#1666,#1667,#1668,#1669,#1670,#1671,#1672,#1673,#1674,#1675,#1676,
#1677,#1678,#1679,#1680,#1681,#1682,#1683,#1684,#1685),.UNSPECIFIED.,.F.,
 .F.,(4,2,2,2,2,2,2,2,2,2,2,3,4),(-0.427745694919997,-0.408577261562838,
-0.367502852650751,-0.326428443738665,-0.286153752829541,-0.24522119180548,
-0.204288630781419,-0.163356069757358,-0.122423508733297,-0.0821488178241733,
-0.0410744089120866,0.,0.0191684308175672),.UNSPECIFIED.);
#47=FACE_OUTER_BOUND('',#95,.T.);
#48=FACE_OUTER_BOUND('',#96,.T.);
#49=FACE_OUTER_BOUND('',#97,.T.);
#50=FACE_OUTER_BOUND('',#98,.T.);
#51=FACE_OUTER_BOUND('',#99,.T.);
#52=FACE_OUTER_BOUND('',#100,.T.);
#53=FACE_OUTER_BOUND('',#101,.T.);
#54=FACE_OUTER_BOUND('',#102,.T.);
#55=FACE_OUTER_BOUND('',#103,.T.);
#56=FACE_OUTER_BOUND('',#104,.T.);
#57=FACE_OUTER_BOUND('',#105,.T.);
#58=FACE_OUTER_BOUND('',#106,.T.);
#59=FACE_OUTER_BOUND('',#107,.T.);
#60=FACE_OUTER_BOUND('',#108,.T.);
#61=FACE_OUTER_BOUND('',#109,.T.);
#62=FACE_OUTER_BOUND('',#110,.T.);
#63=FACE_OUTER_BOUND('',#111,.T.);
#64=FACE_OUTER_BOUND('',#112,.T.);
#65=FACE_OUTER_BOUND('',#113,.T.);
#66=FACE_OUTER_BOUND('',#114,.T.);
#67=FACE_OUTER_BOUND('',#115,.T.);
#68=FACE_OUTER_BOUND('',#116,.T.);
#69=FACE_OUTER_BOUND('',#117,.T.);
#70=FACE_OUTER_BOUND('',#118,.T.);
#71=FACE_OUTER_BOUND('',#119,.T.);
#72=FACE_OUTER_BOUND('',#120,.T.);
#73=FACE_OUTER_BOUND('',#121,.T.);
#74=FACE_OUTER_BOUND('',#122,.T.);
#75=FACE_OUTER_BOUND('',#125,.T.);
#76=FACE_OUTER_BOUND('',#126,.T.);
#77=FACE_OUTER_BOUND('',#127,.T.);
#78=FACE_OUTER_BOUND('',#128,.T.);
#79=FACE_OUTER_BOUND('',#129,.T.);
#80=FACE_OUTER_BOUND('',#130,.T.);
#81=FACE_OUTER_BOUND('',#133,.T.);
#82=FACE_OUTER_BOUND('',#134,.T.);
#83=FACE_OUTER_BOUND('',#135,.T.);
#84=FACE_OUTER_BOUND('',#136,.T.);
#85=FACE_OUTER_BOUND('',#137,.T.);
#86=FACE_OUTER_BOUND('',#138,.T.);
#87=FACE_OUTER_BOUND('',#139,.T.);
#88=FACE_OUTER_BOUND('',#140,.T.);
#89=FACE_OUTER_BOUND('',#141,.T.);
#90=FACE_OUTER_BOUND('',#142,.T.);
#91=FACE_OUTER_BOUND('',#143,.T.);
#92=FACE_OUTER_BOUND('',#144,.T.);
#93=FACE_OUTER_BOUND('',#145,.T.);
#94=FACE_OUTER_BOUND('',#146,.T.);
#95=EDGE_LOOP('',(#597,#598,#599,#600,#601));
#96=EDGE_LOOP('',(#602,#603,#604));
#97=EDGE_LOOP('',(#605,#606,#607));
#98=EDGE_LOOP('',(#608,#609,#610,#611,#612));
#99=EDGE_LOOP('',(#613,#614,#615,#616,#617,#618));
#100=EDGE_LOOP('',(#619,#620,#621,#622,#623,#624,#625,#626));
#101=EDGE_LOOP('',(#627,#628,#629,#630,#631,#632,#633,#634));
#102=EDGE_LOOP('',(#635,#636,#637,#638,#639,#640));
#103=EDGE_LOOP('',(#641,#642,#643,#644,#645,#646,#647,#648));
#104=EDGE_LOOP('',(#649,#650,#651,#652,#653));
#105=EDGE_LOOP('',(#654,#655,#656));
#106=EDGE_LOOP('',(#657,#658,#659));
#107=EDGE_LOOP('',(#660,#661,#662));
#108=EDGE_LOOP('',(#663,#664,#665));
#109=EDGE_LOOP('',(#666,#667,#668,#669,#670));
#110=EDGE_LOOP('',(#671,#672,#673,#674,#675,#676));
#111=EDGE_LOOP('',(#677,#678,#679,#680,#681,#682,#683,#684));
#112=EDGE_LOOP('',(#685,#686,#687,#688,#689,#690));
#113=EDGE_LOOP('',(#691,#692,#693));
#114=EDGE_LOOP('',(#694,#695,#696));
#115=EDGE_LOOP('',(#697,#698,#699,#700));
#116=EDGE_LOOP('',(#701,#702,#703,#704,#705,#706,#707,#708,#709,#710,#711,
#712));
#117=EDGE_LOOP('',(#713,#714,#715,#716));
#118=EDGE_LOOP('',(#717,#718,#719,#720));
#119=EDGE_LOOP('',(#721,#722,#723,#724));
#120=EDGE_LOOP('',(#725,#726,#727,#728));
#121=EDGE_LOOP('',(#729,#730,#731,#732));
#122=EDGE_LOOP('',(#733,#734,#735,#736));
#123=EDGE_LOOP('',(#737));
#124=EDGE_LOOP('',(#738));
#125=EDGE_LOOP('',(#739,#740,#741,#742));
#126=EDGE_LOOP('',(#743,#744,#745,#746));
#127=EDGE_LOOP('',(#747,#748,#749,#750));
#128=EDGE_LOOP('',(#751,#752,#753,#754));
#129=EDGE_LOOP('',(#755,#756,#757,#758));
#130=EDGE_LOOP('',(#759,#760,#761,#762));
#131=EDGE_LOOP('',(#763));
#132=EDGE_LOOP('',(#764));
#133=EDGE_LOOP('',(#765,#766,#767,#768));
#134=EDGE_LOOP('',(#769,#770,#771,#772));
#135=EDGE_LOOP('',(#773,#774,#775,#776));
#136=EDGE_LOOP('',(#777,#778,#779,#780));
#137=EDGE_LOOP('',(#781,#782,#783,#784));
#138=EDGE_LOOP('',(#785,#786,#787,#788,#789,#790,#791,#792));
#139=EDGE_LOOP('',(#793,#794,#795,#796,#797,#798,#799,#800));
#140=EDGE_LOOP('',(#801,#802,#803,#804));
#141=EDGE_LOOP('',(#805,#806,#807,#808));
#142=EDGE_LOOP('',(#809,#810,#811,#812,#813,#814,#815,#816,#817,#818,#819,
#820,#821,#822,#823,#824,#825,#826,#827,#828));
#143=EDGE_LOOP('',(#829,#830,#831,#832));
#144=EDGE_LOOP('',(#833,#834,#835,#836));
#145=EDGE_LOOP('',(#837,#838,#839,#840,#841,#842,#843,#844,#845,#846,#847,
#848,#849,#850,#851,#852,#853,#854,#855,#856,#857,#858,#859,#860,#861,#862,
#863,#864,#865,#866,#867,#868));
#146=EDGE_LOOP('',(#869,#870,#871,#872,#873,#874,#875,#876,#877,#878,#879,
#880));
#147=CIRCLE('',#974,1.5);
#148=CIRCLE('',#982,1.5);
#149=CIRCLE('',#987,1.5);
#150=CIRCLE('',#996,1.03077638336474);
#151=CIRCLE('',#997,1.03077638336474);
#152=CIRCLE('',#999,1.5);
#153=CIRCLE('',#1006,1.5);
#154=CIRCLE('',#1016,1.5);
#155=CIRCLE('',#1019,1.5);
#156=CIRCLE('',#1021,1.03077638336479);
#157=CIRCLE('',#1022,1.03077638336479);
#158=CIRCLE('',#1024,1.5);
#159=CIRCLE('',#1029,1.95521815284105);
#160=CIRCLE('',#1030,1.49999999999999);
#161=CIRCLE('',#1031,1.03077638336475);
#162=CIRCLE('',#1032,1.03077638336477);
#163=CIRCLE('',#1033,1.5);
#164=CIRCLE('',#1035,1.5);
#165=CIRCLE('',#1036,1.5);
#166=CIRCLE('',#1039,1.95521815284105);
#167=CIRCLE('',#1040,1.95521815284105);
#168=CIRCLE('',#1053,1.95521815284105);
#169=CIRCLE('',#1056,1.49999999999999);
#170=CIRCLE('',#1058,1.03077638336475);
#171=CIRCLE('',#1060,1.03077638336477);
#172=CIRCLE('',#1062,1.5);
#173=CIRCLE('',#1067,1.5);
#174=CIRCLE('',#1068,1.5);
#175=LINE('',#1362,#257);
#176=LINE('',#1432,#258);
#177=LINE('',#1440,#259);
#178=LINE('',#1444,#260);
#179=LINE('',#1450,#261);
#180=LINE('',#1458,#262);
#181=LINE('',#1462,#263);
#182=LINE('',#1492,#264);
#183=LINE('',#1496,#265);
#184=LINE('',#1499,#266);
#185=LINE('',#1503,#267);
#186=LINE('',#1506,#268);
#187=LINE('',#1515,#269);
#188=LINE('',#1612,#270);
#189=LINE('',#1616,#271);
#190=LINE('',#1619,#272);
#191=LINE('',#1624,#273);
#192=LINE('',#1627,#274);
#193=LINE('',#1689,#275);
#194=LINE('',#1691,#276);
#195=LINE('',#1693,#277);
#196=LINE('',#1694,#278);
#197=LINE('',#1698,#279);
#198=LINE('',#1700,#280);
#199=LINE('',#1702,#281);
#200=LINE('',#1704,#282);
#201=LINE('',#1708,#283);
#202=LINE('',#1716,#284);
#203=LINE('',#1722,#285);
#204=LINE('',#1725,#286);
#205=LINE('',#1727,#287);
#206=LINE('',#1728,#288);
#207=LINE('',#1734,#289);
#208=LINE('',#1737,#290);
#209=LINE('',#1739,#291);
#210=LINE('',#1740,#292);
#211=LINE('',#1743,#293);
#212=LINE('',#1745,#294);
#213=LINE('',#1746,#295);
#214=LINE('',#1749,#296);
#215=LINE('',#1751,#297);
#216=LINE('',#1752,#298);
#217=LINE('',#1756,#299);
#218=LINE('',#1758,#300);
#219=LINE('',#1760,#301);
#220=LINE('',#1761,#302);
#221=LINE('',#1764,#303);
#222=LINE('',#1766,#304);
#223=LINE('',#1767,#305);
#224=LINE('',#1770,#306);
#225=LINE('',#1771,#307);
#226=LINE('',#1774,#308);
#227=LINE('',#1775,#309);
#228=LINE('',#1779,#310);
#229=LINE('',#1781,#311);
#230=LINE('',#1783,#312);
#231=LINE('',#1784,#313);
#232=LINE('',#1787,#314);
#233=LINE('',#1789,#315);
#234=LINE('',#1790,#316);
#235=LINE('',#1793,#317);
#236=LINE('',#1794,#318);
#237=LINE('',#1797,#319);
#238=LINE('',#1798,#320);
#239=LINE('',#1802,#321);
#240=LINE('',#1805,#322);
#241=LINE('',#1806,#323);
#242=LINE('',#1810,#324);
#243=LINE('',#1816,#325);
#244=LINE('',#1820,#326);
#245=LINE('',#1823,#327);
#246=LINE('',#1824,#328);
#247=LINE('',#1827,#329);
#248=LINE('',#1829,#330);
#249=LINE('',#1830,#331);
#250=LINE('',#1831,#332);
#251=LINE('',#1832,#333);
#252=LINE('',#1833,#334);
#253=LINE('',#1834,#335);
#254=LINE('',#1837,#336);
#255=LINE('',#1839,#337);
#256=LINE('',#1840,#338);
#257=VECTOR('',#1079,1.5);
#258=VECTOR('',#1098,1.5);
#259=VECTOR('',#1107,10.);
#260=VECTOR('',#1110,10.);
#261=VECTOR('',#1117,10.);
#262=VECTOR('',#1124,10.);
#263=VECTOR('',#1129,10.);
#264=VECTOR('',#1130,10.);
#265=VECTOR('',#1133,10.);
#266=VECTOR('',#1136,10.);
#267=VECTOR('',#1141,10.);
#268=VECTOR('',#1144,10.);
#269=VECTOR('',#1155,1.5);
#270=VECTOR('',#1178,1.5);
#271=VECTOR('',#1183,10.);
#272=VECTOR('',#1186,10.);
#273=VECTOR('',#1191,10.);
#274=VECTOR('',#1194,10.);
#275=VECTOR('',#1205,10.);
#276=VECTOR('',#1206,10.);
#277=VECTOR('',#1207,10.);
#278=VECTOR('',#1208,10.);
#279=VECTOR('',#1211,10.);
#280=VECTOR('',#1212,10.);
#281=VECTOR('',#1213,10.);
#282=VECTOR('',#1214,10.);
#283=VECTOR('',#1217,10.);
#284=VECTOR('',#1226,10.);
#285=VECTOR('',#1233,10.);
#286=VECTOR('',#1236,10.);
#287=VECTOR('',#1237,10.);
#288=VECTOR('',#1238,10.);
#289=VECTOR('',#1245,10.);
#290=VECTOR('',#1248,10.);
#291=VECTOR('',#1249,10.);
#292=VECTOR('',#1250,10.);
#293=VECTOR('',#1253,10.);
#294=VECTOR('',#1254,10.);
#295=VECTOR('',#1255,10.);
#296=VECTOR('',#1258,10.);
#297=VECTOR('',#1259,10.);
#298=VECTOR('',#1260,10.);
#299=VECTOR('',#1263,10.);
#300=VECTOR('',#1264,10.);
#301=VECTOR('',#1265,10.);
#302=VECTOR('',#1266,10.);
#303=VECTOR('',#1269,10.);
#304=VECTOR('',#1270,10.);
#305=VECTOR('',#1271,10.);
#306=VECTOR('',#1274,10.);
#307=VECTOR('',#1275,10.);
#308=VECTOR('',#1278,10.);
#309=VECTOR('',#1279,10.);
#310=VECTOR('',#1282,10.);
#311=VECTOR('',#1283,10.);
#312=VECTOR('',#1284,10.);
#313=VECTOR('',#1285,10.);
#314=VECTOR('',#1288,10.);
#315=VECTOR('',#1289,10.);
#316=VECTOR('',#1290,10.);
#317=VECTOR('',#1293,10.);
#318=VECTOR('',#1294,10.);
#319=VECTOR('',#1297,10.);
#320=VECTOR('',#1298,10.);
#321=VECTOR('',#1303,10.);
#322=VECTOR('',#1306,10.);
#323=VECTOR('',#1307,10.);
#324=VECTOR('',#1312,10.);
#325=VECTOR('',#1321,10.);
#326=VECTOR('',#1326,10.);
#327=VECTOR('',#1329,10.);
#328=VECTOR('',#1330,10.);
#329=VECTOR('',#1333,10.);
#330=VECTOR('',#1334,10.);
#331=VECTOR('',#1335,10.);
#332=VECTOR('',#1336,10.);
#333=VECTOR('',#1337,10.);
#334=VECTOR('',#1338,10.);
#335=VECTOR('',#1339,10.);
#336=VECTOR('',#1342,10.);
#337=VECTOR('',#1343,10.);
#338=VECTOR('',#1344,10.);
#339=ELLIPSE('',#972,2.12132034355963,1.5);
#340=ELLIPSE('',#973,2.12132034355963,1.5);
#341=ELLIPSE('',#976,2.12132034355963,1.5);
#342=ELLIPSE('',#977,2.12132034355963,1.5);
#343=ELLIPSE('',#979,2.12132034355963,1.5);
#344=ELLIPSE('',#980,2.12132034355963,1.5);
#345=ELLIPSE('',#983,2.12132034355964,1.5);
#346=ELLIPSE('',#984,2.12132034355964,1.5);
#347=ELLIPSE('',#986,2.12132034355964,1.5);
#348=ELLIPSE('',#988,2.12132034355964,1.5);
#349=ELLIPSE('',#990,2.12132034355964,1.5);
#350=ELLIPSE('',#991,2.12132034355965,1.5);
#351=ELLIPSE('',#992,2.12132034355965,1.5);
#352=ELLIPSE('',#993,2.12132034355965,1.5);
#353=ELLIPSE('',#994,2.12132034355964,1.5);
#354=ELLIPSE('',#1001,2.12132034355964,1.5);
#355=ELLIPSE('',#1002,2.12132034355964,1.5);
#356=ELLIPSE('',#1003,2.12132034355964,1.5);
#357=ELLIPSE('',#1005,2.12132034355964,1.5);
#358=ELLIPSE('',#1008,2.12132034355964,1.5);
#359=ELLIPSE('',#1010,2.12132034355965,1.5);
#360=ELLIPSE('',#1012,2.12132034355965,1.5);
#361=ELLIPSE('',#1014,2.12132034355964,1.5);
#362=ELLIPSE('',#1017,2.12132034355965,1.5);
#363=VERTEX_POINT('',#1357);
#364=VERTEX_POINT('',#1358);
#365=VERTEX_POINT('',#1361);
#366=VERTEX_POINT('',#1365);
#367=VERTEX_POINT('',#1367);
#368=VERTEX_POINT('',#1397);
#369=VERTEX_POINT('',#1398);
#370=VERTEX_POINT('',#1429);
#371=VERTEX_POINT('',#1431);
#372=VERTEX_POINT('',#1433);
#373=VERTEX_POINT('',#1437);
#374=VERTEX_POINT('',#1439);
#375=VERTEX_POINT('',#1441);
#376=VERTEX_POINT('',#1443);
#377=VERTEX_POINT('',#1447);
#378=VERTEX_POINT('',#1449);
#379=VERTEX_POINT('',#1451);
#380=VERTEX_POINT('',#1453);
#381=VERTEX_POINT('',#1455);
#382=VERTEX_POINT('',#1457);
#383=VERTEX_POINT('',#1461);
#384=VERTEX_POINT('',#1463);
#385=VERTEX_POINT('',#1491);
#386=VERTEX_POINT('',#1493);
#387=VERTEX_POINT('',#1495);
#388=VERTEX_POINT('',#1497);
#389=VERTEX_POINT('',#1501);
#390=VERTEX_POINT('',#1505);
#391=VERTEX_POINT('',#1507);
#392=VERTEX_POINT('',#1509);
#393=VERTEX_POINT('',#1514);
#394=VERTEX_POINT('',#1520);
#395=VERTEX_POINT('',#1550);
#396=VERTEX_POINT('',#1580);
#397=VERTEX_POINT('',#1610);
#398=VERTEX_POINT('',#1615);
#399=VERTEX_POINT('',#1617);
#400=VERTEX_POINT('',#1621);
#401=VERTEX_POINT('',#1623);
#402=VERTEX_POINT('',#1625);
#403=VERTEX_POINT('',#1687);
#404=VERTEX_POINT('',#1688);
#405=VERTEX_POINT('',#1690);
#406=VERTEX_POINT('',#1692);
#407=VERTEX_POINT('',#1696);
#408=VERTEX_POINT('',#1697);
#409=VERTEX_POINT('',#1699);
#410=VERTEX_POINT('',#1701);
#411=VERTEX_POINT('',#1703);
#412=VERTEX_POINT('',#1705);
#413=VERTEX_POINT('',#1707);
#414=VERTEX_POINT('',#1709);
#415=VERTEX_POINT('',#1712);
#416=VERTEX_POINT('',#1714);
#417=VERTEX_POINT('',#1718);
#418=VERTEX_POINT('',#1720);
#419=VERTEX_POINT('',#1724);
#420=VERTEX_POINT('',#1726);
#421=VERTEX_POINT('',#1730);
#422=VERTEX_POINT('',#1732);
#423=VERTEX_POINT('',#1736);
#424=VERTEX_POINT('',#1738);
#425=VERTEX_POINT('',#1742);
#426=VERTEX_POINT('',#1744);
#427=VERTEX_POINT('',#1748);
#428=VERTEX_POINT('',#1750);
#429=VERTEX_POINT('',#1754);
#430=VERTEX_POINT('',#1755);
#431=VERTEX_POINT('',#1757);
#432=VERTEX_POINT('',#1759);
#433=VERTEX_POINT('',#1763);
#434=VERTEX_POINT('',#1765);
#435=VERTEX_POINT('',#1769);
#436=VERTEX_POINT('',#1773);
#437=VERTEX_POINT('',#1777);
#438=VERTEX_POINT('',#1778);
#439=VERTEX_POINT('',#1780);
#440=VERTEX_POINT('',#1782);
#441=VERTEX_POINT('',#1786);
#442=VERTEX_POINT('',#1788);
#443=VERTEX_POINT('',#1792);
#444=VERTEX_POINT('',#1796);
#445=VERTEX_POINT('',#1800);
#446=VERTEX_POINT('',#1804);
#447=VERTEX_POINT('',#1808);
#448=VERTEX_POINT('',#1814);
#449=VERTEX_POINT('',#1818);
#450=VERTEX_POINT('',#1822);
#451=VERTEX_POINT('',#1826);
#452=VERTEX_POINT('',#1828);
#453=VERTEX_POINT('',#1836);
#454=VERTEX_POINT('',#1838);
#455=EDGE_CURVE('',#363,#364,#339,.T.);
#456=EDGE_CURVE('',#364,#363,#340,.T.);
#457=EDGE_CURVE('',#364,#365,#175,.T.);
#458=EDGE_CURVE('',#365,#365,#147,.T.);
#459=EDGE_CURVE('',#364,#366,#341,.T.);
#460=EDGE_CURVE('',#367,#364,#342,.T.);
#461=EDGE_CURVE('',#366,#367,#39,.T.);
#462=EDGE_CURVE('',#368,#369,#40,.T.);
#463=EDGE_CURVE('',#363,#368,#343,.T.);
#464=EDGE_CURVE('',#369,#363,#344,.T.);
#465=EDGE_CURVE('',#370,#370,#148,.T.);
#466=EDGE_CURVE('',#370,#371,#176,.T.);
#467=EDGE_CURVE('',#372,#371,#345,.T.);
#468=EDGE_CURVE('',#371,#372,#346,.T.);
#469=EDGE_CURVE('',#372,#373,#347,.T.);
#470=EDGE_CURVE('',#374,#373,#177,.T.);
#471=EDGE_CURVE('',#375,#374,#149,.T.);
#472=EDGE_CURVE('',#375,#376,#178,.T.);
#473=EDGE_CURVE('',#376,#371,#348,.T.);
#474=EDGE_CURVE('',#371,#377,#349,.T.);
#475=EDGE_CURVE('',#377,#378,#179,.T.);
#476=EDGE_CURVE('',#378,#379,#350,.T.);
#477=EDGE_CURVE('',#379,#380,#351,.T.);
#478=EDGE_CURVE('',#380,#381,#352,.T.);
#479=EDGE_CURVE('',#382,#381,#180,.T.);
#480=EDGE_CURVE('',#382,#372,#353,.T.);
#481=EDGE_CURVE('',#367,#383,#181,.T.);
#482=EDGE_CURVE('',#383,#384,#41,.T.);
#483=EDGE_CURVE('',#384,#385,#182,.T.);
#484=EDGE_CURVE('',#386,#385,#150,.T.);
#485=EDGE_CURVE('',#387,#386,#183,.T.);
#486=EDGE_CURVE('',#387,#388,#151,.T.);
#487=EDGE_CURVE('',#388,#366,#184,.T.);
#488=EDGE_CURVE('',#389,#388,#152,.T.);
#489=EDGE_CURVE('',#389,#369,#185,.T.);
#490=EDGE_CURVE('',#368,#390,#186,.T.);
#491=EDGE_CURVE('',#390,#391,#354,.T.);
#492=EDGE_CURVE('',#391,#392,#355,.T.);
#493=EDGE_CURVE('',#392,#383,#356,.T.);
#494=EDGE_CURVE('',#392,#391,#357,.T.);
#495=EDGE_CURVE('',#392,#393,#187,.T.);
#496=EDGE_CURVE('',#393,#393,#153,.T.);
#497=EDGE_CURVE('',#384,#392,#358,.T.);
#498=EDGE_CURVE('',#394,#380,#359,.T.);
#499=EDGE_CURVE('',#381,#394,#42,.T.);
#500=EDGE_CURVE('',#379,#395,#360,.T.);
#501=EDGE_CURVE('',#395,#378,#43,.T.);
#502=EDGE_CURVE('',#396,#390,#44,.T.);
#503=EDGE_CURVE('',#391,#396,#361,.T.);
#504=EDGE_CURVE('',#397,#397,#154,.T.);
#505=EDGE_CURVE('',#397,#379,#188,.T.);
#506=EDGE_CURVE('',#380,#379,#362,.T.);
#507=EDGE_CURVE('',#395,#398,#189,.T.);
#508=EDGE_CURVE('',#399,#398,#155,.T.);
#509=EDGE_CURVE('',#394,#399,#190,.T.);
#510=EDGE_CURVE('',#389,#400,#156,.T.);
#511=EDGE_CURVE('',#400,#401,#191,.T.);
#512=EDGE_CURVE('',#402,#401,#157,.T.);
#513=EDGE_CURVE('',#396,#402,#192,.T.);
#514=EDGE_CURVE('',#385,#402,#158,.T.);
#515=EDGE_CURVE('',#373,#382,#45,.T.);
#516=EDGE_CURVE('',#377,#376,#46,.T.);
#517=EDGE_CURVE('',#403,#404,#193,.T.);
#518=EDGE_CURVE('',#404,#405,#194,.T.);
#519=EDGE_CURVE('',#405,#406,#195,.T.);
#520=EDGE_CURVE('',#406,#403,#196,.T.);
#521=EDGE_CURVE('',#407,#408,#197,.T.);
#522=EDGE_CURVE('',#408,#409,#198,.T.);
#523=EDGE_CURVE('',#409,#410,#199,.T.);
#524=EDGE_CURVE('',#410,#411,#200,.T.);
#525=EDGE_CURVE('',#411,#412,#159,.T.);
#526=EDGE_CURVE('',#412,#413,#201,.T.);
#527=EDGE_CURVE('',#414,#413,#160,.T.);
#528=EDGE_CURVE('',#375,#414,#161,.T.);
#529=EDGE_CURVE('',#415,#374,#162,.T.);
#530=EDGE_CURVE('',#416,#415,#163,.T.);
#531=EDGE_CURVE('',#416,#407,#202,.T.);
#532=EDGE_CURVE('',#417,#387,#164,.T.);
#533=EDGE_CURVE('',#418,#386,#165,.T.);
#534=EDGE_CURVE('',#417,#418,#203,.T.);
#535=EDGE_CURVE('',#419,#417,#204,.T.);
#536=EDGE_CURVE('',#420,#418,#205,.T.);
#537=EDGE_CURVE('',#419,#420,#206,.T.);
#538=EDGE_CURVE('',#419,#421,#166,.T.);
#539=EDGE_CURVE('',#422,#420,#167,.T.);
#540=EDGE_CURVE('',#421,#422,#207,.T.);
#541=EDGE_CURVE('',#423,#421,#208,.T.);
#542=EDGE_CURVE('',#424,#422,#209,.T.);
#543=EDGE_CURVE('',#423,#424,#210,.T.);
#544=EDGE_CURVE('',#425,#423,#211,.T.);
#545=EDGE_CURVE('',#426,#424,#212,.T.);
#546=EDGE_CURVE('',#425,#426,#213,.T.);
#547=EDGE_CURVE('',#425,#427,#214,.T.);
#548=EDGE_CURVE('',#428,#426,#215,.T.);
#549=EDGE_CURVE('',#427,#428,#216,.T.);
#550=EDGE_CURVE('',#429,#430,#217,.T.);
#551=EDGE_CURVE('',#430,#431,#218,.T.);
#552=EDGE_CURVE('',#432,#431,#219,.T.);
#553=EDGE_CURVE('',#429,#432,#220,.T.);
#554=EDGE_CURVE('',#405,#433,#221,.T.);
#555=EDGE_CURVE('',#434,#433,#222,.T.);
#556=EDGE_CURVE('',#406,#434,#223,.T.);
#557=EDGE_CURVE('',#435,#434,#224,.T.);
#558=EDGE_CURVE('',#403,#435,#225,.T.);
#559=EDGE_CURVE('',#436,#435,#226,.T.);
#560=EDGE_CURVE('',#404,#436,#227,.T.);
#561=EDGE_CURVE('',#437,#438,#228,.T.);
#562=EDGE_CURVE('',#437,#439,#229,.T.);
#563=EDGE_CURVE('',#440,#439,#230,.T.);
#564=EDGE_CURVE('',#438,#440,#231,.T.);
#565=EDGE_CURVE('',#408,#441,#232,.T.);
#566=EDGE_CURVE('',#442,#441,#233,.T.);
#567=EDGE_CURVE('',#409,#442,#234,.T.);
#568=EDGE_CURVE('',#443,#442,#235,.T.);
#569=EDGE_CURVE('',#410,#443,#236,.T.);
#570=EDGE_CURVE('',#444,#443,#237,.T.);
#571=EDGE_CURVE('',#411,#444,#238,.T.);
#572=EDGE_CURVE('',#445,#444,#168,.T.);
#573=EDGE_CURVE('',#412,#445,#239,.T.);
#574=EDGE_CURVE('',#446,#445,#240,.T.);
#575=EDGE_CURVE('',#413,#446,#241,.T.);
#576=EDGE_CURVE('',#447,#446,#169,.T.);
#577=EDGE_CURVE('',#414,#447,#242,.T.);
#578=EDGE_CURVE('',#398,#447,#170,.T.);
#579=EDGE_CURVE('',#448,#399,#171,.T.);
#580=EDGE_CURVE('',#415,#448,#243,.T.);
#581=EDGE_CURVE('',#449,#448,#172,.T.);
#582=EDGE_CURVE('',#416,#449,#244,.T.);
#583=EDGE_CURVE('',#450,#449,#245,.T.);
#584=EDGE_CURVE('',#407,#450,#246,.T.);
#585=EDGE_CURVE('',#451,#450,#247,.T.);
#586=EDGE_CURVE('',#452,#451,#248,.T.);
#587=EDGE_CURVE('',#427,#452,#249,.T.);
#588=EDGE_CURVE('',#431,#428,#250,.T.);
#589=EDGE_CURVE('',#433,#432,#251,.T.);
#590=EDGE_CURVE('',#439,#436,#252,.T.);
#591=EDGE_CURVE('',#441,#440,#253,.T.);
#592=EDGE_CURVE('',#453,#452,#254,.T.);
#593=EDGE_CURVE('',#454,#451,#255,.T.);
#594=EDGE_CURVE('',#453,#454,#256,.T.);
#595=EDGE_CURVE('',#400,#453,#173,.T.);
#596=EDGE_CURVE('',#401,#454,#174,.T.);
#597=ORIENTED_EDGE('',*,*,#455,.F.);
#598=ORIENTED_EDGE('',*,*,#456,.F.);
#599=ORIENTED_EDGE('',*,*,#457,.T.);
#600=ORIENTED_EDGE('',*,*,#458,.F.);
#601=ORIENTED_EDGE('',*,*,#457,.F.);
#602=ORIENTED_EDGE('',*,*,#459,.F.);
#603=ORIENTED_EDGE('',*,*,#460,.F.);
#604=ORIENTED_EDGE('',*,*,#461,.F.);
#605=ORIENTED_EDGE('',*,*,#462,.F.);
#606=ORIENTED_EDGE('',*,*,#463,.F.);
#607=ORIENTED_EDGE('',*,*,#464,.F.);
#608=ORIENTED_EDGE('',*,*,#465,.F.);
#609=ORIENTED_EDGE('',*,*,#466,.T.);
#610=ORIENTED_EDGE('',*,*,#467,.F.);
#611=ORIENTED_EDGE('',*,*,#468,.F.);
#612=ORIENTED_EDGE('',*,*,#466,.F.);
#613=ORIENTED_EDGE('',*,*,#468,.T.);
#614=ORIENTED_EDGE('',*,*,#469,.T.);
#615=ORIENTED_EDGE('',*,*,#470,.F.);
#616=ORIENTED_EDGE('',*,*,#471,.F.);
#617=ORIENTED_EDGE('',*,*,#472,.T.);
#618=ORIENTED_EDGE('',*,*,#473,.T.);
#619=ORIENTED_EDGE('',*,*,#467,.T.);
#620=ORIENTED_EDGE('',*,*,#474,.T.);
#621=ORIENTED_EDGE('',*,*,#475,.T.);
#622=ORIENTED_EDGE('',*,*,#476,.T.);
#623=ORIENTED_EDGE('',*,*,#477,.T.);
#624=ORIENTED_EDGE('',*,*,#478,.T.);
#625=ORIENTED_EDGE('',*,*,#479,.F.);
#626=ORIENTED_EDGE('',*,*,#480,.T.);
#627=ORIENTED_EDGE('',*,*,#461,.T.);
#628=ORIENTED_EDGE('',*,*,#481,.T.);
#629=ORIENTED_EDGE('',*,*,#482,.T.);
#630=ORIENTED_EDGE('',*,*,#483,.T.);
#631=ORIENTED_EDGE('',*,*,#484,.F.);
#632=ORIENTED_EDGE('',*,*,#485,.F.);
#633=ORIENTED_EDGE('',*,*,#486,.T.);
#634=ORIENTED_EDGE('',*,*,#487,.T.);
#635=ORIENTED_EDGE('',*,*,#459,.T.);
#636=ORIENTED_EDGE('',*,*,#487,.F.);
#637=ORIENTED_EDGE('',*,*,#488,.F.);
#638=ORIENTED_EDGE('',*,*,#489,.T.);
#639=ORIENTED_EDGE('',*,*,#464,.T.);
#640=ORIENTED_EDGE('',*,*,#455,.T.);
#641=ORIENTED_EDGE('',*,*,#460,.T.);
#642=ORIENTED_EDGE('',*,*,#456,.T.);
#643=ORIENTED_EDGE('',*,*,#463,.T.);
#644=ORIENTED_EDGE('',*,*,#490,.T.);
#645=ORIENTED_EDGE('',*,*,#491,.T.);
#646=ORIENTED_EDGE('',*,*,#492,.T.);
#647=ORIENTED_EDGE('',*,*,#493,.T.);
#648=ORIENTED_EDGE('',*,*,#481,.F.);
#649=ORIENTED_EDGE('',*,*,#492,.F.);
#650=ORIENTED_EDGE('',*,*,#494,.F.);
#651=ORIENTED_EDGE('',*,*,#495,.T.);
#652=ORIENTED_EDGE('',*,*,#496,.F.);
#653=ORIENTED_EDGE('',*,*,#495,.F.);
#654=ORIENTED_EDGE('',*,*,#493,.F.);
#655=ORIENTED_EDGE('',*,*,#497,.F.);
#656=ORIENTED_EDGE('',*,*,#482,.F.);
#657=ORIENTED_EDGE('',*,*,#478,.F.);
#658=ORIENTED_EDGE('',*,*,#498,.F.);
#659=ORIENTED_EDGE('',*,*,#499,.F.);
#660=ORIENTED_EDGE('',*,*,#500,.F.);
#661=ORIENTED_EDGE('',*,*,#476,.F.);
#662=ORIENTED_EDGE('',*,*,#501,.F.);
#663=ORIENTED_EDGE('',*,*,#491,.F.);
#664=ORIENTED_EDGE('',*,*,#502,.F.);
#665=ORIENTED_EDGE('',*,*,#503,.F.);
#666=ORIENTED_EDGE('',*,*,#504,.F.);
#667=ORIENTED_EDGE('',*,*,#505,.T.);
#668=ORIENTED_EDGE('',*,*,#506,.F.);
#669=ORIENTED_EDGE('',*,*,#477,.F.);
#670=ORIENTED_EDGE('',*,*,#505,.F.);
#671=ORIENTED_EDGE('',*,*,#498,.T.);
#672=ORIENTED_EDGE('',*,*,#506,.T.);
#673=ORIENTED_EDGE('',*,*,#500,.T.);
#674=ORIENTED_EDGE('',*,*,#507,.T.);
#675=ORIENTED_EDGE('',*,*,#508,.F.);
#676=ORIENTED_EDGE('',*,*,#509,.F.);
#677=ORIENTED_EDGE('',*,*,#462,.T.);
#678=ORIENTED_EDGE('',*,*,#489,.F.);
#679=ORIENTED_EDGE('',*,*,#510,.T.);
#680=ORIENTED_EDGE('',*,*,#511,.T.);
#681=ORIENTED_EDGE('',*,*,#512,.F.);
#682=ORIENTED_EDGE('',*,*,#513,.F.);
#683=ORIENTED_EDGE('',*,*,#502,.T.);
#684=ORIENTED_EDGE('',*,*,#490,.F.);
#685=ORIENTED_EDGE('',*,*,#497,.T.);
#686=ORIENTED_EDGE('',*,*,#494,.T.);
#687=ORIENTED_EDGE('',*,*,#503,.T.);
#688=ORIENTED_EDGE('',*,*,#513,.T.);
#689=ORIENTED_EDGE('',*,*,#514,.F.);
#690=ORIENTED_EDGE('',*,*,#483,.F.);
#691=ORIENTED_EDGE('',*,*,#469,.F.);
#692=ORIENTED_EDGE('',*,*,#480,.F.);
#693=ORIENTED_EDGE('',*,*,#515,.F.);
#694=ORIENTED_EDGE('',*,*,#474,.F.);
#695=ORIENTED_EDGE('',*,*,#473,.F.);
#696=ORIENTED_EDGE('',*,*,#516,.F.);
#697=ORIENTED_EDGE('',*,*,#517,.T.);
#698=ORIENTED_EDGE('',*,*,#518,.T.);
#699=ORIENTED_EDGE('',*,*,#519,.T.);
#700=ORIENTED_EDGE('',*,*,#520,.T.);
#701=ORIENTED_EDGE('',*,*,#521,.T.);
#702=ORIENTED_EDGE('',*,*,#522,.T.);
#703=ORIENTED_EDGE('',*,*,#523,.T.);
#704=ORIENTED_EDGE('',*,*,#524,.T.);
#705=ORIENTED_EDGE('',*,*,#525,.T.);
#706=ORIENTED_EDGE('',*,*,#526,.T.);
#707=ORIENTED_EDGE('',*,*,#527,.F.);
#708=ORIENTED_EDGE('',*,*,#528,.F.);
#709=ORIENTED_EDGE('',*,*,#471,.T.);
#710=ORIENTED_EDGE('',*,*,#529,.F.);
#711=ORIENTED_EDGE('',*,*,#530,.F.);
#712=ORIENTED_EDGE('',*,*,#531,.T.);
#713=ORIENTED_EDGE('',*,*,#532,.T.);
#714=ORIENTED_EDGE('',*,*,#485,.T.);
#715=ORIENTED_EDGE('',*,*,#533,.F.);
#716=ORIENTED_EDGE('',*,*,#534,.F.);
#717=ORIENTED_EDGE('',*,*,#535,.T.);
#718=ORIENTED_EDGE('',*,*,#534,.T.);
#719=ORIENTED_EDGE('',*,*,#536,.F.);
#720=ORIENTED_EDGE('',*,*,#537,.F.);
#721=ORIENTED_EDGE('',*,*,#538,.F.);
#722=ORIENTED_EDGE('',*,*,#537,.T.);
#723=ORIENTED_EDGE('',*,*,#539,.F.);
#724=ORIENTED_EDGE('',*,*,#540,.F.);
#725=ORIENTED_EDGE('',*,*,#541,.T.);
#726=ORIENTED_EDGE('',*,*,#540,.T.);
#727=ORIENTED_EDGE('',*,*,#542,.F.);
#728=ORIENTED_EDGE('',*,*,#543,.F.);
#729=ORIENTED_EDGE('',*,*,#544,.T.);
#730=ORIENTED_EDGE('',*,*,#543,.T.);
#731=ORIENTED_EDGE('',*,*,#545,.F.);
#732=ORIENTED_EDGE('',*,*,#546,.F.);
#733=ORIENTED_EDGE('',*,*,#547,.F.);
#734=ORIENTED_EDGE('',*,*,#546,.T.);
#735=ORIENTED_EDGE('',*,*,#548,.F.);
#736=ORIENTED_EDGE('',*,*,#549,.F.);
#737=ORIENTED_EDGE('',*,*,#458,.T.);
#738=ORIENTED_EDGE('',*,*,#496,.T.);
#739=ORIENTED_EDGE('',*,*,#550,.T.);
#740=ORIENTED_EDGE('',*,*,#551,.T.);
#741=ORIENTED_EDGE('',*,*,#552,.F.);
#742=ORIENTED_EDGE('',*,*,#553,.F.);
#743=ORIENTED_EDGE('',*,*,#554,.T.);
#744=ORIENTED_EDGE('',*,*,#555,.F.);
#745=ORIENTED_EDGE('',*,*,#556,.F.);
#746=ORIENTED_EDGE('',*,*,#519,.F.);
#747=ORIENTED_EDGE('',*,*,#556,.T.);
#748=ORIENTED_EDGE('',*,*,#557,.F.);
#749=ORIENTED_EDGE('',*,*,#558,.F.);
#750=ORIENTED_EDGE('',*,*,#520,.F.);
#751=ORIENTED_EDGE('',*,*,#558,.T.);
#752=ORIENTED_EDGE('',*,*,#559,.F.);
#753=ORIENTED_EDGE('',*,*,#560,.F.);
#754=ORIENTED_EDGE('',*,*,#517,.F.);
#755=ORIENTED_EDGE('',*,*,#561,.F.);
#756=ORIENTED_EDGE('',*,*,#562,.T.);
#757=ORIENTED_EDGE('',*,*,#563,.F.);
#758=ORIENTED_EDGE('',*,*,#564,.F.);
#759=ORIENTED_EDGE('',*,*,#522,.F.);
#760=ORIENTED_EDGE('',*,*,#565,.T.);
#761=ORIENTED_EDGE('',*,*,#566,.F.);
#762=ORIENTED_EDGE('',*,*,#567,.F.);
#763=ORIENTED_EDGE('',*,*,#465,.T.);
#764=ORIENTED_EDGE('',*,*,#504,.T.);
#765=ORIENTED_EDGE('',*,*,#523,.F.);
#766=ORIENTED_EDGE('',*,*,#567,.T.);
#767=ORIENTED_EDGE('',*,*,#568,.F.);
#768=ORIENTED_EDGE('',*,*,#569,.F.);
#769=ORIENTED_EDGE('',*,*,#524,.F.);
#770=ORIENTED_EDGE('',*,*,#569,.T.);
#771=ORIENTED_EDGE('',*,*,#570,.F.);
#772=ORIENTED_EDGE('',*,*,#571,.F.);
#773=ORIENTED_EDGE('',*,*,#525,.F.);
#774=ORIENTED_EDGE('',*,*,#571,.T.);
#775=ORIENTED_EDGE('',*,*,#572,.F.);
#776=ORIENTED_EDGE('',*,*,#573,.F.);
#777=ORIENTED_EDGE('',*,*,#526,.F.);
#778=ORIENTED_EDGE('',*,*,#573,.T.);
#779=ORIENTED_EDGE('',*,*,#574,.F.);
#780=ORIENTED_EDGE('',*,*,#575,.F.);
#781=ORIENTED_EDGE('',*,*,#527,.T.);
#782=ORIENTED_EDGE('',*,*,#575,.T.);
#783=ORIENTED_EDGE('',*,*,#576,.F.);
#784=ORIENTED_EDGE('',*,*,#577,.F.);
#785=ORIENTED_EDGE('',*,*,#501,.T.);
#786=ORIENTED_EDGE('',*,*,#475,.F.);
#787=ORIENTED_EDGE('',*,*,#516,.T.);
#788=ORIENTED_EDGE('',*,*,#472,.F.);
#789=ORIENTED_EDGE('',*,*,#528,.T.);
#790=ORIENTED_EDGE('',*,*,#577,.T.);
#791=ORIENTED_EDGE('',*,*,#578,.F.);
#792=ORIENTED_EDGE('',*,*,#507,.F.);
#793=ORIENTED_EDGE('',*,*,#499,.T.);
#794=ORIENTED_EDGE('',*,*,#509,.T.);
#795=ORIENTED_EDGE('',*,*,#579,.F.);
#796=ORIENTED_EDGE('',*,*,#580,.F.);
#797=ORIENTED_EDGE('',*,*,#529,.T.);
#798=ORIENTED_EDGE('',*,*,#470,.T.);
#799=ORIENTED_EDGE('',*,*,#515,.T.);
#800=ORIENTED_EDGE('',*,*,#479,.T.);
#801=ORIENTED_EDGE('',*,*,#530,.T.);
#802=ORIENTED_EDGE('',*,*,#580,.T.);
#803=ORIENTED_EDGE('',*,*,#581,.F.);
#804=ORIENTED_EDGE('',*,*,#582,.F.);
#805=ORIENTED_EDGE('',*,*,#531,.F.);
#806=ORIENTED_EDGE('',*,*,#582,.T.);
#807=ORIENTED_EDGE('',*,*,#583,.F.);
#808=ORIENTED_EDGE('',*,*,#584,.F.);
#809=ORIENTED_EDGE('',*,*,#584,.T.);
#810=ORIENTED_EDGE('',*,*,#585,.F.);
#811=ORIENTED_EDGE('',*,*,#586,.F.);
#812=ORIENTED_EDGE('',*,*,#587,.F.);
#813=ORIENTED_EDGE('',*,*,#549,.T.);
#814=ORIENTED_EDGE('',*,*,#588,.F.);
#815=ORIENTED_EDGE('',*,*,#551,.F.);
#816=ORIENTED_EDGE('',*,*,#550,.F.);
#817=ORIENTED_EDGE('',*,*,#553,.T.);
#818=ORIENTED_EDGE('',*,*,#589,.F.);
#819=ORIENTED_EDGE('',*,*,#554,.F.);
#820=ORIENTED_EDGE('',*,*,#518,.F.);
#821=ORIENTED_EDGE('',*,*,#560,.T.);
#822=ORIENTED_EDGE('',*,*,#590,.F.);
#823=ORIENTED_EDGE('',*,*,#562,.F.);
#824=ORIENTED_EDGE('',*,*,#561,.T.);
#825=ORIENTED_EDGE('',*,*,#564,.T.);
#826=ORIENTED_EDGE('',*,*,#591,.F.);
#827=ORIENTED_EDGE('',*,*,#565,.F.);
#828=ORIENTED_EDGE('',*,*,#521,.F.);
#829=ORIENTED_EDGE('',*,*,#592,.T.);
#830=ORIENTED_EDGE('',*,*,#586,.T.);
#831=ORIENTED_EDGE('',*,*,#593,.F.);
#832=ORIENTED_EDGE('',*,*,#594,.F.);
#833=ORIENTED_EDGE('',*,*,#595,.T.);
#834=ORIENTED_EDGE('',*,*,#594,.T.);
#835=ORIENTED_EDGE('',*,*,#596,.F.);
#836=ORIENTED_EDGE('',*,*,#511,.F.);
#837=ORIENTED_EDGE('',*,*,#512,.T.);
#838=ORIENTED_EDGE('',*,*,#596,.T.);
#839=ORIENTED_EDGE('',*,*,#593,.T.);
#840=ORIENTED_EDGE('',*,*,#585,.T.);
#841=ORIENTED_EDGE('',*,*,#583,.T.);
#842=ORIENTED_EDGE('',*,*,#581,.T.);
#843=ORIENTED_EDGE('',*,*,#579,.T.);
#844=ORIENTED_EDGE('',*,*,#508,.T.);
#845=ORIENTED_EDGE('',*,*,#578,.T.);
#846=ORIENTED_EDGE('',*,*,#576,.T.);
#847=ORIENTED_EDGE('',*,*,#574,.T.);
#848=ORIENTED_EDGE('',*,*,#572,.T.);
#849=ORIENTED_EDGE('',*,*,#570,.T.);
#850=ORIENTED_EDGE('',*,*,#568,.T.);
#851=ORIENTED_EDGE('',*,*,#566,.T.);
#852=ORIENTED_EDGE('',*,*,#591,.T.);
#853=ORIENTED_EDGE('',*,*,#563,.T.);
#854=ORIENTED_EDGE('',*,*,#590,.T.);
#855=ORIENTED_EDGE('',*,*,#559,.T.);
#856=ORIENTED_EDGE('',*,*,#557,.T.);
#857=ORIENTED_EDGE('',*,*,#555,.T.);
#858=ORIENTED_EDGE('',*,*,#589,.T.);
#859=ORIENTED_EDGE('',*,*,#552,.T.);
#860=ORIENTED_EDGE('',*,*,#588,.T.);
#861=ORIENTED_EDGE('',*,*,#548,.T.);
#862=ORIENTED_EDGE('',*,*,#545,.T.);
#863=ORIENTED_EDGE('',*,*,#542,.T.);
#864=ORIENTED_EDGE('',*,*,#539,.T.);
#865=ORIENTED_EDGE('',*,*,#536,.T.);
#866=ORIENTED_EDGE('',*,*,#533,.T.);
#867=ORIENTED_EDGE('',*,*,#484,.T.);
#868=ORIENTED_EDGE('',*,*,#514,.T.);
#869=ORIENTED_EDGE('',*,*,#587,.T.);
#870=ORIENTED_EDGE('',*,*,#592,.F.);
#871=ORIENTED_EDGE('',*,*,#595,.F.);
#872=ORIENTED_EDGE('',*,*,#510,.F.);
#873=ORIENTED_EDGE('',*,*,#488,.T.);
#874=ORIENTED_EDGE('',*,*,#486,.F.);
#875=ORIENTED_EDGE('',*,*,#532,.F.);
#876=ORIENTED_EDGE('',*,*,#535,.F.);
#877=ORIENTED_EDGE('',*,*,#538,.T.);
#878=ORIENTED_EDGE('',*,*,#541,.F.);
#879=ORIENTED_EDGE('',*,*,#544,.F.);
#880=ORIENTED_EDGE('',*,*,#547,.T.);
#881=CYLINDRICAL_SURFACE('',#971,1.5);
#882=CYLINDRICAL_SURFACE('',#975,1.5);
#883=CYLINDRICAL_SURFACE('',#978,1.5);
#884=CYLINDRICAL_SURFACE('',#981,1.5);
#885=CYLINDRICAL_SURFACE('',#985,1.5);
#886=CYLINDRICAL_SURFACE('',#989,1.5);
#887=CYLINDRICAL_SURFACE('',#995,1.03077638336474);
#888=CYLINDRICAL_SURFACE('',#998,1.5);
#889=CYLINDRICAL_SURFACE('',#1000,1.5);
#890=CYLINDRICAL_SURFACE('',#1004,1.5);
#891=CYLINDRICAL_SURFACE('',#1007,1.5);
#892=CYLINDRICAL_SURFACE('',#1009,1.5);
#893=CYLINDRICAL_SURFACE('',#1011,1.5);
#894=CYLINDRICAL_SURFACE('',#1013,1.5);
#895=CYLINDRICAL_SURFACE('',#1015,1.5);
#896=CYLINDRICAL_SURFACE('',#1018,1.5);
#897=CYLINDRICAL_SURFACE('',#1020,1.03077638336479);
#898=CYLINDRICAL_SURFACE('',#1023,1.5);
#899=CYLINDRICAL_SURFACE('',#1025,1.5);
#900=CYLINDRICAL_SURFACE('',#1026,1.5);
#901=CYLINDRICAL_SURFACE('',#1034,1.5);
#902=CYLINDRICAL_SURFACE('',#1038,1.95521815284105);
#903=CYLINDRICAL_SURFACE('',#1052,1.95521815284105);
#904=CYLINDRICAL_SURFACE('',#1055,1.49999999999999);
#905=CYLINDRICAL_SURFACE('',#1057,1.03077638336475);
#906=CYLINDRICAL_SURFACE('',#1059,1.03077638336477);
#907=CYLINDRICAL_SURFACE('',#1061,1.5);
#908=CYLINDRICAL_SURFACE('',#1066,1.5);
#909=ADVANCED_FACE('',(#47),#881,.F.);
#910=ADVANCED_FACE('',(#48),#882,.F.);
#911=ADVANCED_FACE('',(#49),#883,.F.);
#912=ADVANCED_FACE('',(#50),#884,.F.);
#913=ADVANCED_FACE('',(#51),#885,.F.);
#914=ADVANCED_FACE('',(#52),#886,.F.);
#915=ADVANCED_FACE('',(#53),#887,.T.);
#916=ADVANCED_FACE('',(#54),#888,.F.);
#917=ADVANCED_FACE('',(#55),#889,.F.);
#918=ADVANCED_FACE('',(#56),#890,.F.);
#919=ADVANCED_FACE('',(#57),#891,.F.);
#920=ADVANCED_FACE('',(#58),#892,.F.);
#921=ADVANCED_FACE('',(#59),#893,.F.);
#922=ADVANCED_FACE('',(#60),#894,.F.);
#923=ADVANCED_FACE('',(#61),#895,.F.);
#924=ADVANCED_FACE('',(#62),#896,.F.);
#925=ADVANCED_FACE('',(#63),#897,.T.);
#926=ADVANCED_FACE('',(#64),#898,.F.);
#927=ADVANCED_FACE('',(#65),#899,.F.);
#928=ADVANCED_FACE('',(#66),#900,.F.);
#929=ADVANCED_FACE('',(#67),#19,.T.);
#930=ADVANCED_FACE('',(#68),#20,.F.);
#931=ADVANCED_FACE('',(#69),#901,.T.);
#932=ADVANCED_FACE('',(#70),#21,.T.);
#933=ADVANCED_FACE('',(#71),#902,.F.);
#934=ADVANCED_FACE('',(#72),#22,.T.);
#935=ADVANCED_FACE('',(#73),#23,.T.);
#936=ADVANCED_FACE('',(#74,#15,#16),#24,.T.);
#937=ADVANCED_FACE('',(#75),#25,.T.);
#938=ADVANCED_FACE('',(#76),#26,.T.);
#939=ADVANCED_FACE('',(#77),#27,.T.);
#940=ADVANCED_FACE('',(#78),#28,.T.);
#941=ADVANCED_FACE('',(#79),#29,.T.);
#942=ADVANCED_FACE('',(#80,#17,#18),#30,.T.);
#943=ADVANCED_FACE('',(#81),#31,.T.);
#944=ADVANCED_FACE('',(#82),#32,.T.);
#945=ADVANCED_FACE('',(#83),#903,.F.);
#946=ADVANCED_FACE('',(#84),#33,.T.);
#947=ADVANCED_FACE('',(#85),#904,.T.);
#948=ADVANCED_FACE('',(#86),#905,.T.);
#949=ADVANCED_FACE('',(#87),#906,.T.);
#950=ADVANCED_FACE('',(#88),#907,.T.);
#951=ADVANCED_FACE('',(#89),#34,.T.);
#952=ADVANCED_FACE('',(#90),#35,.T.);
#953=ADVANCED_FACE('',(#91),#36,.T.);
#954=ADVANCED_FACE('',(#92),#908,.T.);
#955=ADVANCED_FACE('',(#93),#37,.T.);
#956=ADVANCED_FACE('',(#94),#38,.F.);
#957=CLOSED_SHELL('',(#909,#910,#911,#912,#913,#914,#915,#916,#917,#918,
#919,#920,#921,#922,#923,#924,#925,#926,#927,#928,#929,#930,#931,#932,#933,
#934,#935,#936,#937,#938,#939,#940,#941,#942,#943,#944,#945,#946,#947,#948,
#949,#950,#951,#952,#953,#954,#955,#956));
#958=DERIVED_UNIT_ELEMENT(#960,1.);
#959=DERIVED_UNIT_ELEMENT(#1851,-3.);
#960=(
MASS_UNIT()
NAMED_UNIT(*)
SI_UNIT(.KILO.,.GRAM.)
);
#961=DERIVED_UNIT((#958,#959));
#962=MEASURE_REPRESENTATION_ITEM('density measure',
POSITIVE_RATIO_MEASURE(7850.),#961);
#963=PROPERTY_DEFINITION_REPRESENTATION(#968,#965);
#964=PROPERTY_DEFINITION_REPRESENTATION(#969,#966);
#965=REPRESENTATION('material name',(#967),#1848);
#966=REPRESENTATION('density',(#962),#1848);
#967=DESCRIPTIVE_REPRESENTATION_ITEM('Stal','Stal');
#968=PROPERTY_DEFINITION('material property','material name',#1858);
#969=PROPERTY_DEFINITION('material property','density of part',#1858);
#970=AXIS2_PLACEMENT_3D('',#1355,#1071,#1072);
#971=AXIS2_PLACEMENT_3D('',#1356,#1073,#1074);
#972=AXIS2_PLACEMENT_3D('',#1359,#1075,#1076);
#973=AXIS2_PLACEMENT_3D('',#1360,#1077,#1078);
#974=AXIS2_PLACEMENT_3D('',#1363,#1080,#1081);
#975=AXIS2_PLACEMENT_3D('',#1364,#1082,#1083);
#976=AXIS2_PLACEMENT_3D('',#1366,#1084,#1085);
#977=AXIS2_PLACEMENT_3D('',#1368,#1086,#1087);
#978=AXIS2_PLACEMENT_3D('',#1396,#1088,#1089);
#979=AXIS2_PLACEMENT_3D('',#1426,#1090,#1091);
#980=AXIS2_PLACEMENT_3D('',#1427,#1092,#1093);
#981=AXIS2_PLACEMENT_3D('',#1428,#1094,#1095);
#982=AXIS2_PLACEMENT_3D('',#1430,#1096,#1097);
#983=AXIS2_PLACEMENT_3D('',#1434,#1099,#1100);
#984=AXIS2_PLACEMENT_3D('',#1435,#1101,#1102);
#985=AXIS2_PLACEMENT_3D('',#1436,#1103,#1104);
#986=AXIS2_PLACEMENT_3D('',#1438,#1105,#1106);
#987=AXIS2_PLACEMENT_3D('',#1442,#1108,#1109);
#988=AXIS2_PLACEMENT_3D('',#1445,#1111,#1112);
#989=AXIS2_PLACEMENT_3D('',#1446,#1113,#1114);
#990=AXIS2_PLACEMENT_3D('',#1448,#1115,#1116);
#991=AXIS2_PLACEMENT_3D('',#1452,#1118,#1119);
#992=AXIS2_PLACEMENT_3D('',#1454,#1120,#1121);
#993=AXIS2_PLACEMENT_3D('',#1456,#1122,#1123);
#994=AXIS2_PLACEMENT_3D('',#1459,#1125,#1126);
#995=AXIS2_PLACEMENT_3D('',#1460,#1127,#1128);
#996=AXIS2_PLACEMENT_3D('',#1494,#1131,#1132);
#997=AXIS2_PLACEMENT_3D('',#1498,#1134,#1135);
#998=AXIS2_PLACEMENT_3D('',#1500,#1137,#1138);
#999=AXIS2_PLACEMENT_3D('',#1502,#1139,#1140);
#1000=AXIS2_PLACEMENT_3D('',#1504,#1142,#1143);
#1001=AXIS2_PLACEMENT_3D('',#1508,#1145,#1146);
#1002=AXIS2_PLACEMENT_3D('',#1510,#1147,#1148);
#1003=AXIS2_PLACEMENT_3D('',#1511,#1149,#1150);
#1004=AXIS2_PLACEMENT_3D('',#1512,#1151,#1152);
#1005=AXIS2_PLACEMENT_3D('',#1513,#1153,#1154);
#1006=AXIS2_PLACEMENT_3D('',#1516,#1156,#1157);
#1007=AXIS2_PLACEMENT_3D('',#1517,#1158,#1159);
#1008=AXIS2_PLACEMENT_3D('',#1518,#1160,#1161);
#1009=AXIS2_PLACEMENT_3D('',#1519,#1162,#1163);
#1010=AXIS2_PLACEMENT_3D('',#1521,#1164,#1165);
#1011=AXIS2_PLACEMENT_3D('',#1549,#1166,#1167);
#1012=AXIS2_PLACEMENT_3D('',#1551,#1168,#1169);
#1013=AXIS2_PLACEMENT_3D('',#1579,#1170,#1171);
#1014=AXIS2_PLACEMENT_3D('',#1608,#1172,#1173);
#1015=AXIS2_PLACEMENT_3D('',#1609,#1174,#1175);
#1016=AXIS2_PLACEMENT_3D('',#1611,#1176,#1177);
#1017=AXIS2_PLACEMENT_3D('',#1613,#1179,#1180);
#1018=AXIS2_PLACEMENT_3D('',#1614,#1181,#1182);
#1019=AXIS2_PLACEMENT_3D('',#1618,#1184,#1185);
#1020=AXIS2_PLACEMENT_3D('',#1620,#1187,#1188);
#1021=AXIS2_PLACEMENT_3D('',#1622,#1189,#1190);
#1022=AXIS2_PLACEMENT_3D('',#1626,#1192,#1193);
#1023=AXIS2_PLACEMENT_3D('',#1628,#1195,#1196);
#1024=AXIS2_PLACEMENT_3D('',#1629,#1197,#1198);
#1025=AXIS2_PLACEMENT_3D('',#1630,#1199,#1200);
#1026=AXIS2_PLACEMENT_3D('',#1658,#1201,#1202);
#1027=AXIS2_PLACEMENT_3D('',#1686,#1203,#1204);
#1028=AXIS2_PLACEMENT_3D('',#1695,#1209,#1210);
#1029=AXIS2_PLACEMENT_3D('',#1706,#1215,#1216);
#1030=AXIS2_PLACEMENT_3D('',#1710,#1218,#1219);
#1031=AXIS2_PLACEMENT_3D('',#1711,#1220,#1221);
#1032=AXIS2_PLACEMENT_3D('',#1713,#1222,#1223);
#1033=AXIS2_PLACEMENT_3D('',#1715,#1224,#1225);
#1034=AXIS2_PLACEMENT_3D('',#1717,#1227,#1228);
#1035=AXIS2_PLACEMENT_3D('',#1719,#1229,#1230);
#1036=AXIS2_PLACEMENT_3D('',#1721,#1231,#1232);
#1037=AXIS2_PLACEMENT_3D('',#1723,#1234,#1235);
#1038=AXIS2_PLACEMENT_3D('',#1729,#1239,#1240);
#1039=AXIS2_PLACEMENT_3D('',#1731,#1241,#1242);
#1040=AXIS2_PLACEMENT_3D('',#1733,#1243,#1244);
#1041=AXIS2_PLACEMENT_3D('',#1735,#1246,#1247);
#1042=AXIS2_PLACEMENT_3D('',#1741,#1251,#1252);
#1043=AXIS2_PLACEMENT_3D('',#1747,#1256,#1257);
#1044=AXIS2_PLACEMENT_3D('',#1753,#1261,#1262);
#1045=AXIS2_PLACEMENT_3D('',#1762,#1267,#1268);
#1046=AXIS2_PLACEMENT_3D('',#1768,#1272,#1273);
#1047=AXIS2_PLACEMENT_3D('',#1772,#1276,#1277);
#1048=AXIS2_PLACEMENT_3D('',#1776,#1280,#1281);
#1049=AXIS2_PLACEMENT_3D('',#1785,#1286,#1287);
#1050=AXIS2_PLACEMENT_3D('',#1791,#1291,#1292);
#1051=AXIS2_PLACEMENT_3D('',#1795,#1295,#1296);
#1052=AXIS2_PLACEMENT_3D('',#1799,#1299,#1300);
#1053=AXIS2_PLACEMENT_3D('',#1801,#1301,#1302);
#1054=AXIS2_PLACEMENT_3D('',#1803,#1304,#1305);
#1055=AXIS2_PLACEMENT_3D('',#1807,#1308,#1309);
#1056=AXIS2_PLACEMENT_3D('',#1809,#1310,#1311);
#1057=AXIS2_PLACEMENT_3D('',#1811,#1313,#1314);
#1058=AXIS2_PLACEMENT_3D('',#1812,#1315,#1316);
#1059=AXIS2_PLACEMENT_3D('',#1813,#1317,#1318);
#1060=AXIS2_PLACEMENT_3D('',#1815,#1319,#1320);
#1061=AXIS2_PLACEMENT_3D('',#1817,#1322,#1323);
#1062=AXIS2_PLACEMENT_3D('',#1819,#1324,#1325);
#1063=AXIS2_PLACEMENT_3D('',#1821,#1327,#1328);
#1064=AXIS2_PLACEMENT_3D('',#1825,#1331,#1332);
#1065=AXIS2_PLACEMENT_3D('',#1835,#1340,#1341);
#1066=AXIS2_PLACEMENT_3D('',#1841,#1345,#1346);
#1067=AXIS2_PLACEMENT_3D('',#1842,#1347,#1348);
#1068=AXIS2_PLACEMENT_3D('',#1843,#1349,#1350);
#1069=AXIS2_PLACEMENT_3D('',#1844,#1351,#1352);
#1070=AXIS2_PLACEMENT_3D('',#1845,#1353,#1354);
#1071=DIRECTION('axis',(0.,0.,1.));
#1072=DIRECTION('refdir',(1.,0.,0.));
#1073=DIRECTION('center_axis',(0.,0.,-1.));
#1074=DIRECTION('ref_axis',(1.,0.,0.));
#1075=DIRECTION('center_axis',(0.,0.707106781186544,-0.707106781186551));
#1076=DIRECTION('ref_axis',(0.,-0.707106781186551,-0.707106781186544));
#1077=DIRECTION('center_axis',(0.,-0.707106781186544,-0.707106781186551));
#1078=DIRECTION('ref_axis',(0.,-0.707106781186551,0.707106781186544));
#1079=DIRECTION('',(0.,0.,-1.));
#1080=DIRECTION('center_axis',(0.,0.,1.));
#1081=DIRECTION('ref_axis',(1.,0.,0.));
#1082=DIRECTION('center_axis',(0.,0.,-1.));
#1083=DIRECTION('ref_axis',(-1.,-1.22464679914735E-16,0.));
#1084=DIRECTION('center_axis',(0.,0.707106781186544,0.707106781186551));
#1085=DIRECTION('ref_axis',(0.,-0.707106781186551,0.707106781186544));
#1086=DIRECTION('center_axis',(0.,-0.707106781186544,0.707106781186551));
#1087=DIRECTION('ref_axis',(0.,-0.707106781186551,-0.707106781186544));
#1088=DIRECTION('center_axis',(0.,0.,-1.));
#1089=DIRECTION('ref_axis',(1.,0.,0.));
#1090=DIRECTION('center_axis',(0.,-0.707106781186544,0.707106781186551));
#1091=DIRECTION('ref_axis',(0.,-0.707106781186551,-0.707106781186544));
#1092=DIRECTION('center_axis',(0.,0.707106781186544,0.707106781186551));
#1093=DIRECTION('ref_axis',(0.,-0.707106781186551,0.707106781186544));
#1094=DIRECTION('center_axis',(0.,0.,-1.));
#1095=DIRECTION('ref_axis',(1.,0.,0.));
#1096=DIRECTION('center_axis',(0.,0.,-1.));
#1097=DIRECTION('ref_axis',(1.,0.,0.));
#1098=DIRECTION('',(0.,0.,-1.));
#1099=DIRECTION('center_axis',(0.,-0.707106781186545,0.70710678118655));
#1100=DIRECTION('ref_axis',(0.,-0.70710678118655,-0.707106781186545));
#1101=DIRECTION('center_axis',(0.,0.707106781186545,0.70710678118655));
#1102=DIRECTION('ref_axis',(0.,-0.70710678118655,0.707106781186545));
#1103=DIRECTION('center_axis',(0.,1.,0.));
#1104=DIRECTION('ref_axis',(3.22338257937223E-9,0.,1.));
#1105=DIRECTION('center_axis',(0.,0.707106781186544,-0.707106781186551));
#1106=DIRECTION('ref_axis',(0.,0.707106781186551,0.707106781186544));
#1107=DIRECTION('',(0.,1.,0.));
#1108=DIRECTION('center_axis',(0.,1.,0.));
#1109=DIRECTION('ref_axis',(-0.491749335099269,0.,-0.870736809506424));
#1110=DIRECTION('',(0.,1.,0.));
#1111=DIRECTION('center_axis',(0.,0.707106781186544,-0.707106781186551));
#1112=DIRECTION('ref_axis',(0.,0.707106781186551,0.707106781186544));
#1113=DIRECTION('center_axis',(0.,1.,0.));
#1114=DIRECTION('ref_axis',(3.22338248685365E-9,0.,1.));
#1115=DIRECTION('center_axis',(0.,-0.707106781186544,-0.707106781186551));
#1116=DIRECTION('ref_axis',(0.,0.707106781186551,-0.707106781186544));
#1117=DIRECTION('',(0.,1.,0.));
#1118=DIRECTION('center_axis',(0.,0.707106781186549,-0.707106781186546));
#1119=DIRECTION('ref_axis',(0.,-0.707106781186546,-0.707106781186549));
#1120=DIRECTION('center_axis',(0.,0.707106781186549,0.707106781186546));
#1121=DIRECTION('ref_axis',(0.,-0.707106781186546,0.707106781186549));
#1122=DIRECTION('center_axis',(0.,0.707106781186549,-0.707106781186546));
#1123=DIRECTION('ref_axis',(0.,-0.707106781186546,-0.707106781186549));
#1124=DIRECTION('',(0.,1.,0.));
#1125=DIRECTION('center_axis',(0.,-0.707106781186544,-0.707106781186551));
#1126=DIRECTION('ref_axis',(0.,0.707106781186551,-0.707106781186544));
#1127=DIRECTION('center_axis',(0.,1.,0.));
#1128=DIRECTION('ref_axis',(-0.630595799595468,0.,0.776111420823423));
#1129=DIRECTION('',(0.,1.,0.));
#1130=DIRECTION('',(0.,1.,0.));
#1131=DIRECTION('center_axis',(0.,1.,0.));
#1132=DIRECTION('ref_axis',(-0.630595799595468,0.,0.776111420823423));
#1133=DIRECTION('',(0.,1.,0.));
#1134=DIRECTION('center_axis',(0.,1.,0.));
#1135=DIRECTION('ref_axis',(-0.630595799595468,0.,0.776111420823423));
#1136=DIRECTION('',(0.,1.,0.));
#1137=DIRECTION('center_axis',(0.,1.,0.));
#1138=DIRECTION('ref_axis',(3.22338859308029E-9,0.,-1.));
#1139=DIRECTION('center_axis',(0.,1.,0.));
#1140=DIRECTION('ref_axis',(0.491749335099235,0.,0.870736809506443));
#1141=DIRECTION('',(0.,1.,0.));
#1142=DIRECTION('center_axis',(0.,1.,0.));
#1143=DIRECTION('ref_axis',(3.22338961078473E-9,0.,-1.));
#1144=DIRECTION('',(0.,1.,0.));
#1145=DIRECTION('center_axis',(0.,0.707106781186548,0.707106781186548));
#1146=DIRECTION('ref_axis',(0.,-0.707106781186548,0.707106781186548));
#1147=DIRECTION('center_axis',(0.,0.707106781186548,-0.707106781186548));
#1148=DIRECTION('ref_axis',(0.,-0.707106781186548,-0.707106781186548));
#1149=DIRECTION('center_axis',(0.,0.707106781186548,0.707106781186548));
#1150=DIRECTION('ref_axis',(0.,-0.707106781186548,0.707106781186548));
#1151=DIRECTION('center_axis',(0.,0.,-1.));
#1152=DIRECTION('ref_axis',(1.,0.,0.));
#1153=DIRECTION('center_axis',(0.,-0.707106781186548,-0.707106781186548));
#1154=DIRECTION('ref_axis',(0.,-0.707106781186548,0.707106781186548));
#1155=DIRECTION('',(0.,0.,-1.));
#1156=DIRECTION('center_axis',(0.,0.,1.));
#1157=DIRECTION('ref_axis',(1.,0.,0.));
#1158=DIRECTION('center_axis',(0.,0.,-1.));
#1159=DIRECTION('ref_axis',(-1.,-1.22464679914735E-16,0.));
#1160=DIRECTION('center_axis',(0.,-0.707106781186548,0.707106781186548));
#1161=DIRECTION('ref_axis',(0.,-0.707106781186548,-0.707106781186548));
#1162=DIRECTION('center_axis',(0.,0.,-1.));
#1163=DIRECTION('ref_axis',(1.,0.,0.));
#1164=DIRECTION('center_axis',(0.,-0.707106781186549,-0.707106781186546));
#1165=DIRECTION('ref_axis',(0.,-0.707106781186546,0.707106781186549));
#1166=DIRECTION('center_axis',(0.,0.,-1.));
#1167=DIRECTION('ref_axis',(-1.,-5.20660583828602E-15,0.));
#1168=DIRECTION('center_axis',(0.,-0.707106781186549,-0.707106781186546));
#1169=DIRECTION('ref_axis',(0.,-0.707106781186546,0.707106781186549));
#1170=DIRECTION('center_axis',(0.,0.,-1.));
#1171=DIRECTION('ref_axis',(1.,0.,0.));
#1172=DIRECTION('center_axis',(0.,-0.707106781186548,0.707106781186548));
#1173=DIRECTION('ref_axis',(0.,-0.707106781186548,-0.707106781186548));
#1174=DIRECTION('center_axis',(0.,0.,-1.));
#1175=DIRECTION('ref_axis',(1.,0.,0.));
#1176=DIRECTION('center_axis',(0.,0.,-1.));
#1177=DIRECTION('ref_axis',(1.,0.,0.));
#1178=DIRECTION('',(0.,0.,-1.));
#1179=DIRECTION('center_axis',(0.,-0.707106781186549,0.707106781186546));
#1180=DIRECTION('ref_axis',(0.,-0.707106781186546,-0.707106781186549));
#1181=DIRECTION('center_axis',(0.,1.,0.));
#1182=DIRECTION('ref_axis',(3.22337980381467E-9,0.,1.));
#1183=DIRECTION('',(0.,1.,0.));
#1184=DIRECTION('center_axis',(0.,-1.,0.));
#1185=DIRECTION('ref_axis',(-0.491749335099269,0.,-0.870736809506424));
#1186=DIRECTION('',(0.,1.,0.));
#1187=DIRECTION('center_axis',(0.,1.,0.));
#1188=DIRECTION('ref_axis',(-0.98214863989682,0.,-0.188106483537455));
#1189=DIRECTION('center_axis',(0.,1.,0.));
#1190=DIRECTION('ref_axis',(-0.98214863989682,0.,-0.188106483537455));
#1191=DIRECTION('',(0.,1.,0.));
#1192=DIRECTION('center_axis',(0.,1.,0.));
#1193=DIRECTION('ref_axis',(-0.98214863989682,0.,-0.188106483537455));
#1194=DIRECTION('',(0.,1.,0.));
#1195=DIRECTION('center_axis',(0.,1.,0.));
#1196=DIRECTION('ref_axis',(3.22338961078473E-9,0.,-1.));
#1197=DIRECTION('center_axis',(0.,-1.,0.));
#1198=DIRECTION('ref_axis',(0.491749335099235,0.,0.870736809506443));
#1199=DIRECTION('center_axis',(0.,0.,-1.));
#1200=DIRECTION('ref_axis',(1.,-1.22464679914735E-16,0.));
#1201=DIRECTION('center_axis',(0.,0.,-1.));
#1202=DIRECTION('ref_axis',(-1.,0.,0.));
#1203=DIRECTION('center_axis',(0.,-1.,0.));
#1204=DIRECTION('ref_axis',(0.,0.,-1.));
#1205=DIRECTION('',(-1.,0.,0.));
#1206=DIRECTION('',(0.,0.,-1.));
#1207=DIRECTION('',(1.,0.,0.));
#1208=DIRECTION('',(0.,0.,1.));
#1209=DIRECTION('center_axis',(0.,1.,0.));
#1210=DIRECTION('ref_axis',(1.,0.,0.));
#1211=DIRECTION('',(0.,0.,1.));
#1212=DIRECTION('',(-1.,0.,0.));
#1213=DIRECTION('',(0.,0.,-1.));
#1214=DIRECTION('',(1.,0.,-8.88178419700124E-15));
#1215=DIRECTION('center_axis',(0.,1.,0.));
#1216=DIRECTION('ref_axis',(0.,0.,1.));
#1217=DIRECTION('',(0.,0.,-1.));
#1218=DIRECTION('center_axis',(0.,1.,0.));
#1219=DIRECTION('ref_axis',(-0.456175234230012,0.,-0.889889968296752));
#1220=DIRECTION('center_axis',(0.,1.,0.));
#1221=DIRECTION('ref_axis',(0.982148639896814,0.,0.188106483537485));
#1222=DIRECTION('center_axis',(0.,1.,0.));
#1223=DIRECTION('ref_axis',(0.630595799597039,0.,-0.776111420822147));
#1224=DIRECTION('center_axis',(0.,1.,0.));
#1225=DIRECTION('ref_axis',(1.,0.,-2.96059473233375E-15));
#1226=DIRECTION('',(1.,0.,0.));
#1227=DIRECTION('center_axis',(0.,1.,0.));
#1228=DIRECTION('ref_axis',(-1.,0.,-2.96059473233376E-15));
#1229=DIRECTION('center_axis',(0.,1.,0.));
#1230=DIRECTION('ref_axis',(-1.,0.,-2.96059473233376E-15));
#1231=DIRECTION('center_axis',(0.,1.,0.));
#1232=DIRECTION('ref_axis',(-1.,0.,-2.96059473233376E-15));
#1233=DIRECTION('',(0.,1.,0.));
#1234=DIRECTION('center_axis',(-1.,0.,0.));
#1235=DIRECTION('ref_axis',(0.,0.,1.));
#1236=DIRECTION('',(0.,0.,1.));
#1237=DIRECTION('',(0.,0.,1.));
#1238=DIRECTION('',(0.,1.,0.));
#1239=DIRECTION('center_axis',(0.,1.,0.));
#1240=DIRECTION('ref_axis',(1.,0.,0.));
#1241=DIRECTION('center_axis',(0.,1.,0.));
#1242=DIRECTION('ref_axis',(1.,0.,0.));
#1243=DIRECTION('center_axis',(0.,-1.,0.));
#1244=DIRECTION('ref_axis',(1.,0.,0.));
#1245=DIRECTION('',(0.,1.,0.));
#1246=DIRECTION('center_axis',(-8.88178419700124E-15,0.,1.));
#1247=DIRECTION('ref_axis',(1.,0.,8.88178419700124E-15));
#1248=DIRECTION('',(1.,0.,8.88178419700124E-15));
#1249=DIRECTION('',(1.,0.,8.88178419700124E-15));
#1250=DIRECTION('',(0.,1.,0.));
#1251=DIRECTION('center_axis',(-1.,0.,0.));
#1252=DIRECTION('ref_axis',(0.,0.,1.));
#1253=DIRECTION('',(0.,0.,1.));
#1254=DIRECTION('',(0.,0.,1.));
#1255=DIRECTION('',(0.,1.,0.));
#1256=DIRECTION('center_axis',(0.,0.,-1.));
#1257=DIRECTION('ref_axis',(-1.,0.,0.));
#1258=DIRECTION('',(1.,0.,0.));
#1259=DIRECTION('',(-1.,0.,0.));
#1260=DIRECTION('',(0.,1.,0.));
#1261=DIRECTION('center_axis',(-0.9999999999996,0.,8.94063318979514E-7));
#1262=DIRECTION('ref_axis',(8.94063318979514E-7,0.,0.9999999999996));
#1263=DIRECTION('',(8.94063318979514E-7,0.,0.9999999999996));
#1264=DIRECTION('',(0.,1.,0.));
#1265=DIRECTION('',(8.94063318979514E-7,0.,0.9999999999996));
#1266=DIRECTION('',(0.,1.,0.));
#1267=DIRECTION('center_axis',(0.,0.,-1.));
#1268=DIRECTION('ref_axis',(-1.,0.,0.));
#1269=DIRECTION('',(0.,1.,0.));
#1270=DIRECTION('',(-1.,0.,0.));
#1271=DIRECTION('',(0.,1.,0.));
#1272=DIRECTION('center_axis',(1.,0.,0.));
#1273=DIRECTION('ref_axis',(0.,0.,-1.));
#1274=DIRECTION('',(0.,0.,-1.));
#1275=DIRECTION('',(0.,1.,0.));
#1276=DIRECTION('center_axis',(0.,0.,1.));
#1277=DIRECTION('ref_axis',(1.,0.,0.));
#1278=DIRECTION('',(1.,0.,0.));
#1279=DIRECTION('',(0.,1.,0.));
#1280=DIRECTION('center_axis',(-0.9999999999996,0.,-8.94063318979514E-7));
#1281=DIRECTION('ref_axis',(-8.94063318979514E-7,0.,0.9999999999996));
#1282=DIRECTION('',(8.94063318979514E-7,0.,-0.9999999999996));
#1283=DIRECTION('',(0.,1.,0.));
#1284=DIRECTION('',(-8.94063318979514E-7,0.,0.9999999999996));
#1285=DIRECTION('',(0.,1.,0.));
#1286=DIRECTION('center_axis',(0.,0.,1.));
#1287=DIRECTION('ref_axis',(1.,0.,0.));
#1288=DIRECTION('',(0.,1.,0.));
#1289=DIRECTION('',(1.,0.,0.));
#1290=DIRECTION('',(0.,1.,0.));
#1291=DIRECTION('center_axis',(-1.,0.,0.));
#1292=DIRECTION('ref_axis',(0.,0.,1.));
#1293=DIRECTION('',(0.,0.,1.));
#1294=DIRECTION('',(0.,1.,0.));
#1295=DIRECTION('center_axis',(-8.88178419700124E-15,0.,-1.));
#1296=DIRECTION('ref_axis',(-1.,0.,8.88178419700124E-15));
#1297=DIRECTION('',(-1.,0.,8.88178419700124E-15));
#1298=DIRECTION('',(0.,1.,0.));
#1299=DIRECTION('center_axis',(0.,1.,0.));
#1300=DIRECTION('ref_axis',(0.,0.,1.));
#1301=DIRECTION('center_axis',(0.,-1.,0.));
#1302=DIRECTION('ref_axis',(0.,0.,1.));
#1303=DIRECTION('',(0.,1.,0.));
#1304=DIRECTION('center_axis',(-1.,0.,0.));
#1305=DIRECTION('ref_axis',(0.,0.,1.));
#1306=DIRECTION('',(0.,0.,1.));
#1307=DIRECTION('',(0.,1.,0.));
#1308=DIRECTION('center_axis',(0.,1.,0.));
#1309=DIRECTION('ref_axis',(-0.456175234230012,0.,-0.889889968296752));
#1310=DIRECTION('center_axis',(0.,1.,0.));
#1311=DIRECTION('ref_axis',(-0.456175234230012,0.,-0.889889968296752));
#1312=DIRECTION('',(0.,1.,0.));
#1313=DIRECTION('center_axis',(0.,1.,0.));
#1314=DIRECTION('ref_axis',(0.982148639896814,0.,0.188106483537485));
#1315=DIRECTION('center_axis',(0.,1.,0.));
#1316=DIRECTION('ref_axis',(0.982148639896814,0.,0.188106483537485));
#1317=DIRECTION('center_axis',(0.,1.,0.));
#1318=DIRECTION('ref_axis',(0.630595799597039,0.,-0.776111420822147));
#1319=DIRECTION('center_axis',(0.,1.,0.));
#1320=DIRECTION('ref_axis',(0.630595799597039,0.,-0.776111420822147));
#1321=DIRECTION('',(0.,1.,0.));
#1322=DIRECTION('center_axis',(0.,1.,0.));
#1323=DIRECTION('ref_axis',(1.,0.,-2.96059473233375E-15));
#1324=DIRECTION('center_axis',(0.,1.,0.));
#1325=DIRECTION('ref_axis',(1.,0.,-2.96059473233375E-15));
#1326=DIRECTION('',(0.,1.,0.));
#1327=DIRECTION('center_axis',(0.,0.,-1.));
#1328=DIRECTION('ref_axis',(-1.,0.,0.));
#1329=DIRECTION('',(-1.,0.,0.));
#1330=DIRECTION('',(0.,1.,0.));
#1331=DIRECTION('center_axis',(-1.,0.,0.));
#1332=DIRECTION('ref_axis',(0.,0.,1.));
#1333=DIRECTION('',(0.,0.,1.));
#1334=DIRECTION('',(0.,1.,0.));
#1335=DIRECTION('',(0.,0.,1.));
#1336=DIRECTION('',(0.,0.,1.));
#1337=DIRECTION('',(0.,0.,1.));
#1338=DIRECTION('',(0.,0.,1.));
#1339=DIRECTION('',(0.,0.,1.));
#1340=DIRECTION('center_axis',(0.,0.,1.));
#1341=DIRECTION('ref_axis',(1.,0.,0.));
#1342=DIRECTION('',(1.,0.,0.));
#1343=DIRECTION('',(1.,0.,0.));
#1344=DIRECTION('',(0.,1.,0.));
#1345=DIRECTION('center_axis',(0.,1.,0.));
#1346=DIRECTION('ref_axis',(0.45617523422869,0.,0.889889968297429));
#1347=DIRECTION('center_axis',(0.,1.,0.));
#1348=DIRECTION('ref_axis',(0.45617523422869,0.,0.889889968297429));
#1349=DIRECTION('center_axis',(0.,1.,0.));
#1350=DIRECTION('ref_axis',(0.45617523422869,0.,0.889889968297429));
#1351=DIRECTION('center_axis',(0.,1.,0.));
#1352=DIRECTION('ref_axis',(1.,0.,0.));
#1353=DIRECTION('center_axis',(0.,1.,0.));
#1354=DIRECTION('ref_axis',(1.,0.,0.));
#1355=CARTESIAN_POINT('',(0.,0.,0.));
#1356=CARTESIAN_POINT('Origin',(-6.99999995529652,18.5,-0.600000000000005));
#1357=CARTESIAN_POINT('',(-5.49999995529653,18.5,-26.0000003874302));
#1358=CARTESIAN_POINT('',(-8.49999995529652,18.5,-26.0000003874302));
#1359=CARTESIAN_POINT('Origin',(-6.99999995529652,18.5,-26.0000003874302));
#1360=CARTESIAN_POINT('Origin',(-6.99999995529652,18.5,-26.0000003874302));
#1361=CARTESIAN_POINT('',(-8.49999995529652,18.5,-30.9));
#1362=CARTESIAN_POINT('',(-8.49999995529652,18.5,-0.600000000000005));
#1363=CARTESIAN_POINT('Origin',(-6.99999995529652,18.5,-30.9));
#1364=CARTESIAN_POINT('Origin',(-6.99999995529652,18.5,-0.600000000000005));
#1365=CARTESIAN_POINT('',(-7.73762413675934,17.1938948867257,-24.6938951731706));
#1366=CARTESIAN_POINT('Origin',(-6.99999995529652,18.5,-26.0000003874302));
#1367=CARTESIAN_POINT('',(-7.73762413675934,19.8061051132743,-24.6938951731706));
#1368=CARTESIAN_POINT('Origin',(-6.99999995529652,18.5,-26.0000003874302));
#1369=CARTESIAN_POINT('Ctrl Pts',(-7.73762413675934,17.1938948867257,-24.6938951731706));
#1370=CARTESIAN_POINT('Ctrl Pts',(-7.72526458815661,17.1869148191732,-24.6293630335993));
#1371=CARTESIAN_POINT('Ctrl Pts',(-7.71922337635404,17.1836726582638,-24.5638942302395));
#1372=CARTESIAN_POINT('Ctrl Pts',(-7.71922337635404,17.1836726582638,-24.4999994523823));
#1373=CARTESIAN_POINT('Ctrl Pts',(-7.71922337635404,17.1836726582638,-24.3630847560087));
#1374=CARTESIAN_POINT('Ctrl Pts',(-7.74855569397232,17.1985062705835,-24.2192428025177));
#1375=CARTESIAN_POINT('Ctrl Pts',(-7.85830065821274,17.2681140941815,-23.9646625056984));
#1376=CARTESIAN_POINT('Ctrl Pts',(-7.93841275908898,17.3246176825372,-23.8542705955611));
#1377=CARTESIAN_POINT('Ctrl Pts',(-8.09852745946531,17.4729112541651,-23.6933295096504));
#1378=CARTESIAN_POINT('Ctrl Pts',(-8.19493481093964,17.5841515385438,-23.6278769821341));
#1379=CARTESIAN_POINT('Ctrl Pts',(-8.33491658914989,17.8034416011974,-23.5531073296686));
#1380=CARTESIAN_POINT('Ctrl Pts',(-8.39753579949669,17.9358986989817,-23.5303893410242));
#1381=CARTESIAN_POINT('Ctrl Pts',(-8.48008679956958,18.2159930161954,-23.5042478212078));
#1382=CARTESIAN_POINT('Ctrl Pts',(-8.49999995529652,18.3635581299198,-23.4999994272367));
#1383=CARTESIAN_POINT('Ctrl Pts',(-8.49999995529652,18.6364418700802,-23.4999994272367));
#1384=CARTESIAN_POINT('Ctrl Pts',(-8.48008679956958,18.7840069838046,-23.5042478212078));
#1385=CARTESIAN_POINT('Ctrl Pts',(-8.39753579949669,19.0641013010183,-23.5303893410242));
#1386=CARTESIAN_POINT('Ctrl Pts',(-8.33491658914989,19.1965583988026,-23.5531073296686));
#1387=CARTESIAN_POINT('Ctrl Pts',(-8.19493481093964,19.4158484614562,-23.6278769821341));
#1388=CARTESIAN_POINT('Ctrl Pts',(-8.09852745946531,19.5270887458349,-23.6933295096504));
#1389=CARTESIAN_POINT('Ctrl Pts',(-7.93841275908898,19.6753823174628,-23.8542705955611));
#1390=CARTESIAN_POINT('Ctrl Pts',(-7.85830065821274,19.7318859058185,-23.9646625056984));
#1391=CARTESIAN_POINT('Ctrl Pts',(-7.74855569397232,19.8014937294165,-24.2192428025177));
#1392=CARTESIAN_POINT('Ctrl Pts',(-7.71922337635404,19.8163273417362,-24.3630847560087));
#1393=CARTESIAN_POINT('Ctrl Pts',(-7.71922337635404,19.8163273417362,-24.5638942217742));
#1394=CARTESIAN_POINT('Ctrl Pts',(-7.72526458796413,19.8130851809355,-24.6293630325942));
#1395=CARTESIAN_POINT('Ctrl Pts',(-7.73762413675934,19.8061051132743,-24.6938951731706));
#1396=CARTESIAN_POINT('Origin',(-6.99999995529652,18.5,-0.600000000000005));
#1397=CARTESIAN_POINT('',(-6.26237613146159,19.806105315245,-24.6938951731705));
#1398=CARTESIAN_POINT('',(-6.26237613146159,17.193894684755,-24.6938951731705));
#1399=CARTESIAN_POINT('Ctrl Pts',(-6.26237613146159,19.806105315245,-24.6938951731705));
#1400=CARTESIAN_POINT('Ctrl Pts',(-6.27473568007972,19.8130853783426,-24.6293630335188));
#1401=CARTESIAN_POINT('Ctrl Pts',(-6.28077689186689,19.8163275371392,-24.5638942304425));
#1402=CARTESIAN_POINT('Ctrl Pts',(-6.28077689186689,19.8163275371392,-24.4999994523823));
#1403=CARTESIAN_POINT('Ctrl Pts',(-6.28077689186689,19.8163275371392,-24.3630847279258));
#1404=CARTESIAN_POINT('Ctrl Pts',(-6.2514445624967,19.8014939291625,-24.2192427457208));
#1405=CARTESIAN_POINT('Ctrl Pts',(-6.14169955292391,19.7318861160795,-23.9646624028116));
#1406=CARTESIAN_POINT('Ctrl Pts',(-6.0615874181091,19.6753825330112,-23.85427047551));
#1407=CARTESIAN_POINT('Ctrl Pts',(-5.90147264596327,19.5270889570484,-23.6933293740202));
#1408=CARTESIAN_POINT('Ctrl Pts',(-5.80506525143921,19.4158486635527,-23.6278768488752));
#1409=CARTESIAN_POINT('Ctrl Pts',(-5.66508340482374,19.1965585656916,-23.5531072068741));
#1410=CARTESIAN_POINT('Ctrl Pts',(-5.60246416288612,19.0641014390298,-23.5303892290768));
#1411=CARTESIAN_POINT('Ctrl Pts',(-5.51991312116124,18.7840070559127,-23.5042477262639));
#1412=CARTESIAN_POINT('Ctrl Pts',(-5.49999995529653,18.6364419051739,-23.4999993378298));
#1413=CARTESIAN_POINT('Ctrl Pts',(-5.49999995529653,18.3635580948261,-23.4999993378298));
#1414=CARTESIAN_POINT('Ctrl Pts',(-5.51991312116124,18.2159929440873,-23.5042477262639));
#1415=CARTESIAN_POINT('Ctrl Pts',(-5.60246416288612,17.9358985609702,-23.5303892290768));
#1416=CARTESIAN_POINT('Ctrl Pts',(-5.66508340482374,17.8034414343084,-23.5531072068741));
#1417=CARTESIAN_POINT('Ctrl Pts',(-5.80506525143921,17.5841513364473,-23.6278768488752));
#1418=CARTESIAN_POINT('Ctrl Pts',(-5.90147264596327,17.4729110429516,-23.6933293740202));
#1419=CARTESIAN_POINT('Ctrl Pts',(-6.0615874181091,17.3246174669888,-23.85427047551));
#1420=CARTESIAN_POINT('Ctrl Pts',(-6.14169955292391,17.2681138839205,-23.9646624028116));
#1421=CARTESIAN_POINT('Ctrl Pts',(-6.2514445624967,17.1985060708375,-24.2192427457208));
#1422=CARTESIAN_POINT('Ctrl Pts',(-6.28077689186689,17.1836724628608,-24.3630847279258));
#1423=CARTESIAN_POINT('Ctrl Pts',(-6.28077689186689,17.1836724628608,-24.5638942219772));
#1424=CARTESIAN_POINT('Ctrl Pts',(-6.27473568027221,17.1869146215487,-24.6293630325138));
#1425=CARTESIAN_POINT('Ctrl Pts',(-6.26237613146159,17.193894684755,-24.6938951731705));
#1426=CARTESIAN_POINT('Origin',(-6.99999995529652,18.5,-26.0000003874302));
#1427=CARTESIAN_POINT('Origin',(-6.99999995529652,18.5,-26.0000003874302));
#1428=CARTESIAN_POINT('Origin',(-6.99999995529652,18.5,-0.600000000000005));
#1429=CARTESIAN_POINT('',(-8.49999995529652,18.5,30.9));
#1430=CARTESIAN_POINT('Origin',(-6.99999995529652,18.5,30.9));
#1431=CARTESIAN_POINT('',(-8.49999995529652,18.5,26.0000003874302));
#1432=CARTESIAN_POINT('',(-8.49999995529652,18.5,-0.600000000000005));
#1433=CARTESIAN_POINT('',(-5.49999995529653,18.5,26.0000003874302));
#1434=CARTESIAN_POINT('Origin',(-6.99999995529652,18.5,26.0000003874302));
#1435=CARTESIAN_POINT('Origin',(-6.99999995529652,18.5,26.0000003874302));
#1436=CARTESIAN_POINT('Origin',(-7.00000013411044,3.,26.0000003874302));
#1437=CARTESIAN_POINT('',(-6.26237613146156,17.1938946847551,24.6938951731705));
#1438=CARTESIAN_POINT('Origin',(-6.99999995529652,18.5,26.0000003874302));
#1439=CARTESIAN_POINT('',(-6.26237613146156,3.,24.6938951731705));
#1440=CARTESIAN_POINT('',(-6.26237613146156,3.,24.6938951731705));
#1441=CARTESIAN_POINT('',(-7.73762413675934,3.,24.6938951731706));
#1442=CARTESIAN_POINT('Origin',(-7.00000013411044,3.,26.0000003874302));
#1443=CARTESIAN_POINT('',(-7.73762413675934,17.1938948867257,24.6938951731706));
#1444=CARTESIAN_POINT('',(-7.73762413675934,3.,24.6938951731706));
#1445=CARTESIAN_POINT('Origin',(-6.99999995529652,18.5,26.0000003874302));
#1446=CARTESIAN_POINT('Origin',(-7.00000013411044,3.,26.0000003874302));
#1447=CARTESIAN_POINT('',(-7.73762413675934,19.8061051132743,24.6938951731706));
#1448=CARTESIAN_POINT('Origin',(-6.99999995529652,18.5,26.0000003874302));
#1449=CARTESIAN_POINT('',(-7.73762413675934,202.193894886726,24.6938951731706));
#1450=CARTESIAN_POINT('',(-7.73762413675934,3.,24.6938951731706));
#1451=CARTESIAN_POINT('',(-8.49999995529652,203.5,26.0000003874302));
#1452=CARTESIAN_POINT('Origin',(-6.99999995529652,203.5,26.0000003874302));
#1453=CARTESIAN_POINT('',(-5.49999995529653,203.5,26.0000003874302));
#1454=CARTESIAN_POINT('Origin',(-6.99999995529652,203.5,26.0000003874302));
#1455=CARTESIAN_POINT('',(-6.26237613146156,202.193894684755,24.6938951731705));
#1456=CARTESIAN_POINT('Origin',(-6.99999995529652,203.5,26.0000003874302));
#1457=CARTESIAN_POINT('',(-6.26237613146156,19.8061053152449,24.6938951731705));
#1458=CARTESIAN_POINT('',(-6.26237613146156,3.,24.6938951731705));
#1459=CARTESIAN_POINT('Origin',(-6.99999995529652,18.5,26.0000003874302));
#1460=CARTESIAN_POINT('Origin',(-8.74999975971878,3.,-24.4999994523823));
#1461=CARTESIAN_POINT('',(-7.73762413675934,202.193894886726,-24.6938951731706));
#1462=CARTESIAN_POINT('',(-7.73762413675934,3.,-24.6938951731706));
#1463=CARTESIAN_POINT('',(-7.73762413675934,204.806105113274,-24.6938951731706));
#1464=CARTESIAN_POINT('Ctrl Pts',(-7.73762413675934,202.193894886726,-24.6938951731706));
#1465=CARTESIAN_POINT('Ctrl Pts',(-7.72526458815662,202.186914819173,-24.6293630335993));
#1466=CARTESIAN_POINT('Ctrl Pts',(-7.71922337635404,202.183672658264,-24.5638942302395));
#1467=CARTESIAN_POINT('Ctrl Pts',(-7.71922337635404,202.183672658264,-24.4999994523823));
#1468=CARTESIAN_POINT('Ctrl Pts',(-7.71922337635404,202.183672658264,-24.3630847560087));
#1469=CARTESIAN_POINT('Ctrl Pts',(-7.74855569397232,202.198506270583,-24.2192428025177));
#1470=CARTESIAN_POINT('Ctrl Pts',(-7.85830065821274,202.268114094181,-23.9646625056984));
#1471=CARTESIAN_POINT('Ctrl Pts',(-7.93841275908898,202.324617682537,-23.8542705955611));
#1472=CARTESIAN_POINT('Ctrl Pts',(-8.09852745946531,202.472911254165,-23.6933295096504));
#1473=CARTESIAN_POINT('Ctrl Pts',(-8.19493481093964,202.584151538544,-23.6278769821341));
#1474=CARTESIAN_POINT('Ctrl Pts',(-8.33491658914989,202.803441601197,-23.5531073296686));
#1475=CARTESIAN_POINT('Ctrl Pts',(-8.39753579949669,202.935898698982,-23.5303893410242));
#1476=CARTESIAN_POINT('Ctrl Pts',(-8.48008679956958,203.215993016195,-23.5042478212078));
#1477=CARTESIAN_POINT('Ctrl Pts',(-8.49999995529652,203.36355812992,-23.4999994272367));
#1478=CARTESIAN_POINT('Ctrl Pts',(-8.49999995529652,203.63644187008,-23.4999994272367));
#1479=CARTESIAN_POINT('Ctrl Pts',(-8.48008679956958,203.784006983805,-23.5042478212078));
#1480=CARTESIAN_POINT('Ctrl Pts',(-8.39753579949669,204.064101301018,-23.5303893410242));
#1481=CARTESIAN_POINT('Ctrl Pts',(-8.33491658914989,204.196558398803,-23.5531073296686));
#1482=CARTESIAN_POINT('Ctrl Pts',(-8.19493481093964,204.415848461456,-23.6278769821341));
#1483=CARTESIAN_POINT('Ctrl Pts',(-8.09852745946531,204.527088745835,-23.6933295096504));
#1484=CARTESIAN_POINT('Ctrl Pts',(-7.93841275908898,204.675382317463,-23.8542705955611));
#1485=CARTESIAN_POINT('Ctrl Pts',(-7.85830065821274,204.731885905819,-23.9646625056984));
#1486=CARTESIAN_POINT('Ctrl Pts',(-7.74855569397232,204.801493729417,-24.2192428025177));
#1487=CARTESIAN_POINT('Ctrl Pts',(-7.71922337635404,204.816327341736,-24.3630847560087));
#1488=CARTESIAN_POINT('Ctrl Pts',(-7.71922337635404,204.816327341736,-24.5638942217742));
#1489=CARTESIAN_POINT('Ctrl Pts',(-7.72526458796413,204.813085180936,-24.6293630325942));
#1490=CARTESIAN_POINT('Ctrl Pts',(-7.73762413675934,204.806105113274,-24.6938951731706));
#1491=CARTESIAN_POINT('',(-7.73762413675934,219.,-24.6938951731706));
#1492=CARTESIAN_POINT('',(-7.73762413675934,3.,-24.6938951731706));
#1493=CARTESIAN_POINT('',(-9.18426303015897,219.,-23.5651650475549));
#1494=CARTESIAN_POINT('Origin',(-8.74999975971878,219.,-24.4999994523823));
#1495=CARTESIAN_POINT('',(-9.18426303015897,3.,-23.5651650475549));
#1496=CARTESIAN_POINT('',(-9.18426303015897,3.,-23.5651650475549));
#1497=CARTESIAN_POINT('',(-7.73762413675934,3.,-24.6938951731706));
#1498=CARTESIAN_POINT('Origin',(-8.74999975971878,3.,-24.4999994523823));
#1499=CARTESIAN_POINT('',(-7.73762413675934,3.,-24.6938951731706));
#1500=CARTESIAN_POINT('Origin',(-7.00000013411044,3.,-26.0000003874302));
#1501=CARTESIAN_POINT('',(-6.26237613146159,3.,-24.6938951731705));
#1502=CARTESIAN_POINT('Origin',(-7.00000013411044,3.,-26.0000003874302));
#1503=CARTESIAN_POINT('',(-6.26237613146159,3.,-24.6938951731705));
#1504=CARTESIAN_POINT('Origin',(-7.00000013411044,3.,-26.0000003874302));
#1505=CARTESIAN_POINT('',(-6.26237613146159,202.193894684755,-24.6938951731705));
#1506=CARTESIAN_POINT('',(-6.26237613146159,3.,-24.6938951731705));
#1507=CARTESIAN_POINT('',(-5.49999995529653,203.5,-26.0000003874302));
#1508=CARTESIAN_POINT('Origin',(-6.99999995529652,203.5,-26.0000003874302));
#1509=CARTESIAN_POINT('',(-8.49999995529652,203.5,-26.0000003874302));
#1510=CARTESIAN_POINT('Origin',(-6.99999995529652,203.5,-26.0000003874302));
#1511=CARTESIAN_POINT('Origin',(-6.99999995529652,203.5,-26.0000003874302));
#1512=CARTESIAN_POINT('Origin',(-6.99999995529652,203.5,-0.600000000000005));
#1513=CARTESIAN_POINT('Origin',(-6.99999995529652,203.5,-26.0000003874302));
#1514=CARTESIAN_POINT('',(-8.49999995529652,203.5,-30.9));
#1515=CARTESIAN_POINT('',(-8.49999995529652,203.5,-0.600000000000005));
#1516=CARTESIAN_POINT('Origin',(-6.99999995529652,203.5,-30.9));
#1517=CARTESIAN_POINT('Origin',(-6.99999995529652,203.5,-0.600000000000005));
#1518=CARTESIAN_POINT('Origin',(-6.99999995529652,203.5,-26.0000003874302));
#1519=CARTESIAN_POINT('Origin',(-6.99999995529652,203.5,-0.600000000000005));
#1520=CARTESIAN_POINT('',(-6.26237613146156,204.806105315245,24.6938951731705));
#1521=CARTESIAN_POINT('Origin',(-6.99999995529652,203.5,26.0000003874302));
#1522=CARTESIAN_POINT('Ctrl Pts',(-6.26237613146157,202.193894684755,24.6938951731705));
#1523=CARTESIAN_POINT('Ctrl Pts',(-6.2747356800797,202.186914621657,24.6293630335188));
#1524=CARTESIAN_POINT('Ctrl Pts',(-6.28077689186686,202.183672462861,24.5638942304425));
#1525=CARTESIAN_POINT('Ctrl Pts',(-6.28077689186686,202.183672462861,24.3630847279258));
#1526=CARTESIAN_POINT('Ctrl Pts',(-6.25144456249666,202.198506070838,24.2192427457208));
#1527=CARTESIAN_POINT('Ctrl Pts',(-6.14169955292388,202.268113883921,23.9646624028116));
#1528=CARTESIAN_POINT('Ctrl Pts',(-6.06158741810908,202.324617466989,23.85427047551));
#1529=CARTESIAN_POINT('Ctrl Pts',(-5.90147264596327,202.472911042952,23.6933293740203));
#1530=CARTESIAN_POINT('Ctrl Pts',(-5.80506525143919,202.584151336447,23.6278768488752));
#1531=CARTESIAN_POINT('Ctrl Pts',(-5.66508340482374,202.803441434308,23.5531072068741));
#1532=CARTESIAN_POINT('Ctrl Pts',(-5.60246416288612,202.93589856097,23.5303892290768));
#1533=CARTESIAN_POINT('Ctrl Pts',(-5.51991312116124,203.215992944087,23.504247726264));
#1534=CARTESIAN_POINT('Ctrl Pts',(-5.49999995529653,203.363558094826,23.4999993378298));
#1535=CARTESIAN_POINT('Ctrl Pts',(-5.49999995529653,203.636441905174,23.4999993378298));
#1536=CARTESIAN_POINT('Ctrl Pts',(-5.51991312116124,203.784007055913,23.504247726264));
#1537=CARTESIAN_POINT('Ctrl Pts',(-5.60246416288612,204.06410143903,23.5303892290768));
#1538=CARTESIAN_POINT('Ctrl Pts',(-5.66508340482374,204.196558565692,23.5531072068741));
#1539=CARTESIAN_POINT('Ctrl Pts',(-5.80506525143919,204.415848663553,23.6278768488752));
#1540=CARTESIAN_POINT('Ctrl Pts',(-5.90147264596327,204.527088957048,23.6933293740203));
#1541=CARTESIAN_POINT('Ctrl Pts',(-6.06158741810908,204.675382533011,23.85427047551));
#1542=CARTESIAN_POINT('Ctrl Pts',(-6.14169955292388,204.731886116079,23.9646624028116));
#1543=CARTESIAN_POINT('Ctrl Pts',(-6.25144456249666,204.801493929162,24.2192427457208));
#1544=CARTESIAN_POINT('Ctrl Pts',(-6.28077689186686,204.816327537139,24.3630847279258));
#1545=CARTESIAN_POINT('Ctrl Pts',(-6.28077689186686,204.816327537139,24.4999994523823));
#1546=CARTESIAN_POINT('Ctrl Pts',(-6.28077689186686,204.816327537139,24.5638942219772));
#1547=CARTESIAN_POINT('Ctrl Pts',(-6.27473568027219,204.813085378451,24.6293630325138));
#1548=CARTESIAN_POINT('Ctrl Pts',(-6.26237613146157,204.806105315245,24.6938951731705));
#1549=CARTESIAN_POINT('Origin',(-6.99999995529652,203.5,-0.600000000000005));
#1550=CARTESIAN_POINT('',(-7.73762413675934,204.806105113274,24.6938951731706));
#1551=CARTESIAN_POINT('Origin',(-6.99999995529652,203.5,26.0000003874302));
#1552=CARTESIAN_POINT('Ctrl Pts',(-7.73762413675934,204.806105113274,24.6938951731706));
#1553=CARTESIAN_POINT('Ctrl Pts',(-7.72526458815661,204.813085180827,24.6293630335993));
#1554=CARTESIAN_POINT('Ctrl Pts',(-7.71922337635404,204.816327341736,24.5638942302395));
#1555=CARTESIAN_POINT('Ctrl Pts',(-7.71922337635404,204.816327341736,24.3630847560087));
#1556=CARTESIAN_POINT('Ctrl Pts',(-7.74855569397232,204.801493729417,24.2192428025177));
#1557=CARTESIAN_POINT('Ctrl Pts',(-7.85830065821274,204.731885905819,23.9646625056984));
#1558=CARTESIAN_POINT('Ctrl Pts',(-7.93841275908898,204.675382317463,23.8542705955611));
#1559=CARTESIAN_POINT('Ctrl Pts',(-8.09852745946531,204.527088745835,23.6933295096504));
#1560=CARTESIAN_POINT('Ctrl Pts',(-8.19493481093964,204.415848461456,23.6278769821341));
#1561=CARTESIAN_POINT('Ctrl Pts',(-8.33491658914989,204.196558398803,23.5531073296686));
#1562=CARTESIAN_POINT('Ctrl Pts',(-8.39753579949669,204.064101301018,23.5303893410242));
#1563=CARTESIAN_POINT('Ctrl Pts',(-8.48008679956958,203.784006983805,23.5042478212078));
#1564=CARTESIAN_POINT('Ctrl Pts',(-8.49999995529652,203.63644187008,23.4999994272367));
#1565=CARTESIAN_POINT('Ctrl Pts',(-8.49999995529652,203.36355812992,23.4999994272367));
#1566=CARTESIAN_POINT('Ctrl Pts',(-8.48008679956958,203.215993016195,23.5042478212078));
#1567=CARTESIAN_POINT('Ctrl Pts',(-8.39753579949669,202.935898698982,23.5303893410242));
#1568=CARTESIAN_POINT('Ctrl Pts',(-8.33491658914989,202.803441601197,23.5531073296686));
#1569=CARTESIAN_POINT('Ctrl Pts',(-8.19493481093964,202.584151538544,23.6278769821341));
#1570=CARTESIAN_POINT('Ctrl Pts',(-8.09852745946531,202.472911254165,23.6933295096504));
#1571=CARTESIAN_POINT('Ctrl Pts',(-7.93841275908898,202.324617682537,23.8542705955611));
#1572=CARTESIAN_POINT('Ctrl Pts',(-7.85830065821274,202.268114094181,23.9646625056984));
#1573=CARTESIAN_POINT('Ctrl Pts',(-7.74855569397232,202.198506270583,24.2192428025177));
#1574=CARTESIAN_POINT('Ctrl Pts',(-7.71922337635404,202.183672658264,24.3630847560087));
#1575=CARTESIAN_POINT('Ctrl Pts',(-7.71922337635404,202.183672658264,24.4999994523823));
#1576=CARTESIAN_POINT('Ctrl Pts',(-7.71922337635404,202.183672658264,24.5638942217742));
#1577=CARTESIAN_POINT('Ctrl Pts',(-7.72526458796413,202.186914819064,24.6293630325942));
#1578=CARTESIAN_POINT('Ctrl Pts',(-7.73762413675934,202.193894886726,24.6938951731706));
#1579=CARTESIAN_POINT('Origin',(-6.99999995529652,203.5,-0.600000000000005));
#1580=CARTESIAN_POINT('',(-6.26237613146159,204.806105315245,-24.6938951731705));
#1581=CARTESIAN_POINT('Ctrl Pts',(-6.26237613146159,204.806105315245,-24.6938951731705));
#1582=CARTESIAN_POINT('Ctrl Pts',(-6.27473568007972,204.813085378343,-24.6293630335188));
#1583=CARTESIAN_POINT('Ctrl Pts',(-6.28077689186689,204.816327537139,-24.5638942304425));
#1584=CARTESIAN_POINT('Ctrl Pts',(-6.28077689186689,204.816327537139,-24.4999994523823));
#1585=CARTESIAN_POINT('Ctrl Pts',(-6.28077689186689,204.816327537139,-24.3630847279258));
#1586=CARTESIAN_POINT('Ctrl Pts',(-6.2514445624967,204.801493929162,-24.2192427457208));
#1587=CARTESIAN_POINT('Ctrl Pts',(-6.1416995529239,204.731886116079,-23.9646624028116));
#1588=CARTESIAN_POINT('Ctrl Pts',(-6.0615874181091,204.675382533011,-23.85427047551));
#1589=CARTESIAN_POINT('Ctrl Pts',(-5.90147264596327,204.527088957048,-23.6933293740202));
#1590=CARTESIAN_POINT('Ctrl Pts',(-5.80506525143921,204.415848663553,-23.6278768488752));
#1591=CARTESIAN_POINT('Ctrl Pts',(-5.66508340482374,204.196558565692,-23.5531072068741));
#1592=CARTESIAN_POINT('Ctrl Pts',(-5.60246416288615,204.06410143903,-23.5303892290768));
#1593=CARTESIAN_POINT('Ctrl Pts',(-5.51991312116126,203.784007055913,-23.504247726264));
#1594=CARTESIAN_POINT('Ctrl Pts',(-5.49999995529653,203.636441905174,-23.4999993378298));
#1595=CARTESIAN_POINT('Ctrl Pts',(-5.49999995529653,203.363558094826,-23.4999993378298));
#1596=CARTESIAN_POINT('Ctrl Pts',(-5.51991312116124,203.215992944087,-23.504247726264));
#1597=CARTESIAN_POINT('Ctrl Pts',(-5.60246416288612,202.93589856097,-23.5303892290768));
#1598=CARTESIAN_POINT('Ctrl Pts',(-5.66508340482374,202.803441434308,-23.5531072068741));
#1599=CARTESIAN_POINT('Ctrl Pts',(-5.80506525143921,202.584151336447,-23.6278768488752));
#1600=CARTESIAN_POINT('Ctrl Pts',(-5.90147264596327,202.472911042952,-23.6933293740202));
#1601=CARTESIAN_POINT('Ctrl Pts',(-6.0615874181091,202.324617466989,-23.85427047551));
#1602=CARTESIAN_POINT('Ctrl Pts',(-6.1416995529239,202.268113883921,-23.9646624028116));
#1603=CARTESIAN_POINT('Ctrl Pts',(-6.2514445624967,202.198506070838,-24.2192427457208));
#1604=CARTESIAN_POINT('Ctrl Pts',(-6.28077689186689,202.183672462861,-24.3630847279258));
#1605=CARTESIAN_POINT('Ctrl Pts',(-6.28077689186689,202.183672462861,-24.5638942219772));
#1606=CARTESIAN_POINT('Ctrl Pts',(-6.27473568027221,202.186914621549,-24.6293630325138));
#1607=CARTESIAN_POINT('Ctrl Pts',(-6.26237613146159,202.193894684755,-24.6938951731705));
#1608=CARTESIAN_POINT('Origin',(-6.99999995529652,203.5,-26.0000003874302));
#1609=CARTESIAN_POINT('Origin',(-6.99999995529652,203.5,-0.600000000000005));
#1610=CARTESIAN_POINT('',(-8.49999995529652,203.5,30.9));
#1611=CARTESIAN_POINT('Origin',(-6.99999995529652,203.5,30.9));
#1612=CARTESIAN_POINT('',(-8.49999995529652,203.5,-0.600000000000005));
#1613=CARTESIAN_POINT('Origin',(-6.99999995529652,203.5,26.0000003874302));
#1614=CARTESIAN_POINT('Origin',(-7.00000013411044,3.,26.0000003874302));
#1615=CARTESIAN_POINT('',(-7.73762413675934,219.,24.6938951731706));
#1616=CARTESIAN_POINT('',(-7.73762413675934,3.,24.6938951731706));
#1617=CARTESIAN_POINT('',(-6.26237613146156,219.,24.6938951731705));
#1618=CARTESIAN_POINT('Origin',(-7.00000013411044,219.,26.0000003874302));
#1619=CARTESIAN_POINT('',(-6.26237613146156,3.,24.6938951731705));
#1620=CARTESIAN_POINT('Origin',(-5.2500005085021,3.,-24.4999994523823));
#1621=CARTESIAN_POINT('',(-4.81573723806395,3.,-23.5651650475539));
#1622=CARTESIAN_POINT('Origin',(-5.2500005085021,3.,-24.4999994523823));
#1623=CARTESIAN_POINT('',(-4.81573723806395,219.,-23.5651650475539));
#1624=CARTESIAN_POINT('',(-4.81573723806395,3.,-23.5651650475539));
#1625=CARTESIAN_POINT('',(-6.26237613146159,219.,-24.6938951731705));
#1626=CARTESIAN_POINT('Origin',(-5.2500005085021,219.,-24.4999994523823));
#1627=CARTESIAN_POINT('',(-6.26237613146159,3.,-24.6938951731705));
#1628=CARTESIAN_POINT('Origin',(-7.00000013411044,3.,-26.0000003874302));
#1629=CARTESIAN_POINT('Origin',(-7.00000013411044,219.,-26.0000003874302));
#1630=CARTESIAN_POINT('Origin',(-6.99999995529652,18.5,30.9));
#1631=CARTESIAN_POINT('Ctrl Pts',(-6.26237613146157,17.1938946847551,24.6938951731705));
#1632=CARTESIAN_POINT('Ctrl Pts',(-6.2747356800797,17.1869146216574,24.6293630335188));
#1633=CARTESIAN_POINT('Ctrl Pts',(-6.28077689186686,17.1836724628608,24.5638942304425));
#1634=CARTESIAN_POINT('Ctrl Pts',(-6.28077689186686,17.1836724628608,24.3630847279258));
#1635=CARTESIAN_POINT('Ctrl Pts',(-6.25144456249668,17.1985060708375,24.2192427457208));
#1636=CARTESIAN_POINT('Ctrl Pts',(-6.1416995529239,17.2681138839205,23.9646624028116));
#1637=CARTESIAN_POINT('Ctrl Pts',(-6.06158741810908,17.3246174669888,23.85427047551));
#1638=CARTESIAN_POINT('Ctrl Pts',(-5.90147264596325,17.4729110429516,23.6933293740203));
#1639=CARTESIAN_POINT('Ctrl Pts',(-5.80506525143919,17.5841513364473,23.6278768488752));
#1640=CARTESIAN_POINT('Ctrl Pts',(-5.66508340482374,17.8034414343084,23.5531072068741));
#1641=CARTESIAN_POINT('Ctrl Pts',(-5.60246416288612,17.9358985609702,23.5303892290768));
#1642=CARTESIAN_POINT('Ctrl Pts',(-5.51991312116124,18.2159929440873,23.504247726264));
#1643=CARTESIAN_POINT('Ctrl Pts',(-5.49999995529653,18.3635580948261,23.4999993378298));
#1644=CARTESIAN_POINT('Ctrl Pts',(-5.49999995529653,18.6364419051739,23.4999993378298));
#1645=CARTESIAN_POINT('Ctrl Pts',(-5.51991312116124,18.7840070559127,23.504247726264));
#1646=CARTESIAN_POINT('Ctrl Pts',(-5.60246416288612,19.0641014390298,23.5303892290768));
#1647=CARTESIAN_POINT('Ctrl Pts',(-5.66508340482374,19.1965585656916,23.5531072068741));
#1648=CARTESIAN_POINT('Ctrl Pts',(-5.80506525143919,19.4158486635527,23.6278768488752));
#1649=CARTESIAN_POINT('Ctrl Pts',(-5.90147264596327,19.5270889570484,23.6933293740203));
#1650=CARTESIAN_POINT('Ctrl Pts',(-6.06158741810908,19.6753825330112,23.85427047551));
#1651=CARTESIAN_POINT('Ctrl Pts',(-6.1416995529239,19.7318861160795,23.9646624028116));
#1652=CARTESIAN_POINT('Ctrl Pts',(-6.25144456249668,19.8014939291625,24.2192427457208));
#1653=CARTESIAN_POINT('Ctrl Pts',(-6.28077689186686,19.8163275371392,24.3630847279258));
#1654=CARTESIAN_POINT('Ctrl Pts',(-6.28077689186686,19.8163275371392,24.4999994523823));
#1655=CARTESIAN_POINT('Ctrl Pts',(-6.28077689186686,19.8163275371392,24.5638942219772));
#1656=CARTESIAN_POINT('Ctrl Pts',(-6.27473568027219,19.8130853784513,24.6293630325138));
#1657=CARTESIAN_POINT('Ctrl Pts',(-6.26237613146157,19.8061053152449,24.6938951731705));
#1658=CARTESIAN_POINT('Origin',(-6.99999995529652,18.5,30.9));
#1659=CARTESIAN_POINT('Ctrl Pts',(-7.73762413675934,19.8061051132743,24.6938951731706));
#1660=CARTESIAN_POINT('Ctrl Pts',(-7.72526458815661,19.8130851808268,24.6293630335993));
#1661=CARTESIAN_POINT('Ctrl Pts',(-7.71922337635404,19.8163273417362,24.5638942302395));
#1662=CARTESIAN_POINT('Ctrl Pts',(-7.71922337635404,19.8163273417362,24.3630847560087));
#1663=CARTESIAN_POINT('Ctrl Pts',(-7.74855569397232,19.8014937294165,24.2192428025177));
#1664=CARTESIAN_POINT('Ctrl Pts',(-7.85830065821274,19.7318859058185,23.9646625056984));
#1665=CARTESIAN_POINT('Ctrl Pts',(-7.93841275908898,19.6753823174628,23.8542705955611));
#1666=CARTESIAN_POINT('Ctrl Pts',(-8.09852745946531,19.5270887458349,23.6933295096504));
#1667=CARTESIAN_POINT('Ctrl Pts',(-8.19493481093964,19.4158484614562,23.6278769821341));
#1668=CARTESIAN_POINT('Ctrl Pts',(-8.33491658914989,19.1965583988026,23.5531073296686));
#1669=CARTESIAN_POINT('Ctrl Pts',(-8.39753579949669,19.0641013010183,23.5303893410242));
#1670=CARTESIAN_POINT('Ctrl Pts',(-8.48008679956958,18.7840069838046,23.5042478212078));
#1671=CARTESIAN_POINT('Ctrl Pts',(-8.49999995529652,18.6364418700802,23.4999994272367));
#1672=CARTESIAN_POINT('Ctrl Pts',(-8.49999995529652,18.3635581299198,23.4999994272367));
#1673=CARTESIAN_POINT('Ctrl Pts',(-8.48008679956958,18.2159930161954,23.5042478212078));
#1674=CARTESIAN_POINT('Ctrl Pts',(-8.39753579949669,17.9358986989817,23.5303893410242));
#1675=CARTESIAN_POINT('Ctrl Pts',(-8.33491658914989,17.8034416011974,23.5531073296686));
#1676=CARTESIAN_POINT('Ctrl Pts',(-8.19493481093964,17.5841515385438,23.6278769821341));
#1677=CARTESIAN_POINT('Ctrl Pts',(-8.09852745946531,17.4729112541651,23.6933295096504));
#1678=CARTESIAN_POINT('Ctrl Pts',(-7.93841275908898,17.3246176825372,23.8542705955611));
#1679=CARTESIAN_POINT('Ctrl Pts',(-7.85830065821274,17.2681140941815,23.9646625056984));
#1680=CARTESIAN_POINT('Ctrl Pts',(-7.74855569397232,17.1985062705835,24.2192428025177));
#1681=CARTESIAN_POINT('Ctrl Pts',(-7.71922337635404,17.1836726582638,24.3630847560087));
#1682=CARTESIAN_POINT('Ctrl Pts',(-7.71922337635404,17.1836726582638,24.4999994523823));
#1683=CARTESIAN_POINT('Ctrl Pts',(-7.71922337635404,17.1836726582638,24.5638942217742));
#1684=CARTESIAN_POINT('Ctrl Pts',(-7.72526458796413,17.1869148190645,24.6293630325942));
#1685=CARTESIAN_POINT('Ctrl Pts',(-7.73762413675934,17.1938948867257,24.6938951731706));
#1686=CARTESIAN_POINT('Origin',(0.,0.,0.));
#1687=CARTESIAN_POINT('',(1.99999999999999,0.,33.9));
#1688=CARTESIAN_POINT('',(-2.00000000000001,0.,33.9));
#1689=CARTESIAN_POINT('',(-2.00000000000001,0.,33.9));
#1690=CARTESIAN_POINT('',(-2.00000000000001,0.,-33.9));
#1691=CARTESIAN_POINT('',(-2.00000000000001,0.,33.9));
#1692=CARTESIAN_POINT('',(1.99999999999999,0.,-33.9));
#1693=CARTESIAN_POINT('',(1.99999999999999,0.,-33.9));
#1694=CARTESIAN_POINT('',(1.99999999999999,0.,33.9));
#1695=CARTESIAN_POINT('Origin',(-5.,3.,0.));
#1696=CARTESIAN_POINT('',(-2.00000000000001,3.,24.9));
#1697=CARTESIAN_POINT('',(-1.99999991059304,3.,30.9));
#1698=CARTESIAN_POINT('',(-2.00000000000001,3.,16.95));
#1699=CARTESIAN_POINT('',(-12.,3.,30.9));
#1700=CARTESIAN_POINT('',(-3.00000000000001,3.,30.9));
#1701=CARTESIAN_POINT('',(-12.,3.,26.9));
#1702=CARTESIAN_POINT('',(-12.,3.,27.4));
#1703=CARTESIAN_POINT('',(-11.955218331655,3.,26.9));
#1704=CARTESIAN_POINT('',(-12.,3.,26.9));
#1705=CARTESIAN_POINT('',(-10.0000001788139,3.,24.9447818471589));
#1706=CARTESIAN_POINT('Origin',(-11.955218331655,3.,24.9447818471589));
#1707=CARTESIAN_POINT('',(-10.0000001788139,3.,24.9));
#1708=CARTESIAN_POINT('',(-10.0000001788139,3.,24.9447818471589));
#1709=CARTESIAN_POINT('',(-9.18426303015897,3.,23.5651650475549));
#1710=CARTESIAN_POINT('Origin',(-8.50000017881396,3.,24.9));
#1711=CARTESIAN_POINT('Origin',(-8.74999975971878,3.,24.4999994523823));
#1712=CARTESIAN_POINT('',(-4.81573723806395,3.,23.5651650475539));
#1713=CARTESIAN_POINT('Origin',(-5.2500005085021,3.,24.4999994523823));
#1714=CARTESIAN_POINT('',(-4.00000008940697,3.,24.9));
#1715=CARTESIAN_POINT('Origin',(-5.50000008940698,3.,24.9));
#1716=CARTESIAN_POINT('',(-4.00000008940697,3.,24.9));
#1717=CARTESIAN_POINT('Origin',(-8.50000017881396,3.,-24.9));
#1718=CARTESIAN_POINT('',(-10.0000001788139,3.,-24.9));
#1719=CARTESIAN_POINT('Origin',(-8.50000017881396,3.,-24.9));
#1720=CARTESIAN_POINT('',(-10.0000001788139,219.,-24.9));
#1721=CARTESIAN_POINT('Origin',(-8.50000017881396,219.,-24.9));
#1722=CARTESIAN_POINT('',(-10.0000001788139,3.,-24.9));
#1723=CARTESIAN_POINT('Origin',(-10.0000001788139,3.,-24.9447818471589));
#1724=CARTESIAN_POINT('',(-10.0000001788139,3.,-24.9447818471589));
#1725=CARTESIAN_POINT('',(-10.0000001788139,3.,-24.9447818471589));
#1726=CARTESIAN_POINT('',(-10.0000001788139,219.,-24.9447818471589));
#1727=CARTESIAN_POINT('',(-10.0000001788139,219.,-24.9447818471589));
#1728=CARTESIAN_POINT('',(-10.0000001788139,3.,-24.9447818471589));
#1729=CARTESIAN_POINT('Origin',(-11.955218331655,3.,-24.9447818471589));
#1730=CARTESIAN_POINT('',(-11.955218331655,3.,-26.9));
#1731=CARTESIAN_POINT('Origin',(-11.955218331655,3.,-24.9447818471589));
#1732=CARTESIAN_POINT('',(-11.955218331655,219.,-26.9));
#1733=CARTESIAN_POINT('Origin',(-11.955218331655,219.,-24.9447818471589));
#1734=CARTESIAN_POINT('',(-11.955218331655,3.,-26.9));
#1735=CARTESIAN_POINT('Origin',(-12.,3.,-26.9));
#1736=CARTESIAN_POINT('',(-12.,3.,-26.9));
#1737=CARTESIAN_POINT('',(-12.,3.,-26.9));
#1738=CARTESIAN_POINT('',(-12.,219.,-26.9));
#1739=CARTESIAN_POINT('',(-12.,219.,-26.9));
#1740=CARTESIAN_POINT('',(-12.,3.,-26.9));
#1741=CARTESIAN_POINT('Origin',(-12.,3.,-30.9));
#1742=CARTESIAN_POINT('',(-12.,3.,-30.9));
#1743=CARTESIAN_POINT('',(-12.,3.,-30.9));
#1744=CARTESIAN_POINT('',(-12.,219.,-30.9));
#1745=CARTESIAN_POINT('',(-12.,219.,-30.9));
#1746=CARTESIAN_POINT('',(-12.,3.,-30.9));
#1747=CARTESIAN_POINT('Origin',(-1.99999991059304,3.,-30.9));
#1748=CARTESIAN_POINT('',(-1.99999991059304,3.,-30.9));
#1749=CARTESIAN_POINT('',(-3.00000000000001,3.,-30.9));
#1750=CARTESIAN_POINT('',(-1.99999991059304,219.,-30.9));
#1751=CARTESIAN_POINT('',(-3.00000000000001,219.,-30.9));
#1752=CARTESIAN_POINT('',(-1.99999991059304,3.,-30.9));
#1753=CARTESIAN_POINT('Origin',(-2.00000000000001,3.,-31.9));
#1754=CARTESIAN_POINT('',(-2.00000000000001,3.,-31.9));
#1755=CARTESIAN_POINT('',(-1.99999991059304,3.,-31.7999992892146));
#1756=CARTESIAN_POINT('',(-2.00000000000001,3.,-31.9));
#1757=CARTESIAN_POINT('',(-1.99999991059304,219.,-31.7999992892146));
#1758=CARTESIAN_POINT('',(-1.99999991059304,3.,-31.7999992892146));
#1759=CARTESIAN_POINT('',(-2.00000000000001,219.,-31.9));
#1760=CARTESIAN_POINT('',(-2.00000000000001,219.,-31.9));
#1761=CARTESIAN_POINT('',(-2.00000000000001,3.,-31.9));
#1762=CARTESIAN_POINT('Origin',(1.99999999999999,3.,-33.9));
#1763=CARTESIAN_POINT('',(-2.00000000000001,219.,-33.9));
#1764=CARTESIAN_POINT('',(-2.00000000000001,3.,-33.9));
#1765=CARTESIAN_POINT('',(1.99999999999999,219.,-33.9));
#1766=CARTESIAN_POINT('',(1.99999999999999,219.,-33.9));
#1767=CARTESIAN_POINT('',(1.99999999999999,3.,-33.9));
#1768=CARTESIAN_POINT('Origin',(1.99999999999999,3.,33.9));
#1769=CARTESIAN_POINT('',(1.99999999999999,219.,33.9));
#1770=CARTESIAN_POINT('',(1.99999999999999,219.,33.9));
#1771=CARTESIAN_POINT('',(1.99999999999999,3.,33.9));
#1772=CARTESIAN_POINT('Origin',(-2.00000000000001,3.,33.9));
#1773=CARTESIAN_POINT('',(-2.00000000000001,219.,33.9));
#1774=CARTESIAN_POINT('',(1.99999999999999,219.,33.9));
#1775=CARTESIAN_POINT('',(-2.00000000000001,3.,33.9));
#1776=CARTESIAN_POINT('Origin',(-1.99999991059304,3.,31.7999992892146));
#1777=CARTESIAN_POINT('',(-2.00000000000001,3.,31.9));
#1778=CARTESIAN_POINT('',(-1.99999991059304,3.,31.7999992892146));
#1779=CARTESIAN_POINT('',(-2.00000000000001,3.,31.9));
#1780=CARTESIAN_POINT('',(-2.00000000000001,219.,31.9));
#1781=CARTESIAN_POINT('',(-2.00000000000001,3.,31.9));
#1782=CARTESIAN_POINT('',(-1.99999991059304,219.,31.7999992892146));
#1783=CARTESIAN_POINT('',(-2.00000000000001,219.,31.9));
#1784=CARTESIAN_POINT('',(-1.99999991059304,3.,31.7999992892146));
#1785=CARTESIAN_POINT('Origin',(-12.,3.,30.9));
#1786=CARTESIAN_POINT('',(-1.99999991059304,219.,30.9));
#1787=CARTESIAN_POINT('',(-1.99999991059304,3.,30.9));
#1788=CARTESIAN_POINT('',(-12.,219.,30.9));
#1789=CARTESIAN_POINT('',(-3.00000000000001,219.,30.9));
#1790=CARTESIAN_POINT('',(-12.,3.,30.9));
#1791=CARTESIAN_POINT('Origin',(-12.,3.,26.9));
#1792=CARTESIAN_POINT('',(-12.,219.,26.9));
#1793=CARTESIAN_POINT('',(-12.,219.,27.4));
#1794=CARTESIAN_POINT('',(-12.,3.,26.9));
#1795=CARTESIAN_POINT('Origin',(-11.955218331655,3.,26.9));
#1796=CARTESIAN_POINT('',(-11.955218331655,219.,26.9));
#1797=CARTESIAN_POINT('',(-12.,219.,26.9));
#1798=CARTESIAN_POINT('',(-11.955218331655,3.,26.9));
#1799=CARTESIAN_POINT('Origin',(-11.955218331655,3.,24.9447818471589));
#1800=CARTESIAN_POINT('',(-10.0000001788139,219.,24.9447818471589));
#1801=CARTESIAN_POINT('Origin',(-11.955218331655,219.,24.9447818471589));
#1802=CARTESIAN_POINT('',(-10.0000001788139,3.,24.9447818471589));
#1803=CARTESIAN_POINT('Origin',(-10.0000001788139,3.,24.9));
#1804=CARTESIAN_POINT('',(-10.0000001788139,219.,24.9));
#1805=CARTESIAN_POINT('',(-10.0000001788139,219.,24.9447818471589));
#1806=CARTESIAN_POINT('',(-10.0000001788139,3.,24.9));
#1807=CARTESIAN_POINT('Origin',(-8.50000017881396,3.,24.9));
#1808=CARTESIAN_POINT('',(-9.18426303015897,219.,23.5651650475549));
#1809=CARTESIAN_POINT('Origin',(-8.50000017881396,219.,24.9));
#1810=CARTESIAN_POINT('',(-9.18426303015897,3.,23.5651650475549));
#1811=CARTESIAN_POINT('Origin',(-8.74999975971878,3.,24.4999994523823));
#1812=CARTESIAN_POINT('Origin',(-8.74999975971878,219.,24.4999994523823));
#1813=CARTESIAN_POINT('Origin',(-5.2500005085021,3.,24.4999994523823));
#1814=CARTESIAN_POINT('',(-4.81573723806395,219.,23.5651650475539));
#1815=CARTESIAN_POINT('Origin',(-5.2500005085021,219.,24.4999994523823));
#1816=CARTESIAN_POINT('',(-4.81573723806395,3.,23.5651650475539));
#1817=CARTESIAN_POINT('Origin',(-5.50000008940698,3.,24.9));
#1818=CARTESIAN_POINT('',(-4.00000008940697,219.,24.9));
#1819=CARTESIAN_POINT('Origin',(-5.50000008940698,219.,24.9));
#1820=CARTESIAN_POINT('',(-4.00000008940697,3.,24.9));
#1821=CARTESIAN_POINT('Origin',(-2.00000000000001,3.,24.9));
#1822=CARTESIAN_POINT('',(-2.00000000000001,219.,24.9));
#1823=CARTESIAN_POINT('',(-4.00000008940697,219.,24.9));
#1824=CARTESIAN_POINT('',(-2.00000000000001,3.,24.9));
#1825=CARTESIAN_POINT('Origin',(-2.00000000000001,3.,-24.9));
#1826=CARTESIAN_POINT('',(-2.00000000000001,219.,-24.9));
#1827=CARTESIAN_POINT('',(-2.00000000000001,219.,-24.9));
#1828=CARTESIAN_POINT('',(-2.00000000000001,3.,-24.9));
#1829=CARTESIAN_POINT('',(-2.00000000000001,3.,-24.9));
#1830=CARTESIAN_POINT('',(-2.00000000000001,3.,16.95));
#1831=CARTESIAN_POINT('',(-1.99999991059304,219.,-30.9));
#1832=CARTESIAN_POINT('',(-2.00000000000001,219.,-33.9));
#1833=CARTESIAN_POINT('',(-2.00000000000001,219.,33.9));
#1834=CARTESIAN_POINT('',(-1.99999991059304,219.,30.9));
#1835=CARTESIAN_POINT('Origin',(-4.00000008940697,3.,-24.9));
#1836=CARTESIAN_POINT('',(-4.00000008940697,3.,-24.9));
#1837=CARTESIAN_POINT('',(-4.00000008940697,3.,-24.9));
#1838=CARTESIAN_POINT('',(-4.00000008940697,219.,-24.9));
#1839=CARTESIAN_POINT('',(-4.00000008940697,219.,-24.9));
#1840=CARTESIAN_POINT('',(-4.00000008940697,3.,-24.9));
#1841=CARTESIAN_POINT('Origin',(-5.50000008940698,3.,-24.9));
#1842=CARTESIAN_POINT('Origin',(-5.50000008940698,3.,-24.9));
#1843=CARTESIAN_POINT('Origin',(-5.50000008940698,219.,-24.9));
#1844=CARTESIAN_POINT('Origin',(-5.,219.,0.));
#1845=CARTESIAN_POINT('Origin',(-5.,3.,0.));
#1846=UNCERTAINTY_MEASURE_WITH_UNIT(LENGTH_MEASURE(0.01),#1850,
'DISTANCE_ACCURACY_VALUE',
'Maximum model space distance between geometric entities at asserted c
onnectivities');
#1847=UNCERTAINTY_MEASURE_WITH_UNIT(LENGTH_MEASURE(0.01),#1850,
'DISTANCE_ACCURACY_VALUE',
'Maximum model space distance between geometric entities at asserted c
onnectivities');
#1848=(
GEOMETRIC_REPRESENTATION_CONTEXT(3)
GLOBAL_UNCERTAINTY_ASSIGNED_CONTEXT((#1846))
GLOBAL_UNIT_ASSIGNED_CONTEXT((#1850,#1852,#1853))
REPRESENTATION_CONTEXT('','3D')
);
#1849=(
GEOMETRIC_REPRESENTATION_CONTEXT(3)
GLOBAL_UNCERTAINTY_ASSIGNED_CONTEXT((#1847))
GLOBAL_UNIT_ASSIGNED_CONTEXT((#1850,#1852,#1853))
REPRESENTATION_CONTEXT('','3D')
);
#1850=(
LENGTH_UNIT()
NAMED_UNIT(*)
SI_UNIT(.MILLI.,.METRE.)
);
#1851=(
LENGTH_UNIT()
NAMED_UNIT(*)
SI_UNIT($,.METRE.)
);
#1852=(
NAMED_UNIT(*)
PLANE_ANGLE_UNIT()
SI_UNIT($,.RADIAN.)
);
#1853=(
NAMED_UNIT(*)
SI_UNIT($,.STERADIAN.)
SOLID_ANGLE_UNIT()
);
#1854=SHAPE_DEFINITION_REPRESENTATION(#1855,#1856);
#1855=PRODUCT_DEFINITION_SHAPE('',$,#1858);
#1856=SHAPE_REPRESENTATION('',(#970),#1848);
#1857=PRODUCT_DEFINITION_CONTEXT('part definition',#1862,'design');
#1858=PRODUCT_DEFINITION('2026-02-26-19-31-11-274','side v5',#1859,#1857);
#1859=PRODUCT_DEFINITION_FORMATION('',$,#1864);
#1860=PRODUCT_RELATED_PRODUCT_CATEGORY('side v5','side v5',(#1864));
#1861=APPLICATION_PROTOCOL_DEFINITION('international standard',
'automotive_design',2009,#1862);
#1862=APPLICATION_CONTEXT(
'Core Data for Automotive Mechanical Design Process');
#1863=PRODUCT_CONTEXT('part definition',#1862,'mechanical');
#1864=PRODUCT('2026-02-26-19-31-11-274','side v5',$,(#1863));
#1865=PRESENTATION_STYLE_ASSIGNMENT((#1866));
#1866=SURFACE_STYLE_USAGE(.BOTH.,#1867);
#1867=SURFACE_SIDE_STYLE('',(#1868));
#1868=SURFACE_STYLE_FILL_AREA(#1869);
#1869=FILL_AREA_STYLE('Stal \X2\2014\X0\ satynowa',(#1870));
#1870=FILL_AREA_STYLE_COLOUR('Stal \X2\2014\X0\ satynowa',#1871);
#1871=COLOUR_RGB('Stal \X2\2014\X0\ satynowa',0.627450980392157,0.627450980392157,
0.627450980392157);
ENDSEC;
END-ISO-10303-21;
