ISO-10303-21;
HEADER;
/* Generated by software containing ST-Developer
 * from STEP Tools, Inc. (www.steptools.com) 
 */

FILE_DESCRIPTION(
/* description */ (''),
/* implementation_level */ '2;1');

FILE_NAME(
/* name */ 'top_plate.step',
/* time_stamp */ '2026-06-03T13:26:37+02:00',
/* author */ (''),
/* organization */ (''),
/* preprocessor_version */ 'ST-DEVELOPER v20.1',
/* originating_system */ 'Autodesk Translation Framework v15.8.0.0',
/* authorisation */ '');

FILE_SCHEMA (('AUTOMOTIVE_DESIGN { 1 0 10303 214 3 1 1 }'));
ENDSEC;

DATA;
#10=MECHANICAL_DESIGN_GEOMETRIC_PRESENTATION_REPRESENTATION('',(#13),#1459);
#11=SHAPE_REPRESENTATION_RELATIONSHIP('SRR','None',#1466,#12);
#12=ADVANCED_BREP_SHAPE_REPRESENTATION('',(#14),#1458);
#13=STYLED_ITEM('',(#1475),#14);
#14=MANIFOLD_SOLID_BREP('Bry\X2\0142\X0\a2',#871);
#15=FACE_BOUND('',#182,.T.);
#16=FACE_BOUND('',#183,.T.);
#17=FACE_BOUND('',#184,.T.);
#18=FACE_BOUND('',#185,.T.);
#19=FACE_BOUND('',#186,.T.);
#20=FACE_BOUND('',#187,.T.);
#21=FACE_BOUND('',#188,.T.);
#22=FACE_BOUND('',#189,.T.);
#23=FACE_BOUND('',#190,.T.);
#24=FACE_BOUND('',#191,.T.);
#25=FACE_BOUND('',#192,.T.);
#26=FACE_BOUND('',#193,.T.);
#27=FACE_BOUND('',#195,.T.);
#28=FACE_BOUND('',#196,.T.);
#29=FACE_BOUND('',#197,.T.);
#30=FACE_BOUND('',#198,.T.);
#31=FACE_BOUND('',#199,.T.);
#32=FACE_BOUND('',#200,.T.);
#33=FACE_BOUND('',#201,.T.);
#34=FACE_BOUND('',#202,.T.);
#35=FACE_BOUND('',#203,.T.);
#36=FACE_BOUND('',#204,.T.);
#37=FACE_BOUND('',#205,.T.);
#38=FACE_BOUND('',#206,.T.);
#39=CIRCLE('',#887,2.10000000000001);
#40=CIRCLE('',#888,2.10000000000001);
#41=CIRCLE('',#891,2.09999999999999);
#42=CIRCLE('',#892,2.09999999999999);
#43=CIRCLE('',#895,2.10000000000001);
#44=CIRCLE('',#896,2.10000000000001);
#45=CIRCLE('',#899,2.09999999999999);
#46=CIRCLE('',#900,2.09999999999999);
#47=CIRCLE('',#903,2.10000000000001);
#48=CIRCLE('',#904,2.10000000000001);
#49=CIRCLE('',#907,2.09999999999999);
#50=CIRCLE('',#908,2.09999999999999);
#51=CIRCLE('',#910,2.10000000000001);
#52=CIRCLE('',#911,2.10000000000001);
#53=CIRCLE('',#914,2.09999999999999);
#54=CIRCLE('',#915,2.09999999999999);
#55=CIRCLE('',#919,2.10000000000001);
#56=CIRCLE('',#920,2.10000000000001);
#57=CIRCLE('',#923,2.09999999999999);
#58=CIRCLE('',#924,2.09999999999999);
#59=CIRCLE('',#927,2.10000000000001);
#60=CIRCLE('',#928,2.10000000000001);
#61=CIRCLE('',#931,2.09999999999999);
#62=CIRCLE('',#932,2.09999999999999);
#63=CIRCLE('',#934,2.);
#64=CIRCLE('',#935,2.);
#65=CIRCLE('',#937,2.10000000000001);
#66=CIRCLE('',#938,2.10000000000001);
#67=CIRCLE('',#941,2.09999999999999);
#68=CIRCLE('',#942,2.09999999999999);
#69=CIRCLE('',#946,2.10000000000001);
#70=CIRCLE('',#947,2.10000000000001);
#71=CIRCLE('',#950,2.09999999999999);
#72=CIRCLE('',#951,2.09999999999999);
#73=CIRCLE('',#953,2.);
#74=CIRCLE('',#954,2.);
#75=CIRCLE('',#956,1.99999999999999);
#76=CIRCLE('',#957,1.99999999999999);
#77=CIRCLE('',#959,1.99999999999999);
#78=CIRCLE('',#960,1.99999999999999);
#79=CYLINDRICAL_SURFACE('',#886,2.10000000000001);
#80=CYLINDRICAL_SURFACE('',#890,2.09999999999999);
#81=CYLINDRICAL_SURFACE('',#894,2.10000000000001);
#82=CYLINDRICAL_SURFACE('',#898,2.09999999999999);
#83=CYLINDRICAL_SURFACE('',#902,2.10000000000001);
#84=CYLINDRICAL_SURFACE('',#906,2.09999999999999);
#85=CYLINDRICAL_SURFACE('',#909,2.10000000000001);
#86=CYLINDRICAL_SURFACE('',#913,2.09999999999999);
#87=CYLINDRICAL_SURFACE('',#918,2.10000000000001);
#88=CYLINDRICAL_SURFACE('',#922,2.09999999999999);
#89=CYLINDRICAL_SURFACE('',#926,2.10000000000001);
#90=CYLINDRICAL_SURFACE('',#930,2.09999999999999);
#91=CYLINDRICAL_SURFACE('',#933,2.);
#92=CYLINDRICAL_SURFACE('',#936,2.10000000000001);
#93=CYLINDRICAL_SURFACE('',#940,2.09999999999999);
#94=CYLINDRICAL_SURFACE('',#945,2.10000000000001);
#95=CYLINDRICAL_SURFACE('',#949,2.09999999999999);
#96=CYLINDRICAL_SURFACE('',#952,2.);
#97=CYLINDRICAL_SURFACE('',#955,1.99999999999999);
#98=CYLINDRICAL_SURFACE('',#958,1.99999999999999);
#99=FACE_OUTER_BOUND('',#141,.T.);
#100=FACE_OUTER_BOUND('',#142,.T.);
#101=FACE_OUTER_BOUND('',#143,.T.);
#102=FACE_OUTER_BOUND('',#144,.T.);
#103=FACE_OUTER_BOUND('',#145,.T.);
#104=FACE_OUTER_BOUND('',#146,.T.);
#105=FACE_OUTER_BOUND('',#147,.T.);
#106=FACE_OUTER_BOUND('',#148,.T.);
#107=FACE_OUTER_BOUND('',#149,.T.);
#108=FACE_OUTER_BOUND('',#150,.T.);
#109=FACE_OUTER_BOUND('',#151,.T.);
#110=FACE_OUTER_BOUND('',#152,.T.);
#111=FACE_OUTER_BOUND('',#153,.T.);
#112=FACE_OUTER_BOUND('',#154,.T.);
#113=FACE_OUTER_BOUND('',#155,.T.);
#114=FACE_OUTER_BOUND('',#156,.T.);
#115=FACE_OUTER_BOUND('',#157,.T.);
#116=FACE_OUTER_BOUND('',#158,.T.);
#117=FACE_OUTER_BOUND('',#159,.T.);
#118=FACE_OUTER_BOUND('',#160,.T.);
#119=FACE_OUTER_BOUND('',#161,.T.);
#120=FACE_OUTER_BOUND('',#162,.T.);
#121=FACE_OUTER_BOUND('',#163,.T.);
#122=FACE_OUTER_BOUND('',#164,.T.);
#123=FACE_OUTER_BOUND('',#165,.T.);
#124=FACE_OUTER_BOUND('',#166,.T.);
#125=FACE_OUTER_BOUND('',#167,.T.);
#126=FACE_OUTER_BOUND('',#168,.T.);
#127=FACE_OUTER_BOUND('',#169,.T.);
#128=FACE_OUTER_BOUND('',#170,.T.);
#129=FACE_OUTER_BOUND('',#171,.T.);
#130=FACE_OUTER_BOUND('',#172,.T.);
#131=FACE_OUTER_BOUND('',#173,.T.);
#132=FACE_OUTER_BOUND('',#174,.T.);
#133=FACE_OUTER_BOUND('',#175,.T.);
#134=FACE_OUTER_BOUND('',#176,.T.);
#135=FACE_OUTER_BOUND('',#177,.T.);
#136=FACE_OUTER_BOUND('',#178,.T.);
#137=FACE_OUTER_BOUND('',#179,.T.);
#138=FACE_OUTER_BOUND('',#180,.T.);
#139=FACE_OUTER_BOUND('',#181,.T.);
#140=FACE_OUTER_BOUND('',#194,.T.);
#141=EDGE_LOOP('',(#567,#568,#569,#570));
#142=EDGE_LOOP('',(#571,#572,#573,#574));
#143=EDGE_LOOP('',(#575,#576,#577,#578));
#144=EDGE_LOOP('',(#579,#580,#581,#582));
#145=EDGE_LOOP('',(#583,#584,#585,#586));
#146=EDGE_LOOP('',(#587,#588,#589,#590));
#147=EDGE_LOOP('',(#591,#592,#593,#594));
#148=EDGE_LOOP('',(#595,#596,#597,#598));
#149=EDGE_LOOP('',(#599,#600,#601,#602));
#150=EDGE_LOOP('',(#603,#604,#605,#606));
#151=EDGE_LOOP('',(#607,#608,#609,#610));
#152=EDGE_LOOP('',(#611,#612,#613,#614));
#153=EDGE_LOOP('',(#615,#616,#617,#618));
#154=EDGE_LOOP('',(#619,#620,#621,#622));
#155=EDGE_LOOP('',(#623,#624,#625,#626));
#156=EDGE_LOOP('',(#627,#628,#629,#630));
#157=EDGE_LOOP('',(#631,#632,#633,#634));
#158=EDGE_LOOP('',(#635,#636,#637,#638));
#159=EDGE_LOOP('',(#639,#640,#641,#642));
#160=EDGE_LOOP('',(#643,#644,#645,#646));
#161=EDGE_LOOP('',(#647,#648,#649,#650));
#162=EDGE_LOOP('',(#651,#652,#653,#654));
#163=EDGE_LOOP('',(#655,#656,#657,#658));
#164=EDGE_LOOP('',(#659,#660,#661,#662));
#165=EDGE_LOOP('',(#663,#664,#665,#666));
#166=EDGE_LOOP('',(#667,#668,#669,#670));
#167=EDGE_LOOP('',(#671,#672,#673,#674));
#168=EDGE_LOOP('',(#675,#676,#677,#678));
#169=EDGE_LOOP('',(#679,#680,#681,#682));
#170=EDGE_LOOP('',(#683,#684,#685,#686));
#171=EDGE_LOOP('',(#687,#688,#689,#690));
#172=EDGE_LOOP('',(#691,#692,#693,#694));
#173=EDGE_LOOP('',(#695,#696,#697,#698));
#174=EDGE_LOOP('',(#699,#700,#701,#702));
#175=EDGE_LOOP('',(#703,#704,#705,#706));
#176=EDGE_LOOP('',(#707,#708,#709,#710));
#177=EDGE_LOOP('',(#711,#712,#713,#714));
#178=EDGE_LOOP('',(#715,#716,#717,#718));
#179=EDGE_LOOP('',(#719,#720,#721,#722));
#180=EDGE_LOOP('',(#723,#724,#725,#726));
#181=EDGE_LOOP('',(#727,#728,#729,#730));
#182=EDGE_LOOP('',(#731));
#183=EDGE_LOOP('',(#732));
#184=EDGE_LOOP('',(#733));
#185=EDGE_LOOP('',(#734,#735,#736,#737));
#186=EDGE_LOOP('',(#738,#739,#740,#741));
#187=EDGE_LOOP('',(#742));
#188=EDGE_LOOP('',(#743,#744,#745,#746));
#189=EDGE_LOOP('',(#747,#748,#749,#750));
#190=EDGE_LOOP('',(#751,#752,#753,#754));
#191=EDGE_LOOP('',(#755,#756,#757,#758));
#192=EDGE_LOOP('',(#759,#760,#761,#762));
#193=EDGE_LOOP('',(#763,#764,#765,#766));
#194=EDGE_LOOP('',(#767,#768,#769,#770));
#195=EDGE_LOOP('',(#771));
#196=EDGE_LOOP('',(#772));
#197=EDGE_LOOP('',(#773));
#198=EDGE_LOOP('',(#774,#775,#776,#777));
#199=EDGE_LOOP('',(#778,#779,#780,#781));
#200=EDGE_LOOP('',(#782));
#201=EDGE_LOOP('',(#783,#784,#785,#786));
#202=EDGE_LOOP('',(#787,#788,#789,#790));
#203=EDGE_LOOP('',(#791,#792,#793,#794));
#204=EDGE_LOOP('',(#795,#796,#797,#798));
#205=EDGE_LOOP('',(#799,#800,#801,#802));
#206=EDGE_LOOP('',(#803,#804,#805,#806));
#207=LINE('',#1217,#287);
#208=LINE('',#1219,#288);
#209=LINE('',#1221,#289);
#210=LINE('',#1222,#290);
#211=LINE('',#1228,#291);
#212=LINE('',#1231,#292);
#213=LINE('',#1233,#293);
#214=LINE('',#1234,#294);
#215=LINE('',#1241,#295);
#216=LINE('',#1243,#296);
#217=LINE('',#1245,#297);
#218=LINE('',#1246,#298);
#219=LINE('',#1252,#299);
#220=LINE('',#1255,#300);
#221=LINE('',#1257,#301);
#222=LINE('',#1258,#302);
#223=LINE('',#1265,#303);
#224=LINE('',#1267,#304);
#225=LINE('',#1269,#305);
#226=LINE('',#1270,#306);
#227=LINE('',#1276,#307);
#228=LINE('',#1279,#308);
#229=LINE('',#1281,#309);
#230=LINE('',#1282,#310);
#231=LINE('',#1291,#311);
#232=LINE('',#1294,#312);
#233=LINE('',#1297,#313);
#234=LINE('',#1299,#314);
#235=LINE('',#1300,#315);
#236=LINE('',#1306,#316);
#237=LINE('',#1308,#317);
#238=LINE('',#1309,#318);
#239=LINE('',#1313,#319);
#240=LINE('',#1315,#320);
#241=LINE('',#1317,#321);
#242=LINE('',#1318,#322);
#243=LINE('',#1324,#323);
#244=LINE('',#1327,#324);
#245=LINE('',#1329,#325);
#246=LINE('',#1330,#326);
#247=LINE('',#1337,#327);
#248=LINE('',#1339,#328);
#249=LINE('',#1341,#329);
#250=LINE('',#1342,#330);
#251=LINE('',#1348,#331);
#252=LINE('',#1351,#332);
#253=LINE('',#1353,#333);
#254=LINE('',#1354,#334);
#255=LINE('',#1362,#335);
#256=LINE('',#1369,#336);
#257=LINE('',#1372,#337);
#258=LINE('',#1375,#338);
#259=LINE('',#1377,#339);
#260=LINE('',#1378,#340);
#261=LINE('',#1384,#341);
#262=LINE('',#1386,#342);
#263=LINE('',#1387,#343);
#264=LINE('',#1391,#344);
#265=LINE('',#1393,#345);
#266=LINE('',#1395,#346);
#267=LINE('',#1396,#347);
#268=LINE('',#1402,#348);
#269=LINE('',#1405,#349);
#270=LINE('',#1407,#350);
#271=LINE('',#1408,#351);
#272=LINE('',#1416,#352);
#273=LINE('',#1422,#353);
#274=LINE('',#1428,#354);
#275=LINE('',#1433,#355);
#276=LINE('',#1435,#356);
#277=LINE('',#1437,#357);
#278=LINE('',#1438,#358);
#279=LINE('',#1441,#359);
#280=LINE('',#1443,#360);
#281=LINE('',#1444,#361);
#282=LINE('',#1447,#362);
#283=LINE('',#1449,#363);
#284=LINE('',#1450,#364);
#285=LINE('',#1452,#365);
#286=LINE('',#1453,#366);
#287=VECTOR('',#971,10.);
#288=VECTOR('',#972,10.);
#289=VECTOR('',#973,10.);
#290=VECTOR('',#974,10.);
#291=VECTOR('',#981,10.);
#292=VECTOR('',#984,10.);
#293=VECTOR('',#985,10.);
#294=VECTOR('',#986,10.);
#295=VECTOR('',#995,10.);
#296=VECTOR('',#996,10.);
#297=VECTOR('',#997,10.);
#298=VECTOR('',#998,10.);
#299=VECTOR('',#1005,10.);
#300=VECTOR('',#1008,10.);
#301=VECTOR('',#1009,10.);
#302=VECTOR('',#1010,10.);
#303=VECTOR('',#1019,10.);
#304=VECTOR('',#1020,10.);
#305=VECTOR('',#1021,10.);
#306=VECTOR('',#1022,10.);
#307=VECTOR('',#1029,10.);
#308=VECTOR('',#1032,10.);
#309=VECTOR('',#1033,10.);
#310=VECTOR('',#1034,10.);
#311=VECTOR('',#1045,10.);
#312=VECTOR('',#1048,10.);
#313=VECTOR('',#1051,10.);
#314=VECTOR('',#1052,10.);
#315=VECTOR('',#1053,10.);
#316=VECTOR('',#1060,10.);
#317=VECTOR('',#1063,10.);
#318=VECTOR('',#1064,10.);
#319=VECTOR('',#1067,10.);
#320=VECTOR('',#1068,10.);
#321=VECTOR('',#1069,10.);
#322=VECTOR('',#1070,10.);
#323=VECTOR('',#1077,10.);
#324=VECTOR('',#1080,10.);
#325=VECTOR('',#1081,10.);
#326=VECTOR('',#1082,10.);
#327=VECTOR('',#1091,10.);
#328=VECTOR('',#1092,10.);
#329=VECTOR('',#1093,10.);
#330=VECTOR('',#1094,10.);
#331=VECTOR('',#1101,10.);
#332=VECTOR('',#1104,10.);
#333=VECTOR('',#1105,10.);
#334=VECTOR('',#1106,10.);
#335=VECTOR('',#1117,2.);
#336=VECTOR('',#1124,10.);
#337=VECTOR('',#1127,10.);
#338=VECTOR('',#1130,10.);
#339=VECTOR('',#1131,10.);
#340=VECTOR('',#1132,10.);
#341=VECTOR('',#1139,10.);
#342=VECTOR('',#1142,10.);
#343=VECTOR('',#1143,10.);
#344=VECTOR('',#1146,10.);
#345=VECTOR('',#1147,10.);
#346=VECTOR('',#1148,10.);
#347=VECTOR('',#1149,10.);
#348=VECTOR('',#1156,10.);
#349=VECTOR('',#1159,10.);
#350=VECTOR('',#1160,10.);
#351=VECTOR('',#1161,10.);
#352=VECTOR('',#1172,2.);
#353=VECTOR('',#1179,1.99999999999999);
#354=VECTOR('',#1186,1.99999999999999);
#355=VECTOR('',#1191,10.);
#356=VECTOR('',#1192,10.);
#357=VECTOR('',#1193,10.);
#358=VECTOR('',#1194,10.);
#359=VECTOR('',#1197,10.);
#360=VECTOR('',#1198,10.);
#361=VECTOR('',#1199,10.);
#362=VECTOR('',#1202,10.);
#363=VECTOR('',#1203,10.);
#364=VECTOR('',#1204,10.);
#365=VECTOR('',#1207,10.);
#366=VECTOR('',#1208,10.);
#367=VERTEX_POINT('',#1215);
#368=VERTEX_POINT('',#1216);
#369=VERTEX_POINT('',#1218);
#370=VERTEX_POINT('',#1220);
#371=VERTEX_POINT('',#1224);
#372=VERTEX_POINT('',#1226);
#373=VERTEX_POINT('',#1230);
#374=VERTEX_POINT('',#1232);
#375=VERTEX_POINT('',#1239);
#376=VERTEX_POINT('',#1240);
#377=VERTEX_POINT('',#1242);
#378=VERTEX_POINT('',#1244);
#379=VERTEX_POINT('',#1248);
#380=VERTEX_POINT('',#1250);
#381=VERTEX_POINT('',#1254);
#382=VERTEX_POINT('',#1256);
#383=VERTEX_POINT('',#1263);
#384=VERTEX_POINT('',#1264);
#385=VERTEX_POINT('',#1266);
#386=VERTEX_POINT('',#1268);
#387=VERTEX_POINT('',#1272);
#388=VERTEX_POINT('',#1274);
#389=VERTEX_POINT('',#1278);
#390=VERTEX_POINT('',#1280);
#391=VERTEX_POINT('',#1287);
#392=VERTEX_POINT('',#1288);
#393=VERTEX_POINT('',#1290);
#394=VERTEX_POINT('',#1292);
#395=VERTEX_POINT('',#1296);
#396=VERTEX_POINT('',#1298);
#397=VERTEX_POINT('',#1302);
#398=VERTEX_POINT('',#1304);
#399=VERTEX_POINT('',#1311);
#400=VERTEX_POINT('',#1312);
#401=VERTEX_POINT('',#1314);
#402=VERTEX_POINT('',#1316);
#403=VERTEX_POINT('',#1320);
#404=VERTEX_POINT('',#1322);
#405=VERTEX_POINT('',#1326);
#406=VERTEX_POINT('',#1328);
#407=VERTEX_POINT('',#1335);
#408=VERTEX_POINT('',#1336);
#409=VERTEX_POINT('',#1338);
#410=VERTEX_POINT('',#1340);
#411=VERTEX_POINT('',#1344);
#412=VERTEX_POINT('',#1346);
#413=VERTEX_POINT('',#1350);
#414=VERTEX_POINT('',#1352);
#415=VERTEX_POINT('',#1359);
#416=VERTEX_POINT('',#1361);
#417=VERTEX_POINT('',#1365);
#418=VERTEX_POINT('',#1366);
#419=VERTEX_POINT('',#1368);
#420=VERTEX_POINT('',#1370);
#421=VERTEX_POINT('',#1374);
#422=VERTEX_POINT('',#1376);
#423=VERTEX_POINT('',#1380);
#424=VERTEX_POINT('',#1382);
#425=VERTEX_POINT('',#1389);
#426=VERTEX_POINT('',#1390);
#427=VERTEX_POINT('',#1392);
#428=VERTEX_POINT('',#1394);
#429=VERTEX_POINT('',#1398);
#430=VERTEX_POINT('',#1400);
#431=VERTEX_POINT('',#1404);
#432=VERTEX_POINT('',#1406);
#433=VERTEX_POINT('',#1413);
#434=VERTEX_POINT('',#1415);
#435=VERTEX_POINT('',#1419);
#436=VERTEX_POINT('',#1421);
#437=VERTEX_POINT('',#1425);
#438=VERTEX_POINT('',#1427);
#439=VERTEX_POINT('',#1431);
#440=VERTEX_POINT('',#1432);
#441=VERTEX_POINT('',#1434);
#442=VERTEX_POINT('',#1436);
#443=VERTEX_POINT('',#1440);
#444=VERTEX_POINT('',#1442);
#445=VERTEX_POINT('',#1446);
#446=VERTEX_POINT('',#1448);
#447=EDGE_CURVE('',#367,#368,#207,.T.);
#448=EDGE_CURVE('',#368,#369,#208,.T.);
#449=EDGE_CURVE('',#370,#369,#209,.T.);
#450=EDGE_CURVE('',#367,#370,#210,.T.);
#451=EDGE_CURVE('',#371,#367,#39,.T.);
#452=EDGE_CURVE('',#372,#370,#40,.T.);
#453=EDGE_CURVE('',#371,#372,#211,.T.);
#454=EDGE_CURVE('',#373,#371,#212,.T.);
#455=EDGE_CURVE('',#374,#372,#213,.T.);
#456=EDGE_CURVE('',#373,#374,#214,.T.);
#457=EDGE_CURVE('',#368,#373,#41,.T.);
#458=EDGE_CURVE('',#369,#374,#42,.T.);
#459=EDGE_CURVE('',#375,#376,#215,.T.);
#460=EDGE_CURVE('',#376,#377,#216,.T.);
#461=EDGE_CURVE('',#378,#377,#217,.T.);
#462=EDGE_CURVE('',#375,#378,#218,.T.);
#463=EDGE_CURVE('',#379,#375,#43,.T.);
#464=EDGE_CURVE('',#380,#378,#44,.T.);
#465=EDGE_CURVE('',#379,#380,#219,.T.);
#466=EDGE_CURVE('',#381,#379,#220,.T.);
#467=EDGE_CURVE('',#382,#380,#221,.T.);
#468=EDGE_CURVE('',#381,#382,#222,.T.);
#469=EDGE_CURVE('',#376,#381,#45,.T.);
#470=EDGE_CURVE('',#377,#382,#46,.T.);
#471=EDGE_CURVE('',#383,#384,#223,.T.);
#472=EDGE_CURVE('',#384,#385,#224,.T.);
#473=EDGE_CURVE('',#386,#385,#225,.T.);
#474=EDGE_CURVE('',#383,#386,#226,.T.);
#475=EDGE_CURVE('',#387,#383,#47,.T.);
#476=EDGE_CURVE('',#388,#386,#48,.T.);
#477=EDGE_CURVE('',#387,#388,#227,.T.);
#478=EDGE_CURVE('',#389,#387,#228,.T.);
#479=EDGE_CURVE('',#390,#388,#229,.T.);
#480=EDGE_CURVE('',#389,#390,#230,.T.);
#481=EDGE_CURVE('',#384,#389,#49,.T.);
#482=EDGE_CURVE('',#385,#390,#50,.T.);
#483=EDGE_CURVE('',#391,#392,#51,.T.);
#484=EDGE_CURVE('',#392,#393,#231,.T.);
#485=EDGE_CURVE('',#394,#393,#52,.T.);
#486=EDGE_CURVE('',#391,#394,#232,.T.);
#487=EDGE_CURVE('',#395,#391,#233,.T.);
#488=EDGE_CURVE('',#396,#394,#234,.T.);
#489=EDGE_CURVE('',#395,#396,#235,.T.);
#490=EDGE_CURVE('',#397,#395,#53,.T.);
#491=EDGE_CURVE('',#398,#396,#54,.T.);
#492=EDGE_CURVE('',#397,#398,#236,.T.);
#493=EDGE_CURVE('',#392,#397,#237,.T.);
#494=EDGE_CURVE('',#393,#398,#238,.T.);
#495=EDGE_CURVE('',#399,#400,#239,.T.);
#496=EDGE_CURVE('',#400,#401,#240,.T.);
#497=EDGE_CURVE('',#402,#401,#241,.T.);
#498=EDGE_CURVE('',#399,#402,#242,.T.);
#499=EDGE_CURVE('',#403,#399,#55,.T.);
#500=EDGE_CURVE('',#404,#402,#56,.T.);
#501=EDGE_CURVE('',#403,#404,#243,.T.);
#502=EDGE_CURVE('',#405,#403,#244,.T.);
#503=EDGE_CURVE('',#406,#404,#245,.T.);
#504=EDGE_CURVE('',#405,#406,#246,.T.);
#505=EDGE_CURVE('',#400,#405,#57,.T.);
#506=EDGE_CURVE('',#401,#406,#58,.T.);
#507=EDGE_CURVE('',#407,#408,#247,.T.);
#508=EDGE_CURVE('',#408,#409,#248,.T.);
#509=EDGE_CURVE('',#410,#409,#249,.T.);
#510=EDGE_CURVE('',#407,#410,#250,.T.);
#511=EDGE_CURVE('',#411,#407,#59,.T.);
#512=EDGE_CURVE('',#412,#410,#60,.T.);
#513=EDGE_CURVE('',#411,#412,#251,.T.);
#514=EDGE_CURVE('',#413,#411,#252,.T.);
#515=EDGE_CURVE('',#414,#412,#253,.T.);
#516=EDGE_CURVE('',#413,#414,#254,.T.);
#517=EDGE_CURVE('',#408,#413,#61,.T.);
#518=EDGE_CURVE('',#409,#414,#62,.T.);
#519=EDGE_CURVE('',#415,#415,#63,.T.);
#520=EDGE_CURVE('',#415,#416,#255,.T.);
#521=EDGE_CURVE('',#416,#416,#64,.T.);
#522=EDGE_CURVE('',#417,#418,#65,.T.);
#523=EDGE_CURVE('',#418,#419,#256,.T.);
#524=EDGE_CURVE('',#420,#419,#66,.T.);
#525=EDGE_CURVE('',#417,#420,#257,.T.);
#526=EDGE_CURVE('',#421,#417,#258,.T.);
#527=EDGE_CURVE('',#422,#420,#259,.T.);
#528=EDGE_CURVE('',#421,#422,#260,.T.);
#529=EDGE_CURVE('',#423,#421,#67,.T.);
#530=EDGE_CURVE('',#424,#422,#68,.T.);
#531=EDGE_CURVE('',#423,#424,#261,.T.);
#532=EDGE_CURVE('',#418,#423,#262,.T.);
#533=EDGE_CURVE('',#419,#424,#263,.T.);
#534=EDGE_CURVE('',#425,#426,#264,.T.);
#535=EDGE_CURVE('',#426,#427,#265,.T.);
#536=EDGE_CURVE('',#428,#427,#266,.T.);
#537=EDGE_CURVE('',#425,#428,#267,.T.);
#538=EDGE_CURVE('',#429,#425,#69,.T.);
#539=EDGE_CURVE('',#430,#428,#70,.T.);
#540=EDGE_CURVE('',#429,#430,#268,.T.);
#541=EDGE_CURVE('',#431,#429,#269,.T.);
#542=EDGE_CURVE('',#432,#430,#270,.T.);
#543=EDGE_CURVE('',#431,#432,#271,.T.);
#544=EDGE_CURVE('',#426,#431,#71,.T.);
#545=EDGE_CURVE('',#427,#432,#72,.T.);
#546=EDGE_CURVE('',#433,#433,#73,.T.);
#547=EDGE_CURVE('',#433,#434,#272,.T.);
#548=EDGE_CURVE('',#434,#434,#74,.T.);
#549=EDGE_CURVE('',#435,#435,#75,.T.);
#550=EDGE_CURVE('',#435,#436,#273,.T.);
#551=EDGE_CURVE('',#436,#436,#76,.T.);
#552=EDGE_CURVE('',#437,#437,#77,.T.);
#553=EDGE_CURVE('',#437,#438,#274,.T.);
#554=EDGE_CURVE('',#438,#438,#78,.T.);
#555=EDGE_CURVE('',#439,#440,#275,.T.);
#556=EDGE_CURVE('',#440,#441,#276,.T.);
#557=EDGE_CURVE('',#442,#441,#277,.T.);
#558=EDGE_CURVE('',#439,#442,#278,.T.);
#559=EDGE_CURVE('',#443,#439,#279,.T.);
#560=EDGE_CURVE('',#444,#442,#280,.T.);
#561=EDGE_CURVE('',#443,#444,#281,.T.);
#562=EDGE_CURVE('',#445,#443,#282,.T.);
#563=EDGE_CURVE('',#446,#444,#283,.T.);
#564=EDGE_CURVE('',#445,#446,#284,.T.);
#565=EDGE_CURVE('',#440,#445,#285,.T.);
#566=EDGE_CURVE('',#441,#446,#286,.T.);
#567=ORIENTED_EDGE('',*,*,#447,.T.);
#568=ORIENTED_EDGE('',*,*,#448,.T.);
#569=ORIENTED_EDGE('',*,*,#449,.F.);
#570=ORIENTED_EDGE('',*,*,#450,.F.);
#571=ORIENTED_EDGE('',*,*,#451,.T.);
#572=ORIENTED_EDGE('',*,*,#450,.T.);
#573=ORIENTED_EDGE('',*,*,#452,.F.);
#574=ORIENTED_EDGE('',*,*,#453,.F.);
#575=ORIENTED_EDGE('',*,*,#454,.T.);
#576=ORIENTED_EDGE('',*,*,#453,.T.);
#577=ORIENTED_EDGE('',*,*,#455,.F.);
#578=ORIENTED_EDGE('',*,*,#456,.F.);
#579=ORIENTED_EDGE('',*,*,#457,.T.);
#580=ORIENTED_EDGE('',*,*,#456,.T.);
#581=ORIENTED_EDGE('',*,*,#458,.F.);
#582=ORIENTED_EDGE('',*,*,#448,.F.);
#583=ORIENTED_EDGE('',*,*,#459,.T.);
#584=ORIENTED_EDGE('',*,*,#460,.T.);
#585=ORIENTED_EDGE('',*,*,#461,.F.);
#586=ORIENTED_EDGE('',*,*,#462,.F.);
#587=ORIENTED_EDGE('',*,*,#463,.T.);
#588=ORIENTED_EDGE('',*,*,#462,.T.);
#589=ORIENTED_EDGE('',*,*,#464,.F.);
#590=ORIENTED_EDGE('',*,*,#465,.F.);
#591=ORIENTED_EDGE('',*,*,#466,.T.);
#592=ORIENTED_EDGE('',*,*,#465,.T.);
#593=ORIENTED_EDGE('',*,*,#467,.F.);
#594=ORIENTED_EDGE('',*,*,#468,.F.);
#595=ORIENTED_EDGE('',*,*,#469,.T.);
#596=ORIENTED_EDGE('',*,*,#468,.T.);
#597=ORIENTED_EDGE('',*,*,#470,.F.);
#598=ORIENTED_EDGE('',*,*,#460,.F.);
#599=ORIENTED_EDGE('',*,*,#471,.T.);
#600=ORIENTED_EDGE('',*,*,#472,.T.);
#601=ORIENTED_EDGE('',*,*,#473,.F.);
#602=ORIENTED_EDGE('',*,*,#474,.F.);
#603=ORIENTED_EDGE('',*,*,#475,.T.);
#604=ORIENTED_EDGE('',*,*,#474,.T.);
#605=ORIENTED_EDGE('',*,*,#476,.F.);
#606=ORIENTED_EDGE('',*,*,#477,.F.);
#607=ORIENTED_EDGE('',*,*,#478,.T.);
#608=ORIENTED_EDGE('',*,*,#477,.T.);
#609=ORIENTED_EDGE('',*,*,#479,.F.);
#610=ORIENTED_EDGE('',*,*,#480,.F.);
#611=ORIENTED_EDGE('',*,*,#481,.T.);
#612=ORIENTED_EDGE('',*,*,#480,.T.);
#613=ORIENTED_EDGE('',*,*,#482,.F.);
#614=ORIENTED_EDGE('',*,*,#472,.F.);
#615=ORIENTED_EDGE('',*,*,#483,.T.);
#616=ORIENTED_EDGE('',*,*,#484,.T.);
#617=ORIENTED_EDGE('',*,*,#485,.F.);
#618=ORIENTED_EDGE('',*,*,#486,.F.);
#619=ORIENTED_EDGE('',*,*,#487,.T.);
#620=ORIENTED_EDGE('',*,*,#486,.T.);
#621=ORIENTED_EDGE('',*,*,#488,.F.);
#622=ORIENTED_EDGE('',*,*,#489,.F.);
#623=ORIENTED_EDGE('',*,*,#490,.T.);
#624=ORIENTED_EDGE('',*,*,#489,.T.);
#625=ORIENTED_EDGE('',*,*,#491,.F.);
#626=ORIENTED_EDGE('',*,*,#492,.F.);
#627=ORIENTED_EDGE('',*,*,#493,.T.);
#628=ORIENTED_EDGE('',*,*,#492,.T.);
#629=ORIENTED_EDGE('',*,*,#494,.F.);
#630=ORIENTED_EDGE('',*,*,#484,.F.);
#631=ORIENTED_EDGE('',*,*,#495,.T.);
#632=ORIENTED_EDGE('',*,*,#496,.T.);
#633=ORIENTED_EDGE('',*,*,#497,.F.);
#634=ORIENTED_EDGE('',*,*,#498,.F.);
#635=ORIENTED_EDGE('',*,*,#499,.T.);
#636=ORIENTED_EDGE('',*,*,#498,.T.);
#637=ORIENTED_EDGE('',*,*,#500,.F.);
#638=ORIENTED_EDGE('',*,*,#501,.F.);
#639=ORIENTED_EDGE('',*,*,#502,.T.);
#640=ORIENTED_EDGE('',*,*,#501,.T.);
#641=ORIENTED_EDGE('',*,*,#503,.F.);
#642=ORIENTED_EDGE('',*,*,#504,.F.);
#643=ORIENTED_EDGE('',*,*,#505,.T.);
#644=ORIENTED_EDGE('',*,*,#504,.T.);
#645=ORIENTED_EDGE('',*,*,#506,.F.);
#646=ORIENTED_EDGE('',*,*,#496,.F.);
#647=ORIENTED_EDGE('',*,*,#507,.T.);
#648=ORIENTED_EDGE('',*,*,#508,.T.);
#649=ORIENTED_EDGE('',*,*,#509,.F.);
#650=ORIENTED_EDGE('',*,*,#510,.F.);
#651=ORIENTED_EDGE('',*,*,#511,.T.);
#652=ORIENTED_EDGE('',*,*,#510,.T.);
#653=ORIENTED_EDGE('',*,*,#512,.F.);
#654=ORIENTED_EDGE('',*,*,#513,.F.);
#655=ORIENTED_EDGE('',*,*,#514,.T.);
#656=ORIENTED_EDGE('',*,*,#513,.T.);
#657=ORIENTED_EDGE('',*,*,#515,.F.);
#658=ORIENTED_EDGE('',*,*,#516,.F.);
#659=ORIENTED_EDGE('',*,*,#517,.T.);
#660=ORIENTED_EDGE('',*,*,#516,.T.);
#661=ORIENTED_EDGE('',*,*,#518,.F.);
#662=ORIENTED_EDGE('',*,*,#508,.F.);
#663=ORIENTED_EDGE('',*,*,#519,.F.);
#664=ORIENTED_EDGE('',*,*,#520,.T.);
#665=ORIENTED_EDGE('',*,*,#521,.T.);
#666=ORIENTED_EDGE('',*,*,#520,.F.);
#667=ORIENTED_EDGE('',*,*,#522,.T.);
#668=ORIENTED_EDGE('',*,*,#523,.T.);
#669=ORIENTED_EDGE('',*,*,#524,.F.);
#670=ORIENTED_EDGE('',*,*,#525,.F.);
#671=ORIENTED_EDGE('',*,*,#526,.T.);
#672=ORIENTED_EDGE('',*,*,#525,.T.);
#673=ORIENTED_EDGE('',*,*,#527,.F.);
#674=ORIENTED_EDGE('',*,*,#528,.F.);
#675=ORIENTED_EDGE('',*,*,#529,.T.);
#676=ORIENTED_EDGE('',*,*,#528,.T.);
#677=ORIENTED_EDGE('',*,*,#530,.F.);
#678=ORIENTED_EDGE('',*,*,#531,.F.);
#679=ORIENTED_EDGE('',*,*,#532,.T.);
#680=ORIENTED_EDGE('',*,*,#531,.T.);
#681=ORIENTED_EDGE('',*,*,#533,.F.);
#682=ORIENTED_EDGE('',*,*,#523,.F.);
#683=ORIENTED_EDGE('',*,*,#534,.T.);
#684=ORIENTED_EDGE('',*,*,#535,.T.);
#685=ORIENTED_EDGE('',*,*,#536,.F.);
#686=ORIENTED_EDGE('',*,*,#537,.F.);
#687=ORIENTED_EDGE('',*,*,#538,.T.);
#688=ORIENTED_EDGE('',*,*,#537,.T.);
#689=ORIENTED_EDGE('',*,*,#539,.F.);
#690=ORIENTED_EDGE('',*,*,#540,.F.);
#691=ORIENTED_EDGE('',*,*,#541,.T.);
#692=ORIENTED_EDGE('',*,*,#540,.T.);
#693=ORIENTED_EDGE('',*,*,#542,.F.);
#694=ORIENTED_EDGE('',*,*,#543,.F.);
#695=ORIENTED_EDGE('',*,*,#544,.T.);
#696=ORIENTED_EDGE('',*,*,#543,.T.);
#697=ORIENTED_EDGE('',*,*,#545,.F.);
#698=ORIENTED_EDGE('',*,*,#535,.F.);
#699=ORIENTED_EDGE('',*,*,#546,.F.);
#700=ORIENTED_EDGE('',*,*,#547,.T.);
#701=ORIENTED_EDGE('',*,*,#548,.T.);
#702=ORIENTED_EDGE('',*,*,#547,.F.);
#703=ORIENTED_EDGE('',*,*,#549,.F.);
#704=ORIENTED_EDGE('',*,*,#550,.T.);
#705=ORIENTED_EDGE('',*,*,#551,.T.);
#706=ORIENTED_EDGE('',*,*,#550,.F.);
#707=ORIENTED_EDGE('',*,*,#552,.F.);
#708=ORIENTED_EDGE('',*,*,#553,.T.);
#709=ORIENTED_EDGE('',*,*,#554,.T.);
#710=ORIENTED_EDGE('',*,*,#553,.F.);
#711=ORIENTED_EDGE('',*,*,#555,.T.);
#712=ORIENTED_EDGE('',*,*,#556,.T.);
#713=ORIENTED_EDGE('',*,*,#557,.F.);
#714=ORIENTED_EDGE('',*,*,#558,.F.);
#715=ORIENTED_EDGE('',*,*,#559,.T.);
#716=ORIENTED_EDGE('',*,*,#558,.T.);
#717=ORIENTED_EDGE('',*,*,#560,.F.);
#718=ORIENTED_EDGE('',*,*,#561,.F.);
#719=ORIENTED_EDGE('',*,*,#562,.T.);
#720=ORIENTED_EDGE('',*,*,#561,.T.);
#721=ORIENTED_EDGE('',*,*,#563,.F.);
#722=ORIENTED_EDGE('',*,*,#564,.F.);
#723=ORIENTED_EDGE('',*,*,#565,.T.);
#724=ORIENTED_EDGE('',*,*,#564,.T.);
#725=ORIENTED_EDGE('',*,*,#566,.F.);
#726=ORIENTED_EDGE('',*,*,#556,.F.);
#727=ORIENTED_EDGE('',*,*,#566,.T.);
#728=ORIENTED_EDGE('',*,*,#563,.T.);
#729=ORIENTED_EDGE('',*,*,#560,.T.);
#730=ORIENTED_EDGE('',*,*,#557,.T.);
#731=ORIENTED_EDGE('',*,*,#552,.T.);
#732=ORIENTED_EDGE('',*,*,#549,.T.);
#733=ORIENTED_EDGE('',*,*,#546,.T.);
#734=ORIENTED_EDGE('',*,*,#545,.T.);
#735=ORIENTED_EDGE('',*,*,#542,.T.);
#736=ORIENTED_EDGE('',*,*,#539,.T.);
#737=ORIENTED_EDGE('',*,*,#536,.T.);
#738=ORIENTED_EDGE('',*,*,#533,.T.);
#739=ORIENTED_EDGE('',*,*,#530,.T.);
#740=ORIENTED_EDGE('',*,*,#527,.T.);
#741=ORIENTED_EDGE('',*,*,#524,.T.);
#742=ORIENTED_EDGE('',*,*,#519,.T.);
#743=ORIENTED_EDGE('',*,*,#518,.T.);
#744=ORIENTED_EDGE('',*,*,#515,.T.);
#745=ORIENTED_EDGE('',*,*,#512,.T.);
#746=ORIENTED_EDGE('',*,*,#509,.T.);
#747=ORIENTED_EDGE('',*,*,#506,.T.);
#748=ORIENTED_EDGE('',*,*,#503,.T.);
#749=ORIENTED_EDGE('',*,*,#500,.T.);
#750=ORIENTED_EDGE('',*,*,#497,.T.);
#751=ORIENTED_EDGE('',*,*,#494,.T.);
#752=ORIENTED_EDGE('',*,*,#491,.T.);
#753=ORIENTED_EDGE('',*,*,#488,.T.);
#754=ORIENTED_EDGE('',*,*,#485,.T.);
#755=ORIENTED_EDGE('',*,*,#482,.T.);
#756=ORIENTED_EDGE('',*,*,#479,.T.);
#757=ORIENTED_EDGE('',*,*,#476,.T.);
#758=ORIENTED_EDGE('',*,*,#473,.T.);
#759=ORIENTED_EDGE('',*,*,#470,.T.);
#760=ORIENTED_EDGE('',*,*,#467,.T.);
#761=ORIENTED_EDGE('',*,*,#464,.T.);
#762=ORIENTED_EDGE('',*,*,#461,.T.);
#763=ORIENTED_EDGE('',*,*,#458,.T.);
#764=ORIENTED_EDGE('',*,*,#455,.T.);
#765=ORIENTED_EDGE('',*,*,#452,.T.);
#766=ORIENTED_EDGE('',*,*,#449,.T.);
#767=ORIENTED_EDGE('',*,*,#565,.F.);
#768=ORIENTED_EDGE('',*,*,#555,.F.);
#769=ORIENTED_EDGE('',*,*,#559,.F.);
#770=ORIENTED_EDGE('',*,*,#562,.F.);
#771=ORIENTED_EDGE('',*,*,#554,.F.);
#772=ORIENTED_EDGE('',*,*,#551,.F.);
#773=ORIENTED_EDGE('',*,*,#548,.F.);
#774=ORIENTED_EDGE('',*,*,#544,.F.);
#775=ORIENTED_EDGE('',*,*,#534,.F.);
#776=ORIENTED_EDGE('',*,*,#538,.F.);
#777=ORIENTED_EDGE('',*,*,#541,.F.);
#778=ORIENTED_EDGE('',*,*,#532,.F.);
#779=ORIENTED_EDGE('',*,*,#522,.F.);
#780=ORIENTED_EDGE('',*,*,#526,.F.);
#781=ORIENTED_EDGE('',*,*,#529,.F.);
#782=ORIENTED_EDGE('',*,*,#521,.F.);
#783=ORIENTED_EDGE('',*,*,#517,.F.);
#784=ORIENTED_EDGE('',*,*,#507,.F.);
#785=ORIENTED_EDGE('',*,*,#511,.F.);
#786=ORIENTED_EDGE('',*,*,#514,.F.);
#787=ORIENTED_EDGE('',*,*,#505,.F.);
#788=ORIENTED_EDGE('',*,*,#495,.F.);
#789=ORIENTED_EDGE('',*,*,#499,.F.);
#790=ORIENTED_EDGE('',*,*,#502,.F.);
#791=ORIENTED_EDGE('',*,*,#493,.F.);
#792=ORIENTED_EDGE('',*,*,#483,.F.);
#793=ORIENTED_EDGE('',*,*,#487,.F.);
#794=ORIENTED_EDGE('',*,*,#490,.F.);
#795=ORIENTED_EDGE('',*,*,#481,.F.);
#796=ORIENTED_EDGE('',*,*,#471,.F.);
#797=ORIENTED_EDGE('',*,*,#475,.F.);
#798=ORIENTED_EDGE('',*,*,#478,.F.);
#799=ORIENTED_EDGE('',*,*,#469,.F.);
#800=ORIENTED_EDGE('',*,*,#459,.F.);
#801=ORIENTED_EDGE('',*,*,#463,.F.);
#802=ORIENTED_EDGE('',*,*,#466,.F.);
#803=ORIENTED_EDGE('',*,*,#457,.F.);
#804=ORIENTED_EDGE('',*,*,#447,.F.);
#805=ORIENTED_EDGE('',*,*,#451,.F.);
#806=ORIENTED_EDGE('',*,*,#454,.F.);
#807=PLANE('',#885);
#808=PLANE('',#889);
#809=PLANE('',#893);
#810=PLANE('',#897);
#811=PLANE('',#901);
#812=PLANE('',#905);
#813=PLANE('',#912);
#814=PLANE('',#916);
#815=PLANE('',#917);
#816=PLANE('',#921);
#817=PLANE('',#925);
#818=PLANE('',#929);
#819=PLANE('',#939);
#820=PLANE('',#943);
#821=PLANE('',#944);
#822=PLANE('',#948);
#823=PLANE('',#961);
#824=PLANE('',#962);
#825=PLANE('',#963);
#826=PLANE('',#964);
#827=PLANE('',#965);
#828=PLANE('',#966);
#829=ADVANCED_FACE('',(#99),#807,.T.);
#830=ADVANCED_FACE('',(#100),#79,.F.);
#831=ADVANCED_FACE('',(#101),#808,.T.);
#832=ADVANCED_FACE('',(#102),#80,.F.);
#833=ADVANCED_FACE('',(#103),#809,.T.);
#834=ADVANCED_FACE('',(#104),#81,.F.);
#835=ADVANCED_FACE('',(#105),#810,.T.);
#836=ADVANCED_FACE('',(#106),#82,.F.);
#837=ADVANCED_FACE('',(#107),#811,.T.);
#838=ADVANCED_FACE('',(#108),#83,.F.);
#839=ADVANCED_FACE('',(#109),#812,.T.);
#840=ADVANCED_FACE('',(#110),#84,.F.);
#841=ADVANCED_FACE('',(#111),#85,.F.);
#842=ADVANCED_FACE('',(#112),#813,.T.);
#843=ADVANCED_FACE('',(#113),#86,.F.);
#844=ADVANCED_FACE('',(#114),#814,.T.);
#845=ADVANCED_FACE('',(#115),#815,.T.);
#846=ADVANCED_FACE('',(#116),#87,.F.);
#847=ADVANCED_FACE('',(#117),#816,.T.);
#848=ADVANCED_FACE('',(#118),#88,.F.);
#849=ADVANCED_FACE('',(#119),#817,.T.);
#850=ADVANCED_FACE('',(#120),#89,.F.);
#851=ADVANCED_FACE('',(#121),#818,.T.);
#852=ADVANCED_FACE('',(#122),#90,.F.);
#853=ADVANCED_FACE('',(#123),#91,.F.);
#854=ADVANCED_FACE('',(#124),#92,.F.);
#855=ADVANCED_FACE('',(#125),#819,.T.);
#856=ADVANCED_FACE('',(#126),#93,.F.);
#857=ADVANCED_FACE('',(#127),#820,.T.);
#858=ADVANCED_FACE('',(#128),#821,.T.);
#859=ADVANCED_FACE('',(#129),#94,.F.);
#860=ADVANCED_FACE('',(#130),#822,.T.);
#861=ADVANCED_FACE('',(#131),#95,.F.);
#862=ADVANCED_FACE('',(#132),#96,.F.);
#863=ADVANCED_FACE('',(#133),#97,.F.);
#864=ADVANCED_FACE('',(#134),#98,.F.);
#865=ADVANCED_FACE('',(#135),#823,.T.);
#866=ADVANCED_FACE('',(#136),#824,.T.);
#867=ADVANCED_FACE('',(#137),#825,.T.);
#868=ADVANCED_FACE('',(#138),#826,.T.);
#869=ADVANCED_FACE('',(#139,#15,#16,#17,#18,#19,#20,#21,#22,#23,#24,#25,
#26),#827,.T.);
#870=ADVANCED_FACE('',(#140,#27,#28,#29,#30,#31,#32,#33,#34,#35,#36,#37,
#38),#828,.F.);
#871=CLOSED_SHELL('',(#829,#830,#831,#832,#833,#834,#835,#836,#837,#838,
#839,#840,#841,#842,#843,#844,#845,#846,#847,#848,#849,#850,#851,#852,#853,
#854,#855,#856,#857,#858,#859,#860,#861,#862,#863,#864,#865,#866,#867,#868,
#869,#870));
#872=DERIVED_UNIT_ELEMENT(#874,1.);
#873=DERIVED_UNIT_ELEMENT(#1461,-3.);
#874=(
MASS_UNIT()
NAMED_UNIT(*)
SI_UNIT(.KILO.,.GRAM.)
);
#875=DERIVED_UNIT((#872,#873));
#876=MEASURE_REPRESENTATION_ITEM('density measure',
POSITIVE_RATIO_MEASURE(7850.),#875);
#877=PROPERTY_DEFINITION_REPRESENTATION(#882,#879);
#878=PROPERTY_DEFINITION_REPRESENTATION(#883,#880);
#879=REPRESENTATION('material name',(#881),#1458);
#880=REPRESENTATION('density',(#876),#1458);
#881=DESCRIPTIVE_REPRESENTATION_ITEM('Stal','Stal');
#882=PROPERTY_DEFINITION('material property','material name',#1468);
#883=PROPERTY_DEFINITION('material property','density of part',#1468);
#884=AXIS2_PLACEMENT_3D('',#1213,#967,#968);
#885=AXIS2_PLACEMENT_3D('',#1214,#969,#970);
#886=AXIS2_PLACEMENT_3D('',#1223,#975,#976);
#887=AXIS2_PLACEMENT_3D('',#1225,#977,#978);
#888=AXIS2_PLACEMENT_3D('',#1227,#979,#980);
#889=AXIS2_PLACEMENT_3D('',#1229,#982,#983);
#890=AXIS2_PLACEMENT_3D('',#1235,#987,#988);
#891=AXIS2_PLACEMENT_3D('',#1236,#989,#990);
#892=AXIS2_PLACEMENT_3D('',#1237,#991,#992);
#893=AXIS2_PLACEMENT_3D('',#1238,#993,#994);
#894=AXIS2_PLACEMENT_3D('',#1247,#999,#1000);
#895=AXIS2_PLACEMENT_3D('',#1249,#1001,#1002);
#896=AXIS2_PLACEMENT_3D('',#1251,#1003,#1004);
#897=AXIS2_PLACEMENT_3D('',#1253,#1006,#1007);
#898=AXIS2_PLACEMENT_3D('',#1259,#1011,#1012);
#899=AXIS2_PLACEMENT_3D('',#1260,#1013,#1014);
#900=AXIS2_PLACEMENT_3D('',#1261,#1015,#1016);
#901=AXIS2_PLACEMENT_3D('',#1262,#1017,#1018);
#902=AXIS2_PLACEMENT_3D('',#1271,#1023,#1024);
#903=AXIS2_PLACEMENT_3D('',#1273,#1025,#1026);
#904=AXIS2_PLACEMENT_3D('',#1275,#1027,#1028);
#905=AXIS2_PLACEMENT_3D('',#1277,#1030,#1031);
#906=AXIS2_PLACEMENT_3D('',#1283,#1035,#1036);
#907=AXIS2_PLACEMENT_3D('',#1284,#1037,#1038);
#908=AXIS2_PLACEMENT_3D('',#1285,#1039,#1040);
#909=AXIS2_PLACEMENT_3D('',#1286,#1041,#1042);
#910=AXIS2_PLACEMENT_3D('',#1289,#1043,#1044);
#911=AXIS2_PLACEMENT_3D('',#1293,#1046,#1047);
#912=AXIS2_PLACEMENT_3D('',#1295,#1049,#1050);
#913=AXIS2_PLACEMENT_3D('',#1301,#1054,#1055);
#914=AXIS2_PLACEMENT_3D('',#1303,#1056,#1057);
#915=AXIS2_PLACEMENT_3D('',#1305,#1058,#1059);
#916=AXIS2_PLACEMENT_3D('',#1307,#1061,#1062);
#917=AXIS2_PLACEMENT_3D('',#1310,#1065,#1066);
#918=AXIS2_PLACEMENT_3D('',#1319,#1071,#1072);
#919=AXIS2_PLACEMENT_3D('',#1321,#1073,#1074);
#920=AXIS2_PLACEMENT_3D('',#1323,#1075,#1076);
#921=AXIS2_PLACEMENT_3D('',#1325,#1078,#1079);
#922=AXIS2_PLACEMENT_3D('',#1331,#1083,#1084);
#923=AXIS2_PLACEMENT_3D('',#1332,#1085,#1086);
#924=AXIS2_PLACEMENT_3D('',#1333,#1087,#1088);
#925=AXIS2_PLACEMENT_3D('',#1334,#1089,#1090);
#926=AXIS2_PLACEMENT_3D('',#1343,#1095,#1096);
#927=AXIS2_PLACEMENT_3D('',#1345,#1097,#1098);
#928=AXIS2_PLACEMENT_3D('',#1347,#1099,#1100);
#929=AXIS2_PLACEMENT_3D('',#1349,#1102,#1103);
#930=AXIS2_PLACEMENT_3D('',#1355,#1107,#1108);
#931=AXIS2_PLACEMENT_3D('',#1356,#1109,#1110);
#932=AXIS2_PLACEMENT_3D('',#1357,#1111,#1112);
#933=AXIS2_PLACEMENT_3D('',#1358,#1113,#1114);
#934=AXIS2_PLACEMENT_3D('',#1360,#1115,#1116);
#935=AXIS2_PLACEMENT_3D('',#1363,#1118,#1119);
#936=AXIS2_PLACEMENT_3D('',#1364,#1120,#1121);
#937=AXIS2_PLACEMENT_3D('',#1367,#1122,#1123);
#938=AXIS2_PLACEMENT_3D('',#1371,#1125,#1126);
#939=AXIS2_PLACEMENT_3D('',#1373,#1128,#1129);
#940=AXIS2_PLACEMENT_3D('',#1379,#1133,#1134);
#941=AXIS2_PLACEMENT_3D('',#1381,#1135,#1136);
#942=AXIS2_PLACEMENT_3D('',#1383,#1137,#1138);
#943=AXIS2_PLACEMENT_3D('',#1385,#1140,#1141);
#944=AXIS2_PLACEMENT_3D('',#1388,#1144,#1145);
#945=AXIS2_PLACEMENT_3D('',#1397,#1150,#1151);
#946=AXIS2_PLACEMENT_3D('',#1399,#1152,#1153);
#947=AXIS2_PLACEMENT_3D('',#1401,#1154,#1155);
#948=AXIS2_PLACEMENT_3D('',#1403,#1157,#1158);
#949=AXIS2_PLACEMENT_3D('',#1409,#1162,#1163);
#950=AXIS2_PLACEMENT_3D('',#1410,#1164,#1165);
#951=AXIS2_PLACEMENT_3D('',#1411,#1166,#1167);
#952=AXIS2_PLACEMENT_3D('',#1412,#1168,#1169);
#953=AXIS2_PLACEMENT_3D('',#1414,#1170,#1171);
#954=AXIS2_PLACEMENT_3D('',#1417,#1173,#1174);
#955=AXIS2_PLACEMENT_3D('',#1418,#1175,#1176);
#956=AXIS2_PLACEMENT_3D('',#1420,#1177,#1178);
#957=AXIS2_PLACEMENT_3D('',#1423,#1180,#1181);
#958=AXIS2_PLACEMENT_3D('',#1424,#1182,#1183);
#959=AXIS2_PLACEMENT_3D('',#1426,#1184,#1185);
#960=AXIS2_PLACEMENT_3D('',#1429,#1187,#1188);
#961=AXIS2_PLACEMENT_3D('',#1430,#1189,#1190);
#962=AXIS2_PLACEMENT_3D('',#1439,#1195,#1196);
#963=AXIS2_PLACEMENT_3D('',#1445,#1200,#1201);
#964=AXIS2_PLACEMENT_3D('',#1451,#1205,#1206);
#965=AXIS2_PLACEMENT_3D('',#1454,#1209,#1210);
#966=AXIS2_PLACEMENT_3D('',#1455,#1211,#1212);
#967=DIRECTION('axis',(0.,0.,1.));
#968=DIRECTION('refdir',(1.,0.,0.));
#969=DIRECTION('center_axis',(1.,-5.1044736764375E-16,0.));
#970=DIRECTION('ref_axis',(5.1044736764375E-16,1.,0.));
#971=DIRECTION('',(5.1044736764375E-16,1.,0.));
#972=DIRECTION('',(0.,0.,1.));
#973=DIRECTION('',(5.1044736764375E-16,1.,0.));
#974=DIRECTION('',(0.,0.,1.));
#975=DIRECTION('center_axis',(0.,0.,1.));
#976=DIRECTION('ref_axis',(-1.,0.,0.));
#977=DIRECTION('center_axis',(0.,0.,-1.));
#978=DIRECTION('ref_axis',(-1.,0.,0.));
#979=DIRECTION('center_axis',(0.,0.,-1.));
#980=DIRECTION('ref_axis',(-1.,0.,0.));
#981=DIRECTION('',(0.,0.,1.));
#982=DIRECTION('center_axis',(-0.999999999999999,-4.90282455757877E-8,0.));
#983=DIRECTION('ref_axis',(4.90282455757877E-8,-0.999999999999999,0.));
#984=DIRECTION('',(4.90282455757877E-8,-0.999999999999999,0.));
#985=DIRECTION('',(4.90282455757877E-8,-0.999999999999999,0.));
#986=DIRECTION('',(0.,0.,1.));
#987=DIRECTION('center_axis',(0.,0.,1.));
#988=DIRECTION('ref_axis',(1.,0.,0.));
#989=DIRECTION('center_axis',(0.,0.,-1.));
#990=DIRECTION('ref_axis',(1.,0.,0.));
#991=DIRECTION('center_axis',(0.,0.,-1.));
#992=DIRECTION('ref_axis',(1.,0.,0.));
#993=DIRECTION('center_axis',(1.,-5.1044736764375E-16,0.));
#994=DIRECTION('ref_axis',(5.1044736764375E-16,1.,0.));
#995=DIRECTION('',(5.1044736764375E-16,1.,0.));
#996=DIRECTION('',(0.,0.,1.));
#997=DIRECTION('',(5.1044736764375E-16,1.,0.));
#998=DIRECTION('',(0.,0.,1.));
#999=DIRECTION('center_axis',(0.,0.,1.));
#1000=DIRECTION('ref_axis',(-1.,0.,0.));
#1001=DIRECTION('center_axis',(0.,0.,-1.));
#1002=DIRECTION('ref_axis',(-1.,0.,0.));
#1003=DIRECTION('center_axis',(0.,0.,-1.));
#1004=DIRECTION('ref_axis',(-1.,0.,0.));
#1005=DIRECTION('',(0.,0.,1.));
#1006=DIRECTION('center_axis',(-0.999999999999999,-4.90282455757877E-8,
0.));
#1007=DIRECTION('ref_axis',(4.90282455757877E-8,-0.999999999999999,0.));
#1008=DIRECTION('',(4.90282455757877E-8,-0.999999999999999,0.));
#1009=DIRECTION('',(4.90282455757877E-8,-0.999999999999999,0.));
#1010=DIRECTION('',(0.,0.,1.));
#1011=DIRECTION('center_axis',(0.,0.,1.));
#1012=DIRECTION('ref_axis',(1.,0.,0.));
#1013=DIRECTION('center_axis',(0.,0.,-1.));
#1014=DIRECTION('ref_axis',(1.,0.,0.));
#1015=DIRECTION('center_axis',(0.,0.,-1.));
#1016=DIRECTION('ref_axis',(1.,0.,0.));
#1017=DIRECTION('center_axis',(1.,-5.1044736764375E-16,0.));
#1018=DIRECTION('ref_axis',(5.1044736764375E-16,1.,0.));
#1019=DIRECTION('',(5.1044736764375E-16,1.,0.));
#1020=DIRECTION('',(0.,0.,1.));
#1021=DIRECTION('',(5.1044736764375E-16,1.,0.));
#1022=DIRECTION('',(0.,0.,1.));
#1023=DIRECTION('center_axis',(0.,0.,1.));
#1024=DIRECTION('ref_axis',(-1.,0.,0.));
#1025=DIRECTION('center_axis',(0.,0.,-1.));
#1026=DIRECTION('ref_axis',(-1.,0.,0.));
#1027=DIRECTION('center_axis',(0.,0.,-1.));
#1028=DIRECTION('ref_axis',(-1.,0.,0.));
#1029=DIRECTION('',(0.,0.,1.));
#1030=DIRECTION('center_axis',(-0.999999999999999,-4.90282455757877E-8,
0.));
#1031=DIRECTION('ref_axis',(4.90282455757877E-8,-0.999999999999999,0.));
#1032=DIRECTION('',(4.90282455757877E-8,-0.999999999999999,0.));
#1033=DIRECTION('',(4.90282455757877E-8,-0.999999999999999,0.));
#1034=DIRECTION('',(0.,0.,1.));
#1035=DIRECTION('center_axis',(0.,0.,1.));
#1036=DIRECTION('ref_axis',(1.,0.,0.));
#1037=DIRECTION('center_axis',(0.,0.,-1.));
#1038=DIRECTION('ref_axis',(1.,0.,0.));
#1039=DIRECTION('center_axis',(0.,0.,-1.));
#1040=DIRECTION('ref_axis',(1.,0.,0.));
#1041=DIRECTION('center_axis',(0.,0.,1.));
#1042=DIRECTION('ref_axis',(-1.,0.,0.));
#1043=DIRECTION('center_axis',(0.,0.,-1.));
#1044=DIRECTION('ref_axis',(-1.,0.,0.));
#1045=DIRECTION('',(0.,0.,1.));
#1046=DIRECTION('center_axis',(0.,0.,-1.));
#1047=DIRECTION('ref_axis',(-1.,0.,0.));
#1048=DIRECTION('',(0.,0.,1.));
#1049=DIRECTION('center_axis',(-0.999999999999999,-4.90282455757877E-8,
0.));
#1050=DIRECTION('ref_axis',(4.90282455757877E-8,-0.999999999999999,0.));
#1051=DIRECTION('',(4.90282455757877E-8,-0.999999999999999,0.));
#1052=DIRECTION('',(4.90282455757877E-8,-0.999999999999999,0.));
#1053=DIRECTION('',(0.,0.,1.));
#1054=DIRECTION('center_axis',(0.,0.,1.));
#1055=DIRECTION('ref_axis',(1.,0.,0.));
#1056=DIRECTION('center_axis',(0.,0.,-1.));
#1057=DIRECTION('ref_axis',(1.,0.,0.));
#1058=DIRECTION('center_axis',(0.,0.,-1.));
#1059=DIRECTION('ref_axis',(1.,0.,0.));
#1060=DIRECTION('',(0.,0.,1.));
#1061=DIRECTION('center_axis',(1.,-5.1044736764375E-16,0.));
#1062=DIRECTION('ref_axis',(5.1044736764375E-16,1.,0.));
#1063=DIRECTION('',(5.1044736764375E-16,1.,0.));
#1064=DIRECTION('',(5.1044736764375E-16,1.,0.));
#1065=DIRECTION('center_axis',(1.,-5.1044736764375E-16,0.));
#1066=DIRECTION('ref_axis',(5.1044736764375E-16,1.,0.));
#1067=DIRECTION('',(5.1044736764375E-16,1.,0.));
#1068=DIRECTION('',(0.,0.,1.));
#1069=DIRECTION('',(5.1044736764375E-16,1.,0.));
#1070=DIRECTION('',(0.,0.,1.));
#1071=DIRECTION('center_axis',(0.,0.,1.));
#1072=DIRECTION('ref_axis',(-1.,0.,0.));
#1073=DIRECTION('center_axis',(0.,0.,-1.));
#1074=DIRECTION('ref_axis',(-1.,0.,0.));
#1075=DIRECTION('center_axis',(0.,0.,-1.));
#1076=DIRECTION('ref_axis',(-1.,0.,0.));
#1077=DIRECTION('',(0.,0.,1.));
#1078=DIRECTION('center_axis',(-0.999999999999999,-4.90282455757877E-8,
0.));
#1079=DIRECTION('ref_axis',(4.90282455757877E-8,-0.999999999999999,0.));
#1080=DIRECTION('',(4.90282455757877E-8,-0.999999999999999,0.));
#1081=DIRECTION('',(4.90282455757877E-8,-0.999999999999999,0.));
#1082=DIRECTION('',(0.,0.,1.));
#1083=DIRECTION('center_axis',(0.,0.,1.));
#1084=DIRECTION('ref_axis',(1.,0.,0.));
#1085=DIRECTION('center_axis',(0.,0.,-1.));
#1086=DIRECTION('ref_axis',(1.,0.,0.));
#1087=DIRECTION('center_axis',(0.,0.,-1.));
#1088=DIRECTION('ref_axis',(1.,0.,0.));
#1089=DIRECTION('center_axis',(1.,-5.1044736764375E-16,0.));
#1090=DIRECTION('ref_axis',(5.1044736764375E-16,1.,0.));
#1091=DIRECTION('',(5.1044736764375E-16,1.,0.));
#1092=DIRECTION('',(0.,0.,1.));
#1093=DIRECTION('',(5.1044736764375E-16,1.,0.));
#1094=DIRECTION('',(0.,0.,1.));
#1095=DIRECTION('center_axis',(0.,0.,1.));
#1096=DIRECTION('ref_axis',(-1.,0.,0.));
#1097=DIRECTION('center_axis',(0.,0.,-1.));
#1098=DIRECTION('ref_axis',(-1.,0.,0.));
#1099=DIRECTION('center_axis',(0.,0.,-1.));
#1100=DIRECTION('ref_axis',(-1.,0.,0.));
#1101=DIRECTION('',(0.,0.,1.));
#1102=DIRECTION('center_axis',(-0.999999999999999,-4.90282455757877E-8,
0.));
#1103=DIRECTION('ref_axis',(4.90282455757877E-8,-0.999999999999999,0.));
#1104=DIRECTION('',(4.90282455757877E-8,-0.999999999999999,0.));
#1105=DIRECTION('',(4.90282455757877E-8,-0.999999999999999,0.));
#1106=DIRECTION('',(0.,0.,1.));
#1107=DIRECTION('center_axis',(0.,0.,1.));
#1108=DIRECTION('ref_axis',(1.,0.,0.));
#1109=DIRECTION('center_axis',(0.,0.,-1.));
#1110=DIRECTION('ref_axis',(1.,0.,0.));
#1111=DIRECTION('center_axis',(0.,0.,-1.));
#1112=DIRECTION('ref_axis',(1.,0.,0.));
#1113=DIRECTION('center_axis',(0.,0.,1.));
#1114=DIRECTION('ref_axis',(1.,0.,0.));
#1115=DIRECTION('center_axis',(0.,0.,-1.));
#1116=DIRECTION('ref_axis',(1.,0.,0.));
#1117=DIRECTION('',(0.,0.,-1.));
#1118=DIRECTION('center_axis',(0.,0.,-1.));
#1119=DIRECTION('ref_axis',(1.,0.,0.));
#1120=DIRECTION('center_axis',(0.,0.,1.));
#1121=DIRECTION('ref_axis',(-1.,0.,0.));
#1122=DIRECTION('center_axis',(0.,0.,-1.));
#1123=DIRECTION('ref_axis',(-1.,0.,0.));
#1124=DIRECTION('',(0.,0.,1.));
#1125=DIRECTION('center_axis',(0.,0.,-1.));
#1126=DIRECTION('ref_axis',(-1.,0.,0.));
#1127=DIRECTION('',(0.,0.,1.));
#1128=DIRECTION('center_axis',(-1.,-7.65671051465624E-16,0.));
#1129=DIRECTION('ref_axis',(7.65671051465624E-16,-1.,0.));
#1130=DIRECTION('',(7.65671051465624E-16,-1.,0.));
#1131=DIRECTION('',(7.65671051465624E-16,-1.,0.));
#1132=DIRECTION('',(0.,0.,1.));
#1133=DIRECTION('center_axis',(0.,0.,1.));
#1134=DIRECTION('ref_axis',(1.,0.,0.));
#1135=DIRECTION('center_axis',(0.,0.,-1.));
#1136=DIRECTION('ref_axis',(1.,0.,0.));
#1137=DIRECTION('center_axis',(0.,0.,-1.));
#1138=DIRECTION('ref_axis',(1.,0.,0.));
#1139=DIRECTION('',(0.,0.,1.));
#1140=DIRECTION('center_axis',(1.,-2.55223683821875E-16,0.));
#1141=DIRECTION('ref_axis',(2.55223683821875E-16,1.,0.));
#1142=DIRECTION('',(2.55223683821875E-16,1.,0.));
#1143=DIRECTION('',(2.55223683821875E-16,1.,0.));
#1144=DIRECTION('center_axis',(1.,-5.1044736764375E-16,0.));
#1145=DIRECTION('ref_axis',(5.1044736764375E-16,1.,0.));
#1146=DIRECTION('',(5.1044736764375E-16,1.,0.));
#1147=DIRECTION('',(0.,0.,1.));
#1148=DIRECTION('',(5.1044736764375E-16,1.,0.));
#1149=DIRECTION('',(0.,0.,1.));
#1150=DIRECTION('center_axis',(0.,0.,1.));
#1151=DIRECTION('ref_axis',(-1.,0.,0.));
#1152=DIRECTION('center_axis',(0.,0.,-1.));
#1153=DIRECTION('ref_axis',(-1.,0.,0.));
#1154=DIRECTION('center_axis',(0.,0.,-1.));
#1155=DIRECTION('ref_axis',(-1.,0.,0.));
#1156=DIRECTION('',(0.,0.,1.));
#1157=DIRECTION('center_axis',(-0.999999999999999,-4.90282455757877E-8,
0.));
#1158=DIRECTION('ref_axis',(4.90282455757877E-8,-0.999999999999999,0.));
#1159=DIRECTION('',(4.90282455757877E-8,-0.999999999999999,0.));
#1160=DIRECTION('',(4.90282455757877E-8,-0.999999999999999,0.));
#1161=DIRECTION('',(0.,0.,1.));
#1162=DIRECTION('center_axis',(0.,0.,1.));
#1163=DIRECTION('ref_axis',(1.,0.,0.));
#1164=DIRECTION('center_axis',(0.,0.,-1.));
#1165=DIRECTION('ref_axis',(1.,0.,0.));
#1166=DIRECTION('center_axis',(0.,0.,-1.));
#1167=DIRECTION('ref_axis',(1.,0.,0.));
#1168=DIRECTION('center_axis',(0.,0.,1.));
#1169=DIRECTION('ref_axis',(1.,0.,0.));
#1170=DIRECTION('center_axis',(0.,0.,-1.));
#1171=DIRECTION('ref_axis',(1.,0.,0.));
#1172=DIRECTION('',(0.,0.,-1.));
#1173=DIRECTION('center_axis',(0.,0.,-1.));
#1174=DIRECTION('ref_axis',(1.,0.,0.));
#1175=DIRECTION('center_axis',(0.,0.,1.));
#1176=DIRECTION('ref_axis',(1.,0.,0.));
#1177=DIRECTION('center_axis',(0.,0.,-1.));
#1178=DIRECTION('ref_axis',(1.,0.,0.));
#1179=DIRECTION('',(0.,0.,-1.));
#1180=DIRECTION('center_axis',(0.,0.,-1.));
#1181=DIRECTION('ref_axis',(1.,0.,0.));
#1182=DIRECTION('center_axis',(0.,0.,1.));
#1183=DIRECTION('ref_axis',(1.,0.,0.));
#1184=DIRECTION('center_axis',(0.,0.,-1.));
#1185=DIRECTION('ref_axis',(1.,0.,0.));
#1186=DIRECTION('',(0.,0.,-1.));
#1187=DIRECTION('center_axis',(0.,0.,-1.));
#1188=DIRECTION('ref_axis',(1.,0.,0.));
#1189=DIRECTION('center_axis',(0.,1.,0.));
#1190=DIRECTION('ref_axis',(-1.,0.,0.));
#1191=DIRECTION('',(-1.,0.,0.));
#1192=DIRECTION('',(0.,0.,1.));
#1193=DIRECTION('',(-1.,0.,0.));
#1194=DIRECTION('',(0.,0.,1.));
#1195=DIRECTION('center_axis',(1.,0.,0.));
#1196=DIRECTION('ref_axis',(0.,1.,0.));
#1197=DIRECTION('',(0.,1.,0.));
#1198=DIRECTION('',(0.,1.,0.));
#1199=DIRECTION('',(0.,0.,1.));
#1200=DIRECTION('center_axis',(0.,-1.,0.));
#1201=DIRECTION('ref_axis',(1.,0.,0.));
#1202=DIRECTION('',(1.,0.,0.));
#1203=DIRECTION('',(1.,0.,0.));
#1204=DIRECTION('',(0.,0.,1.));
#1205=DIRECTION('center_axis',(-1.,0.,0.));
#1206=DIRECTION('ref_axis',(0.,-1.,0.));
#1207=DIRECTION('',(0.,-1.,0.));
#1208=DIRECTION('',(0.,-1.,0.));
#1209=DIRECTION('center_axis',(0.,0.,1.));
#1210=DIRECTION('ref_axis',(1.,0.,0.));
#1211=DIRECTION('center_axis',(0.,0.,1.));
#1212=DIRECTION('ref_axis',(1.,0.,0.));
#1213=CARTESIAN_POINT('',(0.,0.,0.));
#1214=CARTESIAN_POINT('Origin',(124.4,151.2,0.));
#1215=CARTESIAN_POINT('',(124.4,151.2,0.));
#1216=CARTESIAN_POINT('',(124.4,186.,0.));
#1217=CARTESIAN_POINT('',(124.4,186.,0.));
#1218=CARTESIAN_POINT('',(124.4,186.,3.));
#1219=CARTESIAN_POINT('',(124.4,186.,0.));
#1220=CARTESIAN_POINT('',(124.4,151.2,3.));
#1221=CARTESIAN_POINT('',(124.4,186.,3.));
#1222=CARTESIAN_POINT('',(124.4,151.2,0.));
#1223=CARTESIAN_POINT('Origin',(126.5,151.2,0.));
#1224=CARTESIAN_POINT('',(128.600001706183,151.2,0.));
#1225=CARTESIAN_POINT('Origin',(126.5,151.2,0.));
#1226=CARTESIAN_POINT('',(128.600001706183,151.2,3.));
#1227=CARTESIAN_POINT('Origin',(126.5,151.2,3.));
#1228=CARTESIAN_POINT('',(128.600001706183,151.2,0.));
#1229=CARTESIAN_POINT('Origin',(128.6,186.,0.));
#1230=CARTESIAN_POINT('',(128.6,186.,0.));
#1231=CARTESIAN_POINT('',(128.6,186.,0.));
#1232=CARTESIAN_POINT('',(128.6,186.,3.));
#1233=CARTESIAN_POINT('',(128.6,186.,3.));
#1234=CARTESIAN_POINT('',(128.6,186.,0.));
#1235=CARTESIAN_POINT('Origin',(126.5,186.,0.));
#1236=CARTESIAN_POINT('Origin',(126.5,186.,0.));
#1237=CARTESIAN_POINT('Origin',(126.5,186.,3.));
#1238=CARTESIAN_POINT('Origin',(114.4,151.2,0.));
#1239=CARTESIAN_POINT('',(114.4,151.2,0.));
#1240=CARTESIAN_POINT('',(114.4,186.,0.));
#1241=CARTESIAN_POINT('',(114.4,186.,0.));
#1242=CARTESIAN_POINT('',(114.4,186.,3.));
#1243=CARTESIAN_POINT('',(114.4,186.,0.));
#1244=CARTESIAN_POINT('',(114.4,151.2,3.));
#1245=CARTESIAN_POINT('',(114.4,186.,3.));
#1246=CARTESIAN_POINT('',(114.4,151.2,0.));
#1247=CARTESIAN_POINT('Origin',(116.5,151.2,0.));
#1248=CARTESIAN_POINT('',(118.6,151.2,0.));
#1249=CARTESIAN_POINT('Origin',(116.5,151.2,0.));
#1250=CARTESIAN_POINT('',(118.6,151.2,3.));
#1251=CARTESIAN_POINT('Origin',(116.5,151.2,3.));
#1252=CARTESIAN_POINT('',(118.6,151.2,0.));
#1253=CARTESIAN_POINT('Origin',(118.6,186.,0.));
#1254=CARTESIAN_POINT('',(118.6,186.,0.));
#1255=CARTESIAN_POINT('',(118.6,186.,0.));
#1256=CARTESIAN_POINT('',(118.6,186.,3.));
#1257=CARTESIAN_POINT('',(118.6,186.,3.));
#1258=CARTESIAN_POINT('',(118.6,186.,0.));
#1259=CARTESIAN_POINT('Origin',(116.5,186.,0.));
#1260=CARTESIAN_POINT('Origin',(116.5,186.,0.));
#1261=CARTESIAN_POINT('Origin',(116.5,186.,3.));
#1262=CARTESIAN_POINT('Origin',(74.4,151.2,0.));
#1263=CARTESIAN_POINT('',(74.4,151.2,0.));
#1264=CARTESIAN_POINT('',(74.4,186.,0.));
#1265=CARTESIAN_POINT('',(74.4,186.,0.));
#1266=CARTESIAN_POINT('',(74.4,186.,3.));
#1267=CARTESIAN_POINT('',(74.4,186.,0.));
#1268=CARTESIAN_POINT('',(74.4,151.2,3.));
#1269=CARTESIAN_POINT('',(74.4,186.,3.));
#1270=CARTESIAN_POINT('',(74.4,151.2,0.));
#1271=CARTESIAN_POINT('Origin',(76.5,151.2,0.));
#1272=CARTESIAN_POINT('',(78.6,151.2,0.));
#1273=CARTESIAN_POINT('Origin',(76.5,151.2,0.));
#1274=CARTESIAN_POINT('',(78.6,151.2,3.));
#1275=CARTESIAN_POINT('Origin',(76.5,151.2,3.));
#1276=CARTESIAN_POINT('',(78.6,151.2,0.));
#1277=CARTESIAN_POINT('Origin',(78.6,186.,0.));
#1278=CARTESIAN_POINT('',(78.6,186.,0.));
#1279=CARTESIAN_POINT('',(78.6,186.,0.));
#1280=CARTESIAN_POINT('',(78.6,186.,3.));
#1281=CARTESIAN_POINT('',(78.6,186.,3.));
#1282=CARTESIAN_POINT('',(78.6,186.,0.));
#1283=CARTESIAN_POINT('Origin',(76.5,186.,0.));
#1284=CARTESIAN_POINT('Origin',(76.5,186.,0.));
#1285=CARTESIAN_POINT('Origin',(76.5,186.,3.));
#1286=CARTESIAN_POINT('Origin',(136.5,151.2,0.));
#1287=CARTESIAN_POINT('',(138.600001706183,151.2,0.));
#1288=CARTESIAN_POINT('',(134.4,151.2,0.));
#1289=CARTESIAN_POINT('Origin',(136.5,151.2,0.));
#1290=CARTESIAN_POINT('',(134.4,151.2,3.));
#1291=CARTESIAN_POINT('',(134.4,151.2,0.));
#1292=CARTESIAN_POINT('',(138.600001706183,151.2,3.));
#1293=CARTESIAN_POINT('Origin',(136.5,151.2,3.));
#1294=CARTESIAN_POINT('',(138.600001706183,151.2,0.));
#1295=CARTESIAN_POINT('Origin',(138.6,186.,0.));
#1296=CARTESIAN_POINT('',(138.6,186.,0.));
#1297=CARTESIAN_POINT('',(138.6,186.,0.));
#1298=CARTESIAN_POINT('',(138.6,186.,3.));
#1299=CARTESIAN_POINT('',(138.6,186.,3.));
#1300=CARTESIAN_POINT('',(138.6,186.,0.));
#1301=CARTESIAN_POINT('Origin',(136.5,186.,0.));
#1302=CARTESIAN_POINT('',(134.4,186.,0.));
#1303=CARTESIAN_POINT('Origin',(136.5,186.,0.));
#1304=CARTESIAN_POINT('',(134.4,186.,3.));
#1305=CARTESIAN_POINT('Origin',(136.5,186.,3.));
#1306=CARTESIAN_POINT('',(134.4,186.,0.));
#1307=CARTESIAN_POINT('Origin',(134.4,151.2,0.));
#1308=CARTESIAN_POINT('',(134.4,186.,0.));
#1309=CARTESIAN_POINT('',(134.4,186.,3.));
#1310=CARTESIAN_POINT('Origin',(94.4,151.2,0.));
#1311=CARTESIAN_POINT('',(94.4,151.2,0.));
#1312=CARTESIAN_POINT('',(94.4,186.,0.));
#1313=CARTESIAN_POINT('',(94.4,186.,0.));
#1314=CARTESIAN_POINT('',(94.4,186.,3.));
#1315=CARTESIAN_POINT('',(94.4,186.,0.));
#1316=CARTESIAN_POINT('',(94.4,151.2,3.));
#1317=CARTESIAN_POINT('',(94.4,186.,3.));
#1318=CARTESIAN_POINT('',(94.4,151.2,0.));
#1319=CARTESIAN_POINT('Origin',(96.5,151.2,0.));
#1320=CARTESIAN_POINT('',(98.6,151.2,0.));
#1321=CARTESIAN_POINT('Origin',(96.5,151.2,0.));
#1322=CARTESIAN_POINT('',(98.6,151.2,3.));
#1323=CARTESIAN_POINT('Origin',(96.5,151.2,3.));
#1324=CARTESIAN_POINT('',(98.6,151.2,0.));
#1325=CARTESIAN_POINT('Origin',(98.6,186.,0.));
#1326=CARTESIAN_POINT('',(98.6,186.,0.));
#1327=CARTESIAN_POINT('',(98.6,186.,0.));
#1328=CARTESIAN_POINT('',(98.6,186.,3.));
#1329=CARTESIAN_POINT('',(98.6,186.,3.));
#1330=CARTESIAN_POINT('',(98.6,186.,0.));
#1331=CARTESIAN_POINT('Origin',(96.5,186.,0.));
#1332=CARTESIAN_POINT('Origin',(96.5,186.,0.));
#1333=CARTESIAN_POINT('Origin',(96.5,186.,3.));
#1334=CARTESIAN_POINT('Origin',(84.4,151.2,0.));
#1335=CARTESIAN_POINT('',(84.4,151.2,0.));
#1336=CARTESIAN_POINT('',(84.4,186.,0.));
#1337=CARTESIAN_POINT('',(84.4,186.,0.));
#1338=CARTESIAN_POINT('',(84.4,186.,3.));
#1339=CARTESIAN_POINT('',(84.4,186.,0.));
#1340=CARTESIAN_POINT('',(84.4,151.2,3.));
#1341=CARTESIAN_POINT('',(84.4,186.,3.));
#1342=CARTESIAN_POINT('',(84.4,151.2,0.));
#1343=CARTESIAN_POINT('Origin',(86.5,151.2,0.));
#1344=CARTESIAN_POINT('',(88.6,151.2,0.));
#1345=CARTESIAN_POINT('Origin',(86.5,151.2,0.));
#1346=CARTESIAN_POINT('',(88.6,151.2,3.));
#1347=CARTESIAN_POINT('Origin',(86.5,151.2,3.));
#1348=CARTESIAN_POINT('',(88.6,151.2,0.));
#1349=CARTESIAN_POINT('Origin',(88.6,186.,0.));
#1350=CARTESIAN_POINT('',(88.6,186.,0.));
#1351=CARTESIAN_POINT('',(88.6,186.,0.));
#1352=CARTESIAN_POINT('',(88.6,186.,3.));
#1353=CARTESIAN_POINT('',(88.6,186.,3.));
#1354=CARTESIAN_POINT('',(88.6,186.,0.));
#1355=CARTESIAN_POINT('Origin',(86.5,186.,0.));
#1356=CARTESIAN_POINT('Origin',(86.5,186.,0.));
#1357=CARTESIAN_POINT('Origin',(86.5,186.,3.));
#1358=CARTESIAN_POINT('Origin',(5.00000007450581,19.9999970346689,0.));
#1359=CARTESIAN_POINT('',(3.00000007450581,19.9999970346689,3.));
#1360=CARTESIAN_POINT('Origin',(5.00000007450581,19.9999970346689,3.));
#1361=CARTESIAN_POINT('',(3.00000007450581,19.9999970346689,0.));
#1362=CARTESIAN_POINT('',(3.00000007450581,19.9999970346689,0.));
#1363=CARTESIAN_POINT('Origin',(5.00000007450581,19.9999970346689,0.));
#1364=CARTESIAN_POINT('Origin',(66.5,151.2,0.));
#1365=CARTESIAN_POINT('',(68.6,151.2,0.));
#1366=CARTESIAN_POINT('',(64.4,151.2,0.));
#1367=CARTESIAN_POINT('Origin',(66.5,151.2,0.));
#1368=CARTESIAN_POINT('',(64.4,151.2,3.));
#1369=CARTESIAN_POINT('',(64.4,151.2,0.));
#1370=CARTESIAN_POINT('',(68.6,151.2,3.));
#1371=CARTESIAN_POINT('Origin',(66.5,151.2,3.));
#1372=CARTESIAN_POINT('',(68.6,151.2,0.));
#1373=CARTESIAN_POINT('Origin',(68.6,186.,0.));
#1374=CARTESIAN_POINT('',(68.6,186.,0.));
#1375=CARTESIAN_POINT('',(68.6,186.,0.));
#1376=CARTESIAN_POINT('',(68.6,186.,3.));
#1377=CARTESIAN_POINT('',(68.6,186.,3.));
#1378=CARTESIAN_POINT('',(68.6,186.,0.));
#1379=CARTESIAN_POINT('Origin',(66.5,186.,0.));
#1380=CARTESIAN_POINT('',(64.4,186.,0.));
#1381=CARTESIAN_POINT('Origin',(66.5,186.,0.));
#1382=CARTESIAN_POINT('',(64.4,186.,3.));
#1383=CARTESIAN_POINT('Origin',(66.5,186.,3.));
#1384=CARTESIAN_POINT('',(64.4,186.,0.));
#1385=CARTESIAN_POINT('Origin',(64.4,151.2,0.));
#1386=CARTESIAN_POINT('',(64.4,186.,0.));
#1387=CARTESIAN_POINT('',(64.4,186.,3.));
#1388=CARTESIAN_POINT('Origin',(104.4,151.2,0.));
#1389=CARTESIAN_POINT('',(104.4,151.2,0.));
#1390=CARTESIAN_POINT('',(104.4,186.,0.));
#1391=CARTESIAN_POINT('',(104.4,186.,0.));
#1392=CARTESIAN_POINT('',(104.4,186.,3.));
#1393=CARTESIAN_POINT('',(104.4,186.,0.));
#1394=CARTESIAN_POINT('',(104.4,151.2,3.));
#1395=CARTESIAN_POINT('',(104.4,186.,3.));
#1396=CARTESIAN_POINT('',(104.4,151.2,0.));
#1397=CARTESIAN_POINT('Origin',(106.5,151.2,0.));
#1398=CARTESIAN_POINT('',(108.6,151.2,0.));
#1399=CARTESIAN_POINT('Origin',(106.5,151.2,0.));
#1400=CARTESIAN_POINT('',(108.6,151.2,3.));
#1401=CARTESIAN_POINT('Origin',(106.5,151.2,3.));
#1402=CARTESIAN_POINT('',(108.6,151.2,0.));
#1403=CARTESIAN_POINT('Origin',(108.6,186.,0.));
#1404=CARTESIAN_POINT('',(108.6,186.,0.));
#1405=CARTESIAN_POINT('',(108.6,186.,0.));
#1406=CARTESIAN_POINT('',(108.6,186.,3.));
#1407=CARTESIAN_POINT('',(108.6,186.,3.));
#1408=CARTESIAN_POINT('',(108.6,186.,0.));
#1409=CARTESIAN_POINT('Origin',(106.5,186.,0.));
#1410=CARTESIAN_POINT('Origin',(106.5,186.,0.));
#1411=CARTESIAN_POINT('Origin',(106.5,186.,3.));
#1412=CARTESIAN_POINT('Origin',(5.00000007450581,199.000002965331,0.));
#1413=CARTESIAN_POINT('',(3.00000007450581,199.000002965331,3.));
#1414=CARTESIAN_POINT('Origin',(5.00000007450581,199.000002965331,3.));
#1415=CARTESIAN_POINT('',(3.00000007450581,199.000002965331,0.));
#1416=CARTESIAN_POINT('',(3.00000007450581,199.000002965331,0.));
#1417=CARTESIAN_POINT('Origin',(5.00000007450581,199.000002965331,0.));
#1418=CARTESIAN_POINT('Origin',(197.999999925494,199.000002965331,0.));
#1419=CARTESIAN_POINT('',(195.999999925494,199.000002965331,3.));
#1420=CARTESIAN_POINT('Origin',(197.999999925494,199.000002965331,3.));
#1421=CARTESIAN_POINT('',(195.999999925494,199.000002965331,0.));
#1422=CARTESIAN_POINT('',(195.999999925494,199.000002965331,0.));
#1423=CARTESIAN_POINT('Origin',(197.999999925494,199.000002965331,0.));
#1424=CARTESIAN_POINT('Origin',(197.999999925494,19.9999970346689,0.));
#1425=CARTESIAN_POINT('',(195.999999925494,19.9999970346689,3.));
#1426=CARTESIAN_POINT('Origin',(197.999999925494,19.9999970346689,3.));
#1427=CARTESIAN_POINT('',(195.999999925494,19.9999970346689,0.));
#1428=CARTESIAN_POINT('',(195.999999925494,19.9999970346689,0.));
#1429=CARTESIAN_POINT('Origin',(197.999999925494,19.9999970346689,0.));
#1430=CARTESIAN_POINT('Origin',(203.,219.,0.));
#1431=CARTESIAN_POINT('',(203.,219.,0.));
#1432=CARTESIAN_POINT('',(0.,219.,0.));
#1433=CARTESIAN_POINT('',(203.,219.,0.));
#1434=CARTESIAN_POINT('',(0.,219.,3.));
#1435=CARTESIAN_POINT('',(0.,219.,0.));
#1436=CARTESIAN_POINT('',(203.,219.,3.));
#1437=CARTESIAN_POINT('',(203.,219.,3.));
#1438=CARTESIAN_POINT('',(203.,219.,0.));
#1439=CARTESIAN_POINT('Origin',(203.,0.,0.));
#1440=CARTESIAN_POINT('',(203.,0.,0.));
#1441=CARTESIAN_POINT('',(203.,0.,0.));
#1442=CARTESIAN_POINT('',(203.,0.,3.));
#1443=CARTESIAN_POINT('',(203.,0.,3.));
#1444=CARTESIAN_POINT('',(203.,0.,0.));
#1445=CARTESIAN_POINT('Origin',(0.,0.,0.));
#1446=CARTESIAN_POINT('',(0.,0.,0.));
#1447=CARTESIAN_POINT('',(0.,0.,0.));
#1448=CARTESIAN_POINT('',(0.,0.,3.));
#1449=CARTESIAN_POINT('',(0.,0.,3.));
#1450=CARTESIAN_POINT('',(0.,0.,0.));
#1451=CARTESIAN_POINT('Origin',(0.,219.,0.));
#1452=CARTESIAN_POINT('',(0.,219.,0.));
#1453=CARTESIAN_POINT('',(0.,219.,3.));
#1454=CARTESIAN_POINT('Origin',(101.5,109.5,3.));
#1455=CARTESIAN_POINT('Origin',(101.5,109.5,0.));
#1456=UNCERTAINTY_MEASURE_WITH_UNIT(LENGTH_MEASURE(0.01),#1460,
'DISTANCE_ACCURACY_VALUE',
'Maximum model space distance between geometric entities at asserted c
onnectivities');
#1457=UNCERTAINTY_MEASURE_WITH_UNIT(LENGTH_MEASURE(0.01),#1460,
'DISTANCE_ACCURACY_VALUE',
'Maximum model space distance between geometric entities at asserted c
onnectivities');
#1458=(
GEOMETRIC_REPRESENTATION_CONTEXT(3)
GLOBAL_UNCERTAINTY_ASSIGNED_CONTEXT((#1456))
GLOBAL_UNIT_ASSIGNED_CONTEXT((#1460,#1462,#1463))
REPRESENTATION_CONTEXT('','3D')
);
#1459=(
GEOMETRIC_REPRESENTATION_CONTEXT(3)
GLOBAL_UNCERTAINTY_ASSIGNED_CONTEXT((#1457))
GLOBAL_UNIT_ASSIGNED_CONTEXT((#1460,#1462,#1463))
REPRESENTATION_CONTEXT('','3D')
);
#1460=(
LENGTH_UNIT()
NAMED_UNIT(*)
SI_UNIT(.MILLI.,.METRE.)
);
#1461=(
LENGTH_UNIT()
NAMED_UNIT(*)
SI_UNIT($,.METRE.)
);
#1462=(
NAMED_UNIT(*)
PLANE_ANGLE_UNIT()
SI_UNIT($,.RADIAN.)
);
#1463=(
NAMED_UNIT(*)
SI_UNIT($,.STERADIAN.)
SOLID_ANGLE_UNIT()
);
#1464=SHAPE_DEFINITION_REPRESENTATION(#1465,#1466);
#1465=PRODUCT_DEFINITION_SHAPE('',$,#1468);
#1466=SHAPE_REPRESENTATION('',(#884),#1458);
#1467=PRODUCT_DEFINITION_CONTEXT('part definition',#1472,'design');
#1468=PRODUCT_DEFINITION('2026-03-01-17-12-45-294','top_plate v2',#1469,
#1467);
#1469=PRODUCT_DEFINITION_FORMATION('',$,#1474);
#1470=PRODUCT_RELATED_PRODUCT_CATEGORY('top_plate v2','top_plate v2',(#1474));
#1471=APPLICATION_PROTOCOL_DEFINITION('international standard',
'automotive_design',2009,#1472);
#1472=APPLICATION_CONTEXT(
'Core Data for Automotive Mechanical Design Process');
#1473=PRODUCT_CONTEXT('part definition',#1472,'mechanical');
#1474=PRODUCT('2026-03-01-17-12-45-294','top_plate v2',$,(#1473));
#1475=PRESENTATION_STYLE_ASSIGNMENT((#1476));
#1476=SURFACE_STYLE_USAGE(.BOTH.,#1477);
#1477=SURFACE_SIDE_STYLE('',(#1478));
#1478=SURFACE_STYLE_FILL_AREA(#1479);
#1479=FILL_AREA_STYLE('Stal \X2\2014\X0\ satynowa',(#1480));
#1480=FILL_AREA_STYLE_COLOUR('Stal \X2\2014\X0\ satynowa',#1481);
#1481=COLOUR_RGB('Stal \X2\2014\X0\ satynowa',0.627450980392157,0.627450980392157,
0.627450980392157);
ENDSEC;
END-ISO-10303-21;
