ISO-10303-21;
HEADER;
/* Generated by software containing ST-Developer
 * from STEP Tools, Inc. (www.steptools.com) 
 */

FILE_DESCRIPTION(
/* description */ (''),
/* implementation_level */ '2;1');

FILE_NAME(
/* name */ 'transformer.step',
/* time_stamp */ '2026-06-03T13:26:44+02:00',
/* author */ (''),
/* organization */ (''),
/* preprocessor_version */ 'ST-DEVELOPER v20.1',
/* originating_system */ 'Autodesk Translation Framework v15.8.0.0',
/* authorisation */ '');

FILE_SCHEMA (('AUTOMOTIVE_DESIGN { 1 0 10303 214 3 1 1 }'));
ENDSEC;

DATA;
#10=MECHANICAL_DESIGN_GEOMETRIC_PRESENTATION_REPRESENTATION('',(#13),#791);
#11=SHAPE_REPRESENTATION_RELATIONSHIP('SRR','None',#798,#12);
#12=ADVANCED_BREP_SHAPE_REPRESENTATION('',(#14),#790);
#13=STYLED_ITEM('',(#807),#14);
#14=MANIFOLD_SOLID_BREP('Bry\X2\0142\X0\a1',#434);
#15=FACE_BOUND('',#77,.T.);
#16=FACE_BOUND('',#79,.T.);
#17=FACE_BOUND('',#81,.T.);
#18=FACE_BOUND('',#94,.T.);
#19=FACE_BOUND('',#96,.T.);
#20=FACE_BOUND('',#97,.T.);
#21=FACE_BOUND('',#98,.T.);
#22=FACE_BOUND('',#99,.T.);
#23=FACE_BOUND('',#100,.T.);
#24=B_SPLINE_CURVE_WITH_KNOTS('',3,(#651,#652,#653,#654,#655,#656,#657,
#658),.UNSPECIFIED.,.F.,.F.,(4,2,2,4),(5.72990158490876,6.20058320942677,
6.67126483394478,7.07810093120614),.UNSPECIFIED.);
#25=B_SPLINE_CURVE_WITH_KNOTS('',3,(#662,#663,#664,#665,#666,#667,#668,
#669,#670,#671,#672,#673,#674,#675),.UNSPECIFIED.,.F.,.F.,(4,2,2,2,2,2,
4),(4.38170223861137,4.78853833587273,5.25921996039074,5.72990158490875,
6.20058320942676,6.67126483394478,7.07810093120613),.UNSPECIFIED.);
#26=B_SPLINE_CURVE_WITH_KNOTS('',3,(#679,#680,#681,#682,#683,#684,#685,
#686,#687,#688,#689,#690,#691,#692),.UNSPECIFIED.,.F.,.F.,(4,2,2,2,2,2,
4),(4.38170223861137,4.78853833587273,5.25921996039074,5.72990158490875,
6.20058320942676,6.67126483394478,7.07810093120613),.UNSPECIFIED.);
#27=B_SPLINE_CURVE_WITH_KNOTS('',3,(#696,#697,#698,#699,#700,#701,#702,
#703,#704,#705,#706,#707,#708,#709),.UNSPECIFIED.,.F.,.F.,(4,2,2,2,2,2,
4),(4.38170223861137,4.78853833587273,5.25921996039074,5.72990158490876,
6.20058320942677,6.67126483394478,7.07810093120614),.UNSPECIFIED.);
#28=B_SPLINE_CURVE_WITH_KNOTS('',3,(#712,#713,#714,#715,#716,#717,#718,
#719),.UNSPECIFIED.,.F.,.F.,(4,2,2,4),(4.38170223861137,4.78853833587273,
5.25921996039074,5.72990158490876),.UNSPECIFIED.);
#29=TOROIDAL_SURFACE('',#464,58.3,5.);
#30=TOROIDAL_SURFACE('',#477,48.3,5.);
#31=PLANE('',#451);
#32=PLANE('',#471);
#33=PLANE('',#472);
#34=PLANE('',#473);
#35=PLANE('',#480);
#36=PLANE('',#481);
#37=PLANE('',#482);
#38=PLANE('',#483);
#39=PLANE('',#484);
#40=PLANE('',#485);
#41=PLANE('',#486);
#42=PLANE('',#487);
#43=PLANE('',#488);
#44=PLANE('',#489);
#45=PLANE('',#490);
#46=FACE_OUTER_BOUND('',#69,.T.);
#47=FACE_OUTER_BOUND('',#70,.T.);
#48=FACE_OUTER_BOUND('',#71,.T.);
#49=FACE_OUTER_BOUND('',#72,.T.);
#50=FACE_OUTER_BOUND('',#73,.T.);
#51=FACE_OUTER_BOUND('',#74,.T.);
#52=FACE_OUTER_BOUND('',#75,.T.);
#53=FACE_OUTER_BOUND('',#76,.T.);
#54=FACE_OUTER_BOUND('',#78,.T.);
#55=FACE_OUTER_BOUND('',#80,.T.);
#56=FACE_OUTER_BOUND('',#82,.T.);
#57=FACE_OUTER_BOUND('',#83,.T.);
#58=FACE_OUTER_BOUND('',#84,.T.);
#59=FACE_OUTER_BOUND('',#85,.T.);
#60=FACE_OUTER_BOUND('',#86,.T.);
#61=FACE_OUTER_BOUND('',#87,.T.);
#62=FACE_OUTER_BOUND('',#88,.T.);
#63=FACE_OUTER_BOUND('',#89,.T.);
#64=FACE_OUTER_BOUND('',#90,.T.);
#65=FACE_OUTER_BOUND('',#91,.T.);
#66=FACE_OUTER_BOUND('',#92,.T.);
#67=FACE_OUTER_BOUND('',#93,.T.);
#68=FACE_OUTER_BOUND('',#95,.T.);
#69=EDGE_LOOP('',(#287,#288,#289,#290));
#70=EDGE_LOOP('',(#291));
#71=EDGE_LOOP('',(#292,#293,#294,#295));
#72=EDGE_LOOP('',(#296,#297,#298,#299));
#73=EDGE_LOOP('',(#300,#301,#302,#303));
#74=EDGE_LOOP('',(#304,#305,#306,#307));
#75=EDGE_LOOP('',(#308,#309,#310,#311,#312,#313,#314,#315,#316,#317,#318,
#319));
#76=EDGE_LOOP('',(#320,#321,#322,#323));
#77=EDGE_LOOP('',(#324));
#78=EDGE_LOOP('',(#325,#326,#327,#328));
#79=EDGE_LOOP('',(#329));
#80=EDGE_LOOP('',(#330,#331,#332,#333));
#81=EDGE_LOOP('',(#334));
#82=EDGE_LOOP('',(#335,#336,#337,#338,#339));
#83=EDGE_LOOP('',(#340,#341,#342,#343,#344));
#84=EDGE_LOOP('',(#345));
#85=EDGE_LOOP('',(#346,#347,#348,#349));
#86=EDGE_LOOP('',(#350,#351,#352,#353,#354,#355));
#87=EDGE_LOOP('',(#356,#357,#358,#359));
#88=EDGE_LOOP('',(#360,#361,#362,#363,#364,#365));
#89=EDGE_LOOP('',(#366,#367,#368,#369));
#90=EDGE_LOOP('',(#370,#371,#372,#373,#374,#375,#376));
#91=EDGE_LOOP('',(#377,#378,#379,#380));
#92=EDGE_LOOP('',(#381,#382,#383,#384,#385,#386));
#93=EDGE_LOOP('',(#387,#388,#389,#390));
#94=EDGE_LOOP('',(#391));
#95=EDGE_LOOP('',(#392,#393,#394,#395,#396,#397,#398,#399));
#96=EDGE_LOOP('',(#400));
#97=EDGE_LOOP('',(#401));
#98=EDGE_LOOP('',(#402));
#99=EDGE_LOOP('',(#403));
#100=EDGE_LOOP('',(#404));
#101=LINE('',#618,#135);
#102=LINE('',#625,#136);
#103=LINE('',#631,#137);
#104=LINE('',#637,#138);
#105=LINE('',#643,#139);
#106=LINE('',#722,#140);
#107=LINE('',#724,#141);
#108=LINE('',#725,#142);
#109=LINE('',#728,#143);
#110=LINE('',#730,#144);
#111=LINE('',#731,#145);
#112=LINE('',#734,#146);
#113=LINE('',#736,#147);
#114=LINE('',#737,#148);
#115=LINE('',#742,#149);
#116=LINE('',#752,#150);
#117=LINE('',#754,#151);
#118=LINE('',#756,#152);
#119=LINE('',#757,#153);
#120=LINE('',#760,#154);
#121=LINE('',#761,#155);
#122=LINE('',#762,#156);
#123=LINE('',#765,#157);
#124=LINE('',#766,#158);
#125=LINE('',#769,#159);
#126=LINE('',#770,#160);
#127=LINE('',#773,#161);
#128=LINE('',#774,#162);
#129=LINE('',#777,#163);
#130=LINE('',#778,#164);
#131=LINE('',#781,#165);
#132=LINE('',#782,#166);
#133=LINE('',#784,#167);
#134=LINE('',#785,#168);
#135=VECTOR('',#497,53.);
#136=VECTOR('',#506,2.00000000000001);
#137=VECTOR('',#513,2.00000000000001);
#138=VECTOR('',#520,2.);
#139=VECTOR('',#527,2.);
#140=VECTOR('',#546,10.);
#141=VECTOR('',#547,10.);
#142=VECTOR('',#548,10.);
#143=VECTOR('',#551,10.);
#144=VECTOR('',#552,10.);
#145=VECTOR('',#553,10.);
#146=VECTOR('',#556,10.);
#147=VECTOR('',#557,10.);
#148=VECTOR('',#558,10.);
#149=VECTOR('',#563,53.3);
#150=VECTOR('',#576,10.);
#151=VECTOR('',#577,10.);
#152=VECTOR('',#578,10.);
#153=VECTOR('',#579,10.);
#154=VECTOR('',#582,10.);
#155=VECTOR('',#583,10.);
#156=VECTOR('',#584,10.);
#157=VECTOR('',#587,10.);
#158=VECTOR('',#588,10.);
#159=VECTOR('',#591,10.);
#160=VECTOR('',#592,10.);
#161=VECTOR('',#595,10.);
#162=VECTOR('',#596,10.);
#163=VECTOR('',#599,10.);
#164=VECTOR('',#600,10.);
#165=VECTOR('',#603,10.);
#166=VECTOR('',#604,10.);
#167=VECTOR('',#607,10.);
#168=VECTOR('',#608,10.);
#169=CIRCLE('',#449,53.);
#170=CIRCLE('',#450,53.);
#171=CIRCLE('',#453,2.00000000000001);
#172=CIRCLE('',#454,2.00000000000001);
#173=CIRCLE('',#456,2.00000000000001);
#174=CIRCLE('',#457,2.00000000000001);
#175=CIRCLE('',#459,2.);
#176=CIRCLE('',#460,2.);
#177=CIRCLE('',#462,2.);
#178=CIRCLE('',#463,2.);
#179=CIRCLE('',#465,53.3);
#180=CIRCLE('',#466,5.);
#181=CIRCLE('',#467,58.3);
#182=CIRCLE('',#468,58.3);
#183=CIRCLE('',#469,58.3);
#184=CIRCLE('',#470,58.3);
#185=CIRCLE('',#475,53.3);
#186=CIRCLE('',#476,53.3);
#187=CIRCLE('',#478,48.3);
#188=CIRCLE('',#479,5.);
#189=VERTEX_POINT('',#615);
#190=VERTEX_POINT('',#617);
#191=VERTEX_POINT('',#622);
#192=VERTEX_POINT('',#624);
#193=VERTEX_POINT('',#628);
#194=VERTEX_POINT('',#630);
#195=VERTEX_POINT('',#634);
#196=VERTEX_POINT('',#636);
#197=VERTEX_POINT('',#640);
#198=VERTEX_POINT('',#642);
#199=VERTEX_POINT('',#646);
#200=VERTEX_POINT('',#648);
#201=VERTEX_POINT('',#650);
#202=VERTEX_POINT('',#659);
#203=VERTEX_POINT('',#661);
#204=VERTEX_POINT('',#676);
#205=VERTEX_POINT('',#678);
#206=VERTEX_POINT('',#693);
#207=VERTEX_POINT('',#695);
#208=VERTEX_POINT('',#710);
#209=VERTEX_POINT('',#721);
#210=VERTEX_POINT('',#723);
#211=VERTEX_POINT('',#727);
#212=VERTEX_POINT('',#729);
#213=VERTEX_POINT('',#733);
#214=VERTEX_POINT('',#735);
#215=VERTEX_POINT('',#739);
#216=VERTEX_POINT('',#740);
#217=VERTEX_POINT('',#745);
#218=VERTEX_POINT('',#750);
#219=VERTEX_POINT('',#751);
#220=VERTEX_POINT('',#753);
#221=VERTEX_POINT('',#755);
#222=VERTEX_POINT('',#759);
#223=VERTEX_POINT('',#764);
#224=VERTEX_POINT('',#768);
#225=VERTEX_POINT('',#772);
#226=VERTEX_POINT('',#776);
#227=VERTEX_POINT('',#780);
#228=EDGE_CURVE('',#189,#189,#169,.T.);
#229=EDGE_CURVE('',#189,#190,#101,.T.);
#230=EDGE_CURVE('',#190,#190,#170,.T.);
#231=EDGE_CURVE('',#191,#191,#171,.T.);
#232=EDGE_CURVE('',#191,#192,#102,.T.);
#233=EDGE_CURVE('',#192,#192,#172,.T.);
#234=EDGE_CURVE('',#193,#193,#173,.T.);
#235=EDGE_CURVE('',#193,#194,#103,.T.);
#236=EDGE_CURVE('',#194,#194,#174,.T.);
#237=EDGE_CURVE('',#195,#195,#175,.T.);
#238=EDGE_CURVE('',#195,#196,#104,.T.);
#239=EDGE_CURVE('',#196,#196,#176,.T.);
#240=EDGE_CURVE('',#197,#197,#177,.T.);
#241=EDGE_CURVE('',#197,#198,#105,.T.);
#242=EDGE_CURVE('',#198,#198,#178,.T.);
#243=EDGE_CURVE('',#199,#199,#179,.T.);
#244=EDGE_CURVE('',#199,#200,#180,.T.);
#245=EDGE_CURVE('',#201,#200,#24,.F.);
#246=EDGE_CURVE('',#201,#202,#181,.T.);
#247=EDGE_CURVE('',#203,#202,#25,.F.);
#248=EDGE_CURVE('',#203,#204,#182,.T.);
#249=EDGE_CURVE('',#205,#204,#26,.F.);
#250=EDGE_CURVE('',#205,#206,#183,.T.);
#251=EDGE_CURVE('',#207,#206,#27,.F.);
#252=EDGE_CURVE('',#207,#208,#184,.T.);
#253=EDGE_CURVE('',#200,#208,#28,.F.);
#254=EDGE_CURVE('',#203,#209,#106,.T.);
#255=EDGE_CURVE('',#209,#210,#107,.T.);
#256=EDGE_CURVE('',#210,#204,#108,.T.);
#257=EDGE_CURVE('',#201,#211,#109,.T.);
#258=EDGE_CURVE('',#211,#212,#110,.T.);
#259=EDGE_CURVE('',#212,#202,#111,.T.);
#260=EDGE_CURVE('',#207,#213,#112,.T.);
#261=EDGE_CURVE('',#213,#214,#113,.T.);
#262=EDGE_CURVE('',#214,#208,#114,.T.);
#263=EDGE_CURVE('',#215,#216,#185,.T.);
#264=EDGE_CURVE('',#215,#199,#115,.T.);
#265=EDGE_CURVE('',#216,#215,#186,.T.);
#266=EDGE_CURVE('',#217,#217,#187,.T.);
#267=EDGE_CURVE('',#217,#216,#188,.T.);
#268=EDGE_CURVE('',#218,#219,#116,.T.);
#269=EDGE_CURVE('',#219,#220,#117,.T.);
#270=EDGE_CURVE('',#221,#220,#118,.T.);
#271=EDGE_CURVE('',#218,#221,#119,.T.);
#272=EDGE_CURVE('',#218,#222,#120,.T.);
#273=EDGE_CURVE('',#205,#221,#121,.T.);
#274=EDGE_CURVE('',#222,#210,#122,.T.);
#275=EDGE_CURVE('',#222,#223,#123,.T.);
#276=EDGE_CURVE('',#223,#209,#124,.T.);
#277=EDGE_CURVE('',#223,#224,#125,.T.);
#278=EDGE_CURVE('',#224,#212,#126,.T.);
#279=EDGE_CURVE('',#225,#224,#127,.T.);
#280=EDGE_CURVE('',#225,#211,#128,.T.);
#281=EDGE_CURVE('',#226,#225,#129,.T.);
#282=EDGE_CURVE('',#226,#214,#130,.T.);
#283=EDGE_CURVE('',#226,#227,#131,.T.);
#284=EDGE_CURVE('',#227,#213,#132,.T.);
#285=EDGE_CURVE('',#219,#227,#133,.T.);
#286=EDGE_CURVE('',#220,#206,#134,.T.);
#287=ORIENTED_EDGE('',*,*,#228,.F.);
#288=ORIENTED_EDGE('',*,*,#229,.T.);
#289=ORIENTED_EDGE('',*,*,#230,.T.);
#290=ORIENTED_EDGE('',*,*,#229,.F.);
#291=ORIENTED_EDGE('',*,*,#230,.F.);
#292=ORIENTED_EDGE('',*,*,#231,.F.);
#293=ORIENTED_EDGE('',*,*,#232,.T.);
#294=ORIENTED_EDGE('',*,*,#233,.F.);
#295=ORIENTED_EDGE('',*,*,#232,.F.);
#296=ORIENTED_EDGE('',*,*,#234,.F.);
#297=ORIENTED_EDGE('',*,*,#235,.T.);
#298=ORIENTED_EDGE('',*,*,#236,.F.);
#299=ORIENTED_EDGE('',*,*,#235,.F.);
#300=ORIENTED_EDGE('',*,*,#237,.F.);
#301=ORIENTED_EDGE('',*,*,#238,.T.);
#302=ORIENTED_EDGE('',*,*,#239,.F.);
#303=ORIENTED_EDGE('',*,*,#238,.F.);
#304=ORIENTED_EDGE('',*,*,#240,.F.);
#305=ORIENTED_EDGE('',*,*,#241,.T.);
#306=ORIENTED_EDGE('',*,*,#242,.F.);
#307=ORIENTED_EDGE('',*,*,#241,.F.);
#308=ORIENTED_EDGE('',*,*,#243,.T.);
#309=ORIENTED_EDGE('',*,*,#244,.T.);
#310=ORIENTED_EDGE('',*,*,#245,.F.);
#311=ORIENTED_EDGE('',*,*,#246,.T.);
#312=ORIENTED_EDGE('',*,*,#247,.F.);
#313=ORIENTED_EDGE('',*,*,#248,.T.);
#314=ORIENTED_EDGE('',*,*,#249,.F.);
#315=ORIENTED_EDGE('',*,*,#250,.T.);
#316=ORIENTED_EDGE('',*,*,#251,.F.);
#317=ORIENTED_EDGE('',*,*,#252,.T.);
#318=ORIENTED_EDGE('',*,*,#253,.F.);
#319=ORIENTED_EDGE('',*,*,#244,.F.);
#320=ORIENTED_EDGE('',*,*,#248,.F.);
#321=ORIENTED_EDGE('',*,*,#254,.T.);
#322=ORIENTED_EDGE('',*,*,#255,.T.);
#323=ORIENTED_EDGE('',*,*,#256,.T.);
#324=ORIENTED_EDGE('',*,*,#240,.T.);
#325=ORIENTED_EDGE('',*,*,#246,.F.);
#326=ORIENTED_EDGE('',*,*,#257,.T.);
#327=ORIENTED_EDGE('',*,*,#258,.T.);
#328=ORIENTED_EDGE('',*,*,#259,.T.);
#329=ORIENTED_EDGE('',*,*,#234,.T.);
#330=ORIENTED_EDGE('',*,*,#252,.F.);
#331=ORIENTED_EDGE('',*,*,#260,.T.);
#332=ORIENTED_EDGE('',*,*,#261,.T.);
#333=ORIENTED_EDGE('',*,*,#262,.T.);
#334=ORIENTED_EDGE('',*,*,#231,.T.);
#335=ORIENTED_EDGE('',*,*,#263,.F.);
#336=ORIENTED_EDGE('',*,*,#264,.T.);
#337=ORIENTED_EDGE('',*,*,#243,.F.);
#338=ORIENTED_EDGE('',*,*,#264,.F.);
#339=ORIENTED_EDGE('',*,*,#265,.F.);
#340=ORIENTED_EDGE('',*,*,#266,.T.);
#341=ORIENTED_EDGE('',*,*,#267,.T.);
#342=ORIENTED_EDGE('',*,*,#265,.T.);
#343=ORIENTED_EDGE('',*,*,#263,.T.);
#344=ORIENTED_EDGE('',*,*,#267,.F.);
#345=ORIENTED_EDGE('',*,*,#266,.F.);
#346=ORIENTED_EDGE('',*,*,#268,.T.);
#347=ORIENTED_EDGE('',*,*,#269,.T.);
#348=ORIENTED_EDGE('',*,*,#270,.F.);
#349=ORIENTED_EDGE('',*,*,#271,.F.);
#350=ORIENTED_EDGE('',*,*,#272,.F.);
#351=ORIENTED_EDGE('',*,*,#271,.T.);
#352=ORIENTED_EDGE('',*,*,#273,.F.);
#353=ORIENTED_EDGE('',*,*,#249,.T.);
#354=ORIENTED_EDGE('',*,*,#256,.F.);
#355=ORIENTED_EDGE('',*,*,#274,.F.);
#356=ORIENTED_EDGE('',*,*,#275,.F.);
#357=ORIENTED_EDGE('',*,*,#274,.T.);
#358=ORIENTED_EDGE('',*,*,#255,.F.);
#359=ORIENTED_EDGE('',*,*,#276,.F.);
#360=ORIENTED_EDGE('',*,*,#277,.F.);
#361=ORIENTED_EDGE('',*,*,#276,.T.);
#362=ORIENTED_EDGE('',*,*,#254,.F.);
#363=ORIENTED_EDGE('',*,*,#247,.T.);
#364=ORIENTED_EDGE('',*,*,#259,.F.);
#365=ORIENTED_EDGE('',*,*,#278,.F.);
#366=ORIENTED_EDGE('',*,*,#279,.T.);
#367=ORIENTED_EDGE('',*,*,#278,.T.);
#368=ORIENTED_EDGE('',*,*,#258,.F.);
#369=ORIENTED_EDGE('',*,*,#280,.F.);
#370=ORIENTED_EDGE('',*,*,#281,.T.);
#371=ORIENTED_EDGE('',*,*,#280,.T.);
#372=ORIENTED_EDGE('',*,*,#257,.F.);
#373=ORIENTED_EDGE('',*,*,#245,.T.);
#374=ORIENTED_EDGE('',*,*,#253,.T.);
#375=ORIENTED_EDGE('',*,*,#262,.F.);
#376=ORIENTED_EDGE('',*,*,#282,.F.);
#377=ORIENTED_EDGE('',*,*,#283,.F.);
#378=ORIENTED_EDGE('',*,*,#282,.T.);
#379=ORIENTED_EDGE('',*,*,#261,.F.);
#380=ORIENTED_EDGE('',*,*,#284,.F.);
#381=ORIENTED_EDGE('',*,*,#285,.T.);
#382=ORIENTED_EDGE('',*,*,#284,.T.);
#383=ORIENTED_EDGE('',*,*,#260,.F.);
#384=ORIENTED_EDGE('',*,*,#251,.T.);
#385=ORIENTED_EDGE('',*,*,#286,.F.);
#386=ORIENTED_EDGE('',*,*,#269,.F.);
#387=ORIENTED_EDGE('',*,*,#250,.F.);
#388=ORIENTED_EDGE('',*,*,#273,.T.);
#389=ORIENTED_EDGE('',*,*,#270,.T.);
#390=ORIENTED_EDGE('',*,*,#286,.T.);
#391=ORIENTED_EDGE('',*,*,#237,.T.);
#392=ORIENTED_EDGE('',*,*,#285,.F.);
#393=ORIENTED_EDGE('',*,*,#268,.F.);
#394=ORIENTED_EDGE('',*,*,#272,.T.);
#395=ORIENTED_EDGE('',*,*,#275,.T.);
#396=ORIENTED_EDGE('',*,*,#277,.T.);
#397=ORIENTED_EDGE('',*,*,#279,.F.);
#398=ORIENTED_EDGE('',*,*,#281,.F.);
#399=ORIENTED_EDGE('',*,*,#283,.T.);
#400=ORIENTED_EDGE('',*,*,#228,.T.);
#401=ORIENTED_EDGE('',*,*,#233,.T.);
#402=ORIENTED_EDGE('',*,*,#236,.T.);
#403=ORIENTED_EDGE('',*,*,#239,.T.);
#404=ORIENTED_EDGE('',*,*,#242,.T.);
#405=CYLINDRICAL_SURFACE('',#448,53.);
#406=CYLINDRICAL_SURFACE('',#452,2.00000000000001);
#407=CYLINDRICAL_SURFACE('',#455,2.00000000000001);
#408=CYLINDRICAL_SURFACE('',#458,2.);
#409=CYLINDRICAL_SURFACE('',#461,2.);
#410=CYLINDRICAL_SURFACE('',#474,53.3);
#411=ADVANCED_FACE('',(#46),#405,.F.);
#412=ADVANCED_FACE('',(#47),#31,.T.);
#413=ADVANCED_FACE('',(#48),#406,.F.);
#414=ADVANCED_FACE('',(#49),#407,.F.);
#415=ADVANCED_FACE('',(#50),#408,.F.);
#416=ADVANCED_FACE('',(#51),#409,.F.);
#417=ADVANCED_FACE('',(#52),#29,.F.);
#418=ADVANCED_FACE('',(#53,#15),#32,.T.);
#419=ADVANCED_FACE('',(#54,#16),#33,.T.);
#420=ADVANCED_FACE('',(#55,#17),#34,.T.);
#421=ADVANCED_FACE('',(#56),#410,.T.);
#422=ADVANCED_FACE('',(#57),#30,.T.);
#423=ADVANCED_FACE('',(#58),#35,.T.);
#424=ADVANCED_FACE('',(#59),#36,.T.);
#425=ADVANCED_FACE('',(#60),#37,.T.);
#426=ADVANCED_FACE('',(#61),#38,.T.);
#427=ADVANCED_FACE('',(#62),#39,.T.);
#428=ADVANCED_FACE('',(#63),#40,.T.);
#429=ADVANCED_FACE('',(#64),#41,.T.);
#430=ADVANCED_FACE('',(#65),#42,.T.);
#431=ADVANCED_FACE('',(#66),#43,.T.);
#432=ADVANCED_FACE('',(#67,#18),#44,.T.);
#433=ADVANCED_FACE('',(#68,#19,#20,#21,#22,#23),#45,.F.);
#434=CLOSED_SHELL('',(#411,#412,#413,#414,#415,#416,#417,#418,#419,#420,
#421,#422,#423,#424,#425,#426,#427,#428,#429,#430,#431,#432,#433));
#435=DERIVED_UNIT_ELEMENT(#437,1.);
#436=DERIVED_UNIT_ELEMENT(#793,-3.);
#437=(
MASS_UNIT()
NAMED_UNIT(*)
SI_UNIT(.KILO.,.GRAM.)
);
#438=DERIVED_UNIT((#435,#436));
#439=MEASURE_REPRESENTATION_ITEM('density measure',
POSITIVE_RATIO_MEASURE(7850.),#438);
#440=PROPERTY_DEFINITION_REPRESENTATION(#445,#442);
#441=PROPERTY_DEFINITION_REPRESENTATION(#446,#443);
#442=REPRESENTATION('material name',(#444),#790);
#443=REPRESENTATION('density',(#439),#790);
#444=DESCRIPTIVE_REPRESENTATION_ITEM('Stal','Stal');
#445=PROPERTY_DEFINITION('material property','material name',#800);
#446=PROPERTY_DEFINITION('material property','density of part',#800);
#447=AXIS2_PLACEMENT_3D('',#613,#491,#492);
#448=AXIS2_PLACEMENT_3D('',#614,#493,#494);
#449=AXIS2_PLACEMENT_3D('',#616,#495,#496);
#450=AXIS2_PLACEMENT_3D('',#619,#498,#499);
#451=AXIS2_PLACEMENT_3D('',#620,#500,#501);
#452=AXIS2_PLACEMENT_3D('',#621,#502,#503);
#453=AXIS2_PLACEMENT_3D('',#623,#504,#505);
#454=AXIS2_PLACEMENT_3D('',#626,#507,#508);
#455=AXIS2_PLACEMENT_3D('',#627,#509,#510);
#456=AXIS2_PLACEMENT_3D('',#629,#511,#512);
#457=AXIS2_PLACEMENT_3D('',#632,#514,#515);
#458=AXIS2_PLACEMENT_3D('',#633,#516,#517);
#459=AXIS2_PLACEMENT_3D('',#635,#518,#519);
#460=AXIS2_PLACEMENT_3D('',#638,#521,#522);
#461=AXIS2_PLACEMENT_3D('',#639,#523,#524);
#462=AXIS2_PLACEMENT_3D('',#641,#525,#526);
#463=AXIS2_PLACEMENT_3D('',#644,#528,#529);
#464=AXIS2_PLACEMENT_3D('',#645,#530,#531);
#465=AXIS2_PLACEMENT_3D('',#647,#532,#533);
#466=AXIS2_PLACEMENT_3D('',#649,#534,#535);
#467=AXIS2_PLACEMENT_3D('',#660,#536,#537);
#468=AXIS2_PLACEMENT_3D('',#677,#538,#539);
#469=AXIS2_PLACEMENT_3D('',#694,#540,#541);
#470=AXIS2_PLACEMENT_3D('',#711,#542,#543);
#471=AXIS2_PLACEMENT_3D('',#720,#544,#545);
#472=AXIS2_PLACEMENT_3D('',#726,#549,#550);
#473=AXIS2_PLACEMENT_3D('',#732,#554,#555);
#474=AXIS2_PLACEMENT_3D('',#738,#559,#560);
#475=AXIS2_PLACEMENT_3D('',#741,#561,#562);
#476=AXIS2_PLACEMENT_3D('',#743,#564,#565);
#477=AXIS2_PLACEMENT_3D('',#744,#566,#567);
#478=AXIS2_PLACEMENT_3D('',#746,#568,#569);
#479=AXIS2_PLACEMENT_3D('',#747,#570,#571);
#480=AXIS2_PLACEMENT_3D('',#748,#572,#573);
#481=AXIS2_PLACEMENT_3D('',#749,#574,#575);
#482=AXIS2_PLACEMENT_3D('',#758,#580,#581);
#483=AXIS2_PLACEMENT_3D('',#763,#585,#586);
#484=AXIS2_PLACEMENT_3D('',#767,#589,#590);
#485=AXIS2_PLACEMENT_3D('',#771,#593,#594);
#486=AXIS2_PLACEMENT_3D('',#775,#597,#598);
#487=AXIS2_PLACEMENT_3D('',#779,#601,#602);
#488=AXIS2_PLACEMENT_3D('',#783,#605,#606);
#489=AXIS2_PLACEMENT_3D('',#786,#609,#610);
#490=AXIS2_PLACEMENT_3D('',#787,#611,#612);
#491=DIRECTION('axis',(0.,0.,1.));
#492=DIRECTION('refdir',(1.,0.,0.));
#493=DIRECTION('center_axis',(0.,0.,1.));
#494=DIRECTION('ref_axis',(1.,0.,0.));
#495=DIRECTION('center_axis',(0.,0.,1.));
#496=DIRECTION('ref_axis',(1.,0.,0.));
#497=DIRECTION('',(0.,0.,1.));
#498=DIRECTION('center_axis',(0.,0.,1.));
#499=DIRECTION('ref_axis',(1.,0.,0.));
#500=DIRECTION('center_axis',(0.,0.,-1.));
#501=DIRECTION('ref_axis',(1.,0.,0.));
#502=DIRECTION('center_axis',(0.,0.,-1.));
#503=DIRECTION('ref_axis',(-1.,0.,0.));
#504=DIRECTION('center_axis',(0.,0.,-1.));
#505=DIRECTION('ref_axis',(-1.,0.,0.));
#506=DIRECTION('',(0.,0.,-1.));
#507=DIRECTION('center_axis',(0.,0.,1.));
#508=DIRECTION('ref_axis',(-1.,0.,0.));
#509=DIRECTION('center_axis',(0.,0.,-1.));
#510=DIRECTION('ref_axis',(-1.,0.,0.));
#511=DIRECTION('center_axis',(0.,0.,-1.));
#512=DIRECTION('ref_axis',(-1.,0.,0.));
#513=DIRECTION('',(0.,0.,-1.));
#514=DIRECTION('center_axis',(0.,0.,1.));
#515=DIRECTION('ref_axis',(-1.,0.,0.));
#516=DIRECTION('center_axis',(0.,0.,-1.));
#517=DIRECTION('ref_axis',(-1.,0.,0.));
#518=DIRECTION('center_axis',(0.,0.,-1.));
#519=DIRECTION('ref_axis',(-1.,0.,0.));
#520=DIRECTION('',(0.,0.,-1.));
#521=DIRECTION('center_axis',(0.,0.,1.));
#522=DIRECTION('ref_axis',(-1.,0.,0.));
#523=DIRECTION('center_axis',(0.,0.,-1.));
#524=DIRECTION('ref_axis',(-1.,0.,0.));
#525=DIRECTION('center_axis',(0.,0.,-1.));
#526=DIRECTION('ref_axis',(-1.,0.,0.));
#527=DIRECTION('',(0.,0.,-1.));
#528=DIRECTION('center_axis',(0.,0.,1.));
#529=DIRECTION('ref_axis',(-1.,0.,0.));
#530=DIRECTION('center_axis',(0.,0.,-1.));
#531=DIRECTION('ref_axis',(-1.,0.,0.));
#532=DIRECTION('center_axis',(0.,0.,-1.));
#533=DIRECTION('ref_axis',(-1.,0.,0.));
#534=DIRECTION('center_axis',(-1.40312546556102E-16,-1.,0.));
#535=DIRECTION('ref_axis',(1.,-1.40312546556102E-16,0.));
#536=DIRECTION('center_axis',(0.,0.,1.));
#537=DIRECTION('ref_axis',(-1.,0.,0.));
#538=DIRECTION('center_axis',(0.,0.,1.));
#539=DIRECTION('ref_axis',(-1.,0.,0.));
#540=DIRECTION('center_axis',(0.,0.,1.));
#541=DIRECTION('ref_axis',(-1.,0.,0.));
#542=DIRECTION('center_axis',(0.,0.,1.));
#543=DIRECTION('ref_axis',(-1.,0.,0.));
#544=DIRECTION('center_axis',(0.,0.,1.));
#545=DIRECTION('ref_axis',(1.,0.,0.));
#546=DIRECTION('',(-1.,0.,0.));
#547=DIRECTION('',(-0.707106781186548,-0.707106781186548,0.));
#548=DIRECTION('',(0.,-1.,0.));
#549=DIRECTION('center_axis',(0.,0.,1.));
#550=DIRECTION('ref_axis',(1.,0.,0.));
#551=DIRECTION('',(0.,1.,0.));
#552=DIRECTION('',(-0.707106781186548,0.707106781186548,0.));
#553=DIRECTION('',(-1.,0.,0.));
#554=DIRECTION('center_axis',(0.,0.,1.));
#555=DIRECTION('ref_axis',(1.,0.,0.));
#556=DIRECTION('',(1.,0.,0.));
#557=DIRECTION('',(0.707106781186548,0.707106781186548,0.));
#558=DIRECTION('',(0.,1.,0.));
#559=DIRECTION('center_axis',(0.,0.,1.));
#560=DIRECTION('ref_axis',(-1.,0.,0.));
#561=DIRECTION('center_axis',(0.,0.,1.));
#562=DIRECTION('ref_axis',(-1.,0.,0.));
#563=DIRECTION('',(0.,0.,-1.));
#564=DIRECTION('center_axis',(0.,0.,1.));
#565=DIRECTION('ref_axis',(-1.,0.,0.));
#566=DIRECTION('center_axis',(0.,0.,1.));
#567=DIRECTION('ref_axis',(1.,0.,0.));
#568=DIRECTION('center_axis',(0.,0.,-1.));
#569=DIRECTION('ref_axis',(-1.,0.,0.));
#570=DIRECTION('center_axis',(1.66637602195145E-16,-1.,0.));
#571=DIRECTION('ref_axis',(-1.,-1.66637602195145E-16,0.));
#572=DIRECTION('center_axis',(0.,0.,1.));
#573=DIRECTION('ref_axis',(-1.,0.,0.));
#574=DIRECTION('center_axis',(-0.707106781186548,-0.707106781186548,0.));
#575=DIRECTION('ref_axis',(0.707106781186548,-0.707106781186548,0.));
#576=DIRECTION('',(0.707106781186548,-0.707106781186548,0.));
#577=DIRECTION('',(0.,0.,1.));
#578=DIRECTION('',(0.707106781186548,-0.707106781186548,0.));
#579=DIRECTION('',(0.,0.,1.));
#580=DIRECTION('center_axis',(-1.,0.,0.));
#581=DIRECTION('ref_axis',(0.,-1.,0.));
#582=DIRECTION('',(0.,1.,0.));
#583=DIRECTION('',(0.,-1.,0.));
#584=DIRECTION('',(0.,0.,1.));
#585=DIRECTION('center_axis',(-0.707106781186548,0.707106781186548,0.));
#586=DIRECTION('ref_axis',(-0.707106781186548,-0.707106781186548,0.));
#587=DIRECTION('',(0.707106781186548,0.707106781186548,0.));
#588=DIRECTION('',(0.,0.,1.));
#589=DIRECTION('center_axis',(0.,1.,0.));
#590=DIRECTION('ref_axis',(-1.,0.,0.));
#591=DIRECTION('',(1.,0.,0.));
#592=DIRECTION('',(0.,0.,1.));
#593=DIRECTION('center_axis',(0.707106781186548,0.707106781186548,0.));
#594=DIRECTION('ref_axis',(-0.707106781186548,0.707106781186548,0.));
#595=DIRECTION('',(-0.707106781186548,0.707106781186548,0.));
#596=DIRECTION('',(0.,0.,1.));
#597=DIRECTION('center_axis',(1.,0.,0.));
#598=DIRECTION('ref_axis',(0.,1.,0.));
#599=DIRECTION('',(0.,1.,0.));
#600=DIRECTION('',(0.,0.,1.));
#601=DIRECTION('center_axis',(0.707106781186548,-0.707106781186548,0.));
#602=DIRECTION('ref_axis',(0.707106781186548,0.707106781186548,0.));
#603=DIRECTION('',(-0.707106781186548,-0.707106781186548,0.));
#604=DIRECTION('',(0.,0.,1.));
#605=DIRECTION('center_axis',(0.,-1.,0.));
#606=DIRECTION('ref_axis',(1.,0.,0.));
#607=DIRECTION('',(1.,0.,0.));
#608=DIRECTION('',(1.,0.,0.));
#609=DIRECTION('center_axis',(0.,0.,1.));
#610=DIRECTION('ref_axis',(1.,0.,0.));
#611=DIRECTION('center_axis',(0.,0.,1.));
#612=DIRECTION('ref_axis',(1.,0.,0.));
#613=CARTESIAN_POINT('',(0.,0.,0.));
#614=CARTESIAN_POINT('Origin',(56.5,56.5,0.));
#615=CARTESIAN_POINT('',(3.5,56.5,0.));
#616=CARTESIAN_POINT('Origin',(56.5,56.5,0.));
#617=CARTESIAN_POINT('',(3.5,56.5,40.));
#618=CARTESIAN_POINT('',(3.5,56.5,0.));
#619=CARTESIAN_POINT('Origin',(56.5,56.5,40.));
#620=CARTESIAN_POINT('Origin',(56.5,56.5,40.));
#621=CARTESIAN_POINT('Origin',(102.75,10.25,2.));
#622=CARTESIAN_POINT('',(104.75,10.25,2.));
#623=CARTESIAN_POINT('Origin',(102.75,10.25,2.));
#624=CARTESIAN_POINT('',(104.75,10.25,0.));
#625=CARTESIAN_POINT('',(104.75,10.25,2.));
#626=CARTESIAN_POINT('Origin',(102.75,10.25,0.));
#627=CARTESIAN_POINT('Origin',(102.75,102.75,2.));
#628=CARTESIAN_POINT('',(104.75,102.75,2.));
#629=CARTESIAN_POINT('Origin',(102.75,102.75,2.));
#630=CARTESIAN_POINT('',(104.75,102.75,0.));
#631=CARTESIAN_POINT('',(104.75,102.75,2.));
#632=CARTESIAN_POINT('Origin',(102.75,102.75,0.));
#633=CARTESIAN_POINT('Origin',(10.25,10.25,2.));
#634=CARTESIAN_POINT('',(12.25,10.25,2.));
#635=CARTESIAN_POINT('Origin',(10.25,10.25,2.));
#636=CARTESIAN_POINT('',(12.25,10.25,0.));
#637=CARTESIAN_POINT('',(12.25,10.25,2.));
#638=CARTESIAN_POINT('Origin',(10.25,10.25,0.));
#639=CARTESIAN_POINT('Origin',(10.25,102.75,2.));
#640=CARTESIAN_POINT('',(12.25,102.75,2.));
#641=CARTESIAN_POINT('Origin',(10.25,102.75,2.));
#642=CARTESIAN_POINT('',(12.25,102.75,0.));
#643=CARTESIAN_POINT('',(12.25,102.75,2.));
#644=CARTESIAN_POINT('Origin',(10.25,102.75,0.));
#645=CARTESIAN_POINT('Origin',(56.5,56.5,7.));
#646=CARTESIAN_POINT('',(109.8,56.5,7.));
#647=CARTESIAN_POINT('Origin',(56.5,56.5,7.));
#648=CARTESIAN_POINT('',(113.,56.5,2.33523848412376));
#649=CARTESIAN_POINT('Origin',(114.8,56.5,7.));
#650=CARTESIAN_POINT('',(113.,70.8749782608531,2.));
#651=CARTESIAN_POINT('Ctrl Pts',(113.,56.5,2.33523848412376));
#652=CARTESIAN_POINT('Ctrl Pts',(113.,58.0689387483934,2.33523848412376));
#653=CARTESIAN_POINT('Ctrl Pts',(113.,59.7942738627935,2.30611828536848));
#654=CARTESIAN_POINT('Ctrl Pts',(113.,63.2440086470407,2.20462728064639));
#655=CARTESIAN_POINT('Ctrl Pts',(113.,64.9685059847749,2.13560388444758));
#656=CARTESIAN_POINT('Ctrl Pts',(113.,67.8920144326121,2.0403729356347));
#657=CARTESIAN_POINT('Ctrl Pts',(113.,69.5188579366486,2.));
#658=CARTESIAN_POINT('Ctrl Pts',(113.,70.8749782608531,2.));
#659=CARTESIAN_POINT('',(70.8749782608531,113.,2.));
#660=CARTESIAN_POINT('Origin',(56.5,56.5,2.));
#661=CARTESIAN_POINT('',(42.1250217391469,113.,2.));
#662=CARTESIAN_POINT('Ctrl Pts',(70.8749782608531,113.,2.));
#663=CARTESIAN_POINT('Ctrl Pts',(69.5188579366486,113.,2.));
#664=CARTESIAN_POINT('Ctrl Pts',(67.8920144326121,113.,2.0403729356347));
#665=CARTESIAN_POINT('Ctrl Pts',(64.9685059847749,113.,2.13560388444758));
#666=CARTESIAN_POINT('Ctrl Pts',(63.2440086470407,113.,2.20462728064639));
#667=CARTESIAN_POINT('Ctrl Pts',(59.7942738627935,113.,2.30611828536848));
#668=CARTESIAN_POINT('Ctrl Pts',(58.0689387483934,113.,2.33523848412376));
#669=CARTESIAN_POINT('Ctrl Pts',(54.9310612516066,113.,2.33523848412376));
#670=CARTESIAN_POINT('Ctrl Pts',(53.2057261372065,113.,2.30611828536848));
#671=CARTESIAN_POINT('Ctrl Pts',(49.7559913529593,113.,2.20462728064639));
#672=CARTESIAN_POINT('Ctrl Pts',(48.0314940152251,113.,2.13560388444758));
#673=CARTESIAN_POINT('Ctrl Pts',(45.1079855673879,113.,2.0403729356347));
#674=CARTESIAN_POINT('Ctrl Pts',(43.4811420633514,113.,2.));
#675=CARTESIAN_POINT('Ctrl Pts',(42.1250217391469,113.,2.));
#676=CARTESIAN_POINT('',(0.,70.8749782608531,2.));
#677=CARTESIAN_POINT('Origin',(56.5,56.5,2.));
#678=CARTESIAN_POINT('',(0.,42.1250217391469,2.));
#679=CARTESIAN_POINT('Ctrl Pts',(0.,70.8749782608531,2.));
#680=CARTESIAN_POINT('Ctrl Pts',(3.48096048801718E-17,69.5188579366486,
2.));
#681=CARTESIAN_POINT('Ctrl Pts',(0.,67.8920144326121,2.0403729356347));
#682=CARTESIAN_POINT('Ctrl Pts',(0.,64.9685059847749,2.13560388444758));
#683=CARTESIAN_POINT('Ctrl Pts',(0.,63.2440086470407,2.20462728064639));
#684=CARTESIAN_POINT('Ctrl Pts',(0.,59.7942738627935,2.30611828536847));
#685=CARTESIAN_POINT('Ctrl Pts',(0.,58.0689387483934,2.33523848412376));
#686=CARTESIAN_POINT('Ctrl Pts',(0.,54.9310612516066,2.33523848412376));
#687=CARTESIAN_POINT('Ctrl Pts',(0.,53.2057261372065,2.30611828536847));
#688=CARTESIAN_POINT('Ctrl Pts',(0.,49.7559913529593,2.20462728064639));
#689=CARTESIAN_POINT('Ctrl Pts',(0.,48.0314940152251,2.13560388444758));
#690=CARTESIAN_POINT('Ctrl Pts',(0.,45.1079855673879,2.0403729356347));
#691=CARTESIAN_POINT('Ctrl Pts',(0.,43.4811420633514,2.));
#692=CARTESIAN_POINT('Ctrl Pts',(0.,42.1250217391469,2.));
#693=CARTESIAN_POINT('',(42.1250217391469,0.,2.));
#694=CARTESIAN_POINT('Origin',(56.5,56.5,2.));
#695=CARTESIAN_POINT('',(70.8749782608531,0.,2.));
#696=CARTESIAN_POINT('Ctrl Pts',(42.1250217391469,0.,2.));
#697=CARTESIAN_POINT('Ctrl Pts',(43.4811420633514,3.81799798278029E-17,
2.));
#698=CARTESIAN_POINT('Ctrl Pts',(45.1079855673879,0.,2.0403729356347));
#699=CARTESIAN_POINT('Ctrl Pts',(48.0314940152251,0.,2.13560388444758));
#700=CARTESIAN_POINT('Ctrl Pts',(49.7559913529593,0.,2.20462728064639));
#701=CARTESIAN_POINT('Ctrl Pts',(53.2057261372065,0.,2.30611828536847));
#702=CARTESIAN_POINT('Ctrl Pts',(54.9310612516066,0.,2.33523848412376));
#703=CARTESIAN_POINT('Ctrl Pts',(58.0689387483934,0.,2.33523848412376));
#704=CARTESIAN_POINT('Ctrl Pts',(59.7942738627935,0.,2.30611828536847));
#705=CARTESIAN_POINT('Ctrl Pts',(63.2440086470407,0.,2.20462728064639));
#706=CARTESIAN_POINT('Ctrl Pts',(64.9685059847749,0.,2.13560388444758));
#707=CARTESIAN_POINT('Ctrl Pts',(67.8920144326121,0.,2.0403729356347));
#708=CARTESIAN_POINT('Ctrl Pts',(69.5188579366486,0.,2.));
#709=CARTESIAN_POINT('Ctrl Pts',(70.8749782608531,0.,2.));
#710=CARTESIAN_POINT('',(113.,42.1250217391469,2.));
#711=CARTESIAN_POINT('Origin',(56.5,56.5,2.));
#712=CARTESIAN_POINT('Ctrl Pts',(113.,42.1250217391469,2.));
#713=CARTESIAN_POINT('Ctrl Pts',(113.,43.4811420633514,2.));
#714=CARTESIAN_POINT('Ctrl Pts',(113.,45.1079855673879,2.0403729356347));
#715=CARTESIAN_POINT('Ctrl Pts',(113.,48.0314940152251,2.13560388444758));
#716=CARTESIAN_POINT('Ctrl Pts',(113.,49.7559913529593,2.20462728064639));
#717=CARTESIAN_POINT('Ctrl Pts',(113.,53.2057261372065,2.30611828536848));
#718=CARTESIAN_POINT('Ctrl Pts',(113.,54.9310612516066,2.33523848412376));
#719=CARTESIAN_POINT('Ctrl Pts',(113.,56.5,2.33523848412376));
#720=CARTESIAN_POINT('Origin',(56.5,56.5,2.));
#721=CARTESIAN_POINT('',(10.25,113.,2.));
#722=CARTESIAN_POINT('',(56.5,113.,2.));
#723=CARTESIAN_POINT('',(0.,102.75,2.));
#724=CARTESIAN_POINT('',(0.,102.75,2.));
#725=CARTESIAN_POINT('',(0.,56.5,2.));
#726=CARTESIAN_POINT('Origin',(56.5,56.5,2.));
#727=CARTESIAN_POINT('',(113.,102.75,2.));
#728=CARTESIAN_POINT('',(113.,10.25,2.));
#729=CARTESIAN_POINT('',(102.75,113.,2.));
#730=CARTESIAN_POINT('',(113.,102.75,2.));
#731=CARTESIAN_POINT('',(56.5,113.,2.));
#732=CARTESIAN_POINT('Origin',(56.5,56.5,2.));
#733=CARTESIAN_POINT('',(102.75,0.,2.));
#734=CARTESIAN_POINT('',(56.5,0.,2.));
#735=CARTESIAN_POINT('',(113.,10.25,2.));
#736=CARTESIAN_POINT('',(113.,10.25,2.));
#737=CARTESIAN_POINT('',(113.,10.25,2.));
#738=CARTESIAN_POINT('Origin',(56.5,56.5,2.));
#739=CARTESIAN_POINT('',(109.8,56.5,47.));
#740=CARTESIAN_POINT('',(3.2,56.5,47.));
#741=CARTESIAN_POINT('Origin',(56.5,56.5,47.));
#742=CARTESIAN_POINT('',(109.8,56.5,2.));
#743=CARTESIAN_POINT('Origin',(56.5,56.5,47.));
#744=CARTESIAN_POINT('Origin',(56.5,56.5,47.));
#745=CARTESIAN_POINT('',(8.2,56.5,52.));
#746=CARTESIAN_POINT('Origin',(56.5,56.5,52.));
#747=CARTESIAN_POINT('Origin',(8.2,56.5,47.));
#748=CARTESIAN_POINT('Origin',(56.5,56.5,52.));
#749=CARTESIAN_POINT('Origin',(0.,10.25,0.));
#750=CARTESIAN_POINT('',(0.,10.25,0.));
#751=CARTESIAN_POINT('',(10.25,0.,0.));
#752=CARTESIAN_POINT('',(0.,10.25,0.));
#753=CARTESIAN_POINT('',(10.25,0.,2.));
#754=CARTESIAN_POINT('',(10.25,0.,0.));
#755=CARTESIAN_POINT('',(0.,10.25,2.));
#756=CARTESIAN_POINT('',(0.,10.25,2.));
#757=CARTESIAN_POINT('',(0.,10.25,0.));
#758=CARTESIAN_POINT('Origin',(0.,102.75,0.));
#759=CARTESIAN_POINT('',(0.,102.75,0.));
#760=CARTESIAN_POINT('',(0.,56.5,0.));
#761=CARTESIAN_POINT('',(0.,56.5,2.));
#762=CARTESIAN_POINT('',(0.,102.75,0.));
#763=CARTESIAN_POINT('Origin',(10.25,113.,0.));
#764=CARTESIAN_POINT('',(10.25,113.,0.));
#765=CARTESIAN_POINT('',(0.,102.75,0.));
#766=CARTESIAN_POINT('',(10.25,113.,0.));
#767=CARTESIAN_POINT('Origin',(102.75,113.,0.));
#768=CARTESIAN_POINT('',(102.75,113.,0.));
#769=CARTESIAN_POINT('',(56.5,113.,0.));
#770=CARTESIAN_POINT('',(102.75,113.,0.));
#771=CARTESIAN_POINT('Origin',(113.,102.75,0.));
#772=CARTESIAN_POINT('',(113.,102.75,0.));
#773=CARTESIAN_POINT('',(113.,102.75,0.));
#774=CARTESIAN_POINT('',(113.,102.75,0.));
#775=CARTESIAN_POINT('Origin',(113.,10.25,0.));
#776=CARTESIAN_POINT('',(113.,10.25,0.));
#777=CARTESIAN_POINT('',(113.,10.25,0.));
#778=CARTESIAN_POINT('',(113.,10.25,0.));
#779=CARTESIAN_POINT('Origin',(102.75,0.,0.));
#780=CARTESIAN_POINT('',(102.75,0.,0.));
#781=CARTESIAN_POINT('',(113.,10.25,0.));
#782=CARTESIAN_POINT('',(102.75,0.,0.));
#783=CARTESIAN_POINT('Origin',(10.25,0.,0.));
#784=CARTESIAN_POINT('',(56.5,0.,0.));
#785=CARTESIAN_POINT('',(56.5,0.,2.));
#786=CARTESIAN_POINT('Origin',(56.5,56.5,2.));
#787=CARTESIAN_POINT('Origin',(56.5,56.5,0.));
#788=UNCERTAINTY_MEASURE_WITH_UNIT(LENGTH_MEASURE(0.01),#792,
'DISTANCE_ACCURACY_VALUE',
'Maximum model space distance between geometric entities at asserted c
onnectivities');
#789=UNCERTAINTY_MEASURE_WITH_UNIT(LENGTH_MEASURE(0.01),#792,
'DISTANCE_ACCURACY_VALUE',
'Maximum model space distance between geometric entities at asserted c
onnectivities');
#790=(
GEOMETRIC_REPRESENTATION_CONTEXT(3)
GLOBAL_UNCERTAINTY_ASSIGNED_CONTEXT((#788))
GLOBAL_UNIT_ASSIGNED_CONTEXT((#792,#794,#795))
REPRESENTATION_CONTEXT('','3D')
);
#791=(
GEOMETRIC_REPRESENTATION_CONTEXT(3)
GLOBAL_UNCERTAINTY_ASSIGNED_CONTEXT((#789))
GLOBAL_UNIT_ASSIGNED_CONTEXT((#792,#794,#795))
REPRESENTATION_CONTEXT('','3D')
);
#792=(
LENGTH_UNIT()
NAMED_UNIT(*)
SI_UNIT(.MILLI.,.METRE.)
);
#793=(
LENGTH_UNIT()
NAMED_UNIT(*)
SI_UNIT($,.METRE.)
);
#794=(
NAMED_UNIT(*)
PLANE_ANGLE_UNIT()
SI_UNIT($,.RADIAN.)
);
#795=(
NAMED_UNIT(*)
SI_UNIT($,.STERADIAN.)
SOLID_ANGLE_UNIT()
);
#796=SHAPE_DEFINITION_REPRESENTATION(#797,#798);
#797=PRODUCT_DEFINITION_SHAPE('',$,#800);
#798=SHAPE_REPRESENTATION('',(#447),#790);
#799=PRODUCT_DEFINITION_CONTEXT('part definition',#804,'design');
#800=PRODUCT_DEFINITION('2026-03-01-18-23-05-859','transformer v1',#801,
#799);
#801=PRODUCT_DEFINITION_FORMATION('',$,#806);
#802=PRODUCT_RELATED_PRODUCT_CATEGORY('transformer v1','transformer v1',
(#806));
#803=APPLICATION_PROTOCOL_DEFINITION('international standard',
'automotive_design',2009,#804);
#804=APPLICATION_CONTEXT(
'Core Data for Automotive Mechanical Design Process');
#805=PRODUCT_CONTEXT('part definition',#804,'mechanical');
#806=PRODUCT('2026-03-01-18-23-05-859','transformer v1',$,(#805));
#807=PRESENTATION_STYLE_ASSIGNMENT((#808));
#808=SURFACE_STYLE_USAGE(.BOTH.,#809);
#809=SURFACE_SIDE_STYLE('',(#810));
#810=SURFACE_STYLE_FILL_AREA(#811);
#811=FILL_AREA_STYLE('Stal \X2\2014\X0\ satynowa',(#812));
#812=FILL_AREA_STYLE_COLOUR('Stal \X2\2014\X0\ satynowa',#813);
#813=COLOUR_RGB('Stal \X2\2014\X0\ satynowa',0.627450980392157,0.627450980392157,
0.627450980392157);
ENDSEC;
END-ISO-10303-21;
