ISO-10303-21;
HEADER;
/* Generated by software containing ST-Developer
 * from STEP Tools, Inc. (www.steptools.com) 
 */

FILE_DESCRIPTION(
/* description */ (''),
/* implementation_level */ '2;1');

FILE_NAME(
/* name */ 'volume_knob.step',
/* time_stamp */ '2026-06-03T13:27:05+02:00',
/* author */ (''),
/* organization */ (''),
/* preprocessor_version */ 'ST-DEVELOPER v20.1',
/* originating_system */ 'Autodesk Translation Framework v15.8.0.0',
/* authorisation */ '');

FILE_SCHEMA (('AUTOMOTIVE_DESIGN { 1 0 10303 214 3 1 1 }'));
ENDSEC;

DATA;
#10=MECHANICAL_DESIGN_GEOMETRIC_PRESENTATION_REPRESENTATION('',(#13),#347);
#11=SHAPE_REPRESENTATION_RELATIONSHIP('SRR','None',#354,#12);
#12=ADVANCED_BREP_SHAPE_REPRESENTATION('',(#14),#346);
#13=STYLED_ITEM('',(#363),#14);
#14=MANIFOLD_SOLID_BREP('Bry\X2\0142\X0\a1',#154);
#15=TOROIDAL_SURFACE('',#182,14.7,0.3);
#16=PLANE('',#175);
#17=PLANE('',#179);
#18=PLANE('',#180);
#19=PLANE('',#187);
#20=FACE_BOUND('',#54,.T.);
#21=FACE_BOUND('',#58,.T.);
#22=FACE_BOUND('',#60,.T.);
#23=FACE_BOUND('',#63,.T.);
#24=FACE_BOUND('',#65,.T.);
#25=LINE('',#280,#29);
#26=LINE('',#322,#30);
#27=LINE('',#329,#31);
#28=LINE('',#342,#32);
#29=VECTOR('',#198,1.5);
#30=VECTOR('',#203,3.00000004470348);
#31=VECTOR('',#212,9.00000013411045);
#32=VECTOR('',#231,15.);
#33=B_SPLINE_CURVE_WITH_KNOTS('',3,(#243,#244,#245,#246,#247,#248,#249,
#250,#251,#252,#253,#254,#255,#256,#257,#258,#259,#260),.UNSPECIFIED.,.F.,
 .F.,(4,2,2,2,2,2,2,2,4),(0.,0.0577372800870824,0.115474560174165,0.173054445638778,
0.230634331103392,0.288214216568006,0.34579410203262,0.403531382119702,
0.461268662206784),.UNSPECIFIED.);
#34=B_SPLINE_CURVE_WITH_KNOTS('',3,(#261,#262,#263,#264,#265,#266,#267,
#268,#269,#270,#271,#272,#273,#274,#275,#276,#277,#278),.UNSPECIFIED.,.F.,
 .F.,(4,2,2,2,2,2,2,2,4),(0.461268662206784,0.519005942293867,0.576743222380949,
0.634323107845563,0.691902993310177,0.74948287877479,0.807062764239404,
0.864800044326486,0.922537324413569),.UNSPECIFIED.);
#35=B_SPLINE_CURVE_WITH_KNOTS('',3,(#282,#283,#284,#285,#286,#287,#288,
#289,#290,#291,#292,#293,#294,#295,#296,#297,#298,#299),.UNSPECIFIED.,.F.,
 .F.,(4,2,2,2,2,2,2,2,4),(0.,0.0565436733045447,0.113087346609089,0.169630827452677,
0.226174308296264,0.282717789139851,0.339261269983439,0.395804943287983,
0.452348616592528),.UNSPECIFIED.);
#36=B_SPLINE_CURVE_WITH_KNOTS('',3,(#300,#301,#302,#303,#304,#305,#306,
#307,#308,#309,#310,#311,#312,#313,#314,#315,#316,#317),.UNSPECIFIED.,.F.,
 .F.,(4,2,2,2,2,2,2,2,4),(0.452348616592528,0.508892289897073,0.565435963201617,
0.621979444045205,0.678522924888792,0.735066405732379,0.791609886575967,
0.848153559880511,0.904697233185056),.UNSPECIFIED.);
#37=CYLINDRICAL_SURFACE('',#171,1.5);
#38=CYLINDRICAL_SURFACE('',#172,3.00000004470348);
#39=CYLINDRICAL_SURFACE('',#176,9.00000013411045);
#40=CYLINDRICAL_SURFACE('',#186,15.);
#41=FACE_OUTER_BOUND('',#51,.T.);
#42=FACE_OUTER_BOUND('',#52,.T.);
#43=FACE_OUTER_BOUND('',#53,.T.);
#44=FACE_OUTER_BOUND('',#55,.T.);
#45=FACE_OUTER_BOUND('',#56,.T.);
#46=FACE_OUTER_BOUND('',#57,.T.);
#47=FACE_OUTER_BOUND('',#59,.T.);
#48=FACE_OUTER_BOUND('',#61,.T.);
#49=FACE_OUTER_BOUND('',#62,.T.);
#50=FACE_OUTER_BOUND('',#64,.T.);
#51=EDGE_LOOP('',(#107,#108,#109));
#52=EDGE_LOOP('',(#110,#111,#112,#113,#114,#115));
#53=EDGE_LOOP('',(#116,#117,#118,#119));
#54=EDGE_LOOP('',(#120,#121));
#55=EDGE_LOOP('',(#122));
#56=EDGE_LOOP('',(#123,#124,#125,#126));
#57=EDGE_LOOP('',(#127));
#58=EDGE_LOOP('',(#128));
#59=EDGE_LOOP('',(#129));
#60=EDGE_LOOP('',(#130));
#61=EDGE_LOOP('',(#131,#132,#133,#134));
#62=EDGE_LOOP('',(#135,#136,#137,#138));
#63=EDGE_LOOP('',(#139,#140));
#64=EDGE_LOOP('',(#141));
#65=EDGE_LOOP('',(#142));
#66=CIRCLE('',#169,0.5);
#67=CIRCLE('',#170,0.5);
#68=CIRCLE('',#173,3.);
#69=CIRCLE('',#174,3.00000004470348);
#70=CIRCLE('',#177,9.00000013411045);
#71=CIRCLE('',#178,9.00000013411045);
#72=CIRCLE('',#181,15.);
#73=CIRCLE('',#183,14.7);
#74=CIRCLE('',#184,0.3);
#75=CIRCLE('',#185,15.);
#76=VERTEX_POINT('',#236);
#77=VERTEX_POINT('',#238);
#78=VERTEX_POINT('',#241);
#79=VERTEX_POINT('',#242);
#80=VERTEX_POINT('',#279);
#81=VERTEX_POINT('',#281);
#82=VERTEX_POINT('',#319);
#83=VERTEX_POINT('',#321);
#84=VERTEX_POINT('',#326);
#85=VERTEX_POINT('',#328);
#86=VERTEX_POINT('',#333);
#87=VERTEX_POINT('',#336);
#88=VERTEX_POINT('',#338);
#89=EDGE_CURVE('',#76,#76,#66,.T.);
#90=EDGE_CURVE('',#77,#76,#67,.T.);
#91=EDGE_CURVE('',#78,#79,#33,.T.);
#92=EDGE_CURVE('',#79,#78,#34,.T.);
#93=EDGE_CURVE('',#79,#80,#25,.T.);
#94=EDGE_CURVE('',#81,#80,#35,.T.);
#95=EDGE_CURVE('',#80,#81,#36,.T.);
#96=EDGE_CURVE('',#82,#82,#68,.T.);
#97=EDGE_CURVE('',#82,#83,#26,.T.);
#98=EDGE_CURVE('',#83,#83,#69,.T.);
#99=EDGE_CURVE('',#84,#84,#70,.T.);
#100=EDGE_CURVE('',#84,#85,#27,.T.);
#101=EDGE_CURVE('',#85,#85,#71,.T.);
#102=EDGE_CURVE('',#86,#86,#72,.T.);
#103=EDGE_CURVE('',#87,#87,#73,.T.);
#104=EDGE_CURVE('',#87,#88,#74,.T.);
#105=EDGE_CURVE('',#88,#88,#75,.T.);
#106=EDGE_CURVE('',#88,#86,#28,.T.);
#107=ORIENTED_EDGE('',*,*,#89,.F.);
#108=ORIENTED_EDGE('',*,*,#90,.F.);
#109=ORIENTED_EDGE('',*,*,#90,.T.);
#110=ORIENTED_EDGE('',*,*,#91,.F.);
#111=ORIENTED_EDGE('',*,*,#92,.F.);
#112=ORIENTED_EDGE('',*,*,#93,.T.);
#113=ORIENTED_EDGE('',*,*,#94,.F.);
#114=ORIENTED_EDGE('',*,*,#95,.F.);
#115=ORIENTED_EDGE('',*,*,#93,.F.);
#116=ORIENTED_EDGE('',*,*,#96,.T.);
#117=ORIENTED_EDGE('',*,*,#97,.T.);
#118=ORIENTED_EDGE('',*,*,#98,.T.);
#119=ORIENTED_EDGE('',*,*,#97,.F.);
#120=ORIENTED_EDGE('',*,*,#91,.T.);
#121=ORIENTED_EDGE('',*,*,#92,.T.);
#122=ORIENTED_EDGE('',*,*,#98,.F.);
#123=ORIENTED_EDGE('',*,*,#99,.F.);
#124=ORIENTED_EDGE('',*,*,#100,.T.);
#125=ORIENTED_EDGE('',*,*,#101,.T.);
#126=ORIENTED_EDGE('',*,*,#100,.F.);
#127=ORIENTED_EDGE('',*,*,#101,.F.);
#128=ORIENTED_EDGE('',*,*,#96,.F.);
#129=ORIENTED_EDGE('',*,*,#102,.F.);
#130=ORIENTED_EDGE('',*,*,#99,.T.);
#131=ORIENTED_EDGE('',*,*,#103,.T.);
#132=ORIENTED_EDGE('',*,*,#104,.T.);
#133=ORIENTED_EDGE('',*,*,#105,.T.);
#134=ORIENTED_EDGE('',*,*,#104,.F.);
#135=ORIENTED_EDGE('',*,*,#105,.F.);
#136=ORIENTED_EDGE('',*,*,#106,.T.);
#137=ORIENTED_EDGE('',*,*,#102,.T.);
#138=ORIENTED_EDGE('',*,*,#106,.F.);
#139=ORIENTED_EDGE('',*,*,#94,.T.);
#140=ORIENTED_EDGE('',*,*,#95,.T.);
#141=ORIENTED_EDGE('',*,*,#103,.F.);
#142=ORIENTED_EDGE('',*,*,#89,.T.);
#143=SPHERICAL_SURFACE('',#168,0.5);
#144=ADVANCED_FACE('',(#41),#143,.F.);
#145=ADVANCED_FACE('',(#42),#37,.F.);
#146=ADVANCED_FACE('',(#43,#20),#38,.F.);
#147=ADVANCED_FACE('',(#44),#16,.F.);
#148=ADVANCED_FACE('',(#45),#39,.F.);
#149=ADVANCED_FACE('',(#46,#21),#17,.F.);
#150=ADVANCED_FACE('',(#47,#22),#18,.F.);
#151=ADVANCED_FACE('',(#48),#15,.T.);
#152=ADVANCED_FACE('',(#49,#23),#40,.T.);
#153=ADVANCED_FACE('',(#50,#24),#19,.T.);
#154=CLOSED_SHELL('',(#144,#145,#146,#147,#148,#149,#150,#151,#152,#153));
#155=DERIVED_UNIT_ELEMENT(#157,1.);
#156=DERIVED_UNIT_ELEMENT(#349,-3.);
#157=(
MASS_UNIT()
NAMED_UNIT(*)
SI_UNIT(.KILO.,.GRAM.)
);
#158=DERIVED_UNIT((#155,#156));
#159=MEASURE_REPRESENTATION_ITEM('density measure',
POSITIVE_RATIO_MEASURE(7850.),#158);
#160=PROPERTY_DEFINITION_REPRESENTATION(#165,#162);
#161=PROPERTY_DEFINITION_REPRESENTATION(#166,#163);
#162=REPRESENTATION('material name',(#164),#346);
#163=REPRESENTATION('density',(#159),#346);
#164=DESCRIPTIVE_REPRESENTATION_ITEM('Stal','Stal');
#165=PROPERTY_DEFINITION('material property','material name',#356);
#166=PROPERTY_DEFINITION('material property','density of part',#356);
#167=AXIS2_PLACEMENT_3D('',#234,#188,#189);
#168=AXIS2_PLACEMENT_3D('',#235,#190,#191);
#169=AXIS2_PLACEMENT_3D('',#237,#192,#193);
#170=AXIS2_PLACEMENT_3D('',#239,#194,#195);
#171=AXIS2_PLACEMENT_3D('',#240,#196,#197);
#172=AXIS2_PLACEMENT_3D('',#318,#199,#200);
#173=AXIS2_PLACEMENT_3D('',#320,#201,#202);
#174=AXIS2_PLACEMENT_3D('',#323,#204,#205);
#175=AXIS2_PLACEMENT_3D('',#324,#206,#207);
#176=AXIS2_PLACEMENT_3D('',#325,#208,#209);
#177=AXIS2_PLACEMENT_3D('',#327,#210,#211);
#178=AXIS2_PLACEMENT_3D('',#330,#213,#214);
#179=AXIS2_PLACEMENT_3D('',#331,#215,#216);
#180=AXIS2_PLACEMENT_3D('',#332,#217,#218);
#181=AXIS2_PLACEMENT_3D('',#334,#219,#220);
#182=AXIS2_PLACEMENT_3D('',#335,#221,#222);
#183=AXIS2_PLACEMENT_3D('',#337,#223,#224);
#184=AXIS2_PLACEMENT_3D('',#339,#225,#226);
#185=AXIS2_PLACEMENT_3D('',#340,#227,#228);
#186=AXIS2_PLACEMENT_3D('',#341,#229,#230);
#187=AXIS2_PLACEMENT_3D('',#343,#232,#233);
#188=DIRECTION('axis',(0.,0.,1.));
#189=DIRECTION('refdir',(1.,0.,0.));
#190=DIRECTION('center_axis',(0.,0.,1.));
#191=DIRECTION('ref_axis',(1.,0.,0.));
#192=DIRECTION('center_axis',(0.,0.,-1.));
#193=DIRECTION('ref_axis',(0.,1.,0.));
#194=DIRECTION('center_axis',(-1.22464679914735E-16,1.,0.));
#195=DIRECTION('ref_axis',(-1.,-1.22464679914735E-16,0.));
#196=DIRECTION('center_axis',(1.,0.,0.));
#197=DIRECTION('ref_axis',(0.,1.,0.));
#198=DIRECTION('',(1.,0.,0.));
#199=DIRECTION('center_axis',(0.,0.,1.));
#200=DIRECTION('ref_axis',(1.,0.,0.));
#201=DIRECTION('center_axis',(0.,0.,-1.));
#202=DIRECTION('ref_axis',(1.,0.,0.));
#203=DIRECTION('',(0.,0.,1.));
#204=DIRECTION('center_axis',(0.,0.,1.));
#205=DIRECTION('ref_axis',(1.,0.,0.));
#206=DIRECTION('center_axis',(0.,0.,1.));
#207=DIRECTION('ref_axis',(1.,0.,0.));
#208=DIRECTION('center_axis',(0.,0.,1.));
#209=DIRECTION('ref_axis',(1.,0.,0.));
#210=DIRECTION('center_axis',(0.,0.,1.));
#211=DIRECTION('ref_axis',(1.,0.,0.));
#212=DIRECTION('',(0.,0.,1.));
#213=DIRECTION('center_axis',(0.,0.,1.));
#214=DIRECTION('ref_axis',(1.,0.,0.));
#215=DIRECTION('center_axis',(0.,0.,1.));
#216=DIRECTION('ref_axis',(1.,0.,0.));
#217=DIRECTION('center_axis',(0.,0.,1.));
#218=DIRECTION('ref_axis',(1.,0.,0.));
#219=DIRECTION('center_axis',(0.,0.,1.));
#220=DIRECTION('ref_axis',(1.,0.,0.));
#221=DIRECTION('center_axis',(0.,0.,1.));
#222=DIRECTION('ref_axis',(1.,0.,0.));
#223=DIRECTION('center_axis',(0.,0.,-1.));
#224=DIRECTION('ref_axis',(1.,0.,0.));
#225=DIRECTION('center_axis',(1.22464679914735E-16,-1.,0.));
#226=DIRECTION('ref_axis',(-1.,-1.22464679914735E-16,0.));
#227=DIRECTION('center_axis',(0.,0.,1.));
#228=DIRECTION('ref_axis',(1.,0.,0.));
#229=DIRECTION('center_axis',(0.,0.,1.));
#230=DIRECTION('ref_axis',(1.,0.,0.));
#231=DIRECTION('',(0.,0.,-1.));
#232=DIRECTION('center_axis',(0.,0.,1.));
#233=DIRECTION('ref_axis',(1.,0.,0.));
#234=CARTESIAN_POINT('',(0.,0.,0.));
#235=CARTESIAN_POINT('Origin',(-12.0000001788139,0.,20.));
#236=CARTESIAN_POINT('',(-12.5000001788139,-6.12323399573676E-17,20.));
#237=CARTESIAN_POINT('Origin',(-12.0000001788139,0.,20.));
#238=CARTESIAN_POINT('',(-12.0000001788139,-3.74939945665464E-33,19.5));
#239=CARTESIAN_POINT('Origin',(-12.0000001788139,0.,20.));
#240=CARTESIAN_POINT('Origin',(0.,0.,8.00000011920929));
#241=CARTESIAN_POINT('',(2.59807626297245,1.5,8.00000011920929));
#242=CARTESIAN_POINT('',(2.59807626297245,-1.5,8.00000011920929));
#243=CARTESIAN_POINT('Ctrl Pts',(2.59807626297245,1.5,8.00000011920929));
#244=CARTESIAN_POINT('Ctrl Pts',(2.59807626297245,1.5,8.19245771949956));
#245=CARTESIAN_POINT('Ctrl Pts',(2.62173820504119,1.46082837676809,8.39470802092003));
#246=CARTESIAN_POINT('Ctrl Pts',(2.70179406828022,1.30684306468031,8.76287365834697));
#247=CARTESIAN_POINT('Ctrl Pts',(2.75655074994198,1.19213374224303,8.9291867205259));
#248=CARTESIAN_POINT('Ctrl Pts',(2.85579996207858,0.929545004638631,9.1917754581303));
#249=CARTESIAN_POINT('Ctrl Pts',(2.90739730771737,0.763111137030072,9.3067477391794));
#250=CARTESIAN_POINT('Ctrl Pts',(2.979887997547,0.39441761306727,9.46094597805835));
#251=CARTESIAN_POINT('Ctrl Pts',(3.00000004470348,0.191932951548712,9.50000011920929));
#252=CARTESIAN_POINT('Ctrl Pts',(3.00000004470348,-0.191932951548713,9.50000011920929));
#253=CARTESIAN_POINT('Ctrl Pts',(2.979887997547,-0.394417613067271,9.46094597805835));
#254=CARTESIAN_POINT('Ctrl Pts',(2.90739730771737,-0.763111137030072,9.3067477391794));
#255=CARTESIAN_POINT('Ctrl Pts',(2.85579996207858,-0.929545004638632,9.1917754581303));
#256=CARTESIAN_POINT('Ctrl Pts',(2.75655074994198,-1.19213374224303,8.9291867205259));
#257=CARTESIAN_POINT('Ctrl Pts',(2.70179406828022,-1.30684306468031,8.76287365834697));
#258=CARTESIAN_POINT('Ctrl Pts',(2.62173820504119,-1.46082837676809,8.39470802092003));
#259=CARTESIAN_POINT('Ctrl Pts',(2.59807626297245,-1.5,8.19245771949956));
#260=CARTESIAN_POINT('Ctrl Pts',(2.59807626297245,-1.5,8.00000011920929));
#261=CARTESIAN_POINT('Ctrl Pts',(2.59807626297245,-1.5,8.00000011920929));
#262=CARTESIAN_POINT('Ctrl Pts',(2.59807626297245,-1.5,7.80754251891901));
#263=CARTESIAN_POINT('Ctrl Pts',(2.62173820504119,-1.46082837676809,7.60529221749855));
#264=CARTESIAN_POINT('Ctrl Pts',(2.70179406828022,-1.30684306468031,7.23712658007161));
#265=CARTESIAN_POINT('Ctrl Pts',(2.75655074994198,-1.19213374224303,7.07081351789268));
#266=CARTESIAN_POINT('Ctrl Pts',(2.85579996207858,-0.929545004638632,6.80822478028828));
#267=CARTESIAN_POINT('Ctrl Pts',(2.90739730771737,-0.763111137030072,6.69325249923918));
#268=CARTESIAN_POINT('Ctrl Pts',(2.979887997547,-0.394417613067271,6.53905426036023));
#269=CARTESIAN_POINT('Ctrl Pts',(3.00000004470348,-0.191932951548713,6.50000011920929));
#270=CARTESIAN_POINT('Ctrl Pts',(3.00000004470348,0.191932951548713,6.50000011920929));
#271=CARTESIAN_POINT('Ctrl Pts',(2.979887997547,0.394417613067271,6.53905426036023));
#272=CARTESIAN_POINT('Ctrl Pts',(2.90739730771737,0.763111137030072,6.69325249923918));
#273=CARTESIAN_POINT('Ctrl Pts',(2.85579996207858,0.929545004638632,6.80822478028828));
#274=CARTESIAN_POINT('Ctrl Pts',(2.75655074994198,1.19213374224303,7.07081351789268));
#275=CARTESIAN_POINT('Ctrl Pts',(2.70179406828022,1.30684306468031,7.23712658007161));
#276=CARTESIAN_POINT('Ctrl Pts',(2.62173820504119,1.46082837676809,7.60529221749855));
#277=CARTESIAN_POINT('Ctrl Pts',(2.59807626297245,1.5,7.80754251891902));
#278=CARTESIAN_POINT('Ctrl Pts',(2.59807626297245,1.5,8.00000011920929));
#279=CARTESIAN_POINT('',(14.9248115565993,-1.5,8.00000011920929));
#280=CARTESIAN_POINT('',(0.,-1.5,8.00000011920929));
#281=CARTESIAN_POINT('',(14.9248115565993,1.5,8.00000011920929));
#282=CARTESIAN_POINT('Ctrl Pts',(14.9248115565993,1.5,8.00000011920929));
#283=CARTESIAN_POINT('Ctrl Pts',(14.9248115565993,1.5,7.81152120819414));
#284=CARTESIAN_POINT('Ctrl Pts',(14.9287498196129,1.46230663376117,7.61056583185195));
#285=CARTESIAN_POINT('Ctrl Pts',(14.9429562346109,1.30918708083477,7.24103439352448));
#286=CARTESIAN_POINT('Ctrl Pts',(14.9530172598288,1.1937677721721,7.07244754782175));
#287=CARTESIAN_POINT('Ctrl Pts',(14.9718887229442,0.92755302445355,6.8062328001032));
#288=CARTESIAN_POINT('Ctrl Pts',(14.9819277542582,0.758965980110157,6.69081313791308));
#289=CARTESIAN_POINT('Ctrl Pts',(14.9960838170489,0.38943387646484,6.53769332107562));
#290=CARTESIAN_POINT('Ctrl Pts',(15.,0.188478269478624,6.50000011920929));
#291=CARTESIAN_POINT('Ctrl Pts',(15.,-0.188478269478624,6.50000011920929));
#292=CARTESIAN_POINT('Ctrl Pts',(14.9960838170489,-0.389433876464839,6.53769332107562));
#293=CARTESIAN_POINT('Ctrl Pts',(14.9819277542582,-0.758965980110157,6.69081313791308));
#294=CARTESIAN_POINT('Ctrl Pts',(14.9718887229442,-0.92755302445355,6.8062328001032));
#295=CARTESIAN_POINT('Ctrl Pts',(14.9530172598288,-1.1937677721721,7.07244754782175));
#296=CARTESIAN_POINT('Ctrl Pts',(14.9429562346109,-1.30918708083477,7.24103439352448));
#297=CARTESIAN_POINT('Ctrl Pts',(14.9287498196129,-1.46230663376117,7.61056583185195));
#298=CARTESIAN_POINT('Ctrl Pts',(14.9248115565993,-1.5,7.81152120819414));
#299=CARTESIAN_POINT('Ctrl Pts',(14.9248115565993,-1.5,8.00000011920929));
#300=CARTESIAN_POINT('Ctrl Pts',(14.9248115565993,-1.5,8.00000011920929));
#301=CARTESIAN_POINT('Ctrl Pts',(14.9248115565993,-1.5,8.18847903022444));
#302=CARTESIAN_POINT('Ctrl Pts',(14.9287498196129,-1.46230663376117,8.38943440656663));
#303=CARTESIAN_POINT('Ctrl Pts',(14.9429562346109,-1.30918708083477,8.7589658448941));
#304=CARTESIAN_POINT('Ctrl Pts',(14.9530172598288,-1.1937677721721,8.92755269059683));
#305=CARTESIAN_POINT('Ctrl Pts',(14.9718887229442,-0.92755302445355,9.19376743831538));
#306=CARTESIAN_POINT('Ctrl Pts',(14.9819277542582,-0.758965980110157,9.3091871005055));
#307=CARTESIAN_POINT('Ctrl Pts',(14.9960838170489,-0.389433876464839,9.46230691734296));
#308=CARTESIAN_POINT('Ctrl Pts',(15.,-0.188478269478625,9.50000011920929));
#309=CARTESIAN_POINT('Ctrl Pts',(15.,0.188478269478624,9.50000011920929));
#310=CARTESIAN_POINT('Ctrl Pts',(14.9960838170489,0.389433876464838,9.46230691734296));
#311=CARTESIAN_POINT('Ctrl Pts',(14.9819277542582,0.758965980110156,9.3091871005055));
#312=CARTESIAN_POINT('Ctrl Pts',(14.9718887229442,0.927553024453549,9.19376743831538));
#313=CARTESIAN_POINT('Ctrl Pts',(14.9530172598288,1.1937677721721,8.92755269059683));
#314=CARTESIAN_POINT('Ctrl Pts',(14.9429562346109,1.30918708083477,8.7589658448941));
#315=CARTESIAN_POINT('Ctrl Pts',(14.9287498196129,1.46230663376117,8.38943440656663));
#316=CARTESIAN_POINT('Ctrl Pts',(14.9248115565993,1.5,8.18847903022444));
#317=CARTESIAN_POINT('Ctrl Pts',(14.9248115565993,1.5,8.00000011920929));
#318=CARTESIAN_POINT('Origin',(0.,0.,0.));
#319=CARTESIAN_POINT('',(-3.,-3.67394039744206E-16,6.));
#320=CARTESIAN_POINT('Origin',(0.,0.,6.));
#321=CARTESIAN_POINT('',(-3.00000004470348,-3.67394045218804E-16,18.));
#322=CARTESIAN_POINT('',(-3.00000004470348,-3.67394045218804E-16,0.));
#323=CARTESIAN_POINT('Origin',(0.,0.,18.));
#324=CARTESIAN_POINT('Origin',(0.,0.,18.));
#325=CARTESIAN_POINT('Origin',(0.,0.,0.));
#326=CARTESIAN_POINT('',(-9.00000013411045,-1.10218213565641E-15,0.));
#327=CARTESIAN_POINT('Origin',(0.,0.,0.));
#328=CARTESIAN_POINT('',(-9.00000013411045,-1.10218213565641E-15,6.));
#329=CARTESIAN_POINT('',(-9.00000013411045,-1.10218213565641E-15,0.));
#330=CARTESIAN_POINT('Origin',(0.,0.,6.));
#331=CARTESIAN_POINT('Origin',(0.,0.,6.));
#332=CARTESIAN_POINT('Origin',(0.,0.,0.));
#333=CARTESIAN_POINT('',(-15.,-1.83697019872103E-15,0.));
#334=CARTESIAN_POINT('Origin',(0.,0.,0.));
#335=CARTESIAN_POINT('Origin',(0.,0.,19.7));
#336=CARTESIAN_POINT('',(-14.7,1.80023079474661E-15,20.));
#337=CARTESIAN_POINT('Origin',(0.,0.,20.));
#338=CARTESIAN_POINT('',(-15.,-1.83697019872103E-15,19.7));
#339=CARTESIAN_POINT('Origin',(-14.7,-1.80023079474661E-15,19.7));
#340=CARTESIAN_POINT('Origin',(0.,0.,19.7));
#341=CARTESIAN_POINT('Origin',(0.,0.,0.));
#342=CARTESIAN_POINT('',(-15.,-1.83697019872103E-15,0.));
#343=CARTESIAN_POINT('Origin',(0.,0.,20.));
#344=UNCERTAINTY_MEASURE_WITH_UNIT(LENGTH_MEASURE(0.01),#348,
'DISTANCE_ACCURACY_VALUE',
'Maximum model space distance between geometric entities at asserted c
onnectivities');
#345=UNCERTAINTY_MEASURE_WITH_UNIT(LENGTH_MEASURE(0.01),#348,
'DISTANCE_ACCURACY_VALUE',
'Maximum model space distance between geometric entities at asserted c
onnectivities');
#346=(
GEOMETRIC_REPRESENTATION_CONTEXT(3)
GLOBAL_UNCERTAINTY_ASSIGNED_CONTEXT((#344))
GLOBAL_UNIT_ASSIGNED_CONTEXT((#348,#350,#351))
REPRESENTATION_CONTEXT('','3D')
);
#347=(
GEOMETRIC_REPRESENTATION_CONTEXT(3)
GLOBAL_UNCERTAINTY_ASSIGNED_CONTEXT((#345))
GLOBAL_UNIT_ASSIGNED_CONTEXT((#348,#350,#351))
REPRESENTATION_CONTEXT('','3D')
);
#348=(
LENGTH_UNIT()
NAMED_UNIT(*)
SI_UNIT(.MILLI.,.METRE.)
);
#349=(
LENGTH_UNIT()
NAMED_UNIT(*)
SI_UNIT($,.METRE.)
);
#350=(
NAMED_UNIT(*)
PLANE_ANGLE_UNIT()
SI_UNIT($,.RADIAN.)
);
#351=(
NAMED_UNIT(*)
SI_UNIT($,.STERADIAN.)
SOLID_ANGLE_UNIT()
);
#352=SHAPE_DEFINITION_REPRESENTATION(#353,#354);
#353=PRODUCT_DEFINITION_SHAPE('',$,#356);
#354=SHAPE_REPRESENTATION('',(#167),#346);
#355=PRODUCT_DEFINITION_CONTEXT('part definition',#360,'design');
#356=PRODUCT_DEFINITION('2026-05-16-17-34-07-880','volume_knob v1',#357,
#355);
#357=PRODUCT_DEFINITION_FORMATION('',$,#362);
#358=PRODUCT_RELATED_PRODUCT_CATEGORY('volume_knob v1','volume_knob v1',
(#362));
#359=APPLICATION_PROTOCOL_DEFINITION('international standard',
'automotive_design',2009,#360);
#360=APPLICATION_CONTEXT(
'Core Data for Automotive Mechanical Design Process');
#361=PRODUCT_CONTEXT('part definition',#360,'mechanical');
#362=PRODUCT('2026-05-16-17-34-07-880','volume_knob v1',$,(#361));
#363=PRESENTATION_STYLE_ASSIGNMENT((#364));
#364=SURFACE_STYLE_USAGE(.BOTH.,#365);
#365=SURFACE_SIDE_STYLE('',(#366));
#366=SURFACE_STYLE_FILL_AREA(#367);
#367=FILL_AREA_STYLE('Stal \X2\2014\X0\ satynowa',(#368));
#368=FILL_AREA_STYLE_COLOUR('Stal \X2\2014\X0\ satynowa',#369);
#369=COLOUR_RGB('Stal \X2\2014\X0\ satynowa',0.627450980392157,0.627450980392157,
0.627450980392157);
ENDSEC;
END-ISO-10303-21;
